M48
; DRILL file KiCad 10.0.3 date 2026-05-26T19:56:39
; FORMAT={-:-/ absolute / metric / decimal}
; #@! TF.CreationDate,2026-05-26T19:56:39-06:00
; #@! TF.GenerationSoftware,Kicad,Pcbnew,10.0.3
; #@! TF.FileFunction,MixedPlating,1,2
FMAT,2
METRIC
; #@! TA.AperFunction,Plated,PTH,ViaDrill
T1C0.800
; #@! TA.AperFunction,Plated,PTH,ComponentDrill
T2C0.800
; #@! TA.AperFunction,Plated,PTH,ComponentDrill
T3C0.900
; #@! TA.AperFunction,Plated,PTH,ComponentDrill
T4C1.000
; #@! TA.AperFunction,Plated,PTH,ComponentDrill
T5C1.300
%
G90
G05
T1
X17.78Y-27.94
X25.4Y-2.54
X27.94Y-22.86
X30.48Y-17.78
X43.18Y-12.7
T2
X12.0Y-7.27
X12.0Y-9.81
X12.0Y-12.35
X12.0Y-14.89
X12.0Y-27.59
X12.0Y-30.13
X12.0Y-32.67
X12.0Y-35.21
X14.54Y-7.27
X14.54Y-9.81
X14.54Y-12.35
X14.54Y-14.89
X14.54Y-27.59
X14.54Y-30.13
X14.54Y-32.67
X14.54Y-35.21
X20.0Y-6.0
X20.0Y-8.54
X20.0Y-11.08
X20.0Y-13.62
X20.0Y-16.16
X20.0Y-18.7
X20.0Y-21.24
X20.0Y-23.78
X20.0Y-26.32
X20.0Y-28.86
X20.0Y-31.4
X20.0Y-33.94
X20.0Y-36.48
X20.0Y-39.02
X20.0Y-41.56
X20.0Y-44.1
X22.54Y-6.0
X22.54Y-8.54
X22.54Y-11.08
X22.54Y-13.62
X22.54Y-16.16
X22.54Y-18.7
X22.54Y-21.24
X22.54Y-23.78
X22.54Y-26.32
X22.54Y-28.86
X22.54Y-31.4
X22.54Y-33.94
X22.54Y-36.48
X22.54Y-39.02
X22.54Y-41.56
X22.54Y-44.1
X55.0Y-13.0
X55.0Y-15.54
X55.0Y-18.08
X55.0Y-20.62
X55.0Y-23.16
X55.0Y-25.7
T3
X2.0Y-2.0
X2.0Y-4.5
X2.0Y-22.0
X2.0Y-24.5
X5.0Y-44.0
X5.0Y-46.5
X38.0Y-5.0
X38.0Y-7.5
X38.0Y-10.0
X38.0Y-12.5
X38.0Y-28.0
X38.0Y-30.5
X38.0Y-33.0
X38.0Y-35.5
T4
X63.0Y-17.0
X68.0Y-17.0
T5
X68.95Y-40.95
X68.95Y-47.05
X72.0Y-44.0
X75.05Y-40.95
X75.05Y-47.05
M30
