%TF.GenerationSoftware,KiCad,Pcbnew,10.0.3*%
%TF.CreationDate,2026-05-26T19:56:35-06:00*%
%TF.ProjectId,neolink-v1,6e656f6c-696e-46b2-9d76-312e6b696361,rev?*%
%TF.SameCoordinates,Original*%
%TF.FileFunction,Legend,Top*%
%TF.FilePolarity,Positive*%
%FSLAX46Y46*%
G04 Gerber Fmt 4.6, Leading zero omitted, Abs format (unit mm)*
G04 Created by KiCad (PCBNEW 10.0.3) date 2026-05-26 19:56:35*
%MOMM*%
%LPD*%
G01*
G04 APERTURE LIST*
%ADD10C,0.180000*%
%ADD11C,0.300000*%
G04 APERTURE END LIST*
D10*
X20200001Y-47417211D02*
X20600001Y-47417211D01*
X20771429Y-48045782D02*
X20200001Y-48045782D01*
X20200001Y-48045782D02*
X20200001Y-46845782D01*
X20200001Y-46845782D02*
X20771429Y-46845782D01*
X21228572Y-47988640D02*
X21400001Y-48045782D01*
X21400001Y-48045782D02*
X21685715Y-48045782D01*
X21685715Y-48045782D02*
X21800001Y-47988640D01*
X21800001Y-47988640D02*
X21857143Y-47931497D01*
X21857143Y-47931497D02*
X21914286Y-47817211D01*
X21914286Y-47817211D02*
X21914286Y-47702925D01*
X21914286Y-47702925D02*
X21857143Y-47588640D01*
X21857143Y-47588640D02*
X21800001Y-47531497D01*
X21800001Y-47531497D02*
X21685715Y-47474354D01*
X21685715Y-47474354D02*
X21457143Y-47417211D01*
X21457143Y-47417211D02*
X21342858Y-47360068D01*
X21342858Y-47360068D02*
X21285715Y-47302925D01*
X21285715Y-47302925D02*
X21228572Y-47188640D01*
X21228572Y-47188640D02*
X21228572Y-47074354D01*
X21228572Y-47074354D02*
X21285715Y-46960068D01*
X21285715Y-46960068D02*
X21342858Y-46902925D01*
X21342858Y-46902925D02*
X21457143Y-46845782D01*
X21457143Y-46845782D02*
X21742858Y-46845782D01*
X21742858Y-46845782D02*
X21914286Y-46902925D01*
X22428572Y-48045782D02*
X22428572Y-46845782D01*
X22428572Y-46845782D02*
X22885715Y-46845782D01*
X22885715Y-46845782D02*
X23000000Y-46902925D01*
X23000000Y-46902925D02*
X23057143Y-46960068D01*
X23057143Y-46960068D02*
X23114286Y-47074354D01*
X23114286Y-47074354D02*
X23114286Y-47245782D01*
X23114286Y-47245782D02*
X23057143Y-47360068D01*
X23057143Y-47360068D02*
X23000000Y-47417211D01*
X23000000Y-47417211D02*
X22885715Y-47474354D01*
X22885715Y-47474354D02*
X22428572Y-47474354D01*
X23514286Y-46845782D02*
X24257143Y-46845782D01*
X24257143Y-46845782D02*
X23857143Y-47302925D01*
X23857143Y-47302925D02*
X24028572Y-47302925D01*
X24028572Y-47302925D02*
X24142858Y-47360068D01*
X24142858Y-47360068D02*
X24200000Y-47417211D01*
X24200000Y-47417211D02*
X24257143Y-47531497D01*
X24257143Y-47531497D02*
X24257143Y-47817211D01*
X24257143Y-47817211D02*
X24200000Y-47931497D01*
X24200000Y-47931497D02*
X24142858Y-47988640D01*
X24142858Y-47988640D02*
X24028572Y-48045782D01*
X24028572Y-48045782D02*
X23685715Y-48045782D01*
X23685715Y-48045782D02*
X23571429Y-47988640D01*
X23571429Y-47988640D02*
X23514286Y-47931497D01*
X24714286Y-46960068D02*
X24771429Y-46902925D01*
X24771429Y-46902925D02*
X24885715Y-46845782D01*
X24885715Y-46845782D02*
X25171429Y-46845782D01*
X25171429Y-46845782D02*
X25285715Y-46902925D01*
X25285715Y-46902925D02*
X25342857Y-46960068D01*
X25342857Y-46960068D02*
X25400000Y-47074354D01*
X25400000Y-47074354D02*
X25400000Y-47188640D01*
X25400000Y-47188640D02*
X25342857Y-47360068D01*
X25342857Y-47360068D02*
X24657143Y-48045782D01*
X24657143Y-48045782D02*
X25400000Y-48045782D01*
X25914286Y-47588640D02*
X26828572Y-47588640D01*
X27342857Y-47988640D02*
X27514286Y-48045782D01*
X27514286Y-48045782D02*
X27800000Y-48045782D01*
X27800000Y-48045782D02*
X27914286Y-47988640D01*
X27914286Y-47988640D02*
X27971428Y-47931497D01*
X27971428Y-47931497D02*
X28028571Y-47817211D01*
X28028571Y-47817211D02*
X28028571Y-47702925D01*
X28028571Y-47702925D02*
X27971428Y-47588640D01*
X27971428Y-47588640D02*
X27914286Y-47531497D01*
X27914286Y-47531497D02*
X27800000Y-47474354D01*
X27800000Y-47474354D02*
X27571428Y-47417211D01*
X27571428Y-47417211D02*
X27457143Y-47360068D01*
X27457143Y-47360068D02*
X27400000Y-47302925D01*
X27400000Y-47302925D02*
X27342857Y-47188640D01*
X27342857Y-47188640D02*
X27342857Y-47074354D01*
X27342857Y-47074354D02*
X27400000Y-46960068D01*
X27400000Y-46960068D02*
X27457143Y-46902925D01*
X27457143Y-46902925D02*
X27571428Y-46845782D01*
X27571428Y-46845782D02*
X27857143Y-46845782D01*
X27857143Y-46845782D02*
X28028571Y-46902925D01*
X28428571Y-46845782D02*
X29171428Y-46845782D01*
X29171428Y-46845782D02*
X28771428Y-47302925D01*
X28771428Y-47302925D02*
X28942857Y-47302925D01*
X28942857Y-47302925D02*
X29057143Y-47360068D01*
X29057143Y-47360068D02*
X29114285Y-47417211D01*
X29114285Y-47417211D02*
X29171428Y-47531497D01*
X29171428Y-47531497D02*
X29171428Y-47817211D01*
X29171428Y-47817211D02*
X29114285Y-47931497D01*
X29114285Y-47931497D02*
X29057143Y-47988640D01*
X29057143Y-47988640D02*
X28942857Y-48045782D01*
X28942857Y-48045782D02*
X28600000Y-48045782D01*
X28600000Y-48045782D02*
X28485714Y-47988640D01*
X28485714Y-47988640D02*
X28428571Y-47931497D01*
X30485714Y-46845782D02*
X30771428Y-48045782D01*
X30771428Y-48045782D02*
X31000000Y-47188640D01*
X31000000Y-47188640D02*
X31228571Y-48045782D01*
X31228571Y-48045782D02*
X31514286Y-46845782D01*
X32485715Y-48045782D02*
X32485715Y-47417211D01*
X32485715Y-47417211D02*
X32428572Y-47302925D01*
X32428572Y-47302925D02*
X32314286Y-47245782D01*
X32314286Y-47245782D02*
X32085715Y-47245782D01*
X32085715Y-47245782D02*
X31971429Y-47302925D01*
X32485715Y-47988640D02*
X32371429Y-48045782D01*
X32371429Y-48045782D02*
X32085715Y-48045782D01*
X32085715Y-48045782D02*
X31971429Y-47988640D01*
X31971429Y-47988640D02*
X31914286Y-47874354D01*
X31914286Y-47874354D02*
X31914286Y-47760068D01*
X31914286Y-47760068D02*
X31971429Y-47645782D01*
X31971429Y-47645782D02*
X32085715Y-47588640D01*
X32085715Y-47588640D02*
X32371429Y-47588640D01*
X32371429Y-47588640D02*
X32485715Y-47531497D01*
X32942857Y-47245782D02*
X33228571Y-48045782D01*
X33228571Y-48045782D02*
X33514286Y-47245782D01*
X34428572Y-47988640D02*
X34314286Y-48045782D01*
X34314286Y-48045782D02*
X34085715Y-48045782D01*
X34085715Y-48045782D02*
X33971429Y-47988640D01*
X33971429Y-47988640D02*
X33914286Y-47874354D01*
X33914286Y-47874354D02*
X33914286Y-47417211D01*
X33914286Y-47417211D02*
X33971429Y-47302925D01*
X33971429Y-47302925D02*
X34085715Y-47245782D01*
X34085715Y-47245782D02*
X34314286Y-47245782D01*
X34314286Y-47245782D02*
X34428572Y-47302925D01*
X34428572Y-47302925D02*
X34485715Y-47417211D01*
X34485715Y-47417211D02*
X34485715Y-47531497D01*
X34485715Y-47531497D02*
X33914286Y-47645782D01*
X34942857Y-47988640D02*
X35057143Y-48045782D01*
X35057143Y-48045782D02*
X35285714Y-48045782D01*
X35285714Y-48045782D02*
X35400000Y-47988640D01*
X35400000Y-47988640D02*
X35457143Y-47874354D01*
X35457143Y-47874354D02*
X35457143Y-47817211D01*
X35457143Y-47817211D02*
X35400000Y-47702925D01*
X35400000Y-47702925D02*
X35285714Y-47645782D01*
X35285714Y-47645782D02*
X35114286Y-47645782D01*
X35114286Y-47645782D02*
X35000000Y-47588640D01*
X35000000Y-47588640D02*
X34942857Y-47474354D01*
X34942857Y-47474354D02*
X34942857Y-47417211D01*
X34942857Y-47417211D02*
X35000000Y-47302925D01*
X35000000Y-47302925D02*
X35114286Y-47245782D01*
X35114286Y-47245782D02*
X35285714Y-47245782D01*
X35285714Y-47245782D02*
X35400000Y-47302925D01*
X35971429Y-48045782D02*
X35971429Y-46845782D01*
X36485715Y-48045782D02*
X36485715Y-47417211D01*
X36485715Y-47417211D02*
X36428572Y-47302925D01*
X36428572Y-47302925D02*
X36314286Y-47245782D01*
X36314286Y-47245782D02*
X36142857Y-47245782D01*
X36142857Y-47245782D02*
X36028572Y-47302925D01*
X36028572Y-47302925D02*
X35971429Y-47360068D01*
X37571429Y-48045782D02*
X37571429Y-47417211D01*
X37571429Y-47417211D02*
X37514286Y-47302925D01*
X37514286Y-47302925D02*
X37400000Y-47245782D01*
X37400000Y-47245782D02*
X37171429Y-47245782D01*
X37171429Y-47245782D02*
X37057143Y-47302925D01*
X37571429Y-47988640D02*
X37457143Y-48045782D01*
X37457143Y-48045782D02*
X37171429Y-48045782D01*
X37171429Y-48045782D02*
X37057143Y-47988640D01*
X37057143Y-47988640D02*
X37000000Y-47874354D01*
X37000000Y-47874354D02*
X37000000Y-47760068D01*
X37000000Y-47760068D02*
X37057143Y-47645782D01*
X37057143Y-47645782D02*
X37171429Y-47588640D01*
X37171429Y-47588640D02*
X37457143Y-47588640D01*
X37457143Y-47588640D02*
X37571429Y-47531497D01*
X38142857Y-48045782D02*
X38142857Y-47245782D01*
X38142857Y-47474354D02*
X38200000Y-47360068D01*
X38200000Y-47360068D02*
X38257143Y-47302925D01*
X38257143Y-47302925D02*
X38371428Y-47245782D01*
X38371428Y-47245782D02*
X38485714Y-47245782D01*
X39342857Y-47988640D02*
X39228571Y-48045782D01*
X39228571Y-48045782D02*
X39000000Y-48045782D01*
X39000000Y-48045782D02*
X38885714Y-47988640D01*
X38885714Y-47988640D02*
X38828571Y-47874354D01*
X38828571Y-47874354D02*
X38828571Y-47417211D01*
X38828571Y-47417211D02*
X38885714Y-47302925D01*
X38885714Y-47302925D02*
X39000000Y-47245782D01*
X39000000Y-47245782D02*
X39228571Y-47245782D01*
X39228571Y-47245782D02*
X39342857Y-47302925D01*
X39342857Y-47302925D02*
X39400000Y-47417211D01*
X39400000Y-47417211D02*
X39400000Y-47531497D01*
X39400000Y-47531497D02*
X38828571Y-47645782D01*
X40771428Y-47988640D02*
X40942857Y-48045782D01*
X40942857Y-48045782D02*
X41228571Y-48045782D01*
X41228571Y-48045782D02*
X41342857Y-47988640D01*
X41342857Y-47988640D02*
X41399999Y-47931497D01*
X41399999Y-47931497D02*
X41457142Y-47817211D01*
X41457142Y-47817211D02*
X41457142Y-47702925D01*
X41457142Y-47702925D02*
X41399999Y-47588640D01*
X41399999Y-47588640D02*
X41342857Y-47531497D01*
X41342857Y-47531497D02*
X41228571Y-47474354D01*
X41228571Y-47474354D02*
X40999999Y-47417211D01*
X40999999Y-47417211D02*
X40885714Y-47360068D01*
X40885714Y-47360068D02*
X40828571Y-47302925D01*
X40828571Y-47302925D02*
X40771428Y-47188640D01*
X40771428Y-47188640D02*
X40771428Y-47074354D01*
X40771428Y-47074354D02*
X40828571Y-46960068D01*
X40828571Y-46960068D02*
X40885714Y-46902925D01*
X40885714Y-46902925D02*
X40999999Y-46845782D01*
X40999999Y-46845782D02*
X41285714Y-46845782D01*
X41285714Y-46845782D02*
X41457142Y-46902925D01*
X41971428Y-48045782D02*
X41971428Y-46845782D01*
X42485714Y-48045782D02*
X42485714Y-47417211D01*
X42485714Y-47417211D02*
X42428571Y-47302925D01*
X42428571Y-47302925D02*
X42314285Y-47245782D01*
X42314285Y-47245782D02*
X42142856Y-47245782D01*
X42142856Y-47245782D02*
X42028571Y-47302925D01*
X42028571Y-47302925D02*
X41971428Y-47360068D01*
X43057142Y-48045782D02*
X43057142Y-47245782D01*
X43057142Y-46845782D02*
X42999999Y-46902925D01*
X42999999Y-46902925D02*
X43057142Y-46960068D01*
X43057142Y-46960068D02*
X43114285Y-46902925D01*
X43114285Y-46902925D02*
X43057142Y-46845782D01*
X43057142Y-46845782D02*
X43057142Y-46960068D01*
X44085714Y-47988640D02*
X43971428Y-48045782D01*
X43971428Y-48045782D02*
X43742857Y-48045782D01*
X43742857Y-48045782D02*
X43628571Y-47988640D01*
X43628571Y-47988640D02*
X43571428Y-47874354D01*
X43571428Y-47874354D02*
X43571428Y-47417211D01*
X43571428Y-47417211D02*
X43628571Y-47302925D01*
X43628571Y-47302925D02*
X43742857Y-47245782D01*
X43742857Y-47245782D02*
X43971428Y-47245782D01*
X43971428Y-47245782D02*
X44085714Y-47302925D01*
X44085714Y-47302925D02*
X44142857Y-47417211D01*
X44142857Y-47417211D02*
X44142857Y-47531497D01*
X44142857Y-47531497D02*
X43571428Y-47645782D01*
X44828570Y-48045782D02*
X44714285Y-47988640D01*
X44714285Y-47988640D02*
X44657142Y-47874354D01*
X44657142Y-47874354D02*
X44657142Y-46845782D01*
X45799999Y-48045782D02*
X45799999Y-46845782D01*
X45799999Y-47988640D02*
X45685713Y-48045782D01*
X45685713Y-48045782D02*
X45457141Y-48045782D01*
X45457141Y-48045782D02*
X45342856Y-47988640D01*
X45342856Y-47988640D02*
X45285713Y-47931497D01*
X45285713Y-47931497D02*
X45228570Y-47817211D01*
X45228570Y-47817211D02*
X45228570Y-47474354D01*
X45228570Y-47474354D02*
X45285713Y-47360068D01*
X45285713Y-47360068D02*
X45342856Y-47302925D01*
X45342856Y-47302925D02*
X45457141Y-47245782D01*
X45457141Y-47245782D02*
X45685713Y-47245782D01*
X45685713Y-47245782D02*
X45799999Y-47302925D01*
D11*
X26571428Y-45909638D02*
X26571428Y-43909638D01*
X26571428Y-43909638D02*
X27714285Y-45909638D01*
X27714285Y-45909638D02*
X27714285Y-43909638D01*
X28666666Y-44862019D02*
X29333333Y-44862019D01*
X29619047Y-45909638D02*
X28666666Y-45909638D01*
X28666666Y-45909638D02*
X28666666Y-43909638D01*
X28666666Y-43909638D02*
X29619047Y-43909638D01*
X30857142Y-43909638D02*
X31238095Y-43909638D01*
X31238095Y-43909638D02*
X31428571Y-44004876D01*
X31428571Y-44004876D02*
X31619047Y-44195352D01*
X31619047Y-44195352D02*
X31714285Y-44576304D01*
X31714285Y-44576304D02*
X31714285Y-45242971D01*
X31714285Y-45242971D02*
X31619047Y-45623923D01*
X31619047Y-45623923D02*
X31428571Y-45814400D01*
X31428571Y-45814400D02*
X31238095Y-45909638D01*
X31238095Y-45909638D02*
X30857142Y-45909638D01*
X30857142Y-45909638D02*
X30666666Y-45814400D01*
X30666666Y-45814400D02*
X30476190Y-45623923D01*
X30476190Y-45623923D02*
X30380952Y-45242971D01*
X30380952Y-45242971D02*
X30380952Y-44576304D01*
X30380952Y-44576304D02*
X30476190Y-44195352D01*
X30476190Y-44195352D02*
X30666666Y-44004876D01*
X30666666Y-44004876D02*
X30857142Y-43909638D01*
X33523809Y-45909638D02*
X32571428Y-45909638D01*
X32571428Y-45909638D02*
X32571428Y-43909638D01*
X34190476Y-45909638D02*
X34190476Y-43909638D01*
X35142857Y-45909638D02*
X35142857Y-43909638D01*
X35142857Y-43909638D02*
X36285714Y-45909638D01*
X36285714Y-45909638D02*
X36285714Y-43909638D01*
X37238095Y-45909638D02*
X37238095Y-43909638D01*
X38380952Y-45909638D02*
X37523809Y-44766780D01*
X38380952Y-43909638D02*
X37238095Y-45052495D01*
X40476191Y-43909638D02*
X41142857Y-45909638D01*
X41142857Y-45909638D02*
X41809524Y-43909638D01*
X43523810Y-45909638D02*
X42380953Y-45909638D01*
X42952381Y-45909638D02*
X42952381Y-43909638D01*
X42952381Y-43909638D02*
X42761905Y-44195352D01*
X42761905Y-44195352D02*
X42571429Y-44385828D01*
X42571429Y-44385828D02*
X42380953Y-44481066D01*
M02*
