%TF.GenerationSoftware,KiCad,Pcbnew,10.0.3*%
%TF.CreationDate,2026-05-26T15:00:49-06:00*%
%TF.ProjectId,neolink-v1,6e656f6c-696e-46b2-9d76-312e6b696361,rev?*%
%TF.SameCoordinates,Original*%
%TF.FileFunction,Soldermask,Top*%
%TF.FilePolarity,Negative*%
%FSLAX46Y46*%
G04 Gerber Fmt 4.6, Leading zero omitted, Abs format (unit mm)*
G04 Created by KiCad (PCBNEW 10.0.3) date 2026-05-26 15:00:49*
%MOMM*%
%LPD*%
G01*
G04 APERTURE LIST*
%ADD10R,1.600000X1.600000*%
%ADD11C,1.600000*%
%ADD12R,2.000000X2.000000*%
%ADD13C,2.000000*%
%ADD14R,1.300000X1.300000*%
%ADD15C,1.300000*%
G04 APERTURE END LIST*
D10*
%TO.C,J7*%
X70000000Y-5000000D03*
D11*
X70000000Y-7500000D03*
%TD*%
D10*
%TO.C,J8*%
X70000000Y-14000000D03*
D11*
X70000000Y-16500000D03*
%TD*%
D12*
%TO.C,C1*%
X79000000Y-14000000D03*
D13*
X84000000Y-14000000D03*
%TD*%
%TO.C,J10*%
X97000000Y-62000000D03*
X93950000Y-58950000D03*
X100050000Y-58950000D03*
X93950000Y-65050000D03*
X100050000Y-65050000D03*
%TD*%
D14*
%TO.C,J1*%
X50000000Y-18000000D03*
D15*
X52540000Y-18000000D03*
X50000000Y-20540000D03*
X52540000Y-20540000D03*
X50000000Y-23080000D03*
X52540000Y-23080000D03*
X50000000Y-25620000D03*
X52540000Y-25620000D03*
X50000000Y-28160000D03*
X52540000Y-28160000D03*
X50000000Y-30700000D03*
X52540000Y-30700000D03*
X50000000Y-33240000D03*
X52540000Y-33240000D03*
X50000000Y-35780000D03*
X52540000Y-35780000D03*
X50000000Y-38320000D03*
X52540000Y-38320000D03*
X50000000Y-40860000D03*
X52540000Y-40860000D03*
X50000000Y-43400000D03*
X52540000Y-43400000D03*
X50000000Y-45940000D03*
X52540000Y-45940000D03*
X50000000Y-48480000D03*
X52540000Y-48480000D03*
X50000000Y-51020000D03*
X52540000Y-51020000D03*
X50000000Y-53560000D03*
X52540000Y-53560000D03*
X50000000Y-56100000D03*
X52540000Y-56100000D03*
%TD*%
D14*
%TO.C,J3*%
X5000000Y-5000000D03*
D15*
X7540000Y-5000000D03*
X5000000Y-7540000D03*
X7540000Y-7540000D03*
X5000000Y-10080000D03*
X7540000Y-10080000D03*
X5000000Y-12620000D03*
X7540000Y-12620000D03*
%TD*%
D10*
%TO.C,J6*%
X60000000Y-22000000D03*
D11*
X60000000Y-24500000D03*
X60000000Y-27000000D03*
X60000000Y-29500000D03*
%TD*%
D10*
%TO.C,J5*%
X60000000Y-5000000D03*
D11*
X60000000Y-7500000D03*
X60000000Y-10000000D03*
X60000000Y-12500000D03*
%TD*%
D14*
%TO.C,J2*%
X90000000Y-14190000D03*
D15*
X90000000Y-16730000D03*
X90000000Y-19270000D03*
X90000000Y-21810000D03*
X90000000Y-24350000D03*
X90000000Y-26890000D03*
%TD*%
D14*
%TO.C,J4*%
X5000000Y-22000000D03*
D15*
X7540000Y-22000000D03*
X5000000Y-24540000D03*
X7540000Y-24540000D03*
X5000000Y-27080000D03*
X7540000Y-27080000D03*
X5000000Y-29620000D03*
X7540000Y-29620000D03*
%TD*%
D10*
%TO.C,J9*%
X5000000Y-67000000D03*
D11*
X5000000Y-69500000D03*
%TD*%
M02*
