G04 #@! TF.GenerationSoftware,KiCad,Pcbnew,10.0.3*
G04 #@! TF.CreationDate,2026-05-27T13:43:45-06:00*
G04 #@! TF.ProjectId,neolink-v1,6e656f6c-696e-46b2-9d76-312e6b696361,rev?*
G04 #@! TF.SameCoordinates,Original*
G04 #@! TF.FileFunction,Legend,Top*
G04 #@! TF.FilePolarity,Positive*
%FSLAX46Y46*%
G04 Gerber Fmt 4.6, Leading zero omitted, Abs format (unit mm)*
G04 Created by KiCad (PCBNEW 10.0.3) date 2026-05-27 13:43:45*
%MOMM*%
%LPD*%
G01*
G04 APERTURE LIST*
%ADD10C,0.150000*%
%ADD11C,0.180000*%
%ADD12C,0.300000*%
G04 APERTURE END LIST*
D10*
X5749523Y-20243247D02*
X5863809Y-20281342D01*
X5863809Y-20281342D02*
X5901904Y-20319438D01*
X5901904Y-20319438D02*
X5940000Y-20395628D01*
X5940000Y-20395628D02*
X5940000Y-20509914D01*
X5940000Y-20509914D02*
X5901904Y-20586104D01*
X5901904Y-20586104D02*
X5863809Y-20624200D01*
X5863809Y-20624200D02*
X5787619Y-20662295D01*
X5787619Y-20662295D02*
X5482857Y-20662295D01*
X5482857Y-20662295D02*
X5482857Y-19862295D01*
X5482857Y-19862295D02*
X5749523Y-19862295D01*
X5749523Y-19862295D02*
X5825714Y-19900390D01*
X5825714Y-19900390D02*
X5863809Y-19938485D01*
X5863809Y-19938485D02*
X5901904Y-20014676D01*
X5901904Y-20014676D02*
X5901904Y-20090866D01*
X5901904Y-20090866D02*
X5863809Y-20167057D01*
X5863809Y-20167057D02*
X5825714Y-20205152D01*
X5825714Y-20205152D02*
X5749523Y-20243247D01*
X5749523Y-20243247D02*
X5482857Y-20243247D01*
X6244761Y-20433723D02*
X6625714Y-20433723D01*
X6168571Y-20662295D02*
X6435238Y-19862295D01*
X6435238Y-19862295D02*
X6701904Y-20662295D01*
X6854285Y-19862295D02*
X7311428Y-19862295D01*
X7082856Y-20662295D02*
X7082856Y-19862295D01*
X6187619Y-21262295D02*
X5806667Y-21262295D01*
X5806667Y-21262295D02*
X5768571Y-21643247D01*
X5768571Y-21643247D02*
X5806667Y-21605152D01*
X5806667Y-21605152D02*
X5882857Y-21567057D01*
X5882857Y-21567057D02*
X6073333Y-21567057D01*
X6073333Y-21567057D02*
X6149524Y-21605152D01*
X6149524Y-21605152D02*
X6187619Y-21643247D01*
X6187619Y-21643247D02*
X6225714Y-21719438D01*
X6225714Y-21719438D02*
X6225714Y-21909914D01*
X6225714Y-21909914D02*
X6187619Y-21986104D01*
X6187619Y-21986104D02*
X6149524Y-22024200D01*
X6149524Y-22024200D02*
X6073333Y-22062295D01*
X6073333Y-22062295D02*
X5882857Y-22062295D01*
X5882857Y-22062295D02*
X5806667Y-22024200D01*
X5806667Y-22024200D02*
X5768571Y-21986104D01*
X6454286Y-21262295D02*
X6720953Y-22062295D01*
X6720953Y-22062295D02*
X6987619Y-21262295D01*
X5730476Y-22440390D02*
X5654286Y-22402295D01*
X5654286Y-22402295D02*
X5540000Y-22402295D01*
X5540000Y-22402295D02*
X5425714Y-22440390D01*
X5425714Y-22440390D02*
X5349524Y-22516580D01*
X5349524Y-22516580D02*
X5311429Y-22592771D01*
X5311429Y-22592771D02*
X5273333Y-22745152D01*
X5273333Y-22745152D02*
X5273333Y-22859438D01*
X5273333Y-22859438D02*
X5311429Y-23011819D01*
X5311429Y-23011819D02*
X5349524Y-23088009D01*
X5349524Y-23088009D02*
X5425714Y-23164200D01*
X5425714Y-23164200D02*
X5540000Y-23202295D01*
X5540000Y-23202295D02*
X5616191Y-23202295D01*
X5616191Y-23202295D02*
X5730476Y-23164200D01*
X5730476Y-23164200D02*
X5768572Y-23126104D01*
X5768572Y-23126104D02*
X5768572Y-22859438D01*
X5768572Y-22859438D02*
X5616191Y-22859438D01*
X6111429Y-23202295D02*
X6111429Y-22402295D01*
X6111429Y-22402295D02*
X6568572Y-23202295D01*
X6568572Y-23202295D02*
X6568572Y-22402295D01*
X6949524Y-23202295D02*
X6949524Y-22402295D01*
X6949524Y-22402295D02*
X7140000Y-22402295D01*
X7140000Y-22402295D02*
X7254286Y-22440390D01*
X7254286Y-22440390D02*
X7330476Y-22516580D01*
X7330476Y-22516580D02*
X7368571Y-22592771D01*
X7368571Y-22592771D02*
X7406667Y-22745152D01*
X7406667Y-22745152D02*
X7406667Y-22859438D01*
X7406667Y-22859438D02*
X7368571Y-23011819D01*
X7368571Y-23011819D02*
X7330476Y-23088009D01*
X7330476Y-23088009D02*
X7254286Y-23164200D01*
X7254286Y-23164200D02*
X7140000Y-23202295D01*
X7140000Y-23202295D02*
X6949524Y-23202295D01*
X5730476Y-23840390D02*
X5654286Y-23802295D01*
X5654286Y-23802295D02*
X5540000Y-23802295D01*
X5540000Y-23802295D02*
X5425714Y-23840390D01*
X5425714Y-23840390D02*
X5349524Y-23916580D01*
X5349524Y-23916580D02*
X5311429Y-23992771D01*
X5311429Y-23992771D02*
X5273333Y-24145152D01*
X5273333Y-24145152D02*
X5273333Y-24259438D01*
X5273333Y-24259438D02*
X5311429Y-24411819D01*
X5311429Y-24411819D02*
X5349524Y-24488009D01*
X5349524Y-24488009D02*
X5425714Y-24564200D01*
X5425714Y-24564200D02*
X5540000Y-24602295D01*
X5540000Y-24602295D02*
X5616191Y-24602295D01*
X5616191Y-24602295D02*
X5730476Y-24564200D01*
X5730476Y-24564200D02*
X5768572Y-24526104D01*
X5768572Y-24526104D02*
X5768572Y-24259438D01*
X5768572Y-24259438D02*
X5616191Y-24259438D01*
X6111429Y-24602295D02*
X6111429Y-23802295D01*
X6111429Y-23802295D02*
X6568572Y-24602295D01*
X6568572Y-24602295D02*
X6568572Y-23802295D01*
X6949524Y-24602295D02*
X6949524Y-23802295D01*
X6949524Y-23802295D02*
X7140000Y-23802295D01*
X7140000Y-23802295D02*
X7254286Y-23840390D01*
X7254286Y-23840390D02*
X7330476Y-23916580D01*
X7330476Y-23916580D02*
X7368571Y-23992771D01*
X7368571Y-23992771D02*
X7406667Y-24145152D01*
X7406667Y-24145152D02*
X7406667Y-24259438D01*
X7406667Y-24259438D02*
X7368571Y-24411819D01*
X7368571Y-24411819D02*
X7330476Y-24488009D01*
X7330476Y-24488009D02*
X7254286Y-24564200D01*
X7254286Y-24564200D02*
X7140000Y-24602295D01*
X7140000Y-24602295D02*
X6949524Y-24602295D01*
X4778095Y-24980390D02*
X4701905Y-24942295D01*
X4701905Y-24942295D02*
X4587619Y-24942295D01*
X4587619Y-24942295D02*
X4473333Y-24980390D01*
X4473333Y-24980390D02*
X4397143Y-25056580D01*
X4397143Y-25056580D02*
X4359048Y-25132771D01*
X4359048Y-25132771D02*
X4320952Y-25285152D01*
X4320952Y-25285152D02*
X4320952Y-25399438D01*
X4320952Y-25399438D02*
X4359048Y-25551819D01*
X4359048Y-25551819D02*
X4397143Y-25628009D01*
X4397143Y-25628009D02*
X4473333Y-25704200D01*
X4473333Y-25704200D02*
X4587619Y-25742295D01*
X4587619Y-25742295D02*
X4663810Y-25742295D01*
X4663810Y-25742295D02*
X4778095Y-25704200D01*
X4778095Y-25704200D02*
X4816191Y-25666104D01*
X4816191Y-25666104D02*
X4816191Y-25399438D01*
X4816191Y-25399438D02*
X4663810Y-25399438D01*
X5159048Y-25742295D02*
X5159048Y-24942295D01*
X5159048Y-24942295D02*
X5463810Y-24942295D01*
X5463810Y-24942295D02*
X5540000Y-24980390D01*
X5540000Y-24980390D02*
X5578095Y-25018485D01*
X5578095Y-25018485D02*
X5616191Y-25094676D01*
X5616191Y-25094676D02*
X5616191Y-25208961D01*
X5616191Y-25208961D02*
X5578095Y-25285152D01*
X5578095Y-25285152D02*
X5540000Y-25323247D01*
X5540000Y-25323247D02*
X5463810Y-25361342D01*
X5463810Y-25361342D02*
X5159048Y-25361342D01*
X5959048Y-25742295D02*
X5959048Y-24942295D01*
X6492381Y-24942295D02*
X6644762Y-24942295D01*
X6644762Y-24942295D02*
X6720952Y-24980390D01*
X6720952Y-24980390D02*
X6797143Y-25056580D01*
X6797143Y-25056580D02*
X6835238Y-25208961D01*
X6835238Y-25208961D02*
X6835238Y-25475628D01*
X6835238Y-25475628D02*
X6797143Y-25628009D01*
X6797143Y-25628009D02*
X6720952Y-25704200D01*
X6720952Y-25704200D02*
X6644762Y-25742295D01*
X6644762Y-25742295D02*
X6492381Y-25742295D01*
X6492381Y-25742295D02*
X6416190Y-25704200D01*
X6416190Y-25704200D02*
X6340000Y-25628009D01*
X6340000Y-25628009D02*
X6301904Y-25475628D01*
X6301904Y-25475628D02*
X6301904Y-25208961D01*
X6301904Y-25208961D02*
X6340000Y-25056580D01*
X6340000Y-25056580D02*
X6416190Y-24980390D01*
X6416190Y-24980390D02*
X6492381Y-24942295D01*
X7139999Y-25018485D02*
X7178095Y-24980390D01*
X7178095Y-24980390D02*
X7254285Y-24942295D01*
X7254285Y-24942295D02*
X7444761Y-24942295D01*
X7444761Y-24942295D02*
X7520952Y-24980390D01*
X7520952Y-24980390D02*
X7559047Y-25018485D01*
X7559047Y-25018485D02*
X7597142Y-25094676D01*
X7597142Y-25094676D02*
X7597142Y-25170866D01*
X7597142Y-25170866D02*
X7559047Y-25285152D01*
X7559047Y-25285152D02*
X7101904Y-25742295D01*
X7101904Y-25742295D02*
X7597142Y-25742295D01*
X8359047Y-25742295D02*
X7901904Y-25742295D01*
X8130476Y-25742295D02*
X8130476Y-24942295D01*
X8130476Y-24942295D02*
X8054285Y-25056580D01*
X8054285Y-25056580D02*
X7978095Y-25132771D01*
X7978095Y-25132771D02*
X7901904Y-25170866D01*
X3806667Y-27142295D02*
X3806667Y-26342295D01*
X3806667Y-26342295D02*
X3997143Y-26342295D01*
X3997143Y-26342295D02*
X4111429Y-26380390D01*
X4111429Y-26380390D02*
X4187619Y-26456580D01*
X4187619Y-26456580D02*
X4225714Y-26532771D01*
X4225714Y-26532771D02*
X4263810Y-26685152D01*
X4263810Y-26685152D02*
X4263810Y-26799438D01*
X4263810Y-26799438D02*
X4225714Y-26951819D01*
X4225714Y-26951819D02*
X4187619Y-27028009D01*
X4187619Y-27028009D02*
X4111429Y-27104200D01*
X4111429Y-27104200D02*
X3997143Y-27142295D01*
X3997143Y-27142295D02*
X3806667Y-27142295D01*
X4606667Y-27142295D02*
X4606667Y-26342295D01*
X4606667Y-26342295D02*
X5063810Y-27142295D01*
X5063810Y-27142295D02*
X5063810Y-26342295D01*
X5673333Y-27447057D02*
X5635238Y-27408961D01*
X5635238Y-27408961D02*
X5559047Y-27294676D01*
X5559047Y-27294676D02*
X5520952Y-27218485D01*
X5520952Y-27218485D02*
X5482857Y-27104200D01*
X5482857Y-27104200D02*
X5444762Y-26913723D01*
X5444762Y-26913723D02*
X5444762Y-26761342D01*
X5444762Y-26761342D02*
X5482857Y-26570866D01*
X5482857Y-26570866D02*
X5520952Y-26456580D01*
X5520952Y-26456580D02*
X5559047Y-26380390D01*
X5559047Y-26380390D02*
X5635238Y-26266104D01*
X5635238Y-26266104D02*
X5673333Y-26228009D01*
X5978095Y-27142295D02*
X5978095Y-26342295D01*
X6511428Y-26342295D02*
X6663809Y-26342295D01*
X6663809Y-26342295D02*
X6739999Y-26380390D01*
X6739999Y-26380390D02*
X6816190Y-26456580D01*
X6816190Y-26456580D02*
X6854285Y-26608961D01*
X6854285Y-26608961D02*
X6854285Y-26875628D01*
X6854285Y-26875628D02*
X6816190Y-27028009D01*
X6816190Y-27028009D02*
X6739999Y-27104200D01*
X6739999Y-27104200D02*
X6663809Y-27142295D01*
X6663809Y-27142295D02*
X6511428Y-27142295D01*
X6511428Y-27142295D02*
X6435237Y-27104200D01*
X6435237Y-27104200D02*
X6359047Y-27028009D01*
X6359047Y-27028009D02*
X6320951Y-26875628D01*
X6320951Y-26875628D02*
X6320951Y-26608961D01*
X6320951Y-26608961D02*
X6359047Y-26456580D01*
X6359047Y-26456580D02*
X6435237Y-26380390D01*
X6435237Y-26380390D02*
X6511428Y-26342295D01*
X7616189Y-27142295D02*
X7159046Y-27142295D01*
X7387618Y-27142295D02*
X7387618Y-26342295D01*
X7387618Y-26342295D02*
X7311427Y-26456580D01*
X7311427Y-26456580D02*
X7235237Y-26532771D01*
X7235237Y-26532771D02*
X7159046Y-26570866D01*
X7997142Y-27142295D02*
X8149523Y-27142295D01*
X8149523Y-27142295D02*
X8225713Y-27104200D01*
X8225713Y-27104200D02*
X8263809Y-27066104D01*
X8263809Y-27066104D02*
X8339999Y-26951819D01*
X8339999Y-26951819D02*
X8378094Y-26799438D01*
X8378094Y-26799438D02*
X8378094Y-26494676D01*
X8378094Y-26494676D02*
X8339999Y-26418485D01*
X8339999Y-26418485D02*
X8301904Y-26380390D01*
X8301904Y-26380390D02*
X8225713Y-26342295D01*
X8225713Y-26342295D02*
X8073332Y-26342295D01*
X8073332Y-26342295D02*
X7997142Y-26380390D01*
X7997142Y-26380390D02*
X7959047Y-26418485D01*
X7959047Y-26418485D02*
X7920951Y-26494676D01*
X7920951Y-26494676D02*
X7920951Y-26685152D01*
X7920951Y-26685152D02*
X7959047Y-26761342D01*
X7959047Y-26761342D02*
X7997142Y-26799438D01*
X7997142Y-26799438D02*
X8073332Y-26837533D01*
X8073332Y-26837533D02*
X8225713Y-26837533D01*
X8225713Y-26837533D02*
X8301904Y-26799438D01*
X8301904Y-26799438D02*
X8339999Y-26761342D01*
X8339999Y-26761342D02*
X8378094Y-26685152D01*
X8644761Y-27447057D02*
X8682856Y-27408961D01*
X8682856Y-27408961D02*
X8759047Y-27294676D01*
X8759047Y-27294676D02*
X8797142Y-27218485D01*
X8797142Y-27218485D02*
X8835237Y-27104200D01*
X8835237Y-27104200D02*
X8873333Y-26913723D01*
X8873333Y-26913723D02*
X8873333Y-26761342D01*
X8873333Y-26761342D02*
X8835237Y-26570866D01*
X8835237Y-26570866D02*
X8797142Y-26456580D01*
X8797142Y-26456580D02*
X8759047Y-26380390D01*
X8759047Y-26380390D02*
X8682856Y-26266104D01*
X8682856Y-26266104D02*
X8644761Y-26228009D01*
X4778095Y-27520390D02*
X4701905Y-27482295D01*
X4701905Y-27482295D02*
X4587619Y-27482295D01*
X4587619Y-27482295D02*
X4473333Y-27520390D01*
X4473333Y-27520390D02*
X4397143Y-27596580D01*
X4397143Y-27596580D02*
X4359048Y-27672771D01*
X4359048Y-27672771D02*
X4320952Y-27825152D01*
X4320952Y-27825152D02*
X4320952Y-27939438D01*
X4320952Y-27939438D02*
X4359048Y-28091819D01*
X4359048Y-28091819D02*
X4397143Y-28168009D01*
X4397143Y-28168009D02*
X4473333Y-28244200D01*
X4473333Y-28244200D02*
X4587619Y-28282295D01*
X4587619Y-28282295D02*
X4663810Y-28282295D01*
X4663810Y-28282295D02*
X4778095Y-28244200D01*
X4778095Y-28244200D02*
X4816191Y-28206104D01*
X4816191Y-28206104D02*
X4816191Y-27939438D01*
X4816191Y-27939438D02*
X4663810Y-27939438D01*
X5159048Y-28282295D02*
X5159048Y-27482295D01*
X5159048Y-27482295D02*
X5463810Y-27482295D01*
X5463810Y-27482295D02*
X5540000Y-27520390D01*
X5540000Y-27520390D02*
X5578095Y-27558485D01*
X5578095Y-27558485D02*
X5616191Y-27634676D01*
X5616191Y-27634676D02*
X5616191Y-27748961D01*
X5616191Y-27748961D02*
X5578095Y-27825152D01*
X5578095Y-27825152D02*
X5540000Y-27863247D01*
X5540000Y-27863247D02*
X5463810Y-27901342D01*
X5463810Y-27901342D02*
X5159048Y-27901342D01*
X5959048Y-28282295D02*
X5959048Y-27482295D01*
X6492381Y-27482295D02*
X6644762Y-27482295D01*
X6644762Y-27482295D02*
X6720952Y-27520390D01*
X6720952Y-27520390D02*
X6797143Y-27596580D01*
X6797143Y-27596580D02*
X6835238Y-27748961D01*
X6835238Y-27748961D02*
X6835238Y-28015628D01*
X6835238Y-28015628D02*
X6797143Y-28168009D01*
X6797143Y-28168009D02*
X6720952Y-28244200D01*
X6720952Y-28244200D02*
X6644762Y-28282295D01*
X6644762Y-28282295D02*
X6492381Y-28282295D01*
X6492381Y-28282295D02*
X6416190Y-28244200D01*
X6416190Y-28244200D02*
X6340000Y-28168009D01*
X6340000Y-28168009D02*
X6301904Y-28015628D01*
X6301904Y-28015628D02*
X6301904Y-27748961D01*
X6301904Y-27748961D02*
X6340000Y-27596580D01*
X6340000Y-27596580D02*
X6416190Y-27520390D01*
X6416190Y-27520390D02*
X6492381Y-27482295D01*
X7101904Y-27482295D02*
X7597142Y-27482295D01*
X7597142Y-27482295D02*
X7330476Y-27787057D01*
X7330476Y-27787057D02*
X7444761Y-27787057D01*
X7444761Y-27787057D02*
X7520952Y-27825152D01*
X7520952Y-27825152D02*
X7559047Y-27863247D01*
X7559047Y-27863247D02*
X7597142Y-27939438D01*
X7597142Y-27939438D02*
X7597142Y-28129914D01*
X7597142Y-28129914D02*
X7559047Y-28206104D01*
X7559047Y-28206104D02*
X7520952Y-28244200D01*
X7520952Y-28244200D02*
X7444761Y-28282295D01*
X7444761Y-28282295D02*
X7216190Y-28282295D01*
X7216190Y-28282295D02*
X7139999Y-28244200D01*
X7139999Y-28244200D02*
X7101904Y-28206104D01*
X8054285Y-27825152D02*
X7978095Y-27787057D01*
X7978095Y-27787057D02*
X7940000Y-27748961D01*
X7940000Y-27748961D02*
X7901904Y-27672771D01*
X7901904Y-27672771D02*
X7901904Y-27634676D01*
X7901904Y-27634676D02*
X7940000Y-27558485D01*
X7940000Y-27558485D02*
X7978095Y-27520390D01*
X7978095Y-27520390D02*
X8054285Y-27482295D01*
X8054285Y-27482295D02*
X8206666Y-27482295D01*
X8206666Y-27482295D02*
X8282857Y-27520390D01*
X8282857Y-27520390D02*
X8320952Y-27558485D01*
X8320952Y-27558485D02*
X8359047Y-27634676D01*
X8359047Y-27634676D02*
X8359047Y-27672771D01*
X8359047Y-27672771D02*
X8320952Y-27748961D01*
X8320952Y-27748961D02*
X8282857Y-27787057D01*
X8282857Y-27787057D02*
X8206666Y-27825152D01*
X8206666Y-27825152D02*
X8054285Y-27825152D01*
X8054285Y-27825152D02*
X7978095Y-27863247D01*
X7978095Y-27863247D02*
X7940000Y-27901342D01*
X7940000Y-27901342D02*
X7901904Y-27977533D01*
X7901904Y-27977533D02*
X7901904Y-28129914D01*
X7901904Y-28129914D02*
X7940000Y-28206104D01*
X7940000Y-28206104D02*
X7978095Y-28244200D01*
X7978095Y-28244200D02*
X8054285Y-28282295D01*
X8054285Y-28282295D02*
X8206666Y-28282295D01*
X8206666Y-28282295D02*
X8282857Y-28244200D01*
X8282857Y-28244200D02*
X8320952Y-28206104D01*
X8320952Y-28206104D02*
X8359047Y-28129914D01*
X8359047Y-28129914D02*
X8359047Y-27977533D01*
X8359047Y-27977533D02*
X8320952Y-27901342D01*
X8320952Y-27901342D02*
X8282857Y-27863247D01*
X8282857Y-27863247D02*
X8206666Y-27825152D01*
X3825715Y-29682295D02*
X3825715Y-28882295D01*
X3825715Y-28882295D02*
X4016191Y-28882295D01*
X4016191Y-28882295D02*
X4130477Y-28920390D01*
X4130477Y-28920390D02*
X4206667Y-28996580D01*
X4206667Y-28996580D02*
X4244762Y-29072771D01*
X4244762Y-29072771D02*
X4282858Y-29225152D01*
X4282858Y-29225152D02*
X4282858Y-29339438D01*
X4282858Y-29339438D02*
X4244762Y-29491819D01*
X4244762Y-29491819D02*
X4206667Y-29568009D01*
X4206667Y-29568009D02*
X4130477Y-29644200D01*
X4130477Y-29644200D02*
X4016191Y-29682295D01*
X4016191Y-29682295D02*
X3825715Y-29682295D01*
X4625715Y-29682295D02*
X4625715Y-28882295D01*
X4625715Y-28882295D02*
X4930477Y-28882295D01*
X4930477Y-28882295D02*
X5006667Y-28920390D01*
X5006667Y-28920390D02*
X5044762Y-28958485D01*
X5044762Y-28958485D02*
X5082858Y-29034676D01*
X5082858Y-29034676D02*
X5082858Y-29148961D01*
X5082858Y-29148961D02*
X5044762Y-29225152D01*
X5044762Y-29225152D02*
X5006667Y-29263247D01*
X5006667Y-29263247D02*
X4930477Y-29301342D01*
X4930477Y-29301342D02*
X4625715Y-29301342D01*
X5654286Y-29987057D02*
X5616191Y-29948961D01*
X5616191Y-29948961D02*
X5540000Y-29834676D01*
X5540000Y-29834676D02*
X5501905Y-29758485D01*
X5501905Y-29758485D02*
X5463810Y-29644200D01*
X5463810Y-29644200D02*
X5425715Y-29453723D01*
X5425715Y-29453723D02*
X5425715Y-29301342D01*
X5425715Y-29301342D02*
X5463810Y-29110866D01*
X5463810Y-29110866D02*
X5501905Y-28996580D01*
X5501905Y-28996580D02*
X5540000Y-28920390D01*
X5540000Y-28920390D02*
X5616191Y-28806104D01*
X5616191Y-28806104D02*
X5654286Y-28768009D01*
X5959048Y-29682295D02*
X5959048Y-28882295D01*
X6492381Y-28882295D02*
X6644762Y-28882295D01*
X6644762Y-28882295D02*
X6720952Y-28920390D01*
X6720952Y-28920390D02*
X6797143Y-28996580D01*
X6797143Y-28996580D02*
X6835238Y-29148961D01*
X6835238Y-29148961D02*
X6835238Y-29415628D01*
X6835238Y-29415628D02*
X6797143Y-29568009D01*
X6797143Y-29568009D02*
X6720952Y-29644200D01*
X6720952Y-29644200D02*
X6644762Y-29682295D01*
X6644762Y-29682295D02*
X6492381Y-29682295D01*
X6492381Y-29682295D02*
X6416190Y-29644200D01*
X6416190Y-29644200D02*
X6340000Y-29568009D01*
X6340000Y-29568009D02*
X6301904Y-29415628D01*
X6301904Y-29415628D02*
X6301904Y-29148961D01*
X6301904Y-29148961D02*
X6340000Y-28996580D01*
X6340000Y-28996580D02*
X6416190Y-28920390D01*
X6416190Y-28920390D02*
X6492381Y-28882295D01*
X7139999Y-28958485D02*
X7178095Y-28920390D01*
X7178095Y-28920390D02*
X7254285Y-28882295D01*
X7254285Y-28882295D02*
X7444761Y-28882295D01*
X7444761Y-28882295D02*
X7520952Y-28920390D01*
X7520952Y-28920390D02*
X7559047Y-28958485D01*
X7559047Y-28958485D02*
X7597142Y-29034676D01*
X7597142Y-29034676D02*
X7597142Y-29110866D01*
X7597142Y-29110866D02*
X7559047Y-29225152D01*
X7559047Y-29225152D02*
X7101904Y-29682295D01*
X7101904Y-29682295D02*
X7597142Y-29682295D01*
X8092381Y-28882295D02*
X8168571Y-28882295D01*
X8168571Y-28882295D02*
X8244762Y-28920390D01*
X8244762Y-28920390D02*
X8282857Y-28958485D01*
X8282857Y-28958485D02*
X8320952Y-29034676D01*
X8320952Y-29034676D02*
X8359047Y-29187057D01*
X8359047Y-29187057D02*
X8359047Y-29377533D01*
X8359047Y-29377533D02*
X8320952Y-29529914D01*
X8320952Y-29529914D02*
X8282857Y-29606104D01*
X8282857Y-29606104D02*
X8244762Y-29644200D01*
X8244762Y-29644200D02*
X8168571Y-29682295D01*
X8168571Y-29682295D02*
X8092381Y-29682295D01*
X8092381Y-29682295D02*
X8016190Y-29644200D01*
X8016190Y-29644200D02*
X7978095Y-29606104D01*
X7978095Y-29606104D02*
X7940000Y-29529914D01*
X7940000Y-29529914D02*
X7901904Y-29377533D01*
X7901904Y-29377533D02*
X7901904Y-29187057D01*
X7901904Y-29187057D02*
X7940000Y-29034676D01*
X7940000Y-29034676D02*
X7978095Y-28958485D01*
X7978095Y-28958485D02*
X8016190Y-28920390D01*
X8016190Y-28920390D02*
X8092381Y-28882295D01*
X8625714Y-29987057D02*
X8663809Y-29948961D01*
X8663809Y-29948961D02*
X8740000Y-29834676D01*
X8740000Y-29834676D02*
X8778095Y-29758485D01*
X8778095Y-29758485D02*
X8816190Y-29644200D01*
X8816190Y-29644200D02*
X8854286Y-29453723D01*
X8854286Y-29453723D02*
X8854286Y-29301342D01*
X8854286Y-29301342D02*
X8816190Y-29110866D01*
X8816190Y-29110866D02*
X8778095Y-28996580D01*
X8778095Y-28996580D02*
X8740000Y-28920390D01*
X8740000Y-28920390D02*
X8663809Y-28806104D01*
X8663809Y-28806104D02*
X8625714Y-28768009D01*
X4778095Y-30060390D02*
X4701905Y-30022295D01*
X4701905Y-30022295D02*
X4587619Y-30022295D01*
X4587619Y-30022295D02*
X4473333Y-30060390D01*
X4473333Y-30060390D02*
X4397143Y-30136580D01*
X4397143Y-30136580D02*
X4359048Y-30212771D01*
X4359048Y-30212771D02*
X4320952Y-30365152D01*
X4320952Y-30365152D02*
X4320952Y-30479438D01*
X4320952Y-30479438D02*
X4359048Y-30631819D01*
X4359048Y-30631819D02*
X4397143Y-30708009D01*
X4397143Y-30708009D02*
X4473333Y-30784200D01*
X4473333Y-30784200D02*
X4587619Y-30822295D01*
X4587619Y-30822295D02*
X4663810Y-30822295D01*
X4663810Y-30822295D02*
X4778095Y-30784200D01*
X4778095Y-30784200D02*
X4816191Y-30746104D01*
X4816191Y-30746104D02*
X4816191Y-30479438D01*
X4816191Y-30479438D02*
X4663810Y-30479438D01*
X5159048Y-30822295D02*
X5159048Y-30022295D01*
X5159048Y-30022295D02*
X5463810Y-30022295D01*
X5463810Y-30022295D02*
X5540000Y-30060390D01*
X5540000Y-30060390D02*
X5578095Y-30098485D01*
X5578095Y-30098485D02*
X5616191Y-30174676D01*
X5616191Y-30174676D02*
X5616191Y-30288961D01*
X5616191Y-30288961D02*
X5578095Y-30365152D01*
X5578095Y-30365152D02*
X5540000Y-30403247D01*
X5540000Y-30403247D02*
X5463810Y-30441342D01*
X5463810Y-30441342D02*
X5159048Y-30441342D01*
X5959048Y-30822295D02*
X5959048Y-30022295D01*
X6492381Y-30022295D02*
X6644762Y-30022295D01*
X6644762Y-30022295D02*
X6720952Y-30060390D01*
X6720952Y-30060390D02*
X6797143Y-30136580D01*
X6797143Y-30136580D02*
X6835238Y-30288961D01*
X6835238Y-30288961D02*
X6835238Y-30555628D01*
X6835238Y-30555628D02*
X6797143Y-30708009D01*
X6797143Y-30708009D02*
X6720952Y-30784200D01*
X6720952Y-30784200D02*
X6644762Y-30822295D01*
X6644762Y-30822295D02*
X6492381Y-30822295D01*
X6492381Y-30822295D02*
X6416190Y-30784200D01*
X6416190Y-30784200D02*
X6340000Y-30708009D01*
X6340000Y-30708009D02*
X6301904Y-30555628D01*
X6301904Y-30555628D02*
X6301904Y-30288961D01*
X6301904Y-30288961D02*
X6340000Y-30136580D01*
X6340000Y-30136580D02*
X6416190Y-30060390D01*
X6416190Y-30060390D02*
X6492381Y-30022295D01*
X7101904Y-30022295D02*
X7597142Y-30022295D01*
X7597142Y-30022295D02*
X7330476Y-30327057D01*
X7330476Y-30327057D02*
X7444761Y-30327057D01*
X7444761Y-30327057D02*
X7520952Y-30365152D01*
X7520952Y-30365152D02*
X7559047Y-30403247D01*
X7559047Y-30403247D02*
X7597142Y-30479438D01*
X7597142Y-30479438D02*
X7597142Y-30669914D01*
X7597142Y-30669914D02*
X7559047Y-30746104D01*
X7559047Y-30746104D02*
X7520952Y-30784200D01*
X7520952Y-30784200D02*
X7444761Y-30822295D01*
X7444761Y-30822295D02*
X7216190Y-30822295D01*
X7216190Y-30822295D02*
X7139999Y-30784200D01*
X7139999Y-30784200D02*
X7101904Y-30746104D01*
X7978095Y-30822295D02*
X8130476Y-30822295D01*
X8130476Y-30822295D02*
X8206666Y-30784200D01*
X8206666Y-30784200D02*
X8244762Y-30746104D01*
X8244762Y-30746104D02*
X8320952Y-30631819D01*
X8320952Y-30631819D02*
X8359047Y-30479438D01*
X8359047Y-30479438D02*
X8359047Y-30174676D01*
X8359047Y-30174676D02*
X8320952Y-30098485D01*
X8320952Y-30098485D02*
X8282857Y-30060390D01*
X8282857Y-30060390D02*
X8206666Y-30022295D01*
X8206666Y-30022295D02*
X8054285Y-30022295D01*
X8054285Y-30022295D02*
X7978095Y-30060390D01*
X7978095Y-30060390D02*
X7940000Y-30098485D01*
X7940000Y-30098485D02*
X7901904Y-30174676D01*
X7901904Y-30174676D02*
X7901904Y-30365152D01*
X7901904Y-30365152D02*
X7940000Y-30441342D01*
X7940000Y-30441342D02*
X7978095Y-30479438D01*
X7978095Y-30479438D02*
X8054285Y-30517533D01*
X8054285Y-30517533D02*
X8206666Y-30517533D01*
X8206666Y-30517533D02*
X8282857Y-30479438D01*
X8282857Y-30479438D02*
X8320952Y-30441342D01*
X8320952Y-30441342D02*
X8359047Y-30365152D01*
X4778095Y-31460390D02*
X4701905Y-31422295D01*
X4701905Y-31422295D02*
X4587619Y-31422295D01*
X4587619Y-31422295D02*
X4473333Y-31460390D01*
X4473333Y-31460390D02*
X4397143Y-31536580D01*
X4397143Y-31536580D02*
X4359048Y-31612771D01*
X4359048Y-31612771D02*
X4320952Y-31765152D01*
X4320952Y-31765152D02*
X4320952Y-31879438D01*
X4320952Y-31879438D02*
X4359048Y-32031819D01*
X4359048Y-32031819D02*
X4397143Y-32108009D01*
X4397143Y-32108009D02*
X4473333Y-32184200D01*
X4473333Y-32184200D02*
X4587619Y-32222295D01*
X4587619Y-32222295D02*
X4663810Y-32222295D01*
X4663810Y-32222295D02*
X4778095Y-32184200D01*
X4778095Y-32184200D02*
X4816191Y-32146104D01*
X4816191Y-32146104D02*
X4816191Y-31879438D01*
X4816191Y-31879438D02*
X4663810Y-31879438D01*
X5159048Y-32222295D02*
X5159048Y-31422295D01*
X5159048Y-31422295D02*
X5463810Y-31422295D01*
X5463810Y-31422295D02*
X5540000Y-31460390D01*
X5540000Y-31460390D02*
X5578095Y-31498485D01*
X5578095Y-31498485D02*
X5616191Y-31574676D01*
X5616191Y-31574676D02*
X5616191Y-31688961D01*
X5616191Y-31688961D02*
X5578095Y-31765152D01*
X5578095Y-31765152D02*
X5540000Y-31803247D01*
X5540000Y-31803247D02*
X5463810Y-31841342D01*
X5463810Y-31841342D02*
X5159048Y-31841342D01*
X5959048Y-32222295D02*
X5959048Y-31422295D01*
X6492381Y-31422295D02*
X6644762Y-31422295D01*
X6644762Y-31422295D02*
X6720952Y-31460390D01*
X6720952Y-31460390D02*
X6797143Y-31536580D01*
X6797143Y-31536580D02*
X6835238Y-31688961D01*
X6835238Y-31688961D02*
X6835238Y-31955628D01*
X6835238Y-31955628D02*
X6797143Y-32108009D01*
X6797143Y-32108009D02*
X6720952Y-32184200D01*
X6720952Y-32184200D02*
X6644762Y-32222295D01*
X6644762Y-32222295D02*
X6492381Y-32222295D01*
X6492381Y-32222295D02*
X6416190Y-32184200D01*
X6416190Y-32184200D02*
X6340000Y-32108009D01*
X6340000Y-32108009D02*
X6301904Y-31955628D01*
X6301904Y-31955628D02*
X6301904Y-31688961D01*
X6301904Y-31688961D02*
X6340000Y-31536580D01*
X6340000Y-31536580D02*
X6416190Y-31460390D01*
X6416190Y-31460390D02*
X6492381Y-31422295D01*
X7597142Y-32222295D02*
X7139999Y-32222295D01*
X7368571Y-32222295D02*
X7368571Y-31422295D01*
X7368571Y-31422295D02*
X7292380Y-31536580D01*
X7292380Y-31536580D02*
X7216190Y-31612771D01*
X7216190Y-31612771D02*
X7139999Y-31650866D01*
X8359047Y-32222295D02*
X7901904Y-32222295D01*
X8130476Y-32222295D02*
X8130476Y-31422295D01*
X8130476Y-31422295D02*
X8054285Y-31536580D01*
X8054285Y-31536580D02*
X7978095Y-31612771D01*
X7978095Y-31612771D02*
X7901904Y-31650866D01*
X4778095Y-32600390D02*
X4701905Y-32562295D01*
X4701905Y-32562295D02*
X4587619Y-32562295D01*
X4587619Y-32562295D02*
X4473333Y-32600390D01*
X4473333Y-32600390D02*
X4397143Y-32676580D01*
X4397143Y-32676580D02*
X4359048Y-32752771D01*
X4359048Y-32752771D02*
X4320952Y-32905152D01*
X4320952Y-32905152D02*
X4320952Y-33019438D01*
X4320952Y-33019438D02*
X4359048Y-33171819D01*
X4359048Y-33171819D02*
X4397143Y-33248009D01*
X4397143Y-33248009D02*
X4473333Y-33324200D01*
X4473333Y-33324200D02*
X4587619Y-33362295D01*
X4587619Y-33362295D02*
X4663810Y-33362295D01*
X4663810Y-33362295D02*
X4778095Y-33324200D01*
X4778095Y-33324200D02*
X4816191Y-33286104D01*
X4816191Y-33286104D02*
X4816191Y-33019438D01*
X4816191Y-33019438D02*
X4663810Y-33019438D01*
X5159048Y-33362295D02*
X5159048Y-32562295D01*
X5159048Y-32562295D02*
X5463810Y-32562295D01*
X5463810Y-32562295D02*
X5540000Y-32600390D01*
X5540000Y-32600390D02*
X5578095Y-32638485D01*
X5578095Y-32638485D02*
X5616191Y-32714676D01*
X5616191Y-32714676D02*
X5616191Y-32828961D01*
X5616191Y-32828961D02*
X5578095Y-32905152D01*
X5578095Y-32905152D02*
X5540000Y-32943247D01*
X5540000Y-32943247D02*
X5463810Y-32981342D01*
X5463810Y-32981342D02*
X5159048Y-32981342D01*
X5959048Y-33362295D02*
X5959048Y-32562295D01*
X6492381Y-32562295D02*
X6644762Y-32562295D01*
X6644762Y-32562295D02*
X6720952Y-32600390D01*
X6720952Y-32600390D02*
X6797143Y-32676580D01*
X6797143Y-32676580D02*
X6835238Y-32828961D01*
X6835238Y-32828961D02*
X6835238Y-33095628D01*
X6835238Y-33095628D02*
X6797143Y-33248009D01*
X6797143Y-33248009D02*
X6720952Y-33324200D01*
X6720952Y-33324200D02*
X6644762Y-33362295D01*
X6644762Y-33362295D02*
X6492381Y-33362295D01*
X6492381Y-33362295D02*
X6416190Y-33324200D01*
X6416190Y-33324200D02*
X6340000Y-33248009D01*
X6340000Y-33248009D02*
X6301904Y-33095628D01*
X6301904Y-33095628D02*
X6301904Y-32828961D01*
X6301904Y-32828961D02*
X6340000Y-32676580D01*
X6340000Y-32676580D02*
X6416190Y-32600390D01*
X6416190Y-32600390D02*
X6492381Y-32562295D01*
X7520952Y-32828961D02*
X7520952Y-33362295D01*
X7330476Y-32524200D02*
X7139999Y-33095628D01*
X7139999Y-33095628D02*
X7635238Y-33095628D01*
X8092381Y-32562295D02*
X8168571Y-32562295D01*
X8168571Y-32562295D02*
X8244762Y-32600390D01*
X8244762Y-32600390D02*
X8282857Y-32638485D01*
X8282857Y-32638485D02*
X8320952Y-32714676D01*
X8320952Y-32714676D02*
X8359047Y-32867057D01*
X8359047Y-32867057D02*
X8359047Y-33057533D01*
X8359047Y-33057533D02*
X8320952Y-33209914D01*
X8320952Y-33209914D02*
X8282857Y-33286104D01*
X8282857Y-33286104D02*
X8244762Y-33324200D01*
X8244762Y-33324200D02*
X8168571Y-33362295D01*
X8168571Y-33362295D02*
X8092381Y-33362295D01*
X8092381Y-33362295D02*
X8016190Y-33324200D01*
X8016190Y-33324200D02*
X7978095Y-33286104D01*
X7978095Y-33286104D02*
X7940000Y-33209914D01*
X7940000Y-33209914D02*
X7901904Y-33057533D01*
X7901904Y-33057533D02*
X7901904Y-32867057D01*
X7901904Y-32867057D02*
X7940000Y-32714676D01*
X7940000Y-32714676D02*
X7978095Y-32638485D01*
X7978095Y-32638485D02*
X8016190Y-32600390D01*
X8016190Y-32600390D02*
X8092381Y-32562295D01*
X4778095Y-34000390D02*
X4701905Y-33962295D01*
X4701905Y-33962295D02*
X4587619Y-33962295D01*
X4587619Y-33962295D02*
X4473333Y-34000390D01*
X4473333Y-34000390D02*
X4397143Y-34076580D01*
X4397143Y-34076580D02*
X4359048Y-34152771D01*
X4359048Y-34152771D02*
X4320952Y-34305152D01*
X4320952Y-34305152D02*
X4320952Y-34419438D01*
X4320952Y-34419438D02*
X4359048Y-34571819D01*
X4359048Y-34571819D02*
X4397143Y-34648009D01*
X4397143Y-34648009D02*
X4473333Y-34724200D01*
X4473333Y-34724200D02*
X4587619Y-34762295D01*
X4587619Y-34762295D02*
X4663810Y-34762295D01*
X4663810Y-34762295D02*
X4778095Y-34724200D01*
X4778095Y-34724200D02*
X4816191Y-34686104D01*
X4816191Y-34686104D02*
X4816191Y-34419438D01*
X4816191Y-34419438D02*
X4663810Y-34419438D01*
X5159048Y-34762295D02*
X5159048Y-33962295D01*
X5159048Y-33962295D02*
X5463810Y-33962295D01*
X5463810Y-33962295D02*
X5540000Y-34000390D01*
X5540000Y-34000390D02*
X5578095Y-34038485D01*
X5578095Y-34038485D02*
X5616191Y-34114676D01*
X5616191Y-34114676D02*
X5616191Y-34228961D01*
X5616191Y-34228961D02*
X5578095Y-34305152D01*
X5578095Y-34305152D02*
X5540000Y-34343247D01*
X5540000Y-34343247D02*
X5463810Y-34381342D01*
X5463810Y-34381342D02*
X5159048Y-34381342D01*
X5959048Y-34762295D02*
X5959048Y-33962295D01*
X6492381Y-33962295D02*
X6644762Y-33962295D01*
X6644762Y-33962295D02*
X6720952Y-34000390D01*
X6720952Y-34000390D02*
X6797143Y-34076580D01*
X6797143Y-34076580D02*
X6835238Y-34228961D01*
X6835238Y-34228961D02*
X6835238Y-34495628D01*
X6835238Y-34495628D02*
X6797143Y-34648009D01*
X6797143Y-34648009D02*
X6720952Y-34724200D01*
X6720952Y-34724200D02*
X6644762Y-34762295D01*
X6644762Y-34762295D02*
X6492381Y-34762295D01*
X6492381Y-34762295D02*
X6416190Y-34724200D01*
X6416190Y-34724200D02*
X6340000Y-34648009D01*
X6340000Y-34648009D02*
X6301904Y-34495628D01*
X6301904Y-34495628D02*
X6301904Y-34228961D01*
X6301904Y-34228961D02*
X6340000Y-34076580D01*
X6340000Y-34076580D02*
X6416190Y-34000390D01*
X6416190Y-34000390D02*
X6492381Y-33962295D01*
X7597142Y-34762295D02*
X7139999Y-34762295D01*
X7368571Y-34762295D02*
X7368571Y-33962295D01*
X7368571Y-33962295D02*
X7292380Y-34076580D01*
X7292380Y-34076580D02*
X7216190Y-34152771D01*
X7216190Y-34152771D02*
X7139999Y-34190866D01*
X8092381Y-33962295D02*
X8168571Y-33962295D01*
X8168571Y-33962295D02*
X8244762Y-34000390D01*
X8244762Y-34000390D02*
X8282857Y-34038485D01*
X8282857Y-34038485D02*
X8320952Y-34114676D01*
X8320952Y-34114676D02*
X8359047Y-34267057D01*
X8359047Y-34267057D02*
X8359047Y-34457533D01*
X8359047Y-34457533D02*
X8320952Y-34609914D01*
X8320952Y-34609914D02*
X8282857Y-34686104D01*
X8282857Y-34686104D02*
X8244762Y-34724200D01*
X8244762Y-34724200D02*
X8168571Y-34762295D01*
X8168571Y-34762295D02*
X8092381Y-34762295D01*
X8092381Y-34762295D02*
X8016190Y-34724200D01*
X8016190Y-34724200D02*
X7978095Y-34686104D01*
X7978095Y-34686104D02*
X7940000Y-34609914D01*
X7940000Y-34609914D02*
X7901904Y-34457533D01*
X7901904Y-34457533D02*
X7901904Y-34267057D01*
X7901904Y-34267057D02*
X7940000Y-34114676D01*
X7940000Y-34114676D02*
X7978095Y-34038485D01*
X7978095Y-34038485D02*
X8016190Y-34000390D01*
X8016190Y-34000390D02*
X8092381Y-33962295D01*
X4778095Y-35140390D02*
X4701905Y-35102295D01*
X4701905Y-35102295D02*
X4587619Y-35102295D01*
X4587619Y-35102295D02*
X4473333Y-35140390D01*
X4473333Y-35140390D02*
X4397143Y-35216580D01*
X4397143Y-35216580D02*
X4359048Y-35292771D01*
X4359048Y-35292771D02*
X4320952Y-35445152D01*
X4320952Y-35445152D02*
X4320952Y-35559438D01*
X4320952Y-35559438D02*
X4359048Y-35711819D01*
X4359048Y-35711819D02*
X4397143Y-35788009D01*
X4397143Y-35788009D02*
X4473333Y-35864200D01*
X4473333Y-35864200D02*
X4587619Y-35902295D01*
X4587619Y-35902295D02*
X4663810Y-35902295D01*
X4663810Y-35902295D02*
X4778095Y-35864200D01*
X4778095Y-35864200D02*
X4816191Y-35826104D01*
X4816191Y-35826104D02*
X4816191Y-35559438D01*
X4816191Y-35559438D02*
X4663810Y-35559438D01*
X5159048Y-35902295D02*
X5159048Y-35102295D01*
X5159048Y-35102295D02*
X5463810Y-35102295D01*
X5463810Y-35102295D02*
X5540000Y-35140390D01*
X5540000Y-35140390D02*
X5578095Y-35178485D01*
X5578095Y-35178485D02*
X5616191Y-35254676D01*
X5616191Y-35254676D02*
X5616191Y-35368961D01*
X5616191Y-35368961D02*
X5578095Y-35445152D01*
X5578095Y-35445152D02*
X5540000Y-35483247D01*
X5540000Y-35483247D02*
X5463810Y-35521342D01*
X5463810Y-35521342D02*
X5159048Y-35521342D01*
X5959048Y-35902295D02*
X5959048Y-35102295D01*
X6492381Y-35102295D02*
X6644762Y-35102295D01*
X6644762Y-35102295D02*
X6720952Y-35140390D01*
X6720952Y-35140390D02*
X6797143Y-35216580D01*
X6797143Y-35216580D02*
X6835238Y-35368961D01*
X6835238Y-35368961D02*
X6835238Y-35635628D01*
X6835238Y-35635628D02*
X6797143Y-35788009D01*
X6797143Y-35788009D02*
X6720952Y-35864200D01*
X6720952Y-35864200D02*
X6644762Y-35902295D01*
X6644762Y-35902295D02*
X6492381Y-35902295D01*
X6492381Y-35902295D02*
X6416190Y-35864200D01*
X6416190Y-35864200D02*
X6340000Y-35788009D01*
X6340000Y-35788009D02*
X6301904Y-35635628D01*
X6301904Y-35635628D02*
X6301904Y-35368961D01*
X6301904Y-35368961D02*
X6340000Y-35216580D01*
X6340000Y-35216580D02*
X6416190Y-35140390D01*
X6416190Y-35140390D02*
X6492381Y-35102295D01*
X7520952Y-35368961D02*
X7520952Y-35902295D01*
X7330476Y-35064200D02*
X7139999Y-35635628D01*
X7139999Y-35635628D02*
X7635238Y-35635628D01*
X8359047Y-35902295D02*
X7901904Y-35902295D01*
X8130476Y-35902295D02*
X8130476Y-35102295D01*
X8130476Y-35102295D02*
X8054285Y-35216580D01*
X8054285Y-35216580D02*
X7978095Y-35292771D01*
X7978095Y-35292771D02*
X7901904Y-35330866D01*
X5159047Y-36540390D02*
X5082857Y-36502295D01*
X5082857Y-36502295D02*
X4968571Y-36502295D01*
X4968571Y-36502295D02*
X4854285Y-36540390D01*
X4854285Y-36540390D02*
X4778095Y-36616580D01*
X4778095Y-36616580D02*
X4740000Y-36692771D01*
X4740000Y-36692771D02*
X4701904Y-36845152D01*
X4701904Y-36845152D02*
X4701904Y-36959438D01*
X4701904Y-36959438D02*
X4740000Y-37111819D01*
X4740000Y-37111819D02*
X4778095Y-37188009D01*
X4778095Y-37188009D02*
X4854285Y-37264200D01*
X4854285Y-37264200D02*
X4968571Y-37302295D01*
X4968571Y-37302295D02*
X5044762Y-37302295D01*
X5044762Y-37302295D02*
X5159047Y-37264200D01*
X5159047Y-37264200D02*
X5197143Y-37226104D01*
X5197143Y-37226104D02*
X5197143Y-36959438D01*
X5197143Y-36959438D02*
X5044762Y-36959438D01*
X5540000Y-37302295D02*
X5540000Y-36502295D01*
X5540000Y-36502295D02*
X5844762Y-36502295D01*
X5844762Y-36502295D02*
X5920952Y-36540390D01*
X5920952Y-36540390D02*
X5959047Y-36578485D01*
X5959047Y-36578485D02*
X5997143Y-36654676D01*
X5997143Y-36654676D02*
X5997143Y-36768961D01*
X5997143Y-36768961D02*
X5959047Y-36845152D01*
X5959047Y-36845152D02*
X5920952Y-36883247D01*
X5920952Y-36883247D02*
X5844762Y-36921342D01*
X5844762Y-36921342D02*
X5540000Y-36921342D01*
X6340000Y-37302295D02*
X6340000Y-36502295D01*
X6873333Y-36502295D02*
X7025714Y-36502295D01*
X7025714Y-36502295D02*
X7101904Y-36540390D01*
X7101904Y-36540390D02*
X7178095Y-36616580D01*
X7178095Y-36616580D02*
X7216190Y-36768961D01*
X7216190Y-36768961D02*
X7216190Y-37035628D01*
X7216190Y-37035628D02*
X7178095Y-37188009D01*
X7178095Y-37188009D02*
X7101904Y-37264200D01*
X7101904Y-37264200D02*
X7025714Y-37302295D01*
X7025714Y-37302295D02*
X6873333Y-37302295D01*
X6873333Y-37302295D02*
X6797142Y-37264200D01*
X6797142Y-37264200D02*
X6720952Y-37188009D01*
X6720952Y-37188009D02*
X6682856Y-37035628D01*
X6682856Y-37035628D02*
X6682856Y-36768961D01*
X6682856Y-36768961D02*
X6720952Y-36616580D01*
X6720952Y-36616580D02*
X6797142Y-36540390D01*
X6797142Y-36540390D02*
X6873333Y-36502295D01*
X7597142Y-37302295D02*
X7749523Y-37302295D01*
X7749523Y-37302295D02*
X7825713Y-37264200D01*
X7825713Y-37264200D02*
X7863809Y-37226104D01*
X7863809Y-37226104D02*
X7939999Y-37111819D01*
X7939999Y-37111819D02*
X7978094Y-36959438D01*
X7978094Y-36959438D02*
X7978094Y-36654676D01*
X7978094Y-36654676D02*
X7939999Y-36578485D01*
X7939999Y-36578485D02*
X7901904Y-36540390D01*
X7901904Y-36540390D02*
X7825713Y-36502295D01*
X7825713Y-36502295D02*
X7673332Y-36502295D01*
X7673332Y-36502295D02*
X7597142Y-36540390D01*
X7597142Y-36540390D02*
X7559047Y-36578485D01*
X7559047Y-36578485D02*
X7520951Y-36654676D01*
X7520951Y-36654676D02*
X7520951Y-36845152D01*
X7520951Y-36845152D02*
X7559047Y-36921342D01*
X7559047Y-36921342D02*
X7597142Y-36959438D01*
X7597142Y-36959438D02*
X7673332Y-36997533D01*
X7673332Y-36997533D02*
X7825713Y-36997533D01*
X7825713Y-36997533D02*
X7901904Y-36959438D01*
X7901904Y-36959438D02*
X7939999Y-36921342D01*
X7939999Y-36921342D02*
X7978094Y-36845152D01*
X4778095Y-37680390D02*
X4701905Y-37642295D01*
X4701905Y-37642295D02*
X4587619Y-37642295D01*
X4587619Y-37642295D02*
X4473333Y-37680390D01*
X4473333Y-37680390D02*
X4397143Y-37756580D01*
X4397143Y-37756580D02*
X4359048Y-37832771D01*
X4359048Y-37832771D02*
X4320952Y-37985152D01*
X4320952Y-37985152D02*
X4320952Y-38099438D01*
X4320952Y-38099438D02*
X4359048Y-38251819D01*
X4359048Y-38251819D02*
X4397143Y-38328009D01*
X4397143Y-38328009D02*
X4473333Y-38404200D01*
X4473333Y-38404200D02*
X4587619Y-38442295D01*
X4587619Y-38442295D02*
X4663810Y-38442295D01*
X4663810Y-38442295D02*
X4778095Y-38404200D01*
X4778095Y-38404200D02*
X4816191Y-38366104D01*
X4816191Y-38366104D02*
X4816191Y-38099438D01*
X4816191Y-38099438D02*
X4663810Y-38099438D01*
X5159048Y-38442295D02*
X5159048Y-37642295D01*
X5159048Y-37642295D02*
X5463810Y-37642295D01*
X5463810Y-37642295D02*
X5540000Y-37680390D01*
X5540000Y-37680390D02*
X5578095Y-37718485D01*
X5578095Y-37718485D02*
X5616191Y-37794676D01*
X5616191Y-37794676D02*
X5616191Y-37908961D01*
X5616191Y-37908961D02*
X5578095Y-37985152D01*
X5578095Y-37985152D02*
X5540000Y-38023247D01*
X5540000Y-38023247D02*
X5463810Y-38061342D01*
X5463810Y-38061342D02*
X5159048Y-38061342D01*
X5959048Y-38442295D02*
X5959048Y-37642295D01*
X6492381Y-37642295D02*
X6644762Y-37642295D01*
X6644762Y-37642295D02*
X6720952Y-37680390D01*
X6720952Y-37680390D02*
X6797143Y-37756580D01*
X6797143Y-37756580D02*
X6835238Y-37908961D01*
X6835238Y-37908961D02*
X6835238Y-38175628D01*
X6835238Y-38175628D02*
X6797143Y-38328009D01*
X6797143Y-38328009D02*
X6720952Y-38404200D01*
X6720952Y-38404200D02*
X6644762Y-38442295D01*
X6644762Y-38442295D02*
X6492381Y-38442295D01*
X6492381Y-38442295D02*
X6416190Y-38404200D01*
X6416190Y-38404200D02*
X6340000Y-38328009D01*
X6340000Y-38328009D02*
X6301904Y-38175628D01*
X6301904Y-38175628D02*
X6301904Y-37908961D01*
X6301904Y-37908961D02*
X6340000Y-37756580D01*
X6340000Y-37756580D02*
X6416190Y-37680390D01*
X6416190Y-37680390D02*
X6492381Y-37642295D01*
X7520952Y-37908961D02*
X7520952Y-38442295D01*
X7330476Y-37604200D02*
X7139999Y-38175628D01*
X7139999Y-38175628D02*
X7635238Y-38175628D01*
X7901904Y-37718485D02*
X7940000Y-37680390D01*
X7940000Y-37680390D02*
X8016190Y-37642295D01*
X8016190Y-37642295D02*
X8206666Y-37642295D01*
X8206666Y-37642295D02*
X8282857Y-37680390D01*
X8282857Y-37680390D02*
X8320952Y-37718485D01*
X8320952Y-37718485D02*
X8359047Y-37794676D01*
X8359047Y-37794676D02*
X8359047Y-37870866D01*
X8359047Y-37870866D02*
X8320952Y-37985152D01*
X8320952Y-37985152D02*
X7863809Y-38442295D01*
X7863809Y-38442295D02*
X8359047Y-38442295D01*
X4778095Y-39080390D02*
X4701905Y-39042295D01*
X4701905Y-39042295D02*
X4587619Y-39042295D01*
X4587619Y-39042295D02*
X4473333Y-39080390D01*
X4473333Y-39080390D02*
X4397143Y-39156580D01*
X4397143Y-39156580D02*
X4359048Y-39232771D01*
X4359048Y-39232771D02*
X4320952Y-39385152D01*
X4320952Y-39385152D02*
X4320952Y-39499438D01*
X4320952Y-39499438D02*
X4359048Y-39651819D01*
X4359048Y-39651819D02*
X4397143Y-39728009D01*
X4397143Y-39728009D02*
X4473333Y-39804200D01*
X4473333Y-39804200D02*
X4587619Y-39842295D01*
X4587619Y-39842295D02*
X4663810Y-39842295D01*
X4663810Y-39842295D02*
X4778095Y-39804200D01*
X4778095Y-39804200D02*
X4816191Y-39766104D01*
X4816191Y-39766104D02*
X4816191Y-39499438D01*
X4816191Y-39499438D02*
X4663810Y-39499438D01*
X5159048Y-39842295D02*
X5159048Y-39042295D01*
X5159048Y-39042295D02*
X5463810Y-39042295D01*
X5463810Y-39042295D02*
X5540000Y-39080390D01*
X5540000Y-39080390D02*
X5578095Y-39118485D01*
X5578095Y-39118485D02*
X5616191Y-39194676D01*
X5616191Y-39194676D02*
X5616191Y-39308961D01*
X5616191Y-39308961D02*
X5578095Y-39385152D01*
X5578095Y-39385152D02*
X5540000Y-39423247D01*
X5540000Y-39423247D02*
X5463810Y-39461342D01*
X5463810Y-39461342D02*
X5159048Y-39461342D01*
X5959048Y-39842295D02*
X5959048Y-39042295D01*
X6492381Y-39042295D02*
X6644762Y-39042295D01*
X6644762Y-39042295D02*
X6720952Y-39080390D01*
X6720952Y-39080390D02*
X6797143Y-39156580D01*
X6797143Y-39156580D02*
X6835238Y-39308961D01*
X6835238Y-39308961D02*
X6835238Y-39575628D01*
X6835238Y-39575628D02*
X6797143Y-39728009D01*
X6797143Y-39728009D02*
X6720952Y-39804200D01*
X6720952Y-39804200D02*
X6644762Y-39842295D01*
X6644762Y-39842295D02*
X6492381Y-39842295D01*
X6492381Y-39842295D02*
X6416190Y-39804200D01*
X6416190Y-39804200D02*
X6340000Y-39728009D01*
X6340000Y-39728009D02*
X6301904Y-39575628D01*
X6301904Y-39575628D02*
X6301904Y-39308961D01*
X6301904Y-39308961D02*
X6340000Y-39156580D01*
X6340000Y-39156580D02*
X6416190Y-39080390D01*
X6416190Y-39080390D02*
X6492381Y-39042295D01*
X7597142Y-39842295D02*
X7139999Y-39842295D01*
X7368571Y-39842295D02*
X7368571Y-39042295D01*
X7368571Y-39042295D02*
X7292380Y-39156580D01*
X7292380Y-39156580D02*
X7216190Y-39232771D01*
X7216190Y-39232771D02*
X7139999Y-39270866D01*
X7863809Y-39042295D02*
X8397143Y-39042295D01*
X8397143Y-39042295D02*
X8054285Y-39842295D01*
X4778095Y-40220390D02*
X4701905Y-40182295D01*
X4701905Y-40182295D02*
X4587619Y-40182295D01*
X4587619Y-40182295D02*
X4473333Y-40220390D01*
X4473333Y-40220390D02*
X4397143Y-40296580D01*
X4397143Y-40296580D02*
X4359048Y-40372771D01*
X4359048Y-40372771D02*
X4320952Y-40525152D01*
X4320952Y-40525152D02*
X4320952Y-40639438D01*
X4320952Y-40639438D02*
X4359048Y-40791819D01*
X4359048Y-40791819D02*
X4397143Y-40868009D01*
X4397143Y-40868009D02*
X4473333Y-40944200D01*
X4473333Y-40944200D02*
X4587619Y-40982295D01*
X4587619Y-40982295D02*
X4663810Y-40982295D01*
X4663810Y-40982295D02*
X4778095Y-40944200D01*
X4778095Y-40944200D02*
X4816191Y-40906104D01*
X4816191Y-40906104D02*
X4816191Y-40639438D01*
X4816191Y-40639438D02*
X4663810Y-40639438D01*
X5159048Y-40982295D02*
X5159048Y-40182295D01*
X5159048Y-40182295D02*
X5463810Y-40182295D01*
X5463810Y-40182295D02*
X5540000Y-40220390D01*
X5540000Y-40220390D02*
X5578095Y-40258485D01*
X5578095Y-40258485D02*
X5616191Y-40334676D01*
X5616191Y-40334676D02*
X5616191Y-40448961D01*
X5616191Y-40448961D02*
X5578095Y-40525152D01*
X5578095Y-40525152D02*
X5540000Y-40563247D01*
X5540000Y-40563247D02*
X5463810Y-40601342D01*
X5463810Y-40601342D02*
X5159048Y-40601342D01*
X5959048Y-40982295D02*
X5959048Y-40182295D01*
X6492381Y-40182295D02*
X6644762Y-40182295D01*
X6644762Y-40182295D02*
X6720952Y-40220390D01*
X6720952Y-40220390D02*
X6797143Y-40296580D01*
X6797143Y-40296580D02*
X6835238Y-40448961D01*
X6835238Y-40448961D02*
X6835238Y-40715628D01*
X6835238Y-40715628D02*
X6797143Y-40868009D01*
X6797143Y-40868009D02*
X6720952Y-40944200D01*
X6720952Y-40944200D02*
X6644762Y-40982295D01*
X6644762Y-40982295D02*
X6492381Y-40982295D01*
X6492381Y-40982295D02*
X6416190Y-40944200D01*
X6416190Y-40944200D02*
X6340000Y-40868009D01*
X6340000Y-40868009D02*
X6301904Y-40715628D01*
X6301904Y-40715628D02*
X6301904Y-40448961D01*
X6301904Y-40448961D02*
X6340000Y-40296580D01*
X6340000Y-40296580D02*
X6416190Y-40220390D01*
X6416190Y-40220390D02*
X6492381Y-40182295D01*
X7520952Y-40448961D02*
X7520952Y-40982295D01*
X7330476Y-40144200D02*
X7139999Y-40715628D01*
X7139999Y-40715628D02*
X7635238Y-40715628D01*
X8320952Y-40182295D02*
X7940000Y-40182295D01*
X7940000Y-40182295D02*
X7901904Y-40563247D01*
X7901904Y-40563247D02*
X7940000Y-40525152D01*
X7940000Y-40525152D02*
X8016190Y-40487057D01*
X8016190Y-40487057D02*
X8206666Y-40487057D01*
X8206666Y-40487057D02*
X8282857Y-40525152D01*
X8282857Y-40525152D02*
X8320952Y-40563247D01*
X8320952Y-40563247D02*
X8359047Y-40639438D01*
X8359047Y-40639438D02*
X8359047Y-40829914D01*
X8359047Y-40829914D02*
X8320952Y-40906104D01*
X8320952Y-40906104D02*
X8282857Y-40944200D01*
X8282857Y-40944200D02*
X8206666Y-40982295D01*
X8206666Y-40982295D02*
X8016190Y-40982295D01*
X8016190Y-40982295D02*
X7940000Y-40944200D01*
X7940000Y-40944200D02*
X7901904Y-40906104D01*
X4778095Y-41620390D02*
X4701905Y-41582295D01*
X4701905Y-41582295D02*
X4587619Y-41582295D01*
X4587619Y-41582295D02*
X4473333Y-41620390D01*
X4473333Y-41620390D02*
X4397143Y-41696580D01*
X4397143Y-41696580D02*
X4359048Y-41772771D01*
X4359048Y-41772771D02*
X4320952Y-41925152D01*
X4320952Y-41925152D02*
X4320952Y-42039438D01*
X4320952Y-42039438D02*
X4359048Y-42191819D01*
X4359048Y-42191819D02*
X4397143Y-42268009D01*
X4397143Y-42268009D02*
X4473333Y-42344200D01*
X4473333Y-42344200D02*
X4587619Y-42382295D01*
X4587619Y-42382295D02*
X4663810Y-42382295D01*
X4663810Y-42382295D02*
X4778095Y-42344200D01*
X4778095Y-42344200D02*
X4816191Y-42306104D01*
X4816191Y-42306104D02*
X4816191Y-42039438D01*
X4816191Y-42039438D02*
X4663810Y-42039438D01*
X5159048Y-42382295D02*
X5159048Y-41582295D01*
X5159048Y-41582295D02*
X5463810Y-41582295D01*
X5463810Y-41582295D02*
X5540000Y-41620390D01*
X5540000Y-41620390D02*
X5578095Y-41658485D01*
X5578095Y-41658485D02*
X5616191Y-41734676D01*
X5616191Y-41734676D02*
X5616191Y-41848961D01*
X5616191Y-41848961D02*
X5578095Y-41925152D01*
X5578095Y-41925152D02*
X5540000Y-41963247D01*
X5540000Y-41963247D02*
X5463810Y-42001342D01*
X5463810Y-42001342D02*
X5159048Y-42001342D01*
X5959048Y-42382295D02*
X5959048Y-41582295D01*
X6492381Y-41582295D02*
X6644762Y-41582295D01*
X6644762Y-41582295D02*
X6720952Y-41620390D01*
X6720952Y-41620390D02*
X6797143Y-41696580D01*
X6797143Y-41696580D02*
X6835238Y-41848961D01*
X6835238Y-41848961D02*
X6835238Y-42115628D01*
X6835238Y-42115628D02*
X6797143Y-42268009D01*
X6797143Y-42268009D02*
X6720952Y-42344200D01*
X6720952Y-42344200D02*
X6644762Y-42382295D01*
X6644762Y-42382295D02*
X6492381Y-42382295D01*
X6492381Y-42382295D02*
X6416190Y-42344200D01*
X6416190Y-42344200D02*
X6340000Y-42268009D01*
X6340000Y-42268009D02*
X6301904Y-42115628D01*
X6301904Y-42115628D02*
X6301904Y-41848961D01*
X6301904Y-41848961D02*
X6340000Y-41696580D01*
X6340000Y-41696580D02*
X6416190Y-41620390D01*
X6416190Y-41620390D02*
X6492381Y-41582295D01*
X7597142Y-42382295D02*
X7139999Y-42382295D01*
X7368571Y-42382295D02*
X7368571Y-41582295D01*
X7368571Y-41582295D02*
X7292380Y-41696580D01*
X7292380Y-41696580D02*
X7216190Y-41772771D01*
X7216190Y-41772771D02*
X7139999Y-41810866D01*
X8054285Y-41925152D02*
X7978095Y-41887057D01*
X7978095Y-41887057D02*
X7940000Y-41848961D01*
X7940000Y-41848961D02*
X7901904Y-41772771D01*
X7901904Y-41772771D02*
X7901904Y-41734676D01*
X7901904Y-41734676D02*
X7940000Y-41658485D01*
X7940000Y-41658485D02*
X7978095Y-41620390D01*
X7978095Y-41620390D02*
X8054285Y-41582295D01*
X8054285Y-41582295D02*
X8206666Y-41582295D01*
X8206666Y-41582295D02*
X8282857Y-41620390D01*
X8282857Y-41620390D02*
X8320952Y-41658485D01*
X8320952Y-41658485D02*
X8359047Y-41734676D01*
X8359047Y-41734676D02*
X8359047Y-41772771D01*
X8359047Y-41772771D02*
X8320952Y-41848961D01*
X8320952Y-41848961D02*
X8282857Y-41887057D01*
X8282857Y-41887057D02*
X8206666Y-41925152D01*
X8206666Y-41925152D02*
X8054285Y-41925152D01*
X8054285Y-41925152D02*
X7978095Y-41963247D01*
X7978095Y-41963247D02*
X7940000Y-42001342D01*
X7940000Y-42001342D02*
X7901904Y-42077533D01*
X7901904Y-42077533D02*
X7901904Y-42229914D01*
X7901904Y-42229914D02*
X7940000Y-42306104D01*
X7940000Y-42306104D02*
X7978095Y-42344200D01*
X7978095Y-42344200D02*
X8054285Y-42382295D01*
X8054285Y-42382295D02*
X8206666Y-42382295D01*
X8206666Y-42382295D02*
X8282857Y-42344200D01*
X8282857Y-42344200D02*
X8320952Y-42306104D01*
X8320952Y-42306104D02*
X8359047Y-42229914D01*
X8359047Y-42229914D02*
X8359047Y-42077533D01*
X8359047Y-42077533D02*
X8320952Y-42001342D01*
X8320952Y-42001342D02*
X8282857Y-41963247D01*
X8282857Y-41963247D02*
X8206666Y-41925152D01*
X4778095Y-42760390D02*
X4701905Y-42722295D01*
X4701905Y-42722295D02*
X4587619Y-42722295D01*
X4587619Y-42722295D02*
X4473333Y-42760390D01*
X4473333Y-42760390D02*
X4397143Y-42836580D01*
X4397143Y-42836580D02*
X4359048Y-42912771D01*
X4359048Y-42912771D02*
X4320952Y-43065152D01*
X4320952Y-43065152D02*
X4320952Y-43179438D01*
X4320952Y-43179438D02*
X4359048Y-43331819D01*
X4359048Y-43331819D02*
X4397143Y-43408009D01*
X4397143Y-43408009D02*
X4473333Y-43484200D01*
X4473333Y-43484200D02*
X4587619Y-43522295D01*
X4587619Y-43522295D02*
X4663810Y-43522295D01*
X4663810Y-43522295D02*
X4778095Y-43484200D01*
X4778095Y-43484200D02*
X4816191Y-43446104D01*
X4816191Y-43446104D02*
X4816191Y-43179438D01*
X4816191Y-43179438D02*
X4663810Y-43179438D01*
X5159048Y-43522295D02*
X5159048Y-42722295D01*
X5159048Y-42722295D02*
X5463810Y-42722295D01*
X5463810Y-42722295D02*
X5540000Y-42760390D01*
X5540000Y-42760390D02*
X5578095Y-42798485D01*
X5578095Y-42798485D02*
X5616191Y-42874676D01*
X5616191Y-42874676D02*
X5616191Y-42988961D01*
X5616191Y-42988961D02*
X5578095Y-43065152D01*
X5578095Y-43065152D02*
X5540000Y-43103247D01*
X5540000Y-43103247D02*
X5463810Y-43141342D01*
X5463810Y-43141342D02*
X5159048Y-43141342D01*
X5959048Y-43522295D02*
X5959048Y-42722295D01*
X6492381Y-42722295D02*
X6644762Y-42722295D01*
X6644762Y-42722295D02*
X6720952Y-42760390D01*
X6720952Y-42760390D02*
X6797143Y-42836580D01*
X6797143Y-42836580D02*
X6835238Y-42988961D01*
X6835238Y-42988961D02*
X6835238Y-43255628D01*
X6835238Y-43255628D02*
X6797143Y-43408009D01*
X6797143Y-43408009D02*
X6720952Y-43484200D01*
X6720952Y-43484200D02*
X6644762Y-43522295D01*
X6644762Y-43522295D02*
X6492381Y-43522295D01*
X6492381Y-43522295D02*
X6416190Y-43484200D01*
X6416190Y-43484200D02*
X6340000Y-43408009D01*
X6340000Y-43408009D02*
X6301904Y-43255628D01*
X6301904Y-43255628D02*
X6301904Y-42988961D01*
X6301904Y-42988961D02*
X6340000Y-42836580D01*
X6340000Y-42836580D02*
X6416190Y-42760390D01*
X6416190Y-42760390D02*
X6492381Y-42722295D01*
X7520952Y-42988961D02*
X7520952Y-43522295D01*
X7330476Y-42684200D02*
X7139999Y-43255628D01*
X7139999Y-43255628D02*
X7635238Y-43255628D01*
X8282857Y-42722295D02*
X8130476Y-42722295D01*
X8130476Y-42722295D02*
X8054285Y-42760390D01*
X8054285Y-42760390D02*
X8016190Y-42798485D01*
X8016190Y-42798485D02*
X7940000Y-42912771D01*
X7940000Y-42912771D02*
X7901904Y-43065152D01*
X7901904Y-43065152D02*
X7901904Y-43369914D01*
X7901904Y-43369914D02*
X7940000Y-43446104D01*
X7940000Y-43446104D02*
X7978095Y-43484200D01*
X7978095Y-43484200D02*
X8054285Y-43522295D01*
X8054285Y-43522295D02*
X8206666Y-43522295D01*
X8206666Y-43522295D02*
X8282857Y-43484200D01*
X8282857Y-43484200D02*
X8320952Y-43446104D01*
X8320952Y-43446104D02*
X8359047Y-43369914D01*
X8359047Y-43369914D02*
X8359047Y-43179438D01*
X8359047Y-43179438D02*
X8320952Y-43103247D01*
X8320952Y-43103247D02*
X8282857Y-43065152D01*
X8282857Y-43065152D02*
X8206666Y-43027057D01*
X8206666Y-43027057D02*
X8054285Y-43027057D01*
X8054285Y-43027057D02*
X7978095Y-43065152D01*
X7978095Y-43065152D02*
X7940000Y-43103247D01*
X7940000Y-43103247D02*
X7901904Y-43179438D01*
X5254285Y-44503247D02*
X5368571Y-44541342D01*
X5368571Y-44541342D02*
X5406666Y-44579438D01*
X5406666Y-44579438D02*
X5444762Y-44655628D01*
X5444762Y-44655628D02*
X5444762Y-44769914D01*
X5444762Y-44769914D02*
X5406666Y-44846104D01*
X5406666Y-44846104D02*
X5368571Y-44884200D01*
X5368571Y-44884200D02*
X5292381Y-44922295D01*
X5292381Y-44922295D02*
X4987619Y-44922295D01*
X4987619Y-44922295D02*
X4987619Y-44122295D01*
X4987619Y-44122295D02*
X5254285Y-44122295D01*
X5254285Y-44122295D02*
X5330476Y-44160390D01*
X5330476Y-44160390D02*
X5368571Y-44198485D01*
X5368571Y-44198485D02*
X5406666Y-44274676D01*
X5406666Y-44274676D02*
X5406666Y-44350866D01*
X5406666Y-44350866D02*
X5368571Y-44427057D01*
X5368571Y-44427057D02*
X5330476Y-44465152D01*
X5330476Y-44465152D02*
X5254285Y-44503247D01*
X5254285Y-44503247D02*
X4987619Y-44503247D01*
X5940000Y-44122295D02*
X6092381Y-44122295D01*
X6092381Y-44122295D02*
X6168571Y-44160390D01*
X6168571Y-44160390D02*
X6244762Y-44236580D01*
X6244762Y-44236580D02*
X6282857Y-44388961D01*
X6282857Y-44388961D02*
X6282857Y-44655628D01*
X6282857Y-44655628D02*
X6244762Y-44808009D01*
X6244762Y-44808009D02*
X6168571Y-44884200D01*
X6168571Y-44884200D02*
X6092381Y-44922295D01*
X6092381Y-44922295D02*
X5940000Y-44922295D01*
X5940000Y-44922295D02*
X5863809Y-44884200D01*
X5863809Y-44884200D02*
X5787619Y-44808009D01*
X5787619Y-44808009D02*
X5749523Y-44655628D01*
X5749523Y-44655628D02*
X5749523Y-44388961D01*
X5749523Y-44388961D02*
X5787619Y-44236580D01*
X5787619Y-44236580D02*
X5863809Y-44160390D01*
X5863809Y-44160390D02*
X5940000Y-44122295D01*
X6778095Y-44122295D02*
X6930476Y-44122295D01*
X6930476Y-44122295D02*
X7006666Y-44160390D01*
X7006666Y-44160390D02*
X7082857Y-44236580D01*
X7082857Y-44236580D02*
X7120952Y-44388961D01*
X7120952Y-44388961D02*
X7120952Y-44655628D01*
X7120952Y-44655628D02*
X7082857Y-44808009D01*
X7082857Y-44808009D02*
X7006666Y-44884200D01*
X7006666Y-44884200D02*
X6930476Y-44922295D01*
X6930476Y-44922295D02*
X6778095Y-44922295D01*
X6778095Y-44922295D02*
X6701904Y-44884200D01*
X6701904Y-44884200D02*
X6625714Y-44808009D01*
X6625714Y-44808009D02*
X6587618Y-44655628D01*
X6587618Y-44655628D02*
X6587618Y-44388961D01*
X6587618Y-44388961D02*
X6625714Y-44236580D01*
X6625714Y-44236580D02*
X6701904Y-44160390D01*
X6701904Y-44160390D02*
X6778095Y-44122295D01*
X7349523Y-44122295D02*
X7806666Y-44122295D01*
X7578094Y-44922295D02*
X7578094Y-44122295D01*
X4778095Y-45300390D02*
X4701905Y-45262295D01*
X4701905Y-45262295D02*
X4587619Y-45262295D01*
X4587619Y-45262295D02*
X4473333Y-45300390D01*
X4473333Y-45300390D02*
X4397143Y-45376580D01*
X4397143Y-45376580D02*
X4359048Y-45452771D01*
X4359048Y-45452771D02*
X4320952Y-45605152D01*
X4320952Y-45605152D02*
X4320952Y-45719438D01*
X4320952Y-45719438D02*
X4359048Y-45871819D01*
X4359048Y-45871819D02*
X4397143Y-45948009D01*
X4397143Y-45948009D02*
X4473333Y-46024200D01*
X4473333Y-46024200D02*
X4587619Y-46062295D01*
X4587619Y-46062295D02*
X4663810Y-46062295D01*
X4663810Y-46062295D02*
X4778095Y-46024200D01*
X4778095Y-46024200D02*
X4816191Y-45986104D01*
X4816191Y-45986104D02*
X4816191Y-45719438D01*
X4816191Y-45719438D02*
X4663810Y-45719438D01*
X5159048Y-46062295D02*
X5159048Y-45262295D01*
X5159048Y-45262295D02*
X5463810Y-45262295D01*
X5463810Y-45262295D02*
X5540000Y-45300390D01*
X5540000Y-45300390D02*
X5578095Y-45338485D01*
X5578095Y-45338485D02*
X5616191Y-45414676D01*
X5616191Y-45414676D02*
X5616191Y-45528961D01*
X5616191Y-45528961D02*
X5578095Y-45605152D01*
X5578095Y-45605152D02*
X5540000Y-45643247D01*
X5540000Y-45643247D02*
X5463810Y-45681342D01*
X5463810Y-45681342D02*
X5159048Y-45681342D01*
X5959048Y-46062295D02*
X5959048Y-45262295D01*
X6492381Y-45262295D02*
X6644762Y-45262295D01*
X6644762Y-45262295D02*
X6720952Y-45300390D01*
X6720952Y-45300390D02*
X6797143Y-45376580D01*
X6797143Y-45376580D02*
X6835238Y-45528961D01*
X6835238Y-45528961D02*
X6835238Y-45795628D01*
X6835238Y-45795628D02*
X6797143Y-45948009D01*
X6797143Y-45948009D02*
X6720952Y-46024200D01*
X6720952Y-46024200D02*
X6644762Y-46062295D01*
X6644762Y-46062295D02*
X6492381Y-46062295D01*
X6492381Y-46062295D02*
X6416190Y-46024200D01*
X6416190Y-46024200D02*
X6340000Y-45948009D01*
X6340000Y-45948009D02*
X6301904Y-45795628D01*
X6301904Y-45795628D02*
X6301904Y-45528961D01*
X6301904Y-45528961D02*
X6340000Y-45376580D01*
X6340000Y-45376580D02*
X6416190Y-45300390D01*
X6416190Y-45300390D02*
X6492381Y-45262295D01*
X7520952Y-45528961D02*
X7520952Y-46062295D01*
X7330476Y-45224200D02*
X7139999Y-45795628D01*
X7139999Y-45795628D02*
X7635238Y-45795628D01*
X7863809Y-45262295D02*
X8397143Y-45262295D01*
X8397143Y-45262295D02*
X8054285Y-46062295D01*
X5901905Y-47462295D02*
X5635238Y-47081342D01*
X5444762Y-47462295D02*
X5444762Y-46662295D01*
X5444762Y-46662295D02*
X5749524Y-46662295D01*
X5749524Y-46662295D02*
X5825714Y-46700390D01*
X5825714Y-46700390D02*
X5863809Y-46738485D01*
X5863809Y-46738485D02*
X5901905Y-46814676D01*
X5901905Y-46814676D02*
X5901905Y-46928961D01*
X5901905Y-46928961D02*
X5863809Y-47005152D01*
X5863809Y-47005152D02*
X5825714Y-47043247D01*
X5825714Y-47043247D02*
X5749524Y-47081342D01*
X5749524Y-47081342D02*
X5444762Y-47081342D01*
X6206666Y-47424200D02*
X6320952Y-47462295D01*
X6320952Y-47462295D02*
X6511428Y-47462295D01*
X6511428Y-47462295D02*
X6587619Y-47424200D01*
X6587619Y-47424200D02*
X6625714Y-47386104D01*
X6625714Y-47386104D02*
X6663809Y-47309914D01*
X6663809Y-47309914D02*
X6663809Y-47233723D01*
X6663809Y-47233723D02*
X6625714Y-47157533D01*
X6625714Y-47157533D02*
X6587619Y-47119438D01*
X6587619Y-47119438D02*
X6511428Y-47081342D01*
X6511428Y-47081342D02*
X6359047Y-47043247D01*
X6359047Y-47043247D02*
X6282857Y-47005152D01*
X6282857Y-47005152D02*
X6244762Y-46967057D01*
X6244762Y-46967057D02*
X6206666Y-46890866D01*
X6206666Y-46890866D02*
X6206666Y-46814676D01*
X6206666Y-46814676D02*
X6244762Y-46738485D01*
X6244762Y-46738485D02*
X6282857Y-46700390D01*
X6282857Y-46700390D02*
X6359047Y-46662295D01*
X6359047Y-46662295D02*
X6549524Y-46662295D01*
X6549524Y-46662295D02*
X6663809Y-46700390D01*
X6892381Y-46662295D02*
X7349524Y-46662295D01*
X7120952Y-47462295D02*
X7120952Y-46662295D01*
X4778095Y-47840390D02*
X4701905Y-47802295D01*
X4701905Y-47802295D02*
X4587619Y-47802295D01*
X4587619Y-47802295D02*
X4473333Y-47840390D01*
X4473333Y-47840390D02*
X4397143Y-47916580D01*
X4397143Y-47916580D02*
X4359048Y-47992771D01*
X4359048Y-47992771D02*
X4320952Y-48145152D01*
X4320952Y-48145152D02*
X4320952Y-48259438D01*
X4320952Y-48259438D02*
X4359048Y-48411819D01*
X4359048Y-48411819D02*
X4397143Y-48488009D01*
X4397143Y-48488009D02*
X4473333Y-48564200D01*
X4473333Y-48564200D02*
X4587619Y-48602295D01*
X4587619Y-48602295D02*
X4663810Y-48602295D01*
X4663810Y-48602295D02*
X4778095Y-48564200D01*
X4778095Y-48564200D02*
X4816191Y-48526104D01*
X4816191Y-48526104D02*
X4816191Y-48259438D01*
X4816191Y-48259438D02*
X4663810Y-48259438D01*
X5159048Y-48602295D02*
X5159048Y-47802295D01*
X5159048Y-47802295D02*
X5463810Y-47802295D01*
X5463810Y-47802295D02*
X5540000Y-47840390D01*
X5540000Y-47840390D02*
X5578095Y-47878485D01*
X5578095Y-47878485D02*
X5616191Y-47954676D01*
X5616191Y-47954676D02*
X5616191Y-48068961D01*
X5616191Y-48068961D02*
X5578095Y-48145152D01*
X5578095Y-48145152D02*
X5540000Y-48183247D01*
X5540000Y-48183247D02*
X5463810Y-48221342D01*
X5463810Y-48221342D02*
X5159048Y-48221342D01*
X5959048Y-48602295D02*
X5959048Y-47802295D01*
X6492381Y-47802295D02*
X6644762Y-47802295D01*
X6644762Y-47802295D02*
X6720952Y-47840390D01*
X6720952Y-47840390D02*
X6797143Y-47916580D01*
X6797143Y-47916580D02*
X6835238Y-48068961D01*
X6835238Y-48068961D02*
X6835238Y-48335628D01*
X6835238Y-48335628D02*
X6797143Y-48488009D01*
X6797143Y-48488009D02*
X6720952Y-48564200D01*
X6720952Y-48564200D02*
X6644762Y-48602295D01*
X6644762Y-48602295D02*
X6492381Y-48602295D01*
X6492381Y-48602295D02*
X6416190Y-48564200D01*
X6416190Y-48564200D02*
X6340000Y-48488009D01*
X6340000Y-48488009D02*
X6301904Y-48335628D01*
X6301904Y-48335628D02*
X6301904Y-48068961D01*
X6301904Y-48068961D02*
X6340000Y-47916580D01*
X6340000Y-47916580D02*
X6416190Y-47840390D01*
X6416190Y-47840390D02*
X6492381Y-47802295D01*
X7520952Y-48068961D02*
X7520952Y-48602295D01*
X7330476Y-47764200D02*
X7139999Y-48335628D01*
X7139999Y-48335628D02*
X7635238Y-48335628D01*
X8054285Y-48145152D02*
X7978095Y-48107057D01*
X7978095Y-48107057D02*
X7940000Y-48068961D01*
X7940000Y-48068961D02*
X7901904Y-47992771D01*
X7901904Y-47992771D02*
X7901904Y-47954676D01*
X7901904Y-47954676D02*
X7940000Y-47878485D01*
X7940000Y-47878485D02*
X7978095Y-47840390D01*
X7978095Y-47840390D02*
X8054285Y-47802295D01*
X8054285Y-47802295D02*
X8206666Y-47802295D01*
X8206666Y-47802295D02*
X8282857Y-47840390D01*
X8282857Y-47840390D02*
X8320952Y-47878485D01*
X8320952Y-47878485D02*
X8359047Y-47954676D01*
X8359047Y-47954676D02*
X8359047Y-47992771D01*
X8359047Y-47992771D02*
X8320952Y-48068961D01*
X8320952Y-48068961D02*
X8282857Y-48107057D01*
X8282857Y-48107057D02*
X8206666Y-48145152D01*
X8206666Y-48145152D02*
X8054285Y-48145152D01*
X8054285Y-48145152D02*
X7978095Y-48183247D01*
X7978095Y-48183247D02*
X7940000Y-48221342D01*
X7940000Y-48221342D02*
X7901904Y-48297533D01*
X7901904Y-48297533D02*
X7901904Y-48449914D01*
X7901904Y-48449914D02*
X7940000Y-48526104D01*
X7940000Y-48526104D02*
X7978095Y-48564200D01*
X7978095Y-48564200D02*
X8054285Y-48602295D01*
X8054285Y-48602295D02*
X8206666Y-48602295D01*
X8206666Y-48602295D02*
X8282857Y-48564200D01*
X8282857Y-48564200D02*
X8320952Y-48526104D01*
X8320952Y-48526104D02*
X8359047Y-48449914D01*
X8359047Y-48449914D02*
X8359047Y-48297533D01*
X8359047Y-48297533D02*
X8320952Y-48221342D01*
X8320952Y-48221342D02*
X8282857Y-48183247D01*
X8282857Y-48183247D02*
X8206666Y-48145152D01*
X5273333Y-50002295D02*
X5273333Y-49202295D01*
X5273333Y-49202295D02*
X5578095Y-49202295D01*
X5578095Y-49202295D02*
X5654285Y-49240390D01*
X5654285Y-49240390D02*
X5692380Y-49278485D01*
X5692380Y-49278485D02*
X5730476Y-49354676D01*
X5730476Y-49354676D02*
X5730476Y-49468961D01*
X5730476Y-49468961D02*
X5692380Y-49545152D01*
X5692380Y-49545152D02*
X5654285Y-49583247D01*
X5654285Y-49583247D02*
X5578095Y-49621342D01*
X5578095Y-49621342D02*
X5273333Y-49621342D01*
X5997142Y-49202295D02*
X6187618Y-50002295D01*
X6187618Y-50002295D02*
X6339999Y-49430866D01*
X6339999Y-49430866D02*
X6492380Y-50002295D01*
X6492380Y-50002295D02*
X6682857Y-49202295D01*
X7444762Y-50002295D02*
X7178095Y-49621342D01*
X6987619Y-50002295D02*
X6987619Y-49202295D01*
X6987619Y-49202295D02*
X7292381Y-49202295D01*
X7292381Y-49202295D02*
X7368571Y-49240390D01*
X7368571Y-49240390D02*
X7406666Y-49278485D01*
X7406666Y-49278485D02*
X7444762Y-49354676D01*
X7444762Y-49354676D02*
X7444762Y-49468961D01*
X7444762Y-49468961D02*
X7406666Y-49545152D01*
X7406666Y-49545152D02*
X7368571Y-49583247D01*
X7368571Y-49583247D02*
X7292381Y-49621342D01*
X7292381Y-49621342D02*
X6987619Y-49621342D01*
X3901905Y-51142295D02*
X3635238Y-50761342D01*
X3444762Y-51142295D02*
X3444762Y-50342295D01*
X3444762Y-50342295D02*
X3749524Y-50342295D01*
X3749524Y-50342295D02*
X3825714Y-50380390D01*
X3825714Y-50380390D02*
X3863809Y-50418485D01*
X3863809Y-50418485D02*
X3901905Y-50494676D01*
X3901905Y-50494676D02*
X3901905Y-50608961D01*
X3901905Y-50608961D02*
X3863809Y-50685152D01*
X3863809Y-50685152D02*
X3825714Y-50723247D01*
X3825714Y-50723247D02*
X3749524Y-50761342D01*
X3749524Y-50761342D02*
X3444762Y-50761342D01*
X4168571Y-50342295D02*
X4701905Y-51142295D01*
X4701905Y-50342295D02*
X4168571Y-51142295D01*
X5006667Y-51142295D02*
X5006667Y-50342295D01*
X5006667Y-50342295D02*
X5197143Y-50342295D01*
X5197143Y-50342295D02*
X5311429Y-50380390D01*
X5311429Y-50380390D02*
X5387619Y-50456580D01*
X5387619Y-50456580D02*
X5425714Y-50532771D01*
X5425714Y-50532771D02*
X5463810Y-50685152D01*
X5463810Y-50685152D02*
X5463810Y-50799438D01*
X5463810Y-50799438D02*
X5425714Y-50951819D01*
X5425714Y-50951819D02*
X5387619Y-51028009D01*
X5387619Y-51028009D02*
X5311429Y-51104200D01*
X5311429Y-51104200D02*
X5197143Y-51142295D01*
X5197143Y-51142295D02*
X5006667Y-51142295D01*
X6035238Y-51447057D02*
X5997143Y-51408961D01*
X5997143Y-51408961D02*
X5920952Y-51294676D01*
X5920952Y-51294676D02*
X5882857Y-51218485D01*
X5882857Y-51218485D02*
X5844762Y-51104200D01*
X5844762Y-51104200D02*
X5806667Y-50913723D01*
X5806667Y-50913723D02*
X5806667Y-50761342D01*
X5806667Y-50761342D02*
X5844762Y-50570866D01*
X5844762Y-50570866D02*
X5882857Y-50456580D01*
X5882857Y-50456580D02*
X5920952Y-50380390D01*
X5920952Y-50380390D02*
X5997143Y-50266104D01*
X5997143Y-50266104D02*
X6035238Y-50228009D01*
X6340000Y-51142295D02*
X6340000Y-50342295D01*
X6873333Y-50342295D02*
X7025714Y-50342295D01*
X7025714Y-50342295D02*
X7101904Y-50380390D01*
X7101904Y-50380390D02*
X7178095Y-50456580D01*
X7178095Y-50456580D02*
X7216190Y-50608961D01*
X7216190Y-50608961D02*
X7216190Y-50875628D01*
X7216190Y-50875628D02*
X7178095Y-51028009D01*
X7178095Y-51028009D02*
X7101904Y-51104200D01*
X7101904Y-51104200D02*
X7025714Y-51142295D01*
X7025714Y-51142295D02*
X6873333Y-51142295D01*
X6873333Y-51142295D02*
X6797142Y-51104200D01*
X6797142Y-51104200D02*
X6720952Y-51028009D01*
X6720952Y-51028009D02*
X6682856Y-50875628D01*
X6682856Y-50875628D02*
X6682856Y-50608961D01*
X6682856Y-50608961D02*
X6720952Y-50456580D01*
X6720952Y-50456580D02*
X6797142Y-50380390D01*
X6797142Y-50380390D02*
X6873333Y-50342295D01*
X7901904Y-50608961D02*
X7901904Y-51142295D01*
X7711428Y-50304200D02*
X7520951Y-50875628D01*
X7520951Y-50875628D02*
X8016190Y-50875628D01*
X8663809Y-50608961D02*
X8663809Y-51142295D01*
X8473333Y-50304200D02*
X8282856Y-50875628D01*
X8282856Y-50875628D02*
X8778095Y-50875628D01*
X9006666Y-51447057D02*
X9044761Y-51408961D01*
X9044761Y-51408961D02*
X9120952Y-51294676D01*
X9120952Y-51294676D02*
X9159047Y-51218485D01*
X9159047Y-51218485D02*
X9197142Y-51104200D01*
X9197142Y-51104200D02*
X9235238Y-50913723D01*
X9235238Y-50913723D02*
X9235238Y-50761342D01*
X9235238Y-50761342D02*
X9197142Y-50570866D01*
X9197142Y-50570866D02*
X9159047Y-50456580D01*
X9159047Y-50456580D02*
X9120952Y-50380390D01*
X9120952Y-50380390D02*
X9044761Y-50266104D01*
X9044761Y-50266104D02*
X9006666Y-50228009D01*
X3863809Y-52504200D02*
X3978095Y-52542295D01*
X3978095Y-52542295D02*
X4168571Y-52542295D01*
X4168571Y-52542295D02*
X4244762Y-52504200D01*
X4244762Y-52504200D02*
X4282857Y-52466104D01*
X4282857Y-52466104D02*
X4320952Y-52389914D01*
X4320952Y-52389914D02*
X4320952Y-52313723D01*
X4320952Y-52313723D02*
X4282857Y-52237533D01*
X4282857Y-52237533D02*
X4244762Y-52199438D01*
X4244762Y-52199438D02*
X4168571Y-52161342D01*
X4168571Y-52161342D02*
X4016190Y-52123247D01*
X4016190Y-52123247D02*
X3940000Y-52085152D01*
X3940000Y-52085152D02*
X3901905Y-52047057D01*
X3901905Y-52047057D02*
X3863809Y-51970866D01*
X3863809Y-51970866D02*
X3863809Y-51894676D01*
X3863809Y-51894676D02*
X3901905Y-51818485D01*
X3901905Y-51818485D02*
X3940000Y-51780390D01*
X3940000Y-51780390D02*
X4016190Y-51742295D01*
X4016190Y-51742295D02*
X4206667Y-51742295D01*
X4206667Y-51742295D02*
X4320952Y-51780390D01*
X5120953Y-52466104D02*
X5082857Y-52504200D01*
X5082857Y-52504200D02*
X4968572Y-52542295D01*
X4968572Y-52542295D02*
X4892381Y-52542295D01*
X4892381Y-52542295D02*
X4778095Y-52504200D01*
X4778095Y-52504200D02*
X4701905Y-52428009D01*
X4701905Y-52428009D02*
X4663810Y-52351819D01*
X4663810Y-52351819D02*
X4625714Y-52199438D01*
X4625714Y-52199438D02*
X4625714Y-52085152D01*
X4625714Y-52085152D02*
X4663810Y-51932771D01*
X4663810Y-51932771D02*
X4701905Y-51856580D01*
X4701905Y-51856580D02*
X4778095Y-51780390D01*
X4778095Y-51780390D02*
X4892381Y-51742295D01*
X4892381Y-51742295D02*
X4968572Y-51742295D01*
X4968572Y-51742295D02*
X5082857Y-51780390D01*
X5082857Y-51780390D02*
X5120953Y-51818485D01*
X5844762Y-52542295D02*
X5463810Y-52542295D01*
X5463810Y-52542295D02*
X5463810Y-51742295D01*
X6340000Y-52847057D02*
X6301905Y-52808961D01*
X6301905Y-52808961D02*
X6225714Y-52694676D01*
X6225714Y-52694676D02*
X6187619Y-52618485D01*
X6187619Y-52618485D02*
X6149524Y-52504200D01*
X6149524Y-52504200D02*
X6111429Y-52313723D01*
X6111429Y-52313723D02*
X6111429Y-52161342D01*
X6111429Y-52161342D02*
X6149524Y-51970866D01*
X6149524Y-51970866D02*
X6187619Y-51856580D01*
X6187619Y-51856580D02*
X6225714Y-51780390D01*
X6225714Y-51780390D02*
X6301905Y-51666104D01*
X6301905Y-51666104D02*
X6340000Y-51628009D01*
X6644762Y-52542295D02*
X6644762Y-51742295D01*
X7178095Y-51742295D02*
X7330476Y-51742295D01*
X7330476Y-51742295D02*
X7406666Y-51780390D01*
X7406666Y-51780390D02*
X7482857Y-51856580D01*
X7482857Y-51856580D02*
X7520952Y-52008961D01*
X7520952Y-52008961D02*
X7520952Y-52275628D01*
X7520952Y-52275628D02*
X7482857Y-52428009D01*
X7482857Y-52428009D02*
X7406666Y-52504200D01*
X7406666Y-52504200D02*
X7330476Y-52542295D01*
X7330476Y-52542295D02*
X7178095Y-52542295D01*
X7178095Y-52542295D02*
X7101904Y-52504200D01*
X7101904Y-52504200D02*
X7025714Y-52428009D01*
X7025714Y-52428009D02*
X6987618Y-52275628D01*
X6987618Y-52275628D02*
X6987618Y-52008961D01*
X6987618Y-52008961D02*
X7025714Y-51856580D01*
X7025714Y-51856580D02*
X7101904Y-51780390D01*
X7101904Y-51780390D02*
X7178095Y-51742295D01*
X7787618Y-51742295D02*
X8320952Y-51742295D01*
X8320952Y-51742295D02*
X7978094Y-52542295D01*
X8549523Y-52847057D02*
X8587618Y-52808961D01*
X8587618Y-52808961D02*
X8663809Y-52694676D01*
X8663809Y-52694676D02*
X8701904Y-52618485D01*
X8701904Y-52618485D02*
X8739999Y-52504200D01*
X8739999Y-52504200D02*
X8778095Y-52313723D01*
X8778095Y-52313723D02*
X8778095Y-52161342D01*
X8778095Y-52161342D02*
X8739999Y-51970866D01*
X8739999Y-51970866D02*
X8701904Y-51856580D01*
X8701904Y-51856580D02*
X8663809Y-51780390D01*
X8663809Y-51780390D02*
X8587618Y-51666104D01*
X8587618Y-51666104D02*
X8549523Y-51628009D01*
X3425714Y-52882295D02*
X3882857Y-52882295D01*
X3654285Y-53682295D02*
X3654285Y-52882295D01*
X4073333Y-52882295D02*
X4606667Y-53682295D01*
X4606667Y-52882295D02*
X4073333Y-53682295D01*
X4911429Y-53682295D02*
X4911429Y-52882295D01*
X4911429Y-52882295D02*
X5101905Y-52882295D01*
X5101905Y-52882295D02*
X5216191Y-52920390D01*
X5216191Y-52920390D02*
X5292381Y-52996580D01*
X5292381Y-52996580D02*
X5330476Y-53072771D01*
X5330476Y-53072771D02*
X5368572Y-53225152D01*
X5368572Y-53225152D02*
X5368572Y-53339438D01*
X5368572Y-53339438D02*
X5330476Y-53491819D01*
X5330476Y-53491819D02*
X5292381Y-53568009D01*
X5292381Y-53568009D02*
X5216191Y-53644200D01*
X5216191Y-53644200D02*
X5101905Y-53682295D01*
X5101905Y-53682295D02*
X4911429Y-53682295D01*
X5940000Y-53987057D02*
X5901905Y-53948961D01*
X5901905Y-53948961D02*
X5825714Y-53834676D01*
X5825714Y-53834676D02*
X5787619Y-53758485D01*
X5787619Y-53758485D02*
X5749524Y-53644200D01*
X5749524Y-53644200D02*
X5711429Y-53453723D01*
X5711429Y-53453723D02*
X5711429Y-53301342D01*
X5711429Y-53301342D02*
X5749524Y-53110866D01*
X5749524Y-53110866D02*
X5787619Y-52996580D01*
X5787619Y-52996580D02*
X5825714Y-52920390D01*
X5825714Y-52920390D02*
X5901905Y-52806104D01*
X5901905Y-52806104D02*
X5940000Y-52768009D01*
X6244762Y-53682295D02*
X6244762Y-52882295D01*
X6778095Y-52882295D02*
X6930476Y-52882295D01*
X6930476Y-52882295D02*
X7006666Y-52920390D01*
X7006666Y-52920390D02*
X7082857Y-52996580D01*
X7082857Y-52996580D02*
X7120952Y-53148961D01*
X7120952Y-53148961D02*
X7120952Y-53415628D01*
X7120952Y-53415628D02*
X7082857Y-53568009D01*
X7082857Y-53568009D02*
X7006666Y-53644200D01*
X7006666Y-53644200D02*
X6930476Y-53682295D01*
X6930476Y-53682295D02*
X6778095Y-53682295D01*
X6778095Y-53682295D02*
X6701904Y-53644200D01*
X6701904Y-53644200D02*
X6625714Y-53568009D01*
X6625714Y-53568009D02*
X6587618Y-53415628D01*
X6587618Y-53415628D02*
X6587618Y-53148961D01*
X6587618Y-53148961D02*
X6625714Y-52996580D01*
X6625714Y-52996580D02*
X6701904Y-52920390D01*
X6701904Y-52920390D02*
X6778095Y-52882295D01*
X7806666Y-53148961D02*
X7806666Y-53682295D01*
X7616190Y-52844200D02*
X7425713Y-53415628D01*
X7425713Y-53415628D02*
X7920952Y-53415628D01*
X8149523Y-52882295D02*
X8644761Y-52882295D01*
X8644761Y-52882295D02*
X8378095Y-53187057D01*
X8378095Y-53187057D02*
X8492380Y-53187057D01*
X8492380Y-53187057D02*
X8568571Y-53225152D01*
X8568571Y-53225152D02*
X8606666Y-53263247D01*
X8606666Y-53263247D02*
X8644761Y-53339438D01*
X8644761Y-53339438D02*
X8644761Y-53529914D01*
X8644761Y-53529914D02*
X8606666Y-53606104D01*
X8606666Y-53606104D02*
X8568571Y-53644200D01*
X8568571Y-53644200D02*
X8492380Y-53682295D01*
X8492380Y-53682295D02*
X8263809Y-53682295D01*
X8263809Y-53682295D02*
X8187618Y-53644200D01*
X8187618Y-53644200D02*
X8149523Y-53606104D01*
X8911428Y-53987057D02*
X8949523Y-53948961D01*
X8949523Y-53948961D02*
X9025714Y-53834676D01*
X9025714Y-53834676D02*
X9063809Y-53758485D01*
X9063809Y-53758485D02*
X9101904Y-53644200D01*
X9101904Y-53644200D02*
X9140000Y-53453723D01*
X9140000Y-53453723D02*
X9140000Y-53301342D01*
X9140000Y-53301342D02*
X9101904Y-53110866D01*
X9101904Y-53110866D02*
X9063809Y-52996580D01*
X9063809Y-52996580D02*
X9025714Y-52920390D01*
X9025714Y-52920390D02*
X8949523Y-52806104D01*
X8949523Y-52806104D02*
X8911428Y-52768009D01*
X3844762Y-55044200D02*
X3959048Y-55082295D01*
X3959048Y-55082295D02*
X4149524Y-55082295D01*
X4149524Y-55082295D02*
X4225715Y-55044200D01*
X4225715Y-55044200D02*
X4263810Y-55006104D01*
X4263810Y-55006104D02*
X4301905Y-54929914D01*
X4301905Y-54929914D02*
X4301905Y-54853723D01*
X4301905Y-54853723D02*
X4263810Y-54777533D01*
X4263810Y-54777533D02*
X4225715Y-54739438D01*
X4225715Y-54739438D02*
X4149524Y-54701342D01*
X4149524Y-54701342D02*
X3997143Y-54663247D01*
X3997143Y-54663247D02*
X3920953Y-54625152D01*
X3920953Y-54625152D02*
X3882858Y-54587057D01*
X3882858Y-54587057D02*
X3844762Y-54510866D01*
X3844762Y-54510866D02*
X3844762Y-54434676D01*
X3844762Y-54434676D02*
X3882858Y-54358485D01*
X3882858Y-54358485D02*
X3920953Y-54320390D01*
X3920953Y-54320390D02*
X3997143Y-54282295D01*
X3997143Y-54282295D02*
X4187620Y-54282295D01*
X4187620Y-54282295D02*
X4301905Y-54320390D01*
X4644763Y-55082295D02*
X4644763Y-54282295D01*
X4644763Y-54282295D02*
X4835239Y-54282295D01*
X4835239Y-54282295D02*
X4949525Y-54320390D01*
X4949525Y-54320390D02*
X5025715Y-54396580D01*
X5025715Y-54396580D02*
X5063810Y-54472771D01*
X5063810Y-54472771D02*
X5101906Y-54625152D01*
X5101906Y-54625152D02*
X5101906Y-54739438D01*
X5101906Y-54739438D02*
X5063810Y-54891819D01*
X5063810Y-54891819D02*
X5025715Y-54968009D01*
X5025715Y-54968009D02*
X4949525Y-55044200D01*
X4949525Y-55044200D02*
X4835239Y-55082295D01*
X4835239Y-55082295D02*
X4644763Y-55082295D01*
X5406667Y-54853723D02*
X5787620Y-54853723D01*
X5330477Y-55082295D02*
X5597144Y-54282295D01*
X5597144Y-54282295D02*
X5863810Y-55082295D01*
X6359048Y-55387057D02*
X6320953Y-55348961D01*
X6320953Y-55348961D02*
X6244762Y-55234676D01*
X6244762Y-55234676D02*
X6206667Y-55158485D01*
X6206667Y-55158485D02*
X6168572Y-55044200D01*
X6168572Y-55044200D02*
X6130477Y-54853723D01*
X6130477Y-54853723D02*
X6130477Y-54701342D01*
X6130477Y-54701342D02*
X6168572Y-54510866D01*
X6168572Y-54510866D02*
X6206667Y-54396580D01*
X6206667Y-54396580D02*
X6244762Y-54320390D01*
X6244762Y-54320390D02*
X6320953Y-54206104D01*
X6320953Y-54206104D02*
X6359048Y-54168009D01*
X6663810Y-55082295D02*
X6663810Y-54282295D01*
X7197143Y-54282295D02*
X7349524Y-54282295D01*
X7349524Y-54282295D02*
X7425714Y-54320390D01*
X7425714Y-54320390D02*
X7501905Y-54396580D01*
X7501905Y-54396580D02*
X7540000Y-54548961D01*
X7540000Y-54548961D02*
X7540000Y-54815628D01*
X7540000Y-54815628D02*
X7501905Y-54968009D01*
X7501905Y-54968009D02*
X7425714Y-55044200D01*
X7425714Y-55044200D02*
X7349524Y-55082295D01*
X7349524Y-55082295D02*
X7197143Y-55082295D01*
X7197143Y-55082295D02*
X7120952Y-55044200D01*
X7120952Y-55044200D02*
X7044762Y-54968009D01*
X7044762Y-54968009D02*
X7006666Y-54815628D01*
X7006666Y-54815628D02*
X7006666Y-54548961D01*
X7006666Y-54548961D02*
X7044762Y-54396580D01*
X7044762Y-54396580D02*
X7120952Y-54320390D01*
X7120952Y-54320390D02*
X7197143Y-54282295D01*
X7997142Y-54625152D02*
X7920952Y-54587057D01*
X7920952Y-54587057D02*
X7882857Y-54548961D01*
X7882857Y-54548961D02*
X7844761Y-54472771D01*
X7844761Y-54472771D02*
X7844761Y-54434676D01*
X7844761Y-54434676D02*
X7882857Y-54358485D01*
X7882857Y-54358485D02*
X7920952Y-54320390D01*
X7920952Y-54320390D02*
X7997142Y-54282295D01*
X7997142Y-54282295D02*
X8149523Y-54282295D01*
X8149523Y-54282295D02*
X8225714Y-54320390D01*
X8225714Y-54320390D02*
X8263809Y-54358485D01*
X8263809Y-54358485D02*
X8301904Y-54434676D01*
X8301904Y-54434676D02*
X8301904Y-54472771D01*
X8301904Y-54472771D02*
X8263809Y-54548961D01*
X8263809Y-54548961D02*
X8225714Y-54587057D01*
X8225714Y-54587057D02*
X8149523Y-54625152D01*
X8149523Y-54625152D02*
X7997142Y-54625152D01*
X7997142Y-54625152D02*
X7920952Y-54663247D01*
X7920952Y-54663247D02*
X7882857Y-54701342D01*
X7882857Y-54701342D02*
X7844761Y-54777533D01*
X7844761Y-54777533D02*
X7844761Y-54929914D01*
X7844761Y-54929914D02*
X7882857Y-55006104D01*
X7882857Y-55006104D02*
X7920952Y-55044200D01*
X7920952Y-55044200D02*
X7997142Y-55082295D01*
X7997142Y-55082295D02*
X8149523Y-55082295D01*
X8149523Y-55082295D02*
X8225714Y-55044200D01*
X8225714Y-55044200D02*
X8263809Y-55006104D01*
X8263809Y-55006104D02*
X8301904Y-54929914D01*
X8301904Y-54929914D02*
X8301904Y-54777533D01*
X8301904Y-54777533D02*
X8263809Y-54701342D01*
X8263809Y-54701342D02*
X8225714Y-54663247D01*
X8225714Y-54663247D02*
X8149523Y-54625152D01*
X8568571Y-55387057D02*
X8606666Y-55348961D01*
X8606666Y-55348961D02*
X8682857Y-55234676D01*
X8682857Y-55234676D02*
X8720952Y-55158485D01*
X8720952Y-55158485D02*
X8759047Y-55044200D01*
X8759047Y-55044200D02*
X8797143Y-54853723D01*
X8797143Y-54853723D02*
X8797143Y-54701342D01*
X8797143Y-54701342D02*
X8759047Y-54510866D01*
X8759047Y-54510866D02*
X8720952Y-54396580D01*
X8720952Y-54396580D02*
X8682857Y-54320390D01*
X8682857Y-54320390D02*
X8606666Y-54206104D01*
X8606666Y-54206104D02*
X8568571Y-54168009D01*
X5730476Y-55460390D02*
X5654286Y-55422295D01*
X5654286Y-55422295D02*
X5540000Y-55422295D01*
X5540000Y-55422295D02*
X5425714Y-55460390D01*
X5425714Y-55460390D02*
X5349524Y-55536580D01*
X5349524Y-55536580D02*
X5311429Y-55612771D01*
X5311429Y-55612771D02*
X5273333Y-55765152D01*
X5273333Y-55765152D02*
X5273333Y-55879438D01*
X5273333Y-55879438D02*
X5311429Y-56031819D01*
X5311429Y-56031819D02*
X5349524Y-56108009D01*
X5349524Y-56108009D02*
X5425714Y-56184200D01*
X5425714Y-56184200D02*
X5540000Y-56222295D01*
X5540000Y-56222295D02*
X5616191Y-56222295D01*
X5616191Y-56222295D02*
X5730476Y-56184200D01*
X5730476Y-56184200D02*
X5768572Y-56146104D01*
X5768572Y-56146104D02*
X5768572Y-55879438D01*
X5768572Y-55879438D02*
X5616191Y-55879438D01*
X6111429Y-56222295D02*
X6111429Y-55422295D01*
X6111429Y-55422295D02*
X6568572Y-56222295D01*
X6568572Y-56222295D02*
X6568572Y-55422295D01*
X6949524Y-56222295D02*
X6949524Y-55422295D01*
X6949524Y-55422295D02*
X7140000Y-55422295D01*
X7140000Y-55422295D02*
X7254286Y-55460390D01*
X7254286Y-55460390D02*
X7330476Y-55536580D01*
X7330476Y-55536580D02*
X7368571Y-55612771D01*
X7368571Y-55612771D02*
X7406667Y-55765152D01*
X7406667Y-55765152D02*
X7406667Y-55879438D01*
X7406667Y-55879438D02*
X7368571Y-56031819D01*
X7368571Y-56031819D02*
X7330476Y-56108009D01*
X7330476Y-56108009D02*
X7254286Y-56184200D01*
X7254286Y-56184200D02*
X7140000Y-56222295D01*
X7140000Y-56222295D02*
X6949524Y-56222295D01*
X5730476Y-56860390D02*
X5654286Y-56822295D01*
X5654286Y-56822295D02*
X5540000Y-56822295D01*
X5540000Y-56822295D02*
X5425714Y-56860390D01*
X5425714Y-56860390D02*
X5349524Y-56936580D01*
X5349524Y-56936580D02*
X5311429Y-57012771D01*
X5311429Y-57012771D02*
X5273333Y-57165152D01*
X5273333Y-57165152D02*
X5273333Y-57279438D01*
X5273333Y-57279438D02*
X5311429Y-57431819D01*
X5311429Y-57431819D02*
X5349524Y-57508009D01*
X5349524Y-57508009D02*
X5425714Y-57584200D01*
X5425714Y-57584200D02*
X5540000Y-57622295D01*
X5540000Y-57622295D02*
X5616191Y-57622295D01*
X5616191Y-57622295D02*
X5730476Y-57584200D01*
X5730476Y-57584200D02*
X5768572Y-57546104D01*
X5768572Y-57546104D02*
X5768572Y-57279438D01*
X5768572Y-57279438D02*
X5616191Y-57279438D01*
X6111429Y-57622295D02*
X6111429Y-56822295D01*
X6111429Y-56822295D02*
X6568572Y-57622295D01*
X6568572Y-57622295D02*
X6568572Y-56822295D01*
X6949524Y-57622295D02*
X6949524Y-56822295D01*
X6949524Y-56822295D02*
X7140000Y-56822295D01*
X7140000Y-56822295D02*
X7254286Y-56860390D01*
X7254286Y-56860390D02*
X7330476Y-56936580D01*
X7330476Y-56936580D02*
X7368571Y-57012771D01*
X7368571Y-57012771D02*
X7406667Y-57165152D01*
X7406667Y-57165152D02*
X7406667Y-57279438D01*
X7406667Y-57279438D02*
X7368571Y-57431819D01*
X7368571Y-57431819D02*
X7330476Y-57508009D01*
X7330476Y-57508009D02*
X7254286Y-57584200D01*
X7254286Y-57584200D02*
X7140000Y-57622295D01*
X7140000Y-57622295D02*
X6949524Y-57622295D01*
X5349523Y-57962295D02*
X5844761Y-57962295D01*
X5844761Y-57962295D02*
X5578095Y-58267057D01*
X5578095Y-58267057D02*
X5692380Y-58267057D01*
X5692380Y-58267057D02*
X5768571Y-58305152D01*
X5768571Y-58305152D02*
X5806666Y-58343247D01*
X5806666Y-58343247D02*
X5844761Y-58419438D01*
X5844761Y-58419438D02*
X5844761Y-58609914D01*
X5844761Y-58609914D02*
X5806666Y-58686104D01*
X5806666Y-58686104D02*
X5768571Y-58724200D01*
X5768571Y-58724200D02*
X5692380Y-58762295D01*
X5692380Y-58762295D02*
X5463809Y-58762295D01*
X5463809Y-58762295D02*
X5387618Y-58724200D01*
X5387618Y-58724200D02*
X5349523Y-58686104D01*
X6073333Y-57962295D02*
X6340000Y-58762295D01*
X6340000Y-58762295D02*
X6606666Y-57962295D01*
X6797142Y-57962295D02*
X7292380Y-57962295D01*
X7292380Y-57962295D02*
X7025714Y-58267057D01*
X7025714Y-58267057D02*
X7139999Y-58267057D01*
X7139999Y-58267057D02*
X7216190Y-58305152D01*
X7216190Y-58305152D02*
X7254285Y-58343247D01*
X7254285Y-58343247D02*
X7292380Y-58419438D01*
X7292380Y-58419438D02*
X7292380Y-58609914D01*
X7292380Y-58609914D02*
X7254285Y-58686104D01*
X7254285Y-58686104D02*
X7216190Y-58724200D01*
X7216190Y-58724200D02*
X7139999Y-58762295D01*
X7139999Y-58762295D02*
X6911428Y-58762295D01*
X6911428Y-58762295D02*
X6835237Y-58724200D01*
X6835237Y-58724200D02*
X6797142Y-58686104D01*
X5349523Y-59362295D02*
X5844761Y-59362295D01*
X5844761Y-59362295D02*
X5578095Y-59667057D01*
X5578095Y-59667057D02*
X5692380Y-59667057D01*
X5692380Y-59667057D02*
X5768571Y-59705152D01*
X5768571Y-59705152D02*
X5806666Y-59743247D01*
X5806666Y-59743247D02*
X5844761Y-59819438D01*
X5844761Y-59819438D02*
X5844761Y-60009914D01*
X5844761Y-60009914D02*
X5806666Y-60086104D01*
X5806666Y-60086104D02*
X5768571Y-60124200D01*
X5768571Y-60124200D02*
X5692380Y-60162295D01*
X5692380Y-60162295D02*
X5463809Y-60162295D01*
X5463809Y-60162295D02*
X5387618Y-60124200D01*
X5387618Y-60124200D02*
X5349523Y-60086104D01*
X6073333Y-59362295D02*
X6340000Y-60162295D01*
X6340000Y-60162295D02*
X6606666Y-59362295D01*
X6797142Y-59362295D02*
X7292380Y-59362295D01*
X7292380Y-59362295D02*
X7025714Y-59667057D01*
X7025714Y-59667057D02*
X7139999Y-59667057D01*
X7139999Y-59667057D02*
X7216190Y-59705152D01*
X7216190Y-59705152D02*
X7254285Y-59743247D01*
X7254285Y-59743247D02*
X7292380Y-59819438D01*
X7292380Y-59819438D02*
X7292380Y-60009914D01*
X7292380Y-60009914D02*
X7254285Y-60086104D01*
X7254285Y-60086104D02*
X7216190Y-60124200D01*
X7216190Y-60124200D02*
X7139999Y-60162295D01*
X7139999Y-60162295D02*
X6911428Y-60162295D01*
X6911428Y-60162295D02*
X6835237Y-60124200D01*
X6835237Y-60124200D02*
X6797142Y-60086104D01*
X9464285Y-71943247D02*
X9578571Y-71981342D01*
X9578571Y-71981342D02*
X9616666Y-72019438D01*
X9616666Y-72019438D02*
X9654762Y-72095628D01*
X9654762Y-72095628D02*
X9654762Y-72209914D01*
X9654762Y-72209914D02*
X9616666Y-72286104D01*
X9616666Y-72286104D02*
X9578571Y-72324200D01*
X9578571Y-72324200D02*
X9502381Y-72362295D01*
X9502381Y-72362295D02*
X9197619Y-72362295D01*
X9197619Y-72362295D02*
X9197619Y-71562295D01*
X9197619Y-71562295D02*
X9464285Y-71562295D01*
X9464285Y-71562295D02*
X9540476Y-71600390D01*
X9540476Y-71600390D02*
X9578571Y-71638485D01*
X9578571Y-71638485D02*
X9616666Y-71714676D01*
X9616666Y-71714676D02*
X9616666Y-71790866D01*
X9616666Y-71790866D02*
X9578571Y-71867057D01*
X9578571Y-71867057D02*
X9540476Y-71905152D01*
X9540476Y-71905152D02*
X9464285Y-71943247D01*
X9464285Y-71943247D02*
X9197619Y-71943247D01*
X9959523Y-72133723D02*
X10340476Y-72133723D01*
X9883333Y-72362295D02*
X10150000Y-71562295D01*
X10150000Y-71562295D02*
X10416666Y-72362295D01*
X10569047Y-71562295D02*
X11026190Y-71562295D01*
X10797618Y-72362295D02*
X10797618Y-71562295D01*
X11292857Y-72057533D02*
X11902381Y-72057533D01*
X11597619Y-72362295D02*
X11597619Y-71752771D01*
X9464285Y-74443247D02*
X9578571Y-74481342D01*
X9578571Y-74481342D02*
X9616666Y-74519438D01*
X9616666Y-74519438D02*
X9654762Y-74595628D01*
X9654762Y-74595628D02*
X9654762Y-74709914D01*
X9654762Y-74709914D02*
X9616666Y-74786104D01*
X9616666Y-74786104D02*
X9578571Y-74824200D01*
X9578571Y-74824200D02*
X9502381Y-74862295D01*
X9502381Y-74862295D02*
X9197619Y-74862295D01*
X9197619Y-74862295D02*
X9197619Y-74062295D01*
X9197619Y-74062295D02*
X9464285Y-74062295D01*
X9464285Y-74062295D02*
X9540476Y-74100390D01*
X9540476Y-74100390D02*
X9578571Y-74138485D01*
X9578571Y-74138485D02*
X9616666Y-74214676D01*
X9616666Y-74214676D02*
X9616666Y-74290866D01*
X9616666Y-74290866D02*
X9578571Y-74367057D01*
X9578571Y-74367057D02*
X9540476Y-74405152D01*
X9540476Y-74405152D02*
X9464285Y-74443247D01*
X9464285Y-74443247D02*
X9197619Y-74443247D01*
X9959523Y-74633723D02*
X10340476Y-74633723D01*
X9883333Y-74862295D02*
X10150000Y-74062295D01*
X10150000Y-74062295D02*
X10416666Y-74862295D01*
X10569047Y-74062295D02*
X11026190Y-74062295D01*
X10797618Y-74862295D02*
X10797618Y-74062295D01*
X11292857Y-74557533D02*
X11902381Y-74557533D01*
X11923810Y-26362295D02*
X12190477Y-27162295D01*
X12190477Y-27162295D02*
X12457143Y-26362295D01*
X12723810Y-27162295D02*
X12723810Y-26362295D01*
X13104762Y-27162295D02*
X13104762Y-26362295D01*
X13104762Y-26362295D02*
X13561905Y-27162295D01*
X13561905Y-27162295D02*
X13561905Y-26362295D01*
X12190476Y-27800390D02*
X12114286Y-27762295D01*
X12114286Y-27762295D02*
X12000000Y-27762295D01*
X12000000Y-27762295D02*
X11885714Y-27800390D01*
X11885714Y-27800390D02*
X11809524Y-27876580D01*
X11809524Y-27876580D02*
X11771429Y-27952771D01*
X11771429Y-27952771D02*
X11733333Y-28105152D01*
X11733333Y-28105152D02*
X11733333Y-28219438D01*
X11733333Y-28219438D02*
X11771429Y-28371819D01*
X11771429Y-28371819D02*
X11809524Y-28448009D01*
X11809524Y-28448009D02*
X11885714Y-28524200D01*
X11885714Y-28524200D02*
X12000000Y-28562295D01*
X12000000Y-28562295D02*
X12076191Y-28562295D01*
X12076191Y-28562295D02*
X12190476Y-28524200D01*
X12190476Y-28524200D02*
X12228572Y-28486104D01*
X12228572Y-28486104D02*
X12228572Y-28219438D01*
X12228572Y-28219438D02*
X12076191Y-28219438D01*
X12571429Y-28562295D02*
X12571429Y-27762295D01*
X12571429Y-27762295D02*
X13028572Y-28562295D01*
X13028572Y-28562295D02*
X13028572Y-27762295D01*
X13409524Y-28562295D02*
X13409524Y-27762295D01*
X13409524Y-27762295D02*
X13600000Y-27762295D01*
X13600000Y-27762295D02*
X13714286Y-27800390D01*
X13714286Y-27800390D02*
X13790476Y-27876580D01*
X13790476Y-27876580D02*
X13828571Y-27952771D01*
X13828571Y-27952771D02*
X13866667Y-28105152D01*
X13866667Y-28105152D02*
X13866667Y-28219438D01*
X13866667Y-28219438D02*
X13828571Y-28371819D01*
X13828571Y-28371819D02*
X13790476Y-28448009D01*
X13790476Y-28448009D02*
X13714286Y-28524200D01*
X13714286Y-28524200D02*
X13600000Y-28562295D01*
X13600000Y-28562295D02*
X13409524Y-28562295D01*
X12323810Y-29626104D02*
X12285714Y-29664200D01*
X12285714Y-29664200D02*
X12171429Y-29702295D01*
X12171429Y-29702295D02*
X12095238Y-29702295D01*
X12095238Y-29702295D02*
X11980952Y-29664200D01*
X11980952Y-29664200D02*
X11904762Y-29588009D01*
X11904762Y-29588009D02*
X11866667Y-29511819D01*
X11866667Y-29511819D02*
X11828571Y-29359438D01*
X11828571Y-29359438D02*
X11828571Y-29245152D01*
X11828571Y-29245152D02*
X11866667Y-29092771D01*
X11866667Y-29092771D02*
X11904762Y-29016580D01*
X11904762Y-29016580D02*
X11980952Y-28940390D01*
X11980952Y-28940390D02*
X12095238Y-28902295D01*
X12095238Y-28902295D02*
X12171429Y-28902295D01*
X12171429Y-28902295D02*
X12285714Y-28940390D01*
X12285714Y-28940390D02*
X12323810Y-28978485D01*
X13047619Y-29702295D02*
X12666667Y-29702295D01*
X12666667Y-29702295D02*
X12666667Y-28902295D01*
X13314286Y-29702295D02*
X13314286Y-28902295D01*
X13771429Y-29702295D02*
X13428571Y-29245152D01*
X13771429Y-28902295D02*
X13314286Y-29359438D01*
X11752380Y-31064200D02*
X11866666Y-31102295D01*
X11866666Y-31102295D02*
X12057142Y-31102295D01*
X12057142Y-31102295D02*
X12133333Y-31064200D01*
X12133333Y-31064200D02*
X12171428Y-31026104D01*
X12171428Y-31026104D02*
X12209523Y-30949914D01*
X12209523Y-30949914D02*
X12209523Y-30873723D01*
X12209523Y-30873723D02*
X12171428Y-30797533D01*
X12171428Y-30797533D02*
X12133333Y-30759438D01*
X12133333Y-30759438D02*
X12057142Y-30721342D01*
X12057142Y-30721342D02*
X11904761Y-30683247D01*
X11904761Y-30683247D02*
X11828571Y-30645152D01*
X11828571Y-30645152D02*
X11790476Y-30607057D01*
X11790476Y-30607057D02*
X11752380Y-30530866D01*
X11752380Y-30530866D02*
X11752380Y-30454676D01*
X11752380Y-30454676D02*
X11790476Y-30378485D01*
X11790476Y-30378485D02*
X11828571Y-30340390D01*
X11828571Y-30340390D02*
X11904761Y-30302295D01*
X11904761Y-30302295D02*
X12095238Y-30302295D01*
X12095238Y-30302295D02*
X12209523Y-30340390D01*
X12552381Y-31102295D02*
X12552381Y-30302295D01*
X12552381Y-30302295D02*
X12742857Y-30302295D01*
X12742857Y-30302295D02*
X12857143Y-30340390D01*
X12857143Y-30340390D02*
X12933333Y-30416580D01*
X12933333Y-30416580D02*
X12971428Y-30492771D01*
X12971428Y-30492771D02*
X13009524Y-30645152D01*
X13009524Y-30645152D02*
X13009524Y-30759438D01*
X13009524Y-30759438D02*
X12971428Y-30911819D01*
X12971428Y-30911819D02*
X12933333Y-30988009D01*
X12933333Y-30988009D02*
X12857143Y-31064200D01*
X12857143Y-31064200D02*
X12742857Y-31102295D01*
X12742857Y-31102295D02*
X12552381Y-31102295D01*
X13504762Y-30302295D02*
X13657143Y-30302295D01*
X13657143Y-30302295D02*
X13733333Y-30340390D01*
X13733333Y-30340390D02*
X13809524Y-30416580D01*
X13809524Y-30416580D02*
X13847619Y-30568961D01*
X13847619Y-30568961D02*
X13847619Y-30835628D01*
X13847619Y-30835628D02*
X13809524Y-30988009D01*
X13809524Y-30988009D02*
X13733333Y-31064200D01*
X13733333Y-31064200D02*
X13657143Y-31102295D01*
X13657143Y-31102295D02*
X13504762Y-31102295D01*
X13504762Y-31102295D02*
X13428571Y-31064200D01*
X13428571Y-31064200D02*
X13352381Y-30988009D01*
X13352381Y-30988009D02*
X13314285Y-30835628D01*
X13314285Y-30835628D02*
X13314285Y-30568961D01*
X13314285Y-30568961D02*
X13352381Y-30416580D01*
X13352381Y-30416580D02*
X13428571Y-30340390D01*
X13428571Y-30340390D02*
X13504762Y-30302295D01*
X11980952Y-32204200D02*
X12095238Y-32242295D01*
X12095238Y-32242295D02*
X12285714Y-32242295D01*
X12285714Y-32242295D02*
X12361905Y-32204200D01*
X12361905Y-32204200D02*
X12400000Y-32166104D01*
X12400000Y-32166104D02*
X12438095Y-32089914D01*
X12438095Y-32089914D02*
X12438095Y-32013723D01*
X12438095Y-32013723D02*
X12400000Y-31937533D01*
X12400000Y-31937533D02*
X12361905Y-31899438D01*
X12361905Y-31899438D02*
X12285714Y-31861342D01*
X12285714Y-31861342D02*
X12133333Y-31823247D01*
X12133333Y-31823247D02*
X12057143Y-31785152D01*
X12057143Y-31785152D02*
X12019048Y-31747057D01*
X12019048Y-31747057D02*
X11980952Y-31670866D01*
X11980952Y-31670866D02*
X11980952Y-31594676D01*
X11980952Y-31594676D02*
X12019048Y-31518485D01*
X12019048Y-31518485D02*
X12057143Y-31480390D01*
X12057143Y-31480390D02*
X12133333Y-31442295D01*
X12133333Y-31442295D02*
X12323810Y-31442295D01*
X12323810Y-31442295D02*
X12438095Y-31480390D01*
X12780953Y-32242295D02*
X12780953Y-31442295D01*
X12780953Y-31442295D02*
X12971429Y-31442295D01*
X12971429Y-31442295D02*
X13085715Y-31480390D01*
X13085715Y-31480390D02*
X13161905Y-31556580D01*
X13161905Y-31556580D02*
X13200000Y-31632771D01*
X13200000Y-31632771D02*
X13238096Y-31785152D01*
X13238096Y-31785152D02*
X13238096Y-31899438D01*
X13238096Y-31899438D02*
X13200000Y-32051819D01*
X13200000Y-32051819D02*
X13161905Y-32128009D01*
X13161905Y-32128009D02*
X13085715Y-32204200D01*
X13085715Y-32204200D02*
X12971429Y-32242295D01*
X12971429Y-32242295D02*
X12780953Y-32242295D01*
X13580953Y-32242295D02*
X13580953Y-31442295D01*
X12666667Y-33566104D02*
X12628571Y-33604200D01*
X12628571Y-33604200D02*
X12514286Y-33642295D01*
X12514286Y-33642295D02*
X12438095Y-33642295D01*
X12438095Y-33642295D02*
X12323809Y-33604200D01*
X12323809Y-33604200D02*
X12247619Y-33528009D01*
X12247619Y-33528009D02*
X12209524Y-33451819D01*
X12209524Y-33451819D02*
X12171428Y-33299438D01*
X12171428Y-33299438D02*
X12171428Y-33185152D01*
X12171428Y-33185152D02*
X12209524Y-33032771D01*
X12209524Y-33032771D02*
X12247619Y-32956580D01*
X12247619Y-32956580D02*
X12323809Y-32880390D01*
X12323809Y-32880390D02*
X12438095Y-32842295D01*
X12438095Y-32842295D02*
X12514286Y-32842295D01*
X12514286Y-32842295D02*
X12628571Y-32880390D01*
X12628571Y-32880390D02*
X12666667Y-32918485D01*
X12971428Y-33604200D02*
X13085714Y-33642295D01*
X13085714Y-33642295D02*
X13276190Y-33642295D01*
X13276190Y-33642295D02*
X13352381Y-33604200D01*
X13352381Y-33604200D02*
X13390476Y-33566104D01*
X13390476Y-33566104D02*
X13428571Y-33489914D01*
X13428571Y-33489914D02*
X13428571Y-33413723D01*
X13428571Y-33413723D02*
X13390476Y-33337533D01*
X13390476Y-33337533D02*
X13352381Y-33299438D01*
X13352381Y-33299438D02*
X13276190Y-33261342D01*
X13276190Y-33261342D02*
X13123809Y-33223247D01*
X13123809Y-33223247D02*
X13047619Y-33185152D01*
X13047619Y-33185152D02*
X13009524Y-33147057D01*
X13009524Y-33147057D02*
X12971428Y-33070866D01*
X12971428Y-33070866D02*
X12971428Y-32994676D01*
X12971428Y-32994676D02*
X13009524Y-32918485D01*
X13009524Y-32918485D02*
X13047619Y-32880390D01*
X13047619Y-32880390D02*
X13123809Y-32842295D01*
X13123809Y-32842295D02*
X13314286Y-32842295D01*
X13314286Y-32842295D02*
X13428571Y-32880390D01*
X11847619Y-34782295D02*
X11580952Y-34401342D01*
X11390476Y-34782295D02*
X11390476Y-33982295D01*
X11390476Y-33982295D02*
X11695238Y-33982295D01*
X11695238Y-33982295D02*
X11771428Y-34020390D01*
X11771428Y-34020390D02*
X11809523Y-34058485D01*
X11809523Y-34058485D02*
X11847619Y-34134676D01*
X11847619Y-34134676D02*
X11847619Y-34248961D01*
X11847619Y-34248961D02*
X11809523Y-34325152D01*
X11809523Y-34325152D02*
X11771428Y-34363247D01*
X11771428Y-34363247D02*
X11695238Y-34401342D01*
X11695238Y-34401342D02*
X11390476Y-34401342D01*
X12076190Y-33982295D02*
X12533333Y-33982295D01*
X12304761Y-34782295D02*
X12304761Y-33982295D01*
X12800000Y-34782295D02*
X12800000Y-33982295D01*
X12800000Y-33982295D02*
X12990476Y-33982295D01*
X12990476Y-33982295D02*
X13104762Y-34020390D01*
X13104762Y-34020390D02*
X13180952Y-34096580D01*
X13180952Y-34096580D02*
X13219047Y-34172771D01*
X13219047Y-34172771D02*
X13257143Y-34325152D01*
X13257143Y-34325152D02*
X13257143Y-34439438D01*
X13257143Y-34439438D02*
X13219047Y-34591819D01*
X13219047Y-34591819D02*
X13180952Y-34668009D01*
X13180952Y-34668009D02*
X13104762Y-34744200D01*
X13104762Y-34744200D02*
X12990476Y-34782295D01*
X12990476Y-34782295D02*
X12800000Y-34782295D01*
X13600000Y-34477533D02*
X14209524Y-34477533D01*
X13904762Y-34782295D02*
X13904762Y-34172771D01*
X11847619Y-36182295D02*
X11580952Y-35801342D01*
X11390476Y-36182295D02*
X11390476Y-35382295D01*
X11390476Y-35382295D02*
X11695238Y-35382295D01*
X11695238Y-35382295D02*
X11771428Y-35420390D01*
X11771428Y-35420390D02*
X11809523Y-35458485D01*
X11809523Y-35458485D02*
X11847619Y-35534676D01*
X11847619Y-35534676D02*
X11847619Y-35648961D01*
X11847619Y-35648961D02*
X11809523Y-35725152D01*
X11809523Y-35725152D02*
X11771428Y-35763247D01*
X11771428Y-35763247D02*
X11695238Y-35801342D01*
X11695238Y-35801342D02*
X11390476Y-35801342D01*
X12076190Y-35382295D02*
X12533333Y-35382295D01*
X12304761Y-36182295D02*
X12304761Y-35382295D01*
X12800000Y-36182295D02*
X12800000Y-35382295D01*
X12800000Y-35382295D02*
X12990476Y-35382295D01*
X12990476Y-35382295D02*
X13104762Y-35420390D01*
X13104762Y-35420390D02*
X13180952Y-35496580D01*
X13180952Y-35496580D02*
X13219047Y-35572771D01*
X13219047Y-35572771D02*
X13257143Y-35725152D01*
X13257143Y-35725152D02*
X13257143Y-35839438D01*
X13257143Y-35839438D02*
X13219047Y-35991819D01*
X13219047Y-35991819D02*
X13180952Y-36068009D01*
X13180952Y-36068009D02*
X13104762Y-36144200D01*
X13104762Y-36144200D02*
X12990476Y-36182295D01*
X12990476Y-36182295D02*
X12800000Y-36182295D01*
X13600000Y-35877533D02*
X14209524Y-35877533D01*
X18483333Y-4562295D02*
X18750000Y-5362295D01*
X18750000Y-5362295D02*
X19016666Y-4562295D01*
X19740476Y-5286104D02*
X19702380Y-5324200D01*
X19702380Y-5324200D02*
X19588095Y-5362295D01*
X19588095Y-5362295D02*
X19511904Y-5362295D01*
X19511904Y-5362295D02*
X19397618Y-5324200D01*
X19397618Y-5324200D02*
X19321428Y-5248009D01*
X19321428Y-5248009D02*
X19283333Y-5171819D01*
X19283333Y-5171819D02*
X19245237Y-5019438D01*
X19245237Y-5019438D02*
X19245237Y-4905152D01*
X19245237Y-4905152D02*
X19283333Y-4752771D01*
X19283333Y-4752771D02*
X19321428Y-4676580D01*
X19321428Y-4676580D02*
X19397618Y-4600390D01*
X19397618Y-4600390D02*
X19511904Y-4562295D01*
X19511904Y-4562295D02*
X19588095Y-4562295D01*
X19588095Y-4562295D02*
X19702380Y-4600390D01*
X19702380Y-4600390D02*
X19740476Y-4638485D01*
X20540476Y-5286104D02*
X20502380Y-5324200D01*
X20502380Y-5324200D02*
X20388095Y-5362295D01*
X20388095Y-5362295D02*
X20311904Y-5362295D01*
X20311904Y-5362295D02*
X20197618Y-5324200D01*
X20197618Y-5324200D02*
X20121428Y-5248009D01*
X20121428Y-5248009D02*
X20083333Y-5171819D01*
X20083333Y-5171819D02*
X20045237Y-5019438D01*
X20045237Y-5019438D02*
X20045237Y-4905152D01*
X20045237Y-4905152D02*
X20083333Y-4752771D01*
X20083333Y-4752771D02*
X20121428Y-4676580D01*
X20121428Y-4676580D02*
X20197618Y-4600390D01*
X20197618Y-4600390D02*
X20311904Y-4562295D01*
X20311904Y-4562295D02*
X20388095Y-4562295D01*
X20388095Y-4562295D02*
X20502380Y-4600390D01*
X20502380Y-4600390D02*
X20540476Y-4638485D01*
X18940476Y-7100390D02*
X18864286Y-7062295D01*
X18864286Y-7062295D02*
X18750000Y-7062295D01*
X18750000Y-7062295D02*
X18635714Y-7100390D01*
X18635714Y-7100390D02*
X18559524Y-7176580D01*
X18559524Y-7176580D02*
X18521429Y-7252771D01*
X18521429Y-7252771D02*
X18483333Y-7405152D01*
X18483333Y-7405152D02*
X18483333Y-7519438D01*
X18483333Y-7519438D02*
X18521429Y-7671819D01*
X18521429Y-7671819D02*
X18559524Y-7748009D01*
X18559524Y-7748009D02*
X18635714Y-7824200D01*
X18635714Y-7824200D02*
X18750000Y-7862295D01*
X18750000Y-7862295D02*
X18826191Y-7862295D01*
X18826191Y-7862295D02*
X18940476Y-7824200D01*
X18940476Y-7824200D02*
X18978572Y-7786104D01*
X18978572Y-7786104D02*
X18978572Y-7519438D01*
X18978572Y-7519438D02*
X18826191Y-7519438D01*
X19321429Y-7862295D02*
X19321429Y-7062295D01*
X19321429Y-7062295D02*
X19778572Y-7862295D01*
X19778572Y-7862295D02*
X19778572Y-7062295D01*
X20159524Y-7862295D02*
X20159524Y-7062295D01*
X20159524Y-7062295D02*
X20350000Y-7062295D01*
X20350000Y-7062295D02*
X20464286Y-7100390D01*
X20464286Y-7100390D02*
X20540476Y-7176580D01*
X20540476Y-7176580D02*
X20578571Y-7252771D01*
X20578571Y-7252771D02*
X20616667Y-7405152D01*
X20616667Y-7405152D02*
X20616667Y-7519438D01*
X20616667Y-7519438D02*
X20578571Y-7671819D01*
X20578571Y-7671819D02*
X20540476Y-7748009D01*
X20540476Y-7748009D02*
X20464286Y-7824200D01*
X20464286Y-7824200D02*
X20350000Y-7862295D01*
X20350000Y-7862295D02*
X20159524Y-7862295D01*
X18578571Y-10324200D02*
X18692857Y-10362295D01*
X18692857Y-10362295D02*
X18883333Y-10362295D01*
X18883333Y-10362295D02*
X18959524Y-10324200D01*
X18959524Y-10324200D02*
X18997619Y-10286104D01*
X18997619Y-10286104D02*
X19035714Y-10209914D01*
X19035714Y-10209914D02*
X19035714Y-10133723D01*
X19035714Y-10133723D02*
X18997619Y-10057533D01*
X18997619Y-10057533D02*
X18959524Y-10019438D01*
X18959524Y-10019438D02*
X18883333Y-9981342D01*
X18883333Y-9981342D02*
X18730952Y-9943247D01*
X18730952Y-9943247D02*
X18654762Y-9905152D01*
X18654762Y-9905152D02*
X18616667Y-9867057D01*
X18616667Y-9867057D02*
X18578571Y-9790866D01*
X18578571Y-9790866D02*
X18578571Y-9714676D01*
X18578571Y-9714676D02*
X18616667Y-9638485D01*
X18616667Y-9638485D02*
X18654762Y-9600390D01*
X18654762Y-9600390D02*
X18730952Y-9562295D01*
X18730952Y-9562295D02*
X18921429Y-9562295D01*
X18921429Y-9562295D02*
X19035714Y-9600390D01*
X19378572Y-10362295D02*
X19378572Y-9562295D01*
X19378572Y-9562295D02*
X19569048Y-9562295D01*
X19569048Y-9562295D02*
X19683334Y-9600390D01*
X19683334Y-9600390D02*
X19759524Y-9676580D01*
X19759524Y-9676580D02*
X19797619Y-9752771D01*
X19797619Y-9752771D02*
X19835715Y-9905152D01*
X19835715Y-9905152D02*
X19835715Y-10019438D01*
X19835715Y-10019438D02*
X19797619Y-10171819D01*
X19797619Y-10171819D02*
X19759524Y-10248009D01*
X19759524Y-10248009D02*
X19683334Y-10324200D01*
X19683334Y-10324200D02*
X19569048Y-10362295D01*
X19569048Y-10362295D02*
X19378572Y-10362295D01*
X20140476Y-10133723D02*
X20521429Y-10133723D01*
X20064286Y-10362295D02*
X20330953Y-9562295D01*
X20330953Y-9562295D02*
X20597619Y-10362295D01*
X18597618Y-12824200D02*
X18711904Y-12862295D01*
X18711904Y-12862295D02*
X18902380Y-12862295D01*
X18902380Y-12862295D02*
X18978571Y-12824200D01*
X18978571Y-12824200D02*
X19016666Y-12786104D01*
X19016666Y-12786104D02*
X19054761Y-12709914D01*
X19054761Y-12709914D02*
X19054761Y-12633723D01*
X19054761Y-12633723D02*
X19016666Y-12557533D01*
X19016666Y-12557533D02*
X18978571Y-12519438D01*
X18978571Y-12519438D02*
X18902380Y-12481342D01*
X18902380Y-12481342D02*
X18749999Y-12443247D01*
X18749999Y-12443247D02*
X18673809Y-12405152D01*
X18673809Y-12405152D02*
X18635714Y-12367057D01*
X18635714Y-12367057D02*
X18597618Y-12290866D01*
X18597618Y-12290866D02*
X18597618Y-12214676D01*
X18597618Y-12214676D02*
X18635714Y-12138485D01*
X18635714Y-12138485D02*
X18673809Y-12100390D01*
X18673809Y-12100390D02*
X18749999Y-12062295D01*
X18749999Y-12062295D02*
X18940476Y-12062295D01*
X18940476Y-12062295D02*
X19054761Y-12100390D01*
X19854762Y-12786104D02*
X19816666Y-12824200D01*
X19816666Y-12824200D02*
X19702381Y-12862295D01*
X19702381Y-12862295D02*
X19626190Y-12862295D01*
X19626190Y-12862295D02*
X19511904Y-12824200D01*
X19511904Y-12824200D02*
X19435714Y-12748009D01*
X19435714Y-12748009D02*
X19397619Y-12671819D01*
X19397619Y-12671819D02*
X19359523Y-12519438D01*
X19359523Y-12519438D02*
X19359523Y-12405152D01*
X19359523Y-12405152D02*
X19397619Y-12252771D01*
X19397619Y-12252771D02*
X19435714Y-12176580D01*
X19435714Y-12176580D02*
X19511904Y-12100390D01*
X19511904Y-12100390D02*
X19626190Y-12062295D01*
X19626190Y-12062295D02*
X19702381Y-12062295D01*
X19702381Y-12062295D02*
X19816666Y-12100390D01*
X19816666Y-12100390D02*
X19854762Y-12138485D01*
X20578571Y-12862295D02*
X20197619Y-12862295D01*
X20197619Y-12862295D02*
X20197619Y-12062295D01*
X18597619Y-62362295D02*
X18330952Y-61981342D01*
X18140476Y-62362295D02*
X18140476Y-61562295D01*
X18140476Y-61562295D02*
X18445238Y-61562295D01*
X18445238Y-61562295D02*
X18521428Y-61600390D01*
X18521428Y-61600390D02*
X18559523Y-61638485D01*
X18559523Y-61638485D02*
X18597619Y-61714676D01*
X18597619Y-61714676D02*
X18597619Y-61828961D01*
X18597619Y-61828961D02*
X18559523Y-61905152D01*
X18559523Y-61905152D02*
X18521428Y-61943247D01*
X18521428Y-61943247D02*
X18445238Y-61981342D01*
X18445238Y-61981342D02*
X18140476Y-61981342D01*
X18826190Y-61562295D02*
X19283333Y-61562295D01*
X19054761Y-62362295D02*
X19054761Y-61562295D01*
X19550000Y-62362295D02*
X19550000Y-61562295D01*
X19550000Y-61562295D02*
X19740476Y-61562295D01*
X19740476Y-61562295D02*
X19854762Y-61600390D01*
X19854762Y-61600390D02*
X19930952Y-61676580D01*
X19930952Y-61676580D02*
X19969047Y-61752771D01*
X19969047Y-61752771D02*
X20007143Y-61905152D01*
X20007143Y-61905152D02*
X20007143Y-62019438D01*
X20007143Y-62019438D02*
X19969047Y-62171819D01*
X19969047Y-62171819D02*
X19930952Y-62248009D01*
X19930952Y-62248009D02*
X19854762Y-62324200D01*
X19854762Y-62324200D02*
X19740476Y-62362295D01*
X19740476Y-62362295D02*
X19550000Y-62362295D01*
X20350000Y-62057533D02*
X20959524Y-62057533D01*
X20654762Y-62362295D02*
X20654762Y-61752771D01*
X18597619Y-64862295D02*
X18330952Y-64481342D01*
X18140476Y-64862295D02*
X18140476Y-64062295D01*
X18140476Y-64062295D02*
X18445238Y-64062295D01*
X18445238Y-64062295D02*
X18521428Y-64100390D01*
X18521428Y-64100390D02*
X18559523Y-64138485D01*
X18559523Y-64138485D02*
X18597619Y-64214676D01*
X18597619Y-64214676D02*
X18597619Y-64328961D01*
X18597619Y-64328961D02*
X18559523Y-64405152D01*
X18559523Y-64405152D02*
X18521428Y-64443247D01*
X18521428Y-64443247D02*
X18445238Y-64481342D01*
X18445238Y-64481342D02*
X18140476Y-64481342D01*
X18826190Y-64062295D02*
X19283333Y-64062295D01*
X19054761Y-64862295D02*
X19054761Y-64062295D01*
X19550000Y-64862295D02*
X19550000Y-64062295D01*
X19550000Y-64062295D02*
X19740476Y-64062295D01*
X19740476Y-64062295D02*
X19854762Y-64100390D01*
X19854762Y-64100390D02*
X19930952Y-64176580D01*
X19930952Y-64176580D02*
X19969047Y-64252771D01*
X19969047Y-64252771D02*
X20007143Y-64405152D01*
X20007143Y-64405152D02*
X20007143Y-64519438D01*
X20007143Y-64519438D02*
X19969047Y-64671819D01*
X19969047Y-64671819D02*
X19930952Y-64748009D01*
X19930952Y-64748009D02*
X19854762Y-64824200D01*
X19854762Y-64824200D02*
X19740476Y-64862295D01*
X19740476Y-64862295D02*
X19550000Y-64862295D01*
X20350000Y-64557533D02*
X20959524Y-64557533D01*
X24923810Y-36862295D02*
X25190477Y-37662295D01*
X25190477Y-37662295D02*
X25457143Y-36862295D01*
X25723810Y-37662295D02*
X25723810Y-36862295D01*
X26104762Y-37662295D02*
X26104762Y-36862295D01*
X26104762Y-36862295D02*
X26561905Y-37662295D01*
X26561905Y-37662295D02*
X26561905Y-36862295D01*
X25190476Y-38300390D02*
X25114286Y-38262295D01*
X25114286Y-38262295D02*
X25000000Y-38262295D01*
X25000000Y-38262295D02*
X24885714Y-38300390D01*
X24885714Y-38300390D02*
X24809524Y-38376580D01*
X24809524Y-38376580D02*
X24771429Y-38452771D01*
X24771429Y-38452771D02*
X24733333Y-38605152D01*
X24733333Y-38605152D02*
X24733333Y-38719438D01*
X24733333Y-38719438D02*
X24771429Y-38871819D01*
X24771429Y-38871819D02*
X24809524Y-38948009D01*
X24809524Y-38948009D02*
X24885714Y-39024200D01*
X24885714Y-39024200D02*
X25000000Y-39062295D01*
X25000000Y-39062295D02*
X25076191Y-39062295D01*
X25076191Y-39062295D02*
X25190476Y-39024200D01*
X25190476Y-39024200D02*
X25228572Y-38986104D01*
X25228572Y-38986104D02*
X25228572Y-38719438D01*
X25228572Y-38719438D02*
X25076191Y-38719438D01*
X25571429Y-39062295D02*
X25571429Y-38262295D01*
X25571429Y-38262295D02*
X26028572Y-39062295D01*
X26028572Y-39062295D02*
X26028572Y-38262295D01*
X26409524Y-39062295D02*
X26409524Y-38262295D01*
X26409524Y-38262295D02*
X26600000Y-38262295D01*
X26600000Y-38262295D02*
X26714286Y-38300390D01*
X26714286Y-38300390D02*
X26790476Y-38376580D01*
X26790476Y-38376580D02*
X26828571Y-38452771D01*
X26828571Y-38452771D02*
X26866667Y-38605152D01*
X26866667Y-38605152D02*
X26866667Y-38719438D01*
X26866667Y-38719438D02*
X26828571Y-38871819D01*
X26828571Y-38871819D02*
X26790476Y-38948009D01*
X26790476Y-38948009D02*
X26714286Y-39024200D01*
X26714286Y-39024200D02*
X26600000Y-39062295D01*
X26600000Y-39062295D02*
X26409524Y-39062295D01*
X25323810Y-40126104D02*
X25285714Y-40164200D01*
X25285714Y-40164200D02*
X25171429Y-40202295D01*
X25171429Y-40202295D02*
X25095238Y-40202295D01*
X25095238Y-40202295D02*
X24980952Y-40164200D01*
X24980952Y-40164200D02*
X24904762Y-40088009D01*
X24904762Y-40088009D02*
X24866667Y-40011819D01*
X24866667Y-40011819D02*
X24828571Y-39859438D01*
X24828571Y-39859438D02*
X24828571Y-39745152D01*
X24828571Y-39745152D02*
X24866667Y-39592771D01*
X24866667Y-39592771D02*
X24904762Y-39516580D01*
X24904762Y-39516580D02*
X24980952Y-39440390D01*
X24980952Y-39440390D02*
X25095238Y-39402295D01*
X25095238Y-39402295D02*
X25171429Y-39402295D01*
X25171429Y-39402295D02*
X25285714Y-39440390D01*
X25285714Y-39440390D02*
X25323810Y-39478485D01*
X26047619Y-40202295D02*
X25666667Y-40202295D01*
X25666667Y-40202295D02*
X25666667Y-39402295D01*
X26314286Y-40202295D02*
X26314286Y-39402295D01*
X26771429Y-40202295D02*
X26428571Y-39745152D01*
X26771429Y-39402295D02*
X26314286Y-39859438D01*
X24752380Y-41564200D02*
X24866666Y-41602295D01*
X24866666Y-41602295D02*
X25057142Y-41602295D01*
X25057142Y-41602295D02*
X25133333Y-41564200D01*
X25133333Y-41564200D02*
X25171428Y-41526104D01*
X25171428Y-41526104D02*
X25209523Y-41449914D01*
X25209523Y-41449914D02*
X25209523Y-41373723D01*
X25209523Y-41373723D02*
X25171428Y-41297533D01*
X25171428Y-41297533D02*
X25133333Y-41259438D01*
X25133333Y-41259438D02*
X25057142Y-41221342D01*
X25057142Y-41221342D02*
X24904761Y-41183247D01*
X24904761Y-41183247D02*
X24828571Y-41145152D01*
X24828571Y-41145152D02*
X24790476Y-41107057D01*
X24790476Y-41107057D02*
X24752380Y-41030866D01*
X24752380Y-41030866D02*
X24752380Y-40954676D01*
X24752380Y-40954676D02*
X24790476Y-40878485D01*
X24790476Y-40878485D02*
X24828571Y-40840390D01*
X24828571Y-40840390D02*
X24904761Y-40802295D01*
X24904761Y-40802295D02*
X25095238Y-40802295D01*
X25095238Y-40802295D02*
X25209523Y-40840390D01*
X25552381Y-41602295D02*
X25552381Y-40802295D01*
X25552381Y-40802295D02*
X25742857Y-40802295D01*
X25742857Y-40802295D02*
X25857143Y-40840390D01*
X25857143Y-40840390D02*
X25933333Y-40916580D01*
X25933333Y-40916580D02*
X25971428Y-40992771D01*
X25971428Y-40992771D02*
X26009524Y-41145152D01*
X26009524Y-41145152D02*
X26009524Y-41259438D01*
X26009524Y-41259438D02*
X25971428Y-41411819D01*
X25971428Y-41411819D02*
X25933333Y-41488009D01*
X25933333Y-41488009D02*
X25857143Y-41564200D01*
X25857143Y-41564200D02*
X25742857Y-41602295D01*
X25742857Y-41602295D02*
X25552381Y-41602295D01*
X26504762Y-40802295D02*
X26657143Y-40802295D01*
X26657143Y-40802295D02*
X26733333Y-40840390D01*
X26733333Y-40840390D02*
X26809524Y-40916580D01*
X26809524Y-40916580D02*
X26847619Y-41068961D01*
X26847619Y-41068961D02*
X26847619Y-41335628D01*
X26847619Y-41335628D02*
X26809524Y-41488009D01*
X26809524Y-41488009D02*
X26733333Y-41564200D01*
X26733333Y-41564200D02*
X26657143Y-41602295D01*
X26657143Y-41602295D02*
X26504762Y-41602295D01*
X26504762Y-41602295D02*
X26428571Y-41564200D01*
X26428571Y-41564200D02*
X26352381Y-41488009D01*
X26352381Y-41488009D02*
X26314285Y-41335628D01*
X26314285Y-41335628D02*
X26314285Y-41068961D01*
X26314285Y-41068961D02*
X26352381Y-40916580D01*
X26352381Y-40916580D02*
X26428571Y-40840390D01*
X26428571Y-40840390D02*
X26504762Y-40802295D01*
X24980952Y-42704200D02*
X25095238Y-42742295D01*
X25095238Y-42742295D02*
X25285714Y-42742295D01*
X25285714Y-42742295D02*
X25361905Y-42704200D01*
X25361905Y-42704200D02*
X25400000Y-42666104D01*
X25400000Y-42666104D02*
X25438095Y-42589914D01*
X25438095Y-42589914D02*
X25438095Y-42513723D01*
X25438095Y-42513723D02*
X25400000Y-42437533D01*
X25400000Y-42437533D02*
X25361905Y-42399438D01*
X25361905Y-42399438D02*
X25285714Y-42361342D01*
X25285714Y-42361342D02*
X25133333Y-42323247D01*
X25133333Y-42323247D02*
X25057143Y-42285152D01*
X25057143Y-42285152D02*
X25019048Y-42247057D01*
X25019048Y-42247057D02*
X24980952Y-42170866D01*
X24980952Y-42170866D02*
X24980952Y-42094676D01*
X24980952Y-42094676D02*
X25019048Y-42018485D01*
X25019048Y-42018485D02*
X25057143Y-41980390D01*
X25057143Y-41980390D02*
X25133333Y-41942295D01*
X25133333Y-41942295D02*
X25323810Y-41942295D01*
X25323810Y-41942295D02*
X25438095Y-41980390D01*
X25780953Y-42742295D02*
X25780953Y-41942295D01*
X25780953Y-41942295D02*
X25971429Y-41942295D01*
X25971429Y-41942295D02*
X26085715Y-41980390D01*
X26085715Y-41980390D02*
X26161905Y-42056580D01*
X26161905Y-42056580D02*
X26200000Y-42132771D01*
X26200000Y-42132771D02*
X26238096Y-42285152D01*
X26238096Y-42285152D02*
X26238096Y-42399438D01*
X26238096Y-42399438D02*
X26200000Y-42551819D01*
X26200000Y-42551819D02*
X26161905Y-42628009D01*
X26161905Y-42628009D02*
X26085715Y-42704200D01*
X26085715Y-42704200D02*
X25971429Y-42742295D01*
X25971429Y-42742295D02*
X25780953Y-42742295D01*
X26580953Y-42742295D02*
X26580953Y-41942295D01*
X25666667Y-44066104D02*
X25628571Y-44104200D01*
X25628571Y-44104200D02*
X25514286Y-44142295D01*
X25514286Y-44142295D02*
X25438095Y-44142295D01*
X25438095Y-44142295D02*
X25323809Y-44104200D01*
X25323809Y-44104200D02*
X25247619Y-44028009D01*
X25247619Y-44028009D02*
X25209524Y-43951819D01*
X25209524Y-43951819D02*
X25171428Y-43799438D01*
X25171428Y-43799438D02*
X25171428Y-43685152D01*
X25171428Y-43685152D02*
X25209524Y-43532771D01*
X25209524Y-43532771D02*
X25247619Y-43456580D01*
X25247619Y-43456580D02*
X25323809Y-43380390D01*
X25323809Y-43380390D02*
X25438095Y-43342295D01*
X25438095Y-43342295D02*
X25514286Y-43342295D01*
X25514286Y-43342295D02*
X25628571Y-43380390D01*
X25628571Y-43380390D02*
X25666667Y-43418485D01*
X25971428Y-44104200D02*
X26085714Y-44142295D01*
X26085714Y-44142295D02*
X26276190Y-44142295D01*
X26276190Y-44142295D02*
X26352381Y-44104200D01*
X26352381Y-44104200D02*
X26390476Y-44066104D01*
X26390476Y-44066104D02*
X26428571Y-43989914D01*
X26428571Y-43989914D02*
X26428571Y-43913723D01*
X26428571Y-43913723D02*
X26390476Y-43837533D01*
X26390476Y-43837533D02*
X26352381Y-43799438D01*
X26352381Y-43799438D02*
X26276190Y-43761342D01*
X26276190Y-43761342D02*
X26123809Y-43723247D01*
X26123809Y-43723247D02*
X26047619Y-43685152D01*
X26047619Y-43685152D02*
X26009524Y-43647057D01*
X26009524Y-43647057D02*
X25971428Y-43570866D01*
X25971428Y-43570866D02*
X25971428Y-43494676D01*
X25971428Y-43494676D02*
X26009524Y-43418485D01*
X26009524Y-43418485D02*
X26047619Y-43380390D01*
X26047619Y-43380390D02*
X26123809Y-43342295D01*
X26123809Y-43342295D02*
X26314286Y-43342295D01*
X26314286Y-43342295D02*
X26428571Y-43380390D01*
X24847619Y-45282295D02*
X24580952Y-44901342D01*
X24390476Y-45282295D02*
X24390476Y-44482295D01*
X24390476Y-44482295D02*
X24695238Y-44482295D01*
X24695238Y-44482295D02*
X24771428Y-44520390D01*
X24771428Y-44520390D02*
X24809523Y-44558485D01*
X24809523Y-44558485D02*
X24847619Y-44634676D01*
X24847619Y-44634676D02*
X24847619Y-44748961D01*
X24847619Y-44748961D02*
X24809523Y-44825152D01*
X24809523Y-44825152D02*
X24771428Y-44863247D01*
X24771428Y-44863247D02*
X24695238Y-44901342D01*
X24695238Y-44901342D02*
X24390476Y-44901342D01*
X25076190Y-44482295D02*
X25533333Y-44482295D01*
X25304761Y-45282295D02*
X25304761Y-44482295D01*
X25800000Y-45282295D02*
X25800000Y-44482295D01*
X25800000Y-44482295D02*
X25990476Y-44482295D01*
X25990476Y-44482295D02*
X26104762Y-44520390D01*
X26104762Y-44520390D02*
X26180952Y-44596580D01*
X26180952Y-44596580D02*
X26219047Y-44672771D01*
X26219047Y-44672771D02*
X26257143Y-44825152D01*
X26257143Y-44825152D02*
X26257143Y-44939438D01*
X26257143Y-44939438D02*
X26219047Y-45091819D01*
X26219047Y-45091819D02*
X26180952Y-45168009D01*
X26180952Y-45168009D02*
X26104762Y-45244200D01*
X26104762Y-45244200D02*
X25990476Y-45282295D01*
X25990476Y-45282295D02*
X25800000Y-45282295D01*
X26600000Y-44977533D02*
X27209524Y-44977533D01*
X26904762Y-45282295D02*
X26904762Y-44672771D01*
X24847619Y-46682295D02*
X24580952Y-46301342D01*
X24390476Y-46682295D02*
X24390476Y-45882295D01*
X24390476Y-45882295D02*
X24695238Y-45882295D01*
X24695238Y-45882295D02*
X24771428Y-45920390D01*
X24771428Y-45920390D02*
X24809523Y-45958485D01*
X24809523Y-45958485D02*
X24847619Y-46034676D01*
X24847619Y-46034676D02*
X24847619Y-46148961D01*
X24847619Y-46148961D02*
X24809523Y-46225152D01*
X24809523Y-46225152D02*
X24771428Y-46263247D01*
X24771428Y-46263247D02*
X24695238Y-46301342D01*
X24695238Y-46301342D02*
X24390476Y-46301342D01*
X25076190Y-45882295D02*
X25533333Y-45882295D01*
X25304761Y-46682295D02*
X25304761Y-45882295D01*
X25800000Y-46682295D02*
X25800000Y-45882295D01*
X25800000Y-45882295D02*
X25990476Y-45882295D01*
X25990476Y-45882295D02*
X26104762Y-45920390D01*
X26104762Y-45920390D02*
X26180952Y-45996580D01*
X26180952Y-45996580D02*
X26219047Y-46072771D01*
X26219047Y-46072771D02*
X26257143Y-46225152D01*
X26257143Y-46225152D02*
X26257143Y-46339438D01*
X26257143Y-46339438D02*
X26219047Y-46491819D01*
X26219047Y-46491819D02*
X26180952Y-46568009D01*
X26180952Y-46568009D02*
X26104762Y-46644200D01*
X26104762Y-46644200D02*
X25990476Y-46682295D01*
X25990476Y-46682295D02*
X25800000Y-46682295D01*
X26600000Y-46377533D02*
X27209524Y-46377533D01*
X27483333Y-4562295D02*
X27750000Y-5362295D01*
X27750000Y-5362295D02*
X28016666Y-4562295D01*
X28740476Y-5286104D02*
X28702380Y-5324200D01*
X28702380Y-5324200D02*
X28588095Y-5362295D01*
X28588095Y-5362295D02*
X28511904Y-5362295D01*
X28511904Y-5362295D02*
X28397618Y-5324200D01*
X28397618Y-5324200D02*
X28321428Y-5248009D01*
X28321428Y-5248009D02*
X28283333Y-5171819D01*
X28283333Y-5171819D02*
X28245237Y-5019438D01*
X28245237Y-5019438D02*
X28245237Y-4905152D01*
X28245237Y-4905152D02*
X28283333Y-4752771D01*
X28283333Y-4752771D02*
X28321428Y-4676580D01*
X28321428Y-4676580D02*
X28397618Y-4600390D01*
X28397618Y-4600390D02*
X28511904Y-4562295D01*
X28511904Y-4562295D02*
X28588095Y-4562295D01*
X28588095Y-4562295D02*
X28702380Y-4600390D01*
X28702380Y-4600390D02*
X28740476Y-4638485D01*
X29540476Y-5286104D02*
X29502380Y-5324200D01*
X29502380Y-5324200D02*
X29388095Y-5362295D01*
X29388095Y-5362295D02*
X29311904Y-5362295D01*
X29311904Y-5362295D02*
X29197618Y-5324200D01*
X29197618Y-5324200D02*
X29121428Y-5248009D01*
X29121428Y-5248009D02*
X29083333Y-5171819D01*
X29083333Y-5171819D02*
X29045237Y-5019438D01*
X29045237Y-5019438D02*
X29045237Y-4905152D01*
X29045237Y-4905152D02*
X29083333Y-4752771D01*
X29083333Y-4752771D02*
X29121428Y-4676580D01*
X29121428Y-4676580D02*
X29197618Y-4600390D01*
X29197618Y-4600390D02*
X29311904Y-4562295D01*
X29311904Y-4562295D02*
X29388095Y-4562295D01*
X29388095Y-4562295D02*
X29502380Y-4600390D01*
X29502380Y-4600390D02*
X29540476Y-4638485D01*
X27940476Y-7100390D02*
X27864286Y-7062295D01*
X27864286Y-7062295D02*
X27750000Y-7062295D01*
X27750000Y-7062295D02*
X27635714Y-7100390D01*
X27635714Y-7100390D02*
X27559524Y-7176580D01*
X27559524Y-7176580D02*
X27521429Y-7252771D01*
X27521429Y-7252771D02*
X27483333Y-7405152D01*
X27483333Y-7405152D02*
X27483333Y-7519438D01*
X27483333Y-7519438D02*
X27521429Y-7671819D01*
X27521429Y-7671819D02*
X27559524Y-7748009D01*
X27559524Y-7748009D02*
X27635714Y-7824200D01*
X27635714Y-7824200D02*
X27750000Y-7862295D01*
X27750000Y-7862295D02*
X27826191Y-7862295D01*
X27826191Y-7862295D02*
X27940476Y-7824200D01*
X27940476Y-7824200D02*
X27978572Y-7786104D01*
X27978572Y-7786104D02*
X27978572Y-7519438D01*
X27978572Y-7519438D02*
X27826191Y-7519438D01*
X28321429Y-7862295D02*
X28321429Y-7062295D01*
X28321429Y-7062295D02*
X28778572Y-7862295D01*
X28778572Y-7862295D02*
X28778572Y-7062295D01*
X29159524Y-7862295D02*
X29159524Y-7062295D01*
X29159524Y-7062295D02*
X29350000Y-7062295D01*
X29350000Y-7062295D02*
X29464286Y-7100390D01*
X29464286Y-7100390D02*
X29540476Y-7176580D01*
X29540476Y-7176580D02*
X29578571Y-7252771D01*
X29578571Y-7252771D02*
X29616667Y-7405152D01*
X29616667Y-7405152D02*
X29616667Y-7519438D01*
X29616667Y-7519438D02*
X29578571Y-7671819D01*
X29578571Y-7671819D02*
X29540476Y-7748009D01*
X29540476Y-7748009D02*
X29464286Y-7824200D01*
X29464286Y-7824200D02*
X29350000Y-7862295D01*
X29350000Y-7862295D02*
X29159524Y-7862295D01*
X27578571Y-10324200D02*
X27692857Y-10362295D01*
X27692857Y-10362295D02*
X27883333Y-10362295D01*
X27883333Y-10362295D02*
X27959524Y-10324200D01*
X27959524Y-10324200D02*
X27997619Y-10286104D01*
X27997619Y-10286104D02*
X28035714Y-10209914D01*
X28035714Y-10209914D02*
X28035714Y-10133723D01*
X28035714Y-10133723D02*
X27997619Y-10057533D01*
X27997619Y-10057533D02*
X27959524Y-10019438D01*
X27959524Y-10019438D02*
X27883333Y-9981342D01*
X27883333Y-9981342D02*
X27730952Y-9943247D01*
X27730952Y-9943247D02*
X27654762Y-9905152D01*
X27654762Y-9905152D02*
X27616667Y-9867057D01*
X27616667Y-9867057D02*
X27578571Y-9790866D01*
X27578571Y-9790866D02*
X27578571Y-9714676D01*
X27578571Y-9714676D02*
X27616667Y-9638485D01*
X27616667Y-9638485D02*
X27654762Y-9600390D01*
X27654762Y-9600390D02*
X27730952Y-9562295D01*
X27730952Y-9562295D02*
X27921429Y-9562295D01*
X27921429Y-9562295D02*
X28035714Y-9600390D01*
X28378572Y-10362295D02*
X28378572Y-9562295D01*
X28378572Y-9562295D02*
X28569048Y-9562295D01*
X28569048Y-9562295D02*
X28683334Y-9600390D01*
X28683334Y-9600390D02*
X28759524Y-9676580D01*
X28759524Y-9676580D02*
X28797619Y-9752771D01*
X28797619Y-9752771D02*
X28835715Y-9905152D01*
X28835715Y-9905152D02*
X28835715Y-10019438D01*
X28835715Y-10019438D02*
X28797619Y-10171819D01*
X28797619Y-10171819D02*
X28759524Y-10248009D01*
X28759524Y-10248009D02*
X28683334Y-10324200D01*
X28683334Y-10324200D02*
X28569048Y-10362295D01*
X28569048Y-10362295D02*
X28378572Y-10362295D01*
X29140476Y-10133723D02*
X29521429Y-10133723D01*
X29064286Y-10362295D02*
X29330953Y-9562295D01*
X29330953Y-9562295D02*
X29597619Y-10362295D01*
X27597618Y-12824200D02*
X27711904Y-12862295D01*
X27711904Y-12862295D02*
X27902380Y-12862295D01*
X27902380Y-12862295D02*
X27978571Y-12824200D01*
X27978571Y-12824200D02*
X28016666Y-12786104D01*
X28016666Y-12786104D02*
X28054761Y-12709914D01*
X28054761Y-12709914D02*
X28054761Y-12633723D01*
X28054761Y-12633723D02*
X28016666Y-12557533D01*
X28016666Y-12557533D02*
X27978571Y-12519438D01*
X27978571Y-12519438D02*
X27902380Y-12481342D01*
X27902380Y-12481342D02*
X27749999Y-12443247D01*
X27749999Y-12443247D02*
X27673809Y-12405152D01*
X27673809Y-12405152D02*
X27635714Y-12367057D01*
X27635714Y-12367057D02*
X27597618Y-12290866D01*
X27597618Y-12290866D02*
X27597618Y-12214676D01*
X27597618Y-12214676D02*
X27635714Y-12138485D01*
X27635714Y-12138485D02*
X27673809Y-12100390D01*
X27673809Y-12100390D02*
X27749999Y-12062295D01*
X27749999Y-12062295D02*
X27940476Y-12062295D01*
X27940476Y-12062295D02*
X28054761Y-12100390D01*
X28854762Y-12786104D02*
X28816666Y-12824200D01*
X28816666Y-12824200D02*
X28702381Y-12862295D01*
X28702381Y-12862295D02*
X28626190Y-12862295D01*
X28626190Y-12862295D02*
X28511904Y-12824200D01*
X28511904Y-12824200D02*
X28435714Y-12748009D01*
X28435714Y-12748009D02*
X28397619Y-12671819D01*
X28397619Y-12671819D02*
X28359523Y-12519438D01*
X28359523Y-12519438D02*
X28359523Y-12405152D01*
X28359523Y-12405152D02*
X28397619Y-12252771D01*
X28397619Y-12252771D02*
X28435714Y-12176580D01*
X28435714Y-12176580D02*
X28511904Y-12100390D01*
X28511904Y-12100390D02*
X28626190Y-12062295D01*
X28626190Y-12062295D02*
X28702381Y-12062295D01*
X28702381Y-12062295D02*
X28816666Y-12100390D01*
X28816666Y-12100390D02*
X28854762Y-12138485D01*
X29578571Y-12862295D02*
X29197619Y-12862295D01*
X29197619Y-12862295D02*
X29197619Y-12062295D01*
X30333333Y-29562295D02*
X30600000Y-30362295D01*
X30600000Y-30362295D02*
X30866666Y-29562295D01*
X31590476Y-30286104D02*
X31552380Y-30324200D01*
X31552380Y-30324200D02*
X31438095Y-30362295D01*
X31438095Y-30362295D02*
X31361904Y-30362295D01*
X31361904Y-30362295D02*
X31247618Y-30324200D01*
X31247618Y-30324200D02*
X31171428Y-30248009D01*
X31171428Y-30248009D02*
X31133333Y-30171819D01*
X31133333Y-30171819D02*
X31095237Y-30019438D01*
X31095237Y-30019438D02*
X31095237Y-29905152D01*
X31095237Y-29905152D02*
X31133333Y-29752771D01*
X31133333Y-29752771D02*
X31171428Y-29676580D01*
X31171428Y-29676580D02*
X31247618Y-29600390D01*
X31247618Y-29600390D02*
X31361904Y-29562295D01*
X31361904Y-29562295D02*
X31438095Y-29562295D01*
X31438095Y-29562295D02*
X31552380Y-29600390D01*
X31552380Y-29600390D02*
X31590476Y-29638485D01*
X32390476Y-30286104D02*
X32352380Y-30324200D01*
X32352380Y-30324200D02*
X32238095Y-30362295D01*
X32238095Y-30362295D02*
X32161904Y-30362295D01*
X32161904Y-30362295D02*
X32047618Y-30324200D01*
X32047618Y-30324200D02*
X31971428Y-30248009D01*
X31971428Y-30248009D02*
X31933333Y-30171819D01*
X31933333Y-30171819D02*
X31895237Y-30019438D01*
X31895237Y-30019438D02*
X31895237Y-29905152D01*
X31895237Y-29905152D02*
X31933333Y-29752771D01*
X31933333Y-29752771D02*
X31971428Y-29676580D01*
X31971428Y-29676580D02*
X32047618Y-29600390D01*
X32047618Y-29600390D02*
X32161904Y-29562295D01*
X32161904Y-29562295D02*
X32238095Y-29562295D01*
X32238095Y-29562295D02*
X32352380Y-29600390D01*
X32352380Y-29600390D02*
X32390476Y-29638485D01*
X30790476Y-32140390D02*
X30714286Y-32102295D01*
X30714286Y-32102295D02*
X30600000Y-32102295D01*
X30600000Y-32102295D02*
X30485714Y-32140390D01*
X30485714Y-32140390D02*
X30409524Y-32216580D01*
X30409524Y-32216580D02*
X30371429Y-32292771D01*
X30371429Y-32292771D02*
X30333333Y-32445152D01*
X30333333Y-32445152D02*
X30333333Y-32559438D01*
X30333333Y-32559438D02*
X30371429Y-32711819D01*
X30371429Y-32711819D02*
X30409524Y-32788009D01*
X30409524Y-32788009D02*
X30485714Y-32864200D01*
X30485714Y-32864200D02*
X30600000Y-32902295D01*
X30600000Y-32902295D02*
X30676191Y-32902295D01*
X30676191Y-32902295D02*
X30790476Y-32864200D01*
X30790476Y-32864200D02*
X30828572Y-32826104D01*
X30828572Y-32826104D02*
X30828572Y-32559438D01*
X30828572Y-32559438D02*
X30676191Y-32559438D01*
X31171429Y-32902295D02*
X31171429Y-32102295D01*
X31171429Y-32102295D02*
X31628572Y-32902295D01*
X31628572Y-32902295D02*
X31628572Y-32102295D01*
X32009524Y-32902295D02*
X32009524Y-32102295D01*
X32009524Y-32102295D02*
X32200000Y-32102295D01*
X32200000Y-32102295D02*
X32314286Y-32140390D01*
X32314286Y-32140390D02*
X32390476Y-32216580D01*
X32390476Y-32216580D02*
X32428571Y-32292771D01*
X32428571Y-32292771D02*
X32466667Y-32445152D01*
X32466667Y-32445152D02*
X32466667Y-32559438D01*
X32466667Y-32559438D02*
X32428571Y-32711819D01*
X32428571Y-32711819D02*
X32390476Y-32788009D01*
X32390476Y-32788009D02*
X32314286Y-32864200D01*
X32314286Y-32864200D02*
X32200000Y-32902295D01*
X32200000Y-32902295D02*
X32009524Y-32902295D01*
X30390476Y-34642295D02*
X30847619Y-34642295D01*
X30619047Y-35442295D02*
X30619047Y-34642295D01*
X31038095Y-34642295D02*
X31571429Y-35442295D01*
X31571429Y-34642295D02*
X31038095Y-35442295D01*
X31876191Y-35442295D02*
X31876191Y-34642295D01*
X31876191Y-34642295D02*
X32066667Y-34642295D01*
X32066667Y-34642295D02*
X32180953Y-34680390D01*
X32180953Y-34680390D02*
X32257143Y-34756580D01*
X32257143Y-34756580D02*
X32295238Y-34832771D01*
X32295238Y-34832771D02*
X32333334Y-34985152D01*
X32333334Y-34985152D02*
X32333334Y-35099438D01*
X32333334Y-35099438D02*
X32295238Y-35251819D01*
X32295238Y-35251819D02*
X32257143Y-35328009D01*
X32257143Y-35328009D02*
X32180953Y-35404200D01*
X32180953Y-35404200D02*
X32066667Y-35442295D01*
X32066667Y-35442295D02*
X31876191Y-35442295D01*
X30866667Y-37982295D02*
X30600000Y-37601342D01*
X30409524Y-37982295D02*
X30409524Y-37182295D01*
X30409524Y-37182295D02*
X30714286Y-37182295D01*
X30714286Y-37182295D02*
X30790476Y-37220390D01*
X30790476Y-37220390D02*
X30828571Y-37258485D01*
X30828571Y-37258485D02*
X30866667Y-37334676D01*
X30866667Y-37334676D02*
X30866667Y-37448961D01*
X30866667Y-37448961D02*
X30828571Y-37525152D01*
X30828571Y-37525152D02*
X30790476Y-37563247D01*
X30790476Y-37563247D02*
X30714286Y-37601342D01*
X30714286Y-37601342D02*
X30409524Y-37601342D01*
X31133333Y-37182295D02*
X31666667Y-37982295D01*
X31666667Y-37182295D02*
X31133333Y-37982295D01*
X31971429Y-37982295D02*
X31971429Y-37182295D01*
X31971429Y-37182295D02*
X32161905Y-37182295D01*
X32161905Y-37182295D02*
X32276191Y-37220390D01*
X32276191Y-37220390D02*
X32352381Y-37296580D01*
X32352381Y-37296580D02*
X32390476Y-37372771D01*
X32390476Y-37372771D02*
X32428572Y-37525152D01*
X32428572Y-37525152D02*
X32428572Y-37639438D01*
X32428572Y-37639438D02*
X32390476Y-37791819D01*
X32390476Y-37791819D02*
X32352381Y-37868009D01*
X32352381Y-37868009D02*
X32276191Y-37944200D01*
X32276191Y-37944200D02*
X32161905Y-37982295D01*
X32161905Y-37982295D02*
X31971429Y-37982295D01*
X30961905Y-40522295D02*
X30695238Y-40141342D01*
X30504762Y-40522295D02*
X30504762Y-39722295D01*
X30504762Y-39722295D02*
X30809524Y-39722295D01*
X30809524Y-39722295D02*
X30885714Y-39760390D01*
X30885714Y-39760390D02*
X30923809Y-39798485D01*
X30923809Y-39798485D02*
X30961905Y-39874676D01*
X30961905Y-39874676D02*
X30961905Y-39988961D01*
X30961905Y-39988961D02*
X30923809Y-40065152D01*
X30923809Y-40065152D02*
X30885714Y-40103247D01*
X30885714Y-40103247D02*
X30809524Y-40141342D01*
X30809524Y-40141342D02*
X30504762Y-40141342D01*
X31266666Y-40484200D02*
X31380952Y-40522295D01*
X31380952Y-40522295D02*
X31571428Y-40522295D01*
X31571428Y-40522295D02*
X31647619Y-40484200D01*
X31647619Y-40484200D02*
X31685714Y-40446104D01*
X31685714Y-40446104D02*
X31723809Y-40369914D01*
X31723809Y-40369914D02*
X31723809Y-40293723D01*
X31723809Y-40293723D02*
X31685714Y-40217533D01*
X31685714Y-40217533D02*
X31647619Y-40179438D01*
X31647619Y-40179438D02*
X31571428Y-40141342D01*
X31571428Y-40141342D02*
X31419047Y-40103247D01*
X31419047Y-40103247D02*
X31342857Y-40065152D01*
X31342857Y-40065152D02*
X31304762Y-40027057D01*
X31304762Y-40027057D02*
X31266666Y-39950866D01*
X31266666Y-39950866D02*
X31266666Y-39874676D01*
X31266666Y-39874676D02*
X31304762Y-39798485D01*
X31304762Y-39798485D02*
X31342857Y-39760390D01*
X31342857Y-39760390D02*
X31419047Y-39722295D01*
X31419047Y-39722295D02*
X31609524Y-39722295D01*
X31609524Y-39722295D02*
X31723809Y-39760390D01*
X31952381Y-39722295D02*
X32409524Y-39722295D01*
X32180952Y-40522295D02*
X32180952Y-39722295D01*
X30504762Y-43062295D02*
X30504762Y-42262295D01*
X30504762Y-42262295D02*
X30961905Y-43062295D01*
X30961905Y-43062295D02*
X30961905Y-42262295D01*
X31342857Y-42643247D02*
X31609523Y-42643247D01*
X31723809Y-43062295D02*
X31342857Y-43062295D01*
X31342857Y-43062295D02*
X31342857Y-42262295D01*
X31342857Y-42262295D02*
X31723809Y-42262295D01*
X31952381Y-42262295D02*
X32409524Y-42262295D01*
X32180952Y-43062295D02*
X32180952Y-42262295D01*
X30597619Y-20362295D02*
X30330952Y-19981342D01*
X30140476Y-20362295D02*
X30140476Y-19562295D01*
X30140476Y-19562295D02*
X30445238Y-19562295D01*
X30445238Y-19562295D02*
X30521428Y-19600390D01*
X30521428Y-19600390D02*
X30559523Y-19638485D01*
X30559523Y-19638485D02*
X30597619Y-19714676D01*
X30597619Y-19714676D02*
X30597619Y-19828961D01*
X30597619Y-19828961D02*
X30559523Y-19905152D01*
X30559523Y-19905152D02*
X30521428Y-19943247D01*
X30521428Y-19943247D02*
X30445238Y-19981342D01*
X30445238Y-19981342D02*
X30140476Y-19981342D01*
X30826190Y-19562295D02*
X31283333Y-19562295D01*
X31054761Y-20362295D02*
X31054761Y-19562295D01*
X31550000Y-20362295D02*
X31550000Y-19562295D01*
X31550000Y-19562295D02*
X31740476Y-19562295D01*
X31740476Y-19562295D02*
X31854762Y-19600390D01*
X31854762Y-19600390D02*
X31930952Y-19676580D01*
X31930952Y-19676580D02*
X31969047Y-19752771D01*
X31969047Y-19752771D02*
X32007143Y-19905152D01*
X32007143Y-19905152D02*
X32007143Y-20019438D01*
X32007143Y-20019438D02*
X31969047Y-20171819D01*
X31969047Y-20171819D02*
X31930952Y-20248009D01*
X31930952Y-20248009D02*
X31854762Y-20324200D01*
X31854762Y-20324200D02*
X31740476Y-20362295D01*
X31740476Y-20362295D02*
X31550000Y-20362295D01*
X32350000Y-20057533D02*
X32959524Y-20057533D01*
X32654762Y-20362295D02*
X32654762Y-19752771D01*
X30597619Y-22862295D02*
X30330952Y-22481342D01*
X30140476Y-22862295D02*
X30140476Y-22062295D01*
X30140476Y-22062295D02*
X30445238Y-22062295D01*
X30445238Y-22062295D02*
X30521428Y-22100390D01*
X30521428Y-22100390D02*
X30559523Y-22138485D01*
X30559523Y-22138485D02*
X30597619Y-22214676D01*
X30597619Y-22214676D02*
X30597619Y-22328961D01*
X30597619Y-22328961D02*
X30559523Y-22405152D01*
X30559523Y-22405152D02*
X30521428Y-22443247D01*
X30521428Y-22443247D02*
X30445238Y-22481342D01*
X30445238Y-22481342D02*
X30140476Y-22481342D01*
X30826190Y-22062295D02*
X31283333Y-22062295D01*
X31054761Y-22862295D02*
X31054761Y-22062295D01*
X31550000Y-22862295D02*
X31550000Y-22062295D01*
X31550000Y-22062295D02*
X31740476Y-22062295D01*
X31740476Y-22062295D02*
X31854762Y-22100390D01*
X31854762Y-22100390D02*
X31930952Y-22176580D01*
X31930952Y-22176580D02*
X31969047Y-22252771D01*
X31969047Y-22252771D02*
X32007143Y-22405152D01*
X32007143Y-22405152D02*
X32007143Y-22519438D01*
X32007143Y-22519438D02*
X31969047Y-22671819D01*
X31969047Y-22671819D02*
X31930952Y-22748009D01*
X31930952Y-22748009D02*
X31854762Y-22824200D01*
X31854762Y-22824200D02*
X31740476Y-22862295D01*
X31740476Y-22862295D02*
X31550000Y-22862295D01*
X32350000Y-22557533D02*
X32959524Y-22557533D01*
X36585714Y-67833723D02*
X36966667Y-67833723D01*
X36509524Y-68062295D02*
X36776191Y-67262295D01*
X36776191Y-67262295D02*
X37042857Y-68062295D01*
X37309524Y-68062295D02*
X37309524Y-67262295D01*
X37309524Y-67262295D02*
X37766667Y-68062295D01*
X37766667Y-68062295D02*
X37766667Y-67262295D01*
X38033333Y-67262295D02*
X38490476Y-67262295D01*
X38261904Y-68062295D02*
X38261904Y-67262295D01*
X41590476Y-69600390D02*
X41514286Y-69562295D01*
X41514286Y-69562295D02*
X41400000Y-69562295D01*
X41400000Y-69562295D02*
X41285714Y-69600390D01*
X41285714Y-69600390D02*
X41209524Y-69676580D01*
X41209524Y-69676580D02*
X41171429Y-69752771D01*
X41171429Y-69752771D02*
X41133333Y-69905152D01*
X41133333Y-69905152D02*
X41133333Y-70019438D01*
X41133333Y-70019438D02*
X41171429Y-70171819D01*
X41171429Y-70171819D02*
X41209524Y-70248009D01*
X41209524Y-70248009D02*
X41285714Y-70324200D01*
X41285714Y-70324200D02*
X41400000Y-70362295D01*
X41400000Y-70362295D02*
X41476191Y-70362295D01*
X41476191Y-70362295D02*
X41590476Y-70324200D01*
X41590476Y-70324200D02*
X41628572Y-70286104D01*
X41628572Y-70286104D02*
X41628572Y-70019438D01*
X41628572Y-70019438D02*
X41476191Y-70019438D01*
X41971429Y-70362295D02*
X41971429Y-69562295D01*
X41971429Y-69562295D02*
X42428572Y-70362295D01*
X42428572Y-70362295D02*
X42428572Y-69562295D01*
X42809524Y-70362295D02*
X42809524Y-69562295D01*
X42809524Y-69562295D02*
X43000000Y-69562295D01*
X43000000Y-69562295D02*
X43114286Y-69600390D01*
X43114286Y-69600390D02*
X43190476Y-69676580D01*
X43190476Y-69676580D02*
X43228571Y-69752771D01*
X43228571Y-69752771D02*
X43266667Y-69905152D01*
X43266667Y-69905152D02*
X43266667Y-70019438D01*
X43266667Y-70019438D02*
X43228571Y-70171819D01*
X43228571Y-70171819D02*
X43190476Y-70248009D01*
X43190476Y-70248009D02*
X43114286Y-70324200D01*
X43114286Y-70324200D02*
X43000000Y-70362295D01*
X43000000Y-70362295D02*
X42809524Y-70362295D01*
D11*
X12200001Y-77417211D02*
X12600001Y-77417211D01*
X12771429Y-78045782D02*
X12200001Y-78045782D01*
X12200001Y-78045782D02*
X12200001Y-76845782D01*
X12200001Y-76845782D02*
X12771429Y-76845782D01*
X13228572Y-77988640D02*
X13400001Y-78045782D01*
X13400001Y-78045782D02*
X13685715Y-78045782D01*
X13685715Y-78045782D02*
X13800001Y-77988640D01*
X13800001Y-77988640D02*
X13857143Y-77931497D01*
X13857143Y-77931497D02*
X13914286Y-77817211D01*
X13914286Y-77817211D02*
X13914286Y-77702925D01*
X13914286Y-77702925D02*
X13857143Y-77588640D01*
X13857143Y-77588640D02*
X13800001Y-77531497D01*
X13800001Y-77531497D02*
X13685715Y-77474354D01*
X13685715Y-77474354D02*
X13457143Y-77417211D01*
X13457143Y-77417211D02*
X13342858Y-77360068D01*
X13342858Y-77360068D02*
X13285715Y-77302925D01*
X13285715Y-77302925D02*
X13228572Y-77188640D01*
X13228572Y-77188640D02*
X13228572Y-77074354D01*
X13228572Y-77074354D02*
X13285715Y-76960068D01*
X13285715Y-76960068D02*
X13342858Y-76902925D01*
X13342858Y-76902925D02*
X13457143Y-76845782D01*
X13457143Y-76845782D02*
X13742858Y-76845782D01*
X13742858Y-76845782D02*
X13914286Y-76902925D01*
X14428572Y-78045782D02*
X14428572Y-76845782D01*
X14428572Y-76845782D02*
X14885715Y-76845782D01*
X14885715Y-76845782D02*
X15000000Y-76902925D01*
X15000000Y-76902925D02*
X15057143Y-76960068D01*
X15057143Y-76960068D02*
X15114286Y-77074354D01*
X15114286Y-77074354D02*
X15114286Y-77245782D01*
X15114286Y-77245782D02*
X15057143Y-77360068D01*
X15057143Y-77360068D02*
X15000000Y-77417211D01*
X15000000Y-77417211D02*
X14885715Y-77474354D01*
X14885715Y-77474354D02*
X14428572Y-77474354D01*
X15514286Y-76845782D02*
X16257143Y-76845782D01*
X16257143Y-76845782D02*
X15857143Y-77302925D01*
X15857143Y-77302925D02*
X16028572Y-77302925D01*
X16028572Y-77302925D02*
X16142858Y-77360068D01*
X16142858Y-77360068D02*
X16200000Y-77417211D01*
X16200000Y-77417211D02*
X16257143Y-77531497D01*
X16257143Y-77531497D02*
X16257143Y-77817211D01*
X16257143Y-77817211D02*
X16200000Y-77931497D01*
X16200000Y-77931497D02*
X16142858Y-77988640D01*
X16142858Y-77988640D02*
X16028572Y-78045782D01*
X16028572Y-78045782D02*
X15685715Y-78045782D01*
X15685715Y-78045782D02*
X15571429Y-77988640D01*
X15571429Y-77988640D02*
X15514286Y-77931497D01*
X16714286Y-76960068D02*
X16771429Y-76902925D01*
X16771429Y-76902925D02*
X16885715Y-76845782D01*
X16885715Y-76845782D02*
X17171429Y-76845782D01*
X17171429Y-76845782D02*
X17285715Y-76902925D01*
X17285715Y-76902925D02*
X17342857Y-76960068D01*
X17342857Y-76960068D02*
X17400000Y-77074354D01*
X17400000Y-77074354D02*
X17400000Y-77188640D01*
X17400000Y-77188640D02*
X17342857Y-77360068D01*
X17342857Y-77360068D02*
X16657143Y-78045782D01*
X16657143Y-78045782D02*
X17400000Y-78045782D01*
X17914286Y-77588640D02*
X18828572Y-77588640D01*
X19342857Y-77988640D02*
X19514286Y-78045782D01*
X19514286Y-78045782D02*
X19800000Y-78045782D01*
X19800000Y-78045782D02*
X19914286Y-77988640D01*
X19914286Y-77988640D02*
X19971428Y-77931497D01*
X19971428Y-77931497D02*
X20028571Y-77817211D01*
X20028571Y-77817211D02*
X20028571Y-77702925D01*
X20028571Y-77702925D02*
X19971428Y-77588640D01*
X19971428Y-77588640D02*
X19914286Y-77531497D01*
X19914286Y-77531497D02*
X19800000Y-77474354D01*
X19800000Y-77474354D02*
X19571428Y-77417211D01*
X19571428Y-77417211D02*
X19457143Y-77360068D01*
X19457143Y-77360068D02*
X19400000Y-77302925D01*
X19400000Y-77302925D02*
X19342857Y-77188640D01*
X19342857Y-77188640D02*
X19342857Y-77074354D01*
X19342857Y-77074354D02*
X19400000Y-76960068D01*
X19400000Y-76960068D02*
X19457143Y-76902925D01*
X19457143Y-76902925D02*
X19571428Y-76845782D01*
X19571428Y-76845782D02*
X19857143Y-76845782D01*
X19857143Y-76845782D02*
X20028571Y-76902925D01*
X20428571Y-76845782D02*
X21171428Y-76845782D01*
X21171428Y-76845782D02*
X20771428Y-77302925D01*
X20771428Y-77302925D02*
X20942857Y-77302925D01*
X20942857Y-77302925D02*
X21057143Y-77360068D01*
X21057143Y-77360068D02*
X21114285Y-77417211D01*
X21114285Y-77417211D02*
X21171428Y-77531497D01*
X21171428Y-77531497D02*
X21171428Y-77817211D01*
X21171428Y-77817211D02*
X21114285Y-77931497D01*
X21114285Y-77931497D02*
X21057143Y-77988640D01*
X21057143Y-77988640D02*
X20942857Y-78045782D01*
X20942857Y-78045782D02*
X20600000Y-78045782D01*
X20600000Y-78045782D02*
X20485714Y-77988640D01*
X20485714Y-77988640D02*
X20428571Y-77931497D01*
X22485714Y-76845782D02*
X22771428Y-78045782D01*
X22771428Y-78045782D02*
X23000000Y-77188640D01*
X23000000Y-77188640D02*
X23228571Y-78045782D01*
X23228571Y-78045782D02*
X23514286Y-76845782D01*
X24485715Y-78045782D02*
X24485715Y-77417211D01*
X24485715Y-77417211D02*
X24428572Y-77302925D01*
X24428572Y-77302925D02*
X24314286Y-77245782D01*
X24314286Y-77245782D02*
X24085715Y-77245782D01*
X24085715Y-77245782D02*
X23971429Y-77302925D01*
X24485715Y-77988640D02*
X24371429Y-78045782D01*
X24371429Y-78045782D02*
X24085715Y-78045782D01*
X24085715Y-78045782D02*
X23971429Y-77988640D01*
X23971429Y-77988640D02*
X23914286Y-77874354D01*
X23914286Y-77874354D02*
X23914286Y-77760068D01*
X23914286Y-77760068D02*
X23971429Y-77645782D01*
X23971429Y-77645782D02*
X24085715Y-77588640D01*
X24085715Y-77588640D02*
X24371429Y-77588640D01*
X24371429Y-77588640D02*
X24485715Y-77531497D01*
X24942857Y-77245782D02*
X25228571Y-78045782D01*
X25228571Y-78045782D02*
X25514286Y-77245782D01*
X26428572Y-77988640D02*
X26314286Y-78045782D01*
X26314286Y-78045782D02*
X26085715Y-78045782D01*
X26085715Y-78045782D02*
X25971429Y-77988640D01*
X25971429Y-77988640D02*
X25914286Y-77874354D01*
X25914286Y-77874354D02*
X25914286Y-77417211D01*
X25914286Y-77417211D02*
X25971429Y-77302925D01*
X25971429Y-77302925D02*
X26085715Y-77245782D01*
X26085715Y-77245782D02*
X26314286Y-77245782D01*
X26314286Y-77245782D02*
X26428572Y-77302925D01*
X26428572Y-77302925D02*
X26485715Y-77417211D01*
X26485715Y-77417211D02*
X26485715Y-77531497D01*
X26485715Y-77531497D02*
X25914286Y-77645782D01*
X26942857Y-77988640D02*
X27057143Y-78045782D01*
X27057143Y-78045782D02*
X27285714Y-78045782D01*
X27285714Y-78045782D02*
X27400000Y-77988640D01*
X27400000Y-77988640D02*
X27457143Y-77874354D01*
X27457143Y-77874354D02*
X27457143Y-77817211D01*
X27457143Y-77817211D02*
X27400000Y-77702925D01*
X27400000Y-77702925D02*
X27285714Y-77645782D01*
X27285714Y-77645782D02*
X27114286Y-77645782D01*
X27114286Y-77645782D02*
X27000000Y-77588640D01*
X27000000Y-77588640D02*
X26942857Y-77474354D01*
X26942857Y-77474354D02*
X26942857Y-77417211D01*
X26942857Y-77417211D02*
X27000000Y-77302925D01*
X27000000Y-77302925D02*
X27114286Y-77245782D01*
X27114286Y-77245782D02*
X27285714Y-77245782D01*
X27285714Y-77245782D02*
X27400000Y-77302925D01*
X27971429Y-78045782D02*
X27971429Y-76845782D01*
X28485715Y-78045782D02*
X28485715Y-77417211D01*
X28485715Y-77417211D02*
X28428572Y-77302925D01*
X28428572Y-77302925D02*
X28314286Y-77245782D01*
X28314286Y-77245782D02*
X28142857Y-77245782D01*
X28142857Y-77245782D02*
X28028572Y-77302925D01*
X28028572Y-77302925D02*
X27971429Y-77360068D01*
X29571429Y-78045782D02*
X29571429Y-77417211D01*
X29571429Y-77417211D02*
X29514286Y-77302925D01*
X29514286Y-77302925D02*
X29400000Y-77245782D01*
X29400000Y-77245782D02*
X29171429Y-77245782D01*
X29171429Y-77245782D02*
X29057143Y-77302925D01*
X29571429Y-77988640D02*
X29457143Y-78045782D01*
X29457143Y-78045782D02*
X29171429Y-78045782D01*
X29171429Y-78045782D02*
X29057143Y-77988640D01*
X29057143Y-77988640D02*
X29000000Y-77874354D01*
X29000000Y-77874354D02*
X29000000Y-77760068D01*
X29000000Y-77760068D02*
X29057143Y-77645782D01*
X29057143Y-77645782D02*
X29171429Y-77588640D01*
X29171429Y-77588640D02*
X29457143Y-77588640D01*
X29457143Y-77588640D02*
X29571429Y-77531497D01*
X30142857Y-78045782D02*
X30142857Y-77245782D01*
X30142857Y-77474354D02*
X30200000Y-77360068D01*
X30200000Y-77360068D02*
X30257143Y-77302925D01*
X30257143Y-77302925D02*
X30371428Y-77245782D01*
X30371428Y-77245782D02*
X30485714Y-77245782D01*
X31342857Y-77988640D02*
X31228571Y-78045782D01*
X31228571Y-78045782D02*
X31000000Y-78045782D01*
X31000000Y-78045782D02*
X30885714Y-77988640D01*
X30885714Y-77988640D02*
X30828571Y-77874354D01*
X30828571Y-77874354D02*
X30828571Y-77417211D01*
X30828571Y-77417211D02*
X30885714Y-77302925D01*
X30885714Y-77302925D02*
X31000000Y-77245782D01*
X31000000Y-77245782D02*
X31228571Y-77245782D01*
X31228571Y-77245782D02*
X31342857Y-77302925D01*
X31342857Y-77302925D02*
X31400000Y-77417211D01*
X31400000Y-77417211D02*
X31400000Y-77531497D01*
X31400000Y-77531497D02*
X30828571Y-77645782D01*
X32771428Y-77988640D02*
X32942857Y-78045782D01*
X32942857Y-78045782D02*
X33228571Y-78045782D01*
X33228571Y-78045782D02*
X33342857Y-77988640D01*
X33342857Y-77988640D02*
X33399999Y-77931497D01*
X33399999Y-77931497D02*
X33457142Y-77817211D01*
X33457142Y-77817211D02*
X33457142Y-77702925D01*
X33457142Y-77702925D02*
X33399999Y-77588640D01*
X33399999Y-77588640D02*
X33342857Y-77531497D01*
X33342857Y-77531497D02*
X33228571Y-77474354D01*
X33228571Y-77474354D02*
X32999999Y-77417211D01*
X32999999Y-77417211D02*
X32885714Y-77360068D01*
X32885714Y-77360068D02*
X32828571Y-77302925D01*
X32828571Y-77302925D02*
X32771428Y-77188640D01*
X32771428Y-77188640D02*
X32771428Y-77074354D01*
X32771428Y-77074354D02*
X32828571Y-76960068D01*
X32828571Y-76960068D02*
X32885714Y-76902925D01*
X32885714Y-76902925D02*
X32999999Y-76845782D01*
X32999999Y-76845782D02*
X33285714Y-76845782D01*
X33285714Y-76845782D02*
X33457142Y-76902925D01*
X33971428Y-78045782D02*
X33971428Y-76845782D01*
X34485714Y-78045782D02*
X34485714Y-77417211D01*
X34485714Y-77417211D02*
X34428571Y-77302925D01*
X34428571Y-77302925D02*
X34314285Y-77245782D01*
X34314285Y-77245782D02*
X34142856Y-77245782D01*
X34142856Y-77245782D02*
X34028571Y-77302925D01*
X34028571Y-77302925D02*
X33971428Y-77360068D01*
X35057142Y-78045782D02*
X35057142Y-77245782D01*
X35057142Y-76845782D02*
X34999999Y-76902925D01*
X34999999Y-76902925D02*
X35057142Y-76960068D01*
X35057142Y-76960068D02*
X35114285Y-76902925D01*
X35114285Y-76902925D02*
X35057142Y-76845782D01*
X35057142Y-76845782D02*
X35057142Y-76960068D01*
X36085714Y-77988640D02*
X35971428Y-78045782D01*
X35971428Y-78045782D02*
X35742857Y-78045782D01*
X35742857Y-78045782D02*
X35628571Y-77988640D01*
X35628571Y-77988640D02*
X35571428Y-77874354D01*
X35571428Y-77874354D02*
X35571428Y-77417211D01*
X35571428Y-77417211D02*
X35628571Y-77302925D01*
X35628571Y-77302925D02*
X35742857Y-77245782D01*
X35742857Y-77245782D02*
X35971428Y-77245782D01*
X35971428Y-77245782D02*
X36085714Y-77302925D01*
X36085714Y-77302925D02*
X36142857Y-77417211D01*
X36142857Y-77417211D02*
X36142857Y-77531497D01*
X36142857Y-77531497D02*
X35571428Y-77645782D01*
X36828570Y-78045782D02*
X36714285Y-77988640D01*
X36714285Y-77988640D02*
X36657142Y-77874354D01*
X36657142Y-77874354D02*
X36657142Y-76845782D01*
X37799999Y-78045782D02*
X37799999Y-76845782D01*
X37799999Y-77988640D02*
X37685713Y-78045782D01*
X37685713Y-78045782D02*
X37457141Y-78045782D01*
X37457141Y-78045782D02*
X37342856Y-77988640D01*
X37342856Y-77988640D02*
X37285713Y-77931497D01*
X37285713Y-77931497D02*
X37228570Y-77817211D01*
X37228570Y-77817211D02*
X37228570Y-77474354D01*
X37228570Y-77474354D02*
X37285713Y-77360068D01*
X37285713Y-77360068D02*
X37342856Y-77302925D01*
X37342856Y-77302925D02*
X37457141Y-77245782D01*
X37457141Y-77245782D02*
X37685713Y-77245782D01*
X37685713Y-77245782D02*
X37799999Y-77302925D01*
D12*
X16571428Y-75909638D02*
X16571428Y-73909638D01*
X16571428Y-73909638D02*
X17714285Y-75909638D01*
X17714285Y-75909638D02*
X17714285Y-73909638D01*
X18666666Y-74862019D02*
X19333333Y-74862019D01*
X19619047Y-75909638D02*
X18666666Y-75909638D01*
X18666666Y-75909638D02*
X18666666Y-73909638D01*
X18666666Y-73909638D02*
X19619047Y-73909638D01*
X20857142Y-73909638D02*
X21238095Y-73909638D01*
X21238095Y-73909638D02*
X21428571Y-74004876D01*
X21428571Y-74004876D02*
X21619047Y-74195352D01*
X21619047Y-74195352D02*
X21714285Y-74576304D01*
X21714285Y-74576304D02*
X21714285Y-75242971D01*
X21714285Y-75242971D02*
X21619047Y-75623923D01*
X21619047Y-75623923D02*
X21428571Y-75814400D01*
X21428571Y-75814400D02*
X21238095Y-75909638D01*
X21238095Y-75909638D02*
X20857142Y-75909638D01*
X20857142Y-75909638D02*
X20666666Y-75814400D01*
X20666666Y-75814400D02*
X20476190Y-75623923D01*
X20476190Y-75623923D02*
X20380952Y-75242971D01*
X20380952Y-75242971D02*
X20380952Y-74576304D01*
X20380952Y-74576304D02*
X20476190Y-74195352D01*
X20476190Y-74195352D02*
X20666666Y-74004876D01*
X20666666Y-74004876D02*
X20857142Y-73909638D01*
X23523809Y-75909638D02*
X22571428Y-75909638D01*
X22571428Y-75909638D02*
X22571428Y-73909638D01*
X24190476Y-75909638D02*
X24190476Y-73909638D01*
X25142857Y-75909638D02*
X25142857Y-73909638D01*
X25142857Y-73909638D02*
X26285714Y-75909638D01*
X26285714Y-75909638D02*
X26285714Y-73909638D01*
X27238095Y-75909638D02*
X27238095Y-73909638D01*
X28380952Y-75909638D02*
X27523809Y-74766780D01*
X28380952Y-73909638D02*
X27238095Y-75052495D01*
X30476191Y-73909638D02*
X31142857Y-75909638D01*
X31142857Y-75909638D02*
X31809524Y-73909638D01*
X33523810Y-75909638D02*
X32380953Y-75909638D01*
X32952381Y-75909638D02*
X32952381Y-73909638D01*
X32952381Y-73909638D02*
X32761905Y-74195352D01*
X32761905Y-74195352D02*
X32571429Y-74385828D01*
X32571429Y-74385828D02*
X32380953Y-74481066D01*
M02*
