%TF.GenerationSoftware,KiCad,Pcbnew,10.0.3*%
%TF.CreationDate,2026-05-27T10:50:58-06:00*%
%TF.ProjectId,neolink-v1,6e656f6c-696e-46b2-9d76-312e6b696361,rev?*%
%TF.SameCoordinates,Original*%
%TF.FileFunction,Copper,L1,Top*%
%TF.FilePolarity,Positive*%
%FSLAX46Y46*%
G04 Gerber Fmt 4.6, Leading zero omitted, Abs format (unit mm)*
G04 Created by KiCad (PCBNEW 10.0.3) date 2026-05-27 10:50:58*
%MOMM*%
%LPD*%
G01*
G04 APERTURE LIST*
%TA.AperFunction,ComponentPad*%
%ADD10R,1.300000X1.300000*%
%TD*%
%TA.AperFunction,ComponentPad*%
%ADD11C,1.300000*%
%TD*%
%TA.AperFunction,ComponentPad*%
%ADD12C,2.000000*%
%TD*%
%TA.AperFunction,ComponentPad*%
%ADD13R,1.600000X1.600000*%
%TD*%
%TA.AperFunction,ComponentPad*%
%ADD14C,1.600000*%
%TD*%
%TA.AperFunction,ComponentPad*%
%ADD15R,2.000000X2.000000*%
%TD*%
%TA.AperFunction,ViaPad*%
%ADD16C,1.800000*%
%TD*%
%TA.AperFunction,Conductor*%
%ADD17C,0.500000*%
%TD*%
G04 APERTURE END LIST*
D10*
%TO.P,J2,1*%
%TO.N,~{VCC_5V}*%
X30000000Y-30000000D03*
D11*
%TO.P,J2,2*%
%TO.N,GND*%
X30000000Y-32540000D03*
%TO.P,J2,3*%
%TO.N,TXD_SIM*%
X30000000Y-35080000D03*
%TO.P,J2,4*%
%TO.N,RXD_SIM*%
X30000000Y-37620000D03*
%TO.P,J2,5*%
%TO.N,RST_SIM*%
X30000000Y-40160000D03*
%TO.P,J2,6*%
%TO.N,PWR_SIM*%
X30000000Y-42700000D03*
%TD*%
D10*
%TO.P,J1,1*%
%TO.N,GND*%
X2540000Y-21000000D03*
D11*
%TO.P,J1,2*%
X5080000Y-21000000D03*
%TO.P,J1,3*%
%TO.N,~{VCC_3V3}*%
X2540000Y-23540000D03*
%TO.P,J1,4*%
%TO.N,~{VCC_5V}*%
X5080000Y-23540000D03*
%TO.P,J1,5*%
%TO.N,BAT*%
X2540000Y-26080000D03*
%TO.P,J1,6*%
%TO.N,CS_MAX1*%
X5080000Y-26080000D03*
%TO.P,J1,7*%
%TO.N,CLK_SPI*%
X2540000Y-28620000D03*
%TO.P,J1,8*%
%TO.N,CS_MAX2*%
X5080000Y-28620000D03*
%TO.P,J1,9*%
%TO.N,MOSI_SPI*%
X2540000Y-31160000D03*
%TO.P,J1,10*%
%TO.N,MISO_SPI*%
X5080000Y-31160000D03*
%TO.P,J1,11*%
%TO.N,I2C_SDA*%
X2540000Y-33700000D03*
%TO.P,J1,12*%
%TO.N,I2C_SCL*%
X5080000Y-33700000D03*
%TO.P,J1,13*%
%TO.N,TXD_SIM*%
X2540000Y-36240000D03*
%TO.P,J1,14*%
%TO.N,RXD_SIM*%
X5080000Y-36240000D03*
%TO.P,J1,15*%
%TO.N,GPIO1*%
X2540000Y-38780000D03*
%TO.P,J1,16*%
%TO.N,GPIO2*%
X5080000Y-38780000D03*
%TO.P,J1,17*%
%TO.N,GPIO3*%
X2540000Y-41320000D03*
%TO.P,J1,18*%
%TO.N,GPIO4*%
X5080000Y-41320000D03*
%TO.P,J1,19*%
%TO.N,GPIO5*%
X2540000Y-43860000D03*
%TO.P,J1,20*%
%TO.N,GPIO6*%
X5080000Y-43860000D03*
%TO.P,J1,21*%
%TO.N,GPIO7*%
X2540000Y-46400000D03*
%TO.P,J1,22*%
%TO.N,GPIO8*%
X5080000Y-46400000D03*
%TO.P,J1,23*%
%TO.N,GPIO9*%
X2540000Y-48940000D03*
%TO.P,J1,24*%
%TO.N,GPIO10*%
X5080000Y-48940000D03*
%TO.P,J1,25*%
%TO.N,GPIO11*%
X2540000Y-51480000D03*
%TO.P,J1,26*%
%TO.N,GPIO12*%
X5080000Y-51480000D03*
%TO.P,J1,27*%
%TO.N,GPIO13*%
X2540000Y-54020000D03*
%TO.P,J1,28*%
%TO.N,GPIO14*%
X5080000Y-54020000D03*
%TO.P,J1,29*%
%TO.N,GPIO15*%
X2540000Y-56560000D03*
%TO.P,J1,30*%
%TO.N,GPIO16*%
X5080000Y-56560000D03*
%TO.P,J1,31*%
%TO.N,GPIO17*%
X2540000Y-59100000D03*
%TO.P,J1,32*%
%TO.N,N/C*%
X5080000Y-59100000D03*
%TD*%
D12*
%TO.P,J10,1*%
%TO.N,ANT_GSM*%
X38000000Y-70000000D03*
%TO.P,J10,2*%
%TO.N,GND*%
X34950000Y-66950000D03*
%TO.P,J10,3*%
X41050000Y-66950000D03*
%TO.P,J10,4*%
X34950000Y-73050000D03*
%TO.P,J10,5*%
X41050000Y-73050000D03*
%TD*%
D13*
%TO.P,J8,1*%
%TO.N,RTD2_P*%
X18000000Y-62000000D03*
D14*
%TO.P,J8,2*%
%TO.N,RTD2_N*%
X18000000Y-64500000D03*
%TD*%
D13*
%TO.P,J9,1*%
%TO.N,BAT*%
X9000000Y-72000000D03*
D14*
%TO.P,J9,2*%
%TO.N,GND*%
X9000000Y-74500000D03*
%TD*%
D13*
%TO.P,J7,1*%
%TO.N,RTD1_P*%
X30000000Y-20000000D03*
D14*
%TO.P,J7,2*%
%TO.N,RTD1_N*%
X30000000Y-22500000D03*
%TD*%
D10*
%TO.P,J4,1*%
%TO.N,~{VCC_3V3}*%
X22000000Y-38000000D03*
D11*
%TO.P,J4,2*%
%TO.N,GND*%
X24540000Y-38000000D03*
%TO.P,J4,3*%
%TO.N,CLK_SPI*%
X22000000Y-40540000D03*
%TO.P,J4,4*%
%TO.N,MISO_SPI*%
X24540000Y-40540000D03*
%TO.P,J4,5*%
%TO.N,MOSI_SPI*%
X22000000Y-43080000D03*
%TO.P,J4,6*%
%TO.N,CS_MAX2*%
X24540000Y-43080000D03*
%TO.P,J4,7*%
%TO.N,RTD2_P*%
X22000000Y-45620000D03*
%TO.P,J4,8*%
%TO.N,RTD2_N*%
X24540000Y-45620000D03*
%TD*%
D13*
%TO.P,J6,1*%
%TO.N,~{VCC_3V3}*%
X27000000Y-5000000D03*
D14*
%TO.P,J6,2*%
%TO.N,GND*%
X27000000Y-7500000D03*
%TO.P,J6,3*%
%TO.N,I2C_SDA*%
X27000000Y-10000000D03*
%TO.P,J6,4*%
%TO.N,I2C_SCL*%
X27000000Y-12500000D03*
%TD*%
D13*
%TO.P,J5,1*%
%TO.N,~{VCC_3V3}*%
X18000000Y-5000000D03*
D14*
%TO.P,J5,2*%
%TO.N,GND*%
X18000000Y-7500000D03*
%TO.P,J5,3*%
%TO.N,I2C_SDA*%
X18000000Y-10000000D03*
%TO.P,J5,4*%
%TO.N,I2C_SCL*%
X18000000Y-12500000D03*
%TD*%
D15*
%TO.P,C1,1*%
%TO.N,~{VCC_5V}*%
X38000000Y-36000000D03*
D12*
%TO.P,C1,2*%
%TO.N,GND*%
X43000000Y-36000000D03*
%TD*%
D10*
%TO.P,J3,1*%
%TO.N,~{VCC_3V3}*%
X9000000Y-27500000D03*
D11*
%TO.P,J3,2*%
%TO.N,GND*%
X11540000Y-27500000D03*
%TO.P,J3,3*%
%TO.N,CLK_SPI*%
X9000000Y-30040000D03*
%TO.P,J3,4*%
%TO.N,MISO_SPI*%
X11540000Y-30040000D03*
%TO.P,J3,5*%
%TO.N,MOSI_SPI*%
X9000000Y-32580000D03*
%TO.P,J3,6*%
%TO.N,CS_MAX1*%
X11540000Y-32580000D03*
%TO.P,J3,7*%
%TO.N,RTD1_P*%
X9000000Y-35120000D03*
%TO.P,J3,8*%
%TO.N,RTD1_N*%
X11540000Y-35120000D03*
%TD*%
D16*
%TO.N,~{VCC_3V3}*%
X22860000Y-27940000D03*
X20320000Y-17780000D03*
%TO.N,~{VCC_5V}*%
X15240000Y-27940000D03*
%TO.N,MOSI_SPI*%
X9000000Y-37830000D03*
%TO.N,CS_MAX2*%
X20320000Y-15240000D03*
%TO.N,TXD_SIM*%
X15240000Y-48260000D03*
%TO.N,RXD_SIM*%
X15240000Y-45720000D03*
%TD*%
%TO.N,~{VCC_3V3}*%
D17*
X9000000Y-22290000D02*
X9000000Y-27500000D01*
X29320000Y-5000000D02*
X18000000Y-5000000D01*
X2540000Y-23540000D02*
X2540000Y-22290000D01*
X29320000Y-17780000D02*
X29320000Y-5000000D01*
X33020000Y-27940000D02*
X22860000Y-27940000D01*
X33020000Y-17780000D02*
X33020000Y-27940000D01*
X9000000Y-27500000D02*
X9000000Y-17780000D01*
X18000000Y-5000000D02*
X27000000Y-5000000D01*
X2540000Y-22290000D02*
X9000000Y-22290000D01*
X20320000Y-17780000D02*
X29320000Y-17780000D01*
X9000000Y-17780000D02*
X33020000Y-17780000D01*
%TO.N,~{VCC_5V}*%
X15240000Y-30000000D02*
X30000000Y-30000000D01*
X15240000Y-27940000D02*
X15240000Y-30000000D01*
%TO.N,CLK_SPI*%
X2540000Y-28620000D02*
X2540000Y-30040000D01*
X9000000Y-30040000D02*
X1380000Y-30040000D01*
X22000000Y-40200000D02*
X22000000Y-40540000D01*
X1380000Y-30040000D02*
X1380000Y-40200000D01*
X1380000Y-40200000D02*
X22000000Y-40200000D01*
X2540000Y-30040000D02*
X9000000Y-30040000D01*
%TO.N,MOSI_SPI*%
X2540000Y-31160000D02*
X2540000Y-32580000D01*
X9000000Y-32580000D02*
X7750000Y-32580000D01*
X7750000Y-32580000D02*
X7750000Y-37830000D01*
X7750000Y-37830000D02*
X9000000Y-37830000D01*
X2540000Y-32580000D02*
X9000000Y-32580000D01*
%TO.N,MISO_SPI*%
X10420000Y-39290000D02*
X24540000Y-39290000D01*
X24540000Y-39290000D02*
X24540000Y-40540000D01*
X5080000Y-31160000D02*
X11540000Y-31160000D01*
X11540000Y-31160000D02*
X11540000Y-30040000D01*
X11540000Y-30040000D02*
X10420000Y-30040000D01*
X10420000Y-30040000D02*
X10420000Y-39290000D01*
%TO.N,CS_MAX2*%
X1270000Y-15240000D02*
X20320000Y-15240000D01*
X5080000Y-27270000D02*
X1270000Y-27270000D01*
X5080000Y-28620000D02*
X5080000Y-27270000D01*
X1270000Y-27270000D02*
X1270000Y-15240000D01*
%TO.N,I2C_SDA*%
X18000000Y-10000000D02*
X27000000Y-10000000D01*
%TO.N,I2C_SCL*%
X18000000Y-12500000D02*
X27000000Y-12500000D01*
%TO.N,TXD_SIM*%
X31250000Y-48260000D02*
X31250000Y-35080000D01*
X31250000Y-35080000D02*
X30000000Y-35080000D01*
X15240000Y-48260000D02*
X31250000Y-48260000D01*
%TO.N,RXD_SIM*%
X26430000Y-37620000D02*
X30000000Y-37620000D01*
X15240000Y-41910000D02*
X26430000Y-41910000D01*
X26430000Y-41910000D02*
X26430000Y-37620000D01*
X15240000Y-45720000D02*
X15240000Y-41910000D01*
%TO.N,RTD1_N*%
X11540000Y-35120000D02*
X12790000Y-35120000D01*
X12790000Y-35120000D02*
X12790000Y-22500000D01*
X12790000Y-22500000D02*
X30000000Y-22500000D01*
%TD*%
M02*
