G04 #@! TF.GenerationSoftware,KiCad,Pcbnew,10.0.3*
G04 #@! TF.CreationDate,2026-05-27T13:43:45-06:00*
G04 #@! TF.ProjectId,neolink-v1,6e656f6c-696e-46b2-9d76-312e6b696361,rev?*
G04 #@! TF.SameCoordinates,Original*
G04 #@! TF.FileFunction,Copper,L1,Top*
G04 #@! TF.FilePolarity,Positive*
%FSLAX46Y46*%
G04 Gerber Fmt 4.6, Leading zero omitted, Abs format (unit mm)*
G04 Created by KiCad (PCBNEW 10.0.3) date 2026-05-27 13:43:45*
%MOMM*%
%LPD*%
G01*
G04 APERTURE LIST*
G04 #@! TA.AperFunction,ComponentPad*
%ADD10R,1.600000X1.600000*%
G04 #@! TD*
G04 #@! TA.AperFunction,ComponentPad*
%ADD11C,1.600000*%
G04 #@! TD*
G04 #@! TA.AperFunction,ComponentPad*
%ADD12R,1.300000X1.300000*%
G04 #@! TD*
G04 #@! TA.AperFunction,ComponentPad*
%ADD13C,1.300000*%
G04 #@! TD*
G04 #@! TA.AperFunction,ComponentPad*
%ADD14C,2.000000*%
G04 #@! TD*
G04 #@! TA.AperFunction,ComponentPad*
%ADD15R,2.000000X2.000000*%
G04 #@! TD*
G04 #@! TA.AperFunction,ViaPad*
%ADD16C,1.800000*%
G04 #@! TD*
G04 #@! TA.AperFunction,Conductor*
%ADD17C,0.500000*%
G04 #@! TD*
G04 APERTURE END LIST*
D10*
X18000000Y-5000000D03*
D11*
X18000000Y-7500000D03*
X18000000Y-10000000D03*
X18000000Y-12500000D03*
D10*
X9000000Y-72000000D03*
D11*
X9000000Y-74500000D03*
D12*
X30000000Y-30000000D03*
D13*
X30000000Y-32540000D03*
X30000000Y-35080000D03*
X30000000Y-37620000D03*
X30000000Y-40160000D03*
X30000000Y-42700000D03*
D12*
X22000000Y-38000000D03*
D13*
X24540000Y-38000000D03*
X22000000Y-40540000D03*
X24540000Y-40540000D03*
X22000000Y-43080000D03*
X24540000Y-43080000D03*
X22000000Y-45620000D03*
X24540000Y-45620000D03*
D10*
X27000000Y-5000000D03*
D11*
X27000000Y-7500000D03*
X27000000Y-10000000D03*
X27000000Y-12500000D03*
D14*
X38000000Y-70000000D03*
X34950000Y-66950000D03*
X41050000Y-66950000D03*
X34950000Y-73050000D03*
X41050000Y-73050000D03*
D12*
X9000000Y-27500000D03*
D13*
X11540000Y-27500000D03*
X9000000Y-30040000D03*
X11540000Y-30040000D03*
X9000000Y-32580000D03*
X11540000Y-32580000D03*
X9000000Y-35120000D03*
X11540000Y-35120000D03*
D10*
X18000000Y-62000000D03*
D11*
X18000000Y-64500000D03*
D12*
X2540000Y-21000000D03*
D13*
X5080000Y-21000000D03*
X2540000Y-23540000D03*
X5080000Y-23540000D03*
X2540000Y-26080000D03*
X5080000Y-26080000D03*
X2540000Y-28620000D03*
X5080000Y-28620000D03*
X2540000Y-31160000D03*
X5080000Y-31160000D03*
X2540000Y-33700000D03*
X5080000Y-33700000D03*
X2540000Y-36240000D03*
X5080000Y-36240000D03*
X2540000Y-38780000D03*
X5080000Y-38780000D03*
X2540000Y-41320000D03*
X5080000Y-41320000D03*
X2540000Y-43860000D03*
X5080000Y-43860000D03*
X2540000Y-46400000D03*
X5080000Y-46400000D03*
X2540000Y-48940000D03*
X5080000Y-48940000D03*
X2540000Y-51480000D03*
X5080000Y-51480000D03*
X2540000Y-54020000D03*
X5080000Y-54020000D03*
X2540000Y-56560000D03*
X5080000Y-56560000D03*
X2540000Y-59100000D03*
X5080000Y-59100000D03*
D15*
X38000000Y-36000000D03*
D14*
X43000000Y-36000000D03*
D10*
X30000000Y-20000000D03*
D11*
X30000000Y-22500000D03*
D16*
X27940000Y-58420000D03*
X27940000Y-38100000D03*
X15240000Y-33020000D03*
X17780000Y-33020000D03*
X45720000Y-55880000D03*
X7040000Y-28620000D03*
X12700000Y-45720000D03*
X12700000Y-48260000D03*
D17*
X49000000Y-59100000D02*
X49000000Y-14800000D01*
X47940000Y-58420000D02*
X27940000Y-58420000D01*
X27940000Y-38100000D02*
X27940000Y-58100000D01*
X49000000Y-14800000D02*
X9000000Y-14800000D01*
X9000000Y-14800000D02*
X47940000Y-14800000D01*
X18000000Y-5000000D02*
X27000000Y-5000000D01*
X27940000Y-58100000D02*
X47940000Y-58100000D01*
X47940000Y-5000000D02*
X18000000Y-5000000D01*
X5080000Y-59100000D02*
X49000000Y-59100000D01*
X9000000Y-27500000D02*
X9000000Y-14800000D01*
X47940000Y-14800000D02*
X47940000Y-58420000D01*
X47940000Y-58100000D02*
X47940000Y-5000000D01*
X2540000Y-59100000D02*
X5080000Y-59100000D01*
X9000000Y-14800000D02*
X9000000Y-27500000D01*
X30000000Y-30000000D02*
X38000000Y-30000000D01*
X38000000Y-30000000D02*
X38000000Y-36000000D01*
X15240000Y-40540000D02*
X22000000Y-40540000D01*
X15240000Y-33020000D02*
X15240000Y-40540000D01*
X23290000Y-33020000D02*
X23290000Y-40540000D01*
X45720000Y-55880000D02*
X45720000Y-17340000D01*
X17780000Y-33020000D02*
X23290000Y-33020000D01*
X10290000Y-30040000D02*
X11540000Y-30040000D01*
X23290000Y-40540000D02*
X24540000Y-40540000D01*
X10290000Y-17340000D02*
X10290000Y-30040000D01*
X45720000Y-17340000D02*
X10290000Y-17340000D01*
X7040000Y-33830000D02*
X11540000Y-33830000D01*
X7040000Y-28620000D02*
X7040000Y-33830000D01*
X11540000Y-33830000D02*
X11540000Y-32580000D01*
X12700000Y-42610000D02*
X12700000Y-45720000D01*
X2540000Y-43860000D02*
X2540000Y-42610000D01*
X2540000Y-42610000D02*
X12700000Y-42610000D01*
X1290000Y-10000000D02*
X18000000Y-10000000D01*
X1290000Y-46400000D02*
X1290000Y-10000000D01*
X2540000Y-46400000D02*
X1290000Y-46400000D01*
X18000000Y-10000000D02*
X27000000Y-10000000D01*
X3810000Y-38780000D02*
X3810000Y-12500000D01*
X3810000Y-12500000D02*
X18000000Y-12500000D01*
X18000000Y-12500000D02*
X27000000Y-12500000D01*
X2540000Y-38780000D02*
X3810000Y-38780000D01*
X14050000Y-40070000D02*
X14050000Y-48260000D01*
X2540000Y-41320000D02*
X2540000Y-40070000D01*
X14050000Y-48260000D02*
X12700000Y-48260000D01*
X2540000Y-40070000D02*
X14050000Y-40070000D01*
X12790000Y-35120000D02*
X12790000Y-22500000D01*
X12790000Y-22500000D02*
X30000000Y-22500000D01*
X11540000Y-35120000D02*
X12790000Y-35120000D01*
M02*
