%TF.GenerationSoftware,KiCad,Pcbnew,10.0.3*%
%TF.CreationDate,2026-05-27T10:50:58-06:00*%
%TF.ProjectId,neolink-v1,6e656f6c-696e-46b2-9d76-312e6b696361,rev?*%
%TF.SameCoordinates,Original*%
%TF.FileFunction,Copper,L2,Bot*%
%TF.FilePolarity,Positive*%
%FSLAX46Y46*%
G04 Gerber Fmt 4.6, Leading zero omitted, Abs format (unit mm)*
G04 Created by KiCad (PCBNEW 10.0.3) date 2026-05-27 10:50:58*
%MOMM*%
%LPD*%
G01*
G04 APERTURE LIST*
%TA.AperFunction,ComponentPad*%
%ADD10R,1.300000X1.300000*%
%TD*%
%TA.AperFunction,ComponentPad*%
%ADD11C,1.300000*%
%TD*%
%TA.AperFunction,ComponentPad*%
%ADD12C,2.000000*%
%TD*%
%TA.AperFunction,ComponentPad*%
%ADD13R,1.600000X1.600000*%
%TD*%
%TA.AperFunction,ComponentPad*%
%ADD14C,1.600000*%
%TD*%
%TA.AperFunction,ComponentPad*%
%ADD15R,2.000000X2.000000*%
%TD*%
%TA.AperFunction,ViaPad*%
%ADD16C,1.800000*%
%TD*%
%TA.AperFunction,Conductor*%
%ADD17C,0.500000*%
%TD*%
G04 APERTURE END LIST*
D10*
%TO.P,J2,1*%
%TO.N,~{VCC_5V}*%
X30000000Y-30000000D03*
D11*
%TO.P,J2,2*%
%TO.N,GND*%
X30000000Y-32540000D03*
%TO.P,J2,3*%
%TO.N,TXD_SIM*%
X30000000Y-35080000D03*
%TO.P,J2,4*%
%TO.N,RXD_SIM*%
X30000000Y-37620000D03*
%TO.P,J2,5*%
%TO.N,RST_SIM*%
X30000000Y-40160000D03*
%TO.P,J2,6*%
%TO.N,PWR_SIM*%
X30000000Y-42700000D03*
%TD*%
D10*
%TO.P,J1,1*%
%TO.N,GND*%
X2540000Y-21000000D03*
D11*
%TO.P,J1,2*%
X5080000Y-21000000D03*
%TO.P,J1,3*%
%TO.N,~{VCC_3V3}*%
X2540000Y-23540000D03*
%TO.P,J1,4*%
%TO.N,~{VCC_5V}*%
X5080000Y-23540000D03*
%TO.P,J1,5*%
%TO.N,BAT*%
X2540000Y-26080000D03*
%TO.P,J1,6*%
%TO.N,CS_MAX1*%
X5080000Y-26080000D03*
%TO.P,J1,7*%
%TO.N,CLK_SPI*%
X2540000Y-28620000D03*
%TO.P,J1,8*%
%TO.N,CS_MAX2*%
X5080000Y-28620000D03*
%TO.P,J1,9*%
%TO.N,MOSI_SPI*%
X2540000Y-31160000D03*
%TO.P,J1,10*%
%TO.N,MISO_SPI*%
X5080000Y-31160000D03*
%TO.P,J1,11*%
%TO.N,I2C_SDA*%
X2540000Y-33700000D03*
%TO.P,J1,12*%
%TO.N,I2C_SCL*%
X5080000Y-33700000D03*
%TO.P,J1,13*%
%TO.N,TXD_SIM*%
X2540000Y-36240000D03*
%TO.P,J1,14*%
%TO.N,RXD_SIM*%
X5080000Y-36240000D03*
%TO.P,J1,15*%
%TO.N,GPIO1*%
X2540000Y-38780000D03*
%TO.P,J1,16*%
%TO.N,GPIO2*%
X5080000Y-38780000D03*
%TO.P,J1,17*%
%TO.N,GPIO3*%
X2540000Y-41320000D03*
%TO.P,J1,18*%
%TO.N,GPIO4*%
X5080000Y-41320000D03*
%TO.P,J1,19*%
%TO.N,GPIO5*%
X2540000Y-43860000D03*
%TO.P,J1,20*%
%TO.N,GPIO6*%
X5080000Y-43860000D03*
%TO.P,J1,21*%
%TO.N,GPIO7*%
X2540000Y-46400000D03*
%TO.P,J1,22*%
%TO.N,GPIO8*%
X5080000Y-46400000D03*
%TO.P,J1,23*%
%TO.N,GPIO9*%
X2540000Y-48940000D03*
%TO.P,J1,24*%
%TO.N,GPIO10*%
X5080000Y-48940000D03*
%TO.P,J1,25*%
%TO.N,GPIO11*%
X2540000Y-51480000D03*
%TO.P,J1,26*%
%TO.N,GPIO12*%
X5080000Y-51480000D03*
%TO.P,J1,27*%
%TO.N,GPIO13*%
X2540000Y-54020000D03*
%TO.P,J1,28*%
%TO.N,GPIO14*%
X5080000Y-54020000D03*
%TO.P,J1,29*%
%TO.N,GPIO15*%
X2540000Y-56560000D03*
%TO.P,J1,30*%
%TO.N,GPIO16*%
X5080000Y-56560000D03*
%TO.P,J1,31*%
%TO.N,GPIO17*%
X2540000Y-59100000D03*
%TO.P,J1,32*%
%TO.N,N/C*%
X5080000Y-59100000D03*
%TD*%
D12*
%TO.P,J10,1*%
%TO.N,ANT_GSM*%
X38000000Y-70000000D03*
%TO.P,J10,2*%
%TO.N,GND*%
X34950000Y-66950000D03*
%TO.P,J10,3*%
X41050000Y-66950000D03*
%TO.P,J10,4*%
X34950000Y-73050000D03*
%TO.P,J10,5*%
X41050000Y-73050000D03*
%TD*%
D13*
%TO.P,J8,1*%
%TO.N,RTD2_P*%
X18000000Y-62000000D03*
D14*
%TO.P,J8,2*%
%TO.N,RTD2_N*%
X18000000Y-64500000D03*
%TD*%
D13*
%TO.P,J9,1*%
%TO.N,BAT*%
X9000000Y-72000000D03*
D14*
%TO.P,J9,2*%
%TO.N,GND*%
X9000000Y-74500000D03*
%TD*%
D13*
%TO.P,J7,1*%
%TO.N,RTD1_P*%
X30000000Y-20000000D03*
D14*
%TO.P,J7,2*%
%TO.N,RTD1_N*%
X30000000Y-22500000D03*
%TD*%
D10*
%TO.P,J4,1*%
%TO.N,~{VCC_3V3}*%
X22000000Y-38000000D03*
D11*
%TO.P,J4,2*%
%TO.N,GND*%
X24540000Y-38000000D03*
%TO.P,J4,3*%
%TO.N,CLK_SPI*%
X22000000Y-40540000D03*
%TO.P,J4,4*%
%TO.N,MISO_SPI*%
X24540000Y-40540000D03*
%TO.P,J4,5*%
%TO.N,MOSI_SPI*%
X22000000Y-43080000D03*
%TO.P,J4,6*%
%TO.N,CS_MAX2*%
X24540000Y-43080000D03*
%TO.P,J4,7*%
%TO.N,RTD2_P*%
X22000000Y-45620000D03*
%TO.P,J4,8*%
%TO.N,RTD2_N*%
X24540000Y-45620000D03*
%TD*%
D13*
%TO.P,J6,1*%
%TO.N,~{VCC_3V3}*%
X27000000Y-5000000D03*
D14*
%TO.P,J6,2*%
%TO.N,GND*%
X27000000Y-7500000D03*
%TO.P,J6,3*%
%TO.N,I2C_SDA*%
X27000000Y-10000000D03*
%TO.P,J6,4*%
%TO.N,I2C_SCL*%
X27000000Y-12500000D03*
%TD*%
D13*
%TO.P,J5,1*%
%TO.N,~{VCC_3V3}*%
X18000000Y-5000000D03*
D14*
%TO.P,J5,2*%
%TO.N,GND*%
X18000000Y-7500000D03*
%TO.P,J5,3*%
%TO.N,I2C_SDA*%
X18000000Y-10000000D03*
%TO.P,J5,4*%
%TO.N,I2C_SCL*%
X18000000Y-12500000D03*
%TD*%
D15*
%TO.P,C1,1*%
%TO.N,~{VCC_5V}*%
X38000000Y-36000000D03*
D12*
%TO.P,C1,2*%
%TO.N,GND*%
X43000000Y-36000000D03*
%TD*%
D10*
%TO.P,J3,1*%
%TO.N,~{VCC_3V3}*%
X9000000Y-27500000D03*
D11*
%TO.P,J3,2*%
%TO.N,GND*%
X11540000Y-27500000D03*
%TO.P,J3,3*%
%TO.N,CLK_SPI*%
X9000000Y-30040000D03*
%TO.P,J3,4*%
%TO.N,MISO_SPI*%
X11540000Y-30040000D03*
%TO.P,J3,5*%
%TO.N,MOSI_SPI*%
X9000000Y-32580000D03*
%TO.P,J3,6*%
%TO.N,CS_MAX1*%
X11540000Y-32580000D03*
%TO.P,J3,7*%
%TO.N,RTD1_P*%
X9000000Y-35120000D03*
%TO.P,J3,8*%
%TO.N,RTD1_N*%
X11540000Y-35120000D03*
%TD*%
D16*
%TO.N,~{VCC_3V3}*%
X22860000Y-27940000D03*
X20320000Y-17780000D03*
%TO.N,~{VCC_5V}*%
X15240000Y-27940000D03*
%TO.N,MOSI_SPI*%
X9000000Y-37830000D03*
%TO.N,CS_MAX2*%
X20320000Y-15240000D03*
%TO.N,TXD_SIM*%
X15240000Y-48260000D03*
%TO.N,RXD_SIM*%
X15240000Y-45720000D03*
%TD*%
%TO.N,GND*%
D17*
X18000000Y-7500000D02*
X27000000Y-7500000D01*
X41050000Y-66950000D02*
X34950000Y-66950000D01*
X34950000Y-73050000D02*
X41050000Y-73050000D01*
X41050000Y-73050000D02*
X41050000Y-74500000D01*
X43000000Y-36000000D02*
X41050000Y-36000000D01*
X41050000Y-36000000D02*
X41050000Y-66950000D01*
X24540000Y-38000000D02*
X24540000Y-32540000D01*
X41050000Y-74500000D02*
X9000000Y-74500000D01*
X24540000Y-32540000D02*
X30000000Y-32540000D01*
X34950000Y-66950000D02*
X34950000Y-73050000D01*
%TO.N,~{VCC_3V3}*%
X22000000Y-38000000D02*
X22000000Y-26640000D01*
X31320000Y-17780000D02*
X20320000Y-17780000D01*
X31320000Y-26640000D02*
X31320000Y-17780000D01*
X22000000Y-27940000D02*
X22000000Y-38000000D01*
X22000000Y-26640000D02*
X31320000Y-26640000D01*
X22860000Y-27940000D02*
X22000000Y-27940000D01*
%TO.N,~{VCC_5V}*%
X38000000Y-30000000D02*
X38000000Y-36000000D01*
X30000000Y-30000000D02*
X38000000Y-30000000D01*
X15240000Y-23540000D02*
X15240000Y-27940000D01*
X5080000Y-23540000D02*
X15240000Y-23540000D01*
%TO.N,BAT*%
X1380000Y-72000000D02*
X9000000Y-72000000D01*
X1380000Y-26080000D02*
X1380000Y-72000000D01*
X2540000Y-26080000D02*
X1380000Y-26080000D01*
%TO.N,MOSI_SPI*%
X9000000Y-43080000D02*
X22000000Y-43080000D01*
X9000000Y-37830000D02*
X9000000Y-43080000D01*
%TO.N,CS_MAX1*%
X5080000Y-26080000D02*
X10160000Y-26080000D01*
X10160000Y-26080000D02*
X10160000Y-32580000D01*
X10160000Y-32580000D02*
X11540000Y-32580000D01*
%TO.N,CS_MAX2*%
X39540000Y-15240000D02*
X39540000Y-44160000D01*
X24540000Y-44160000D02*
X24540000Y-43080000D01*
X20320000Y-15240000D02*
X39540000Y-15240000D01*
X39540000Y-44160000D02*
X24540000Y-44160000D01*
%TO.N,I2C_SDA*%
X3810000Y-10000000D02*
X18000000Y-10000000D01*
X2540000Y-33700000D02*
X3810000Y-33700000D01*
X3810000Y-33700000D02*
X3810000Y-10000000D01*
%TO.N,I2C_SCL*%
X5080000Y-33700000D02*
X18000000Y-33700000D01*
X18000000Y-33700000D02*
X18000000Y-12500000D01*
%TO.N,TXD_SIM*%
X3790000Y-36240000D02*
X3790000Y-60960000D01*
X2540000Y-36240000D02*
X3790000Y-36240000D01*
X15240000Y-60960000D02*
X15240000Y-48260000D01*
X3790000Y-60960000D02*
X15240000Y-60960000D01*
%TO.N,RXD_SIM*%
X5080000Y-36240000D02*
X6330000Y-36240000D01*
X6330000Y-36240000D02*
X6330000Y-45720000D01*
X6330000Y-45720000D02*
X15240000Y-45720000D01*
%TO.N,RTD1_P*%
X19160000Y-20000000D02*
X30000000Y-20000000D01*
X9000000Y-36370000D02*
X19160000Y-36370000D01*
X19160000Y-36370000D02*
X19160000Y-20000000D01*
X9000000Y-35120000D02*
X9000000Y-36370000D01*
%TO.N,RTD2_P*%
X22000000Y-45620000D02*
X18000000Y-45620000D01*
X18000000Y-45620000D02*
X18000000Y-62000000D01*
%TO.N,RTD2_N*%
X24540000Y-45620000D02*
X24540000Y-64500000D01*
X24540000Y-64500000D02*
X18000000Y-64500000D01*
%TD*%
%TA.AperFunction,Conductor*%
%TO.N,GND*%
G36*
X49442539Y-520185D02*
G01*
X49488294Y-572989D01*
X49499500Y-624500D01*
X49499500Y-79375500D01*
X49479815Y-79442539D01*
X49427011Y-79488294D01*
X49375500Y-79499500D01*
X624500Y-79499500D01*
X557461Y-79479815D01*
X511706Y-79427011D01*
X500500Y-79375500D01*
X500500Y-26007525D01*
X829500Y-26007525D01*
X829500Y-71927525D01*
X829500Y-72072475D01*
X867016Y-72212485D01*
X867017Y-72212488D01*
X939488Y-72338011D01*
X939490Y-72338013D01*
X939491Y-72338015D01*
X1041985Y-72440509D01*
X1041986Y-72440510D01*
X1041988Y-72440511D01*
X1167511Y-72512982D01*
X1167512Y-72512982D01*
X1167515Y-72512984D01*
X1307525Y-72550500D01*
X7775501Y-72550500D01*
X7842540Y-72570185D01*
X7888295Y-72622989D01*
X7899501Y-72674500D01*
X7899501Y-72844856D01*
X7899502Y-72844882D01*
X7902413Y-72869987D01*
X7902415Y-72869991D01*
X7947793Y-72972764D01*
X7947794Y-72972765D01*
X8027235Y-73052206D01*
X8130009Y-73097585D01*
X8155135Y-73100500D01*
X9844864Y-73100499D01*
X9844879Y-73100497D01*
X9844882Y-73100497D01*
X9869987Y-73097586D01*
X9869988Y-73097585D01*
X9869991Y-73097585D01*
X9972765Y-73052206D01*
X10052206Y-72972765D01*
X10097585Y-72869991D01*
X10100500Y-72844865D01*
X10100499Y-71155136D01*
X10100497Y-71155117D01*
X10097586Y-71130012D01*
X10097585Y-71130010D01*
X10097585Y-71130009D01*
X10052206Y-71027235D01*
X9972765Y-70947794D01*
X9972763Y-70947793D01*
X9869992Y-70902415D01*
X9844865Y-70899500D01*
X8155143Y-70899500D01*
X8155117Y-70899502D01*
X8130012Y-70902413D01*
X8130008Y-70902415D01*
X8027235Y-70947793D01*
X7947794Y-71027234D01*
X7902415Y-71130006D01*
X7902415Y-71130008D01*
X7899500Y-71155131D01*
X7899500Y-71325500D01*
X7879815Y-71392539D01*
X7827011Y-71438294D01*
X7775500Y-71449500D01*
X2054500Y-71449500D01*
X1987461Y-71429815D01*
X1941706Y-71377011D01*
X1930500Y-71325500D01*
X1930500Y-69897648D01*
X36699500Y-69897648D01*
X36699500Y-70102351D01*
X36731522Y-70304534D01*
X36794781Y-70499223D01*
X36887715Y-70681613D01*
X37008028Y-70847213D01*
X37152786Y-70991971D01*
X37307749Y-71104556D01*
X37318390Y-71112287D01*
X37402476Y-71155131D01*
X37500776Y-71205218D01*
X37500778Y-71205218D01*
X37500781Y-71205220D01*
X37605137Y-71239127D01*
X37695465Y-71268477D01*
X37796557Y-71284488D01*
X37897648Y-71300500D01*
X37897649Y-71300500D01*
X38102351Y-71300500D01*
X38102352Y-71300500D01*
X38304534Y-71268477D01*
X38499219Y-71205220D01*
X38681610Y-71112287D01*
X38798675Y-71027235D01*
X38847213Y-70991971D01*
X38847215Y-70991968D01*
X38847219Y-70991966D01*
X38991966Y-70847219D01*
X38991968Y-70847215D01*
X38991971Y-70847213D01*
X39044732Y-70774590D01*
X39112287Y-70681610D01*
X39205220Y-70499219D01*
X39268477Y-70304534D01*
X39300500Y-70102352D01*
X39300500Y-69897648D01*
X39268477Y-69695466D01*
X39205220Y-69500781D01*
X39205218Y-69500778D01*
X39205218Y-69500776D01*
X39171503Y-69434607D01*
X39112287Y-69318390D01*
X39104556Y-69307749D01*
X38991971Y-69152786D01*
X38847213Y-69008028D01*
X38681613Y-68887715D01*
X38681612Y-68887714D01*
X38681610Y-68887713D01*
X38624653Y-68858691D01*
X38499223Y-68794781D01*
X38304534Y-68731522D01*
X38129995Y-68703878D01*
X38102352Y-68699500D01*
X37897648Y-68699500D01*
X37873329Y-68703351D01*
X37695465Y-68731522D01*
X37500776Y-68794781D01*
X37318386Y-68887715D01*
X37152786Y-69008028D01*
X37008028Y-69152786D01*
X36887715Y-69318386D01*
X36794781Y-69500776D01*
X36731522Y-69695465D01*
X36699500Y-69897648D01*
X1930500Y-69897648D01*
X1930500Y-60061929D01*
X1950185Y-59994890D01*
X2002989Y-59949135D01*
X2072147Y-59939191D01*
X2101947Y-59947366D01*
X2262749Y-60013973D01*
X2446379Y-60050499D01*
X2446383Y-60050500D01*
X2446384Y-60050500D01*
X2633617Y-60050500D01*
X2633618Y-60050499D01*
X2817251Y-60013973D01*
X2990231Y-59942322D01*
X2990236Y-59942318D01*
X2990239Y-59942317D01*
X3046608Y-59904652D01*
X3113285Y-59883773D01*
X3180666Y-59902257D01*
X3227356Y-59954235D01*
X3239500Y-60007753D01*
X3239500Y-60887525D01*
X3239500Y-61032475D01*
X3272369Y-61155143D01*
X3277017Y-61172488D01*
X3349488Y-61298011D01*
X3349490Y-61298013D01*
X3349491Y-61298015D01*
X3451985Y-61400509D01*
X3451986Y-61400510D01*
X3451988Y-61400511D01*
X3577511Y-61472982D01*
X3577512Y-61472982D01*
X3577515Y-61472984D01*
X3717525Y-61510500D01*
X3717528Y-61510500D01*
X15312472Y-61510500D01*
X15312475Y-61510500D01*
X15452485Y-61472984D01*
X15578015Y-61400509D01*
X15680509Y-61298015D01*
X15752984Y-61172485D01*
X15757634Y-61155131D01*
X16899500Y-61155131D01*
X16899500Y-62844856D01*
X16899502Y-62844882D01*
X16902413Y-62869987D01*
X16902415Y-62869991D01*
X16947793Y-62972764D01*
X16947794Y-62972765D01*
X17027235Y-63052206D01*
X17130009Y-63097585D01*
X17155135Y-63100500D01*
X18844864Y-63100499D01*
X18844879Y-63100497D01*
X18844882Y-63100497D01*
X18869987Y-63097586D01*
X18869988Y-63097585D01*
X18869991Y-63097585D01*
X18972765Y-63052206D01*
X19052206Y-62972765D01*
X19097585Y-62869991D01*
X19100500Y-62844865D01*
X19100499Y-61155136D01*
X19100497Y-61155117D01*
X19097586Y-61130012D01*
X19097585Y-61130010D01*
X19097585Y-61130009D01*
X19052206Y-61027235D01*
X18972765Y-60947794D01*
X18972763Y-60947793D01*
X18869992Y-60902415D01*
X18844868Y-60899500D01*
X18844865Y-60899500D01*
X18674500Y-60899500D01*
X18607461Y-60879815D01*
X18561706Y-60827011D01*
X18550500Y-60775500D01*
X18550500Y-46294500D01*
X18570185Y-46227461D01*
X18622989Y-46181706D01*
X18674500Y-46170500D01*
X21158397Y-46170500D01*
X21225436Y-46190185D01*
X21257388Y-46221572D01*
X21257838Y-46221204D01*
X21261268Y-46225384D01*
X21261500Y-46225612D01*
X21261698Y-46225908D01*
X21261699Y-46225909D01*
X21261702Y-46225913D01*
X21394088Y-46358299D01*
X21394092Y-46358302D01*
X21549762Y-46462318D01*
X21549768Y-46462321D01*
X21549769Y-46462322D01*
X21722749Y-46533973D01*
X21906379Y-46570499D01*
X21906383Y-46570500D01*
X21906384Y-46570500D01*
X22093617Y-46570500D01*
X22093618Y-46570499D01*
X22277251Y-46533973D01*
X22450231Y-46462322D01*
X22605908Y-46358302D01*
X22738302Y-46225908D01*
X22842322Y-46070231D01*
X22913973Y-45897251D01*
X22950500Y-45713616D01*
X22950500Y-45526384D01*
X22913973Y-45342749D01*
X22842322Y-45169769D01*
X22842321Y-45169768D01*
X22842318Y-45169762D01*
X22738302Y-45014092D01*
X22738299Y-45014088D01*
X22605911Y-44881700D01*
X22605907Y-44881697D01*
X22450237Y-44777681D01*
X22450228Y-44777676D01*
X22277251Y-44706027D01*
X22277243Y-44706025D01*
X22093620Y-44669500D01*
X22093616Y-44669500D01*
X21906384Y-44669500D01*
X21906379Y-44669500D01*
X21722756Y-44706025D01*
X21722748Y-44706027D01*
X21549771Y-44777676D01*
X21549762Y-44777681D01*
X21394092Y-44881697D01*
X21394088Y-44881700D01*
X21261702Y-45014086D01*
X21261698Y-45014091D01*
X21261698Y-45014092D01*
X21261501Y-45014386D01*
X21261358Y-45014505D01*
X21257838Y-45018796D01*
X21257024Y-45018128D01*
X21207893Y-45059193D01*
X21158397Y-45069500D01*
X18072475Y-45069500D01*
X17927525Y-45069500D01*
X17798993Y-45103940D01*
X17787511Y-45107017D01*
X17661988Y-45179488D01*
X17661982Y-45179493D01*
X17559493Y-45281982D01*
X17559488Y-45281988D01*
X17487017Y-45407511D01*
X17487016Y-45407515D01*
X17449500Y-45547525D01*
X17449500Y-45547527D01*
X17449500Y-60775500D01*
X17429815Y-60842539D01*
X17377011Y-60888294D01*
X17325501Y-60899500D01*
X17155144Y-60899500D01*
X17155117Y-60899502D01*
X17130012Y-60902413D01*
X17130008Y-60902415D01*
X17027235Y-60947793D01*
X16947794Y-61027234D01*
X16902415Y-61130006D01*
X16902415Y-61130008D01*
X16899500Y-61155131D01*
X15757634Y-61155131D01*
X15790500Y-61032475D01*
X15790500Y-49402846D01*
X15810185Y-49335807D01*
X15858208Y-49292360D01*
X15869199Y-49286760D01*
X16022073Y-49175690D01*
X16155690Y-49042073D01*
X16266760Y-48889199D01*
X16352547Y-48720832D01*
X16410940Y-48541118D01*
X16440500Y-48354486D01*
X16440500Y-48165513D01*
X16410940Y-47978881D01*
X16352545Y-47799163D01*
X16266759Y-47630800D01*
X16155690Y-47477927D01*
X16022073Y-47344310D01*
X15869199Y-47233240D01*
X15813092Y-47204652D01*
X15700836Y-47147454D01*
X15626472Y-47123291D01*
X15579195Y-47107930D01*
X15521521Y-47068493D01*
X15494323Y-47004134D01*
X15506238Y-46935288D01*
X15553482Y-46883812D01*
X15579194Y-46872069D01*
X15700832Y-46832547D01*
X15869199Y-46746760D01*
X16022073Y-46635690D01*
X16155690Y-46502073D01*
X16266760Y-46349199D01*
X16352547Y-46180832D01*
X16410940Y-46001118D01*
X16427392Y-45897243D01*
X16440500Y-45814486D01*
X16440500Y-45625513D01*
X16410940Y-45438881D01*
X16379704Y-45342748D01*
X16352547Y-45259168D01*
X16352545Y-45259165D01*
X16352545Y-45259163D01*
X16275022Y-45107016D01*
X16266760Y-45090801D01*
X16155690Y-44937927D01*
X16022073Y-44804310D01*
X15869199Y-44693240D01*
X15831413Y-44673987D01*
X15700836Y-44607454D01*
X15521118Y-44549059D01*
X15334486Y-44519500D01*
X15334481Y-44519500D01*
X15145519Y-44519500D01*
X15145514Y-44519500D01*
X14958881Y-44549059D01*
X14779163Y-44607454D01*
X14610800Y-44693240D01*
X14534547Y-44748642D01*
X14457927Y-44804310D01*
X14457925Y-44804312D01*
X14457924Y-44804312D01*
X14324312Y-44937924D01*
X14324312Y-44937925D01*
X14324310Y-44937927D01*
X14265555Y-45018796D01*
X14213240Y-45090801D01*
X14207637Y-45101797D01*
X14159661Y-45152592D01*
X14097153Y-45169500D01*
X7004500Y-45169500D01*
X6937461Y-45149815D01*
X6891706Y-45097011D01*
X6880500Y-45045500D01*
X6880500Y-36167527D01*
X6880500Y-36167525D01*
X6842984Y-36027515D01*
X6823618Y-35993973D01*
X6770511Y-35901988D01*
X6770506Y-35901982D01*
X6668017Y-35799493D01*
X6668011Y-35799488D01*
X6542488Y-35727017D01*
X6542489Y-35727017D01*
X6531006Y-35723940D01*
X6402475Y-35689500D01*
X6402472Y-35689500D01*
X5921603Y-35689500D01*
X5854564Y-35669815D01*
X5822611Y-35638427D01*
X5822162Y-35638796D01*
X5818731Y-35634615D01*
X5818499Y-35634387D01*
X5818302Y-35634092D01*
X5818298Y-35634088D01*
X5818297Y-35634086D01*
X5685911Y-35501700D01*
X5685907Y-35501697D01*
X5530237Y-35397681D01*
X5530228Y-35397676D01*
X5357251Y-35326027D01*
X5357243Y-35326025D01*
X5173620Y-35289500D01*
X5173616Y-35289500D01*
X4986384Y-35289500D01*
X4986379Y-35289500D01*
X4802756Y-35326025D01*
X4802748Y-35326027D01*
X4629771Y-35397676D01*
X4629762Y-35397681D01*
X4474092Y-35501697D01*
X4474088Y-35501700D01*
X4341700Y-35634088D01*
X4341697Y-35634092D01*
X4266985Y-35745907D01*
X4213373Y-35790712D01*
X4144048Y-35799419D01*
X4101883Y-35784403D01*
X4002488Y-35727017D01*
X4002489Y-35727017D01*
X3991006Y-35723940D01*
X3862475Y-35689500D01*
X3862472Y-35689500D01*
X3381603Y-35689500D01*
X3314564Y-35669815D01*
X3282611Y-35638427D01*
X3282162Y-35638796D01*
X3278731Y-35634615D01*
X3278499Y-35634387D01*
X3278302Y-35634092D01*
X3278298Y-35634088D01*
X3278297Y-35634086D01*
X3145911Y-35501700D01*
X3145907Y-35501697D01*
X2990237Y-35397681D01*
X2990228Y-35397676D01*
X2817251Y-35326027D01*
X2817243Y-35326025D01*
X2633620Y-35289500D01*
X2633616Y-35289500D01*
X2446384Y-35289500D01*
X2446379Y-35289500D01*
X2262756Y-35326025D01*
X2262748Y-35326027D01*
X2101953Y-35392631D01*
X2032483Y-35400100D01*
X1970004Y-35368825D01*
X1934352Y-35308736D01*
X1930500Y-35278070D01*
X1930500Y-34661929D01*
X1950185Y-34594890D01*
X2002989Y-34549135D01*
X2072147Y-34539191D01*
X2101947Y-34547366D01*
X2262749Y-34613973D01*
X2436158Y-34648466D01*
X2446379Y-34650499D01*
X2446383Y-34650500D01*
X2446384Y-34650500D01*
X2633617Y-34650500D01*
X2633618Y-34650499D01*
X2817251Y-34613973D01*
X2990231Y-34542322D01*
X3145908Y-34438302D01*
X3278302Y-34305908D01*
X3278498Y-34305613D01*
X3278641Y-34305494D01*
X3282162Y-34301204D01*
X3282975Y-34301871D01*
X3332107Y-34260807D01*
X3381603Y-34250500D01*
X3882472Y-34250500D01*
X3882475Y-34250500D01*
X4022485Y-34212984D01*
X4107452Y-34163927D01*
X4175348Y-34147455D01*
X4241375Y-34170306D01*
X4272552Y-34202424D01*
X4341697Y-34305908D01*
X4474088Y-34438299D01*
X4474092Y-34438302D01*
X4629762Y-34542318D01*
X4629768Y-34542321D01*
X4629769Y-34542322D01*
X4802749Y-34613973D01*
X4976158Y-34648466D01*
X4986379Y-34650499D01*
X4986383Y-34650500D01*
X4986384Y-34650500D01*
X5173617Y-34650500D01*
X5173618Y-34650499D01*
X5357251Y-34613973D01*
X5530231Y-34542322D01*
X5685908Y-34438302D01*
X5818302Y-34305908D01*
X5818498Y-34305613D01*
X5818641Y-34305494D01*
X5822162Y-34301204D01*
X5822975Y-34301871D01*
X5872107Y-34260807D01*
X5921603Y-34250500D01*
X8225927Y-34250500D01*
X8292966Y-34270185D01*
X8338721Y-34322989D01*
X8348665Y-34392147D01*
X8319640Y-34455703D01*
X8313608Y-34462181D01*
X8261700Y-34514088D01*
X8261697Y-34514092D01*
X8157681Y-34669762D01*
X8157676Y-34669771D01*
X8086027Y-34842748D01*
X8086025Y-34842756D01*
X8049500Y-35026379D01*
X8049500Y-35213620D01*
X8086025Y-35397243D01*
X8086027Y-35397251D01*
X8157676Y-35570228D01*
X8157681Y-35570237D01*
X8261697Y-35725907D01*
X8261700Y-35725911D01*
X8394086Y-35858297D01*
X8394089Y-35858299D01*
X8394092Y-35858302D01*
X8394386Y-35858498D01*
X8394505Y-35858641D01*
X8398796Y-35862162D01*
X8398128Y-35862975D01*
X8439193Y-35912107D01*
X8449500Y-35961603D01*
X8449500Y-36297525D01*
X8449500Y-36442475D01*
X8487016Y-36582485D01*
X8487017Y-36582488D01*
X8493748Y-36594147D01*
X8510218Y-36662048D01*
X8487364Y-36728074D01*
X8442654Y-36766629D01*
X8370800Y-36803240D01*
X8283579Y-36866610D01*
X8217927Y-36914310D01*
X8217925Y-36914312D01*
X8217924Y-36914312D01*
X8084312Y-37047924D01*
X8084312Y-37047925D01*
X8084310Y-37047927D01*
X8036610Y-37113579D01*
X7973240Y-37200800D01*
X7887454Y-37369163D01*
X7829059Y-37548881D01*
X7799500Y-37735513D01*
X7799500Y-37924486D01*
X7829059Y-38111118D01*
X7887454Y-38290836D01*
X7973240Y-38459199D01*
X8084310Y-38612073D01*
X8217927Y-38745690D01*
X8370801Y-38856760D01*
X8381792Y-38862360D01*
X8432589Y-38910332D01*
X8449500Y-38972846D01*
X8449500Y-43007525D01*
X8449500Y-43152475D01*
X8476729Y-43254092D01*
X8487017Y-43292488D01*
X8559488Y-43418011D01*
X8559490Y-43418013D01*
X8559491Y-43418015D01*
X8661985Y-43520509D01*
X8661986Y-43520510D01*
X8661988Y-43520511D01*
X8787511Y-43592982D01*
X8787512Y-43592982D01*
X8787515Y-43592984D01*
X8927525Y-43630500D01*
X21158397Y-43630500D01*
X21225436Y-43650185D01*
X21257388Y-43681572D01*
X21257838Y-43681204D01*
X21261268Y-43685384D01*
X21261500Y-43685612D01*
X21261698Y-43685908D01*
X21261699Y-43685909D01*
X21261702Y-43685913D01*
X21394088Y-43818299D01*
X21394092Y-43818302D01*
X21549762Y-43922318D01*
X21549768Y-43922321D01*
X21549769Y-43922322D01*
X21722749Y-43993973D01*
X21906379Y-44030499D01*
X21906383Y-44030500D01*
X21906384Y-44030500D01*
X22093617Y-44030500D01*
X22093618Y-44030499D01*
X22277251Y-43993973D01*
X22450231Y-43922322D01*
X22605908Y-43818302D01*
X22738302Y-43685908D01*
X22842322Y-43530231D01*
X22913973Y-43357251D01*
X22950500Y-43173616D01*
X22950500Y-42986384D01*
X22913973Y-42802749D01*
X22842322Y-42629769D01*
X22842321Y-42629768D01*
X22842318Y-42629762D01*
X22738302Y-42474092D01*
X22738299Y-42474088D01*
X22605911Y-42341700D01*
X22605907Y-42341697D01*
X22450237Y-42237681D01*
X22450228Y-42237676D01*
X22277251Y-42166027D01*
X22277243Y-42166025D01*
X22093620Y-42129500D01*
X22093616Y-42129500D01*
X21906384Y-42129500D01*
X21906379Y-42129500D01*
X21722756Y-42166025D01*
X21722748Y-42166027D01*
X21549771Y-42237676D01*
X21549762Y-42237681D01*
X21394092Y-42341697D01*
X21394088Y-42341700D01*
X21261702Y-42474086D01*
X21261698Y-42474091D01*
X21261698Y-42474092D01*
X21261501Y-42474386D01*
X21261358Y-42474505D01*
X21257838Y-42478796D01*
X21257024Y-42478128D01*
X21207893Y-42519193D01*
X21158397Y-42529500D01*
X9674500Y-42529500D01*
X9607461Y-42509815D01*
X9561706Y-42457011D01*
X9550500Y-42405500D01*
X9550500Y-40446379D01*
X21049500Y-40446379D01*
X21049500Y-40633620D01*
X21086025Y-40817243D01*
X21086027Y-40817251D01*
X21157676Y-40990228D01*
X21157681Y-40990237D01*
X21261697Y-41145907D01*
X21261700Y-41145911D01*
X21394088Y-41278299D01*
X21394092Y-41278302D01*
X21549762Y-41382318D01*
X21549768Y-41382321D01*
X21549769Y-41382322D01*
X21722749Y-41453973D01*
X21906379Y-41490499D01*
X21906383Y-41490500D01*
X21906384Y-41490500D01*
X22093617Y-41490500D01*
X22093618Y-41490499D01*
X22277251Y-41453973D01*
X22450231Y-41382322D01*
X22605908Y-41278302D01*
X22738302Y-41145908D01*
X22842322Y-40990231D01*
X22913973Y-40817251D01*
X22950500Y-40633616D01*
X22950500Y-40446384D01*
X22950499Y-40446379D01*
X23589500Y-40446379D01*
X23589500Y-40633620D01*
X23626025Y-40817243D01*
X23626027Y-40817251D01*
X23697676Y-40990228D01*
X23697681Y-40990237D01*
X23801697Y-41145907D01*
X23801700Y-41145911D01*
X23934088Y-41278299D01*
X23934092Y-41278302D01*
X24089762Y-41382318D01*
X24089768Y-41382321D01*
X24089769Y-41382322D01*
X24262749Y-41453973D01*
X24446379Y-41490499D01*
X24446383Y-41490500D01*
X24446384Y-41490500D01*
X24633617Y-41490500D01*
X24633618Y-41490499D01*
X24817251Y-41453973D01*
X24990231Y-41382322D01*
X25145908Y-41278302D01*
X25278302Y-41145908D01*
X25382322Y-40990231D01*
X25453973Y-40817251D01*
X25490500Y-40633616D01*
X25490500Y-40446384D01*
X25453973Y-40262749D01*
X25388459Y-40104586D01*
X25382325Y-40089775D01*
X25382318Y-40089762D01*
X25366694Y-40066379D01*
X29049500Y-40066379D01*
X29049500Y-40253620D01*
X29086025Y-40437243D01*
X29086027Y-40437251D01*
X29157676Y-40610228D01*
X29157681Y-40610237D01*
X29261697Y-40765907D01*
X29261700Y-40765911D01*
X29394088Y-40898299D01*
X29394092Y-40898302D01*
X29549762Y-41002318D01*
X29549768Y-41002321D01*
X29549769Y-41002322D01*
X29722749Y-41073973D01*
X29906379Y-41110499D01*
X29906383Y-41110500D01*
X29906384Y-41110500D01*
X30093617Y-41110500D01*
X30093618Y-41110499D01*
X30277251Y-41073973D01*
X30450231Y-41002322D01*
X30605908Y-40898302D01*
X30738302Y-40765908D01*
X30842322Y-40610231D01*
X30913973Y-40437251D01*
X30950500Y-40253616D01*
X30950500Y-40066384D01*
X30913973Y-39882749D01*
X30842322Y-39709769D01*
X30842321Y-39709768D01*
X30842318Y-39709762D01*
X30738302Y-39554092D01*
X30738299Y-39554088D01*
X30605911Y-39421700D01*
X30605907Y-39421697D01*
X30450237Y-39317681D01*
X30450228Y-39317676D01*
X30277251Y-39246027D01*
X30277243Y-39246025D01*
X30093620Y-39209500D01*
X30093616Y-39209500D01*
X29906384Y-39209500D01*
X29906379Y-39209500D01*
X29722756Y-39246025D01*
X29722748Y-39246027D01*
X29549771Y-39317676D01*
X29549762Y-39317681D01*
X29394092Y-39421697D01*
X29394088Y-39421700D01*
X29261700Y-39554088D01*
X29261697Y-39554092D01*
X29157681Y-39709762D01*
X29157676Y-39709771D01*
X29086027Y-39882748D01*
X29086025Y-39882756D01*
X29049500Y-40066379D01*
X25366694Y-40066379D01*
X25278302Y-39934092D01*
X25278299Y-39934088D01*
X25145911Y-39801700D01*
X25145907Y-39801697D01*
X24990237Y-39697681D01*
X24990228Y-39697676D01*
X24817251Y-39626027D01*
X24817243Y-39626025D01*
X24633620Y-39589500D01*
X24633616Y-39589500D01*
X24446384Y-39589500D01*
X24446379Y-39589500D01*
X24262756Y-39626025D01*
X24262748Y-39626027D01*
X24089771Y-39697676D01*
X24089762Y-39697681D01*
X23934092Y-39801697D01*
X23934088Y-39801700D01*
X23801700Y-39934088D01*
X23801697Y-39934092D01*
X23697681Y-40089762D01*
X23697676Y-40089771D01*
X23626027Y-40262748D01*
X23626025Y-40262756D01*
X23589500Y-40446379D01*
X22950499Y-40446379D01*
X22913973Y-40262749D01*
X22849767Y-40107743D01*
X22842323Y-40089771D01*
X22842318Y-40089762D01*
X22738302Y-39934092D01*
X22738299Y-39934088D01*
X22605911Y-39801700D01*
X22605907Y-39801697D01*
X22450237Y-39697681D01*
X22450228Y-39697676D01*
X22277251Y-39626027D01*
X22277243Y-39626025D01*
X22093620Y-39589500D01*
X22093616Y-39589500D01*
X21906384Y-39589500D01*
X21906379Y-39589500D01*
X21722756Y-39626025D01*
X21722748Y-39626027D01*
X21549771Y-39697676D01*
X21549762Y-39697681D01*
X21394092Y-39801697D01*
X21394088Y-39801700D01*
X21261700Y-39934088D01*
X21261697Y-39934092D01*
X21157681Y-40089762D01*
X21157676Y-40089771D01*
X21086027Y-40262748D01*
X21086025Y-40262756D01*
X21049500Y-40446379D01*
X9550500Y-40446379D01*
X9550500Y-38972846D01*
X9570185Y-38905807D01*
X9618208Y-38862360D01*
X9629199Y-38856760D01*
X9782073Y-38745690D01*
X9915690Y-38612073D01*
X10026760Y-38459199D01*
X10112547Y-38290832D01*
X10170940Y-38111118D01*
X10184904Y-38022953D01*
X10200500Y-37924486D01*
X10200500Y-37735513D01*
X10170940Y-37548881D01*
X10112545Y-37369163D01*
X10052952Y-37252206D01*
X10026760Y-37200801D01*
X9966154Y-37117385D01*
X9942675Y-37051579D01*
X9958500Y-36983525D01*
X10008606Y-36934831D01*
X10066473Y-36920500D01*
X19232472Y-36920500D01*
X19232475Y-36920500D01*
X19372485Y-36882984D01*
X19498015Y-36810509D01*
X19600509Y-36708015D01*
X19672984Y-36582485D01*
X19710500Y-36442475D01*
X19710500Y-20674500D01*
X19730185Y-20607461D01*
X19782989Y-20561706D01*
X19834500Y-20550500D01*
X28775501Y-20550500D01*
X28842540Y-20570185D01*
X28888295Y-20622989D01*
X28899501Y-20674500D01*
X28899501Y-20844856D01*
X28899502Y-20844882D01*
X28902413Y-20869987D01*
X28902415Y-20869991D01*
X28947793Y-20972764D01*
X28947794Y-20972765D01*
X29027235Y-21052206D01*
X29130009Y-21097585D01*
X29155135Y-21100500D01*
X30645500Y-21100499D01*
X30712539Y-21120184D01*
X30758294Y-21172987D01*
X30769500Y-21224499D01*
X30769500Y-21455443D01*
X30749815Y-21522482D01*
X30697011Y-21568237D01*
X30627853Y-21578181D01*
X30580719Y-21561176D01*
X30576793Y-21558771D01*
X30576790Y-21558769D01*
X30576788Y-21558768D01*
X30422445Y-21480127D01*
X30257701Y-21426598D01*
X30257699Y-21426597D01*
X30257698Y-21426597D01*
X30126271Y-21405781D01*
X30086611Y-21399500D01*
X29913389Y-21399500D01*
X29873728Y-21405781D01*
X29742302Y-21426597D01*
X29577552Y-21480128D01*
X29423211Y-21558768D01*
X29396492Y-21578181D01*
X29283072Y-21660586D01*
X29283070Y-21660588D01*
X29283069Y-21660588D01*
X29160588Y-21783069D01*
X29160588Y-21783070D01*
X29160586Y-21783072D01*
X29116859Y-21843256D01*
X29058768Y-21923211D01*
X28980128Y-22077552D01*
X28926597Y-22242302D01*
X28899500Y-22413389D01*
X28899500Y-22586610D01*
X28917091Y-22697680D01*
X28926598Y-22757701D01*
X28980127Y-22922445D01*
X29058768Y-23076788D01*
X29160586Y-23216928D01*
X29283072Y-23339414D01*
X29423212Y-23441232D01*
X29577555Y-23519873D01*
X29742299Y-23573402D01*
X29913389Y-23600500D01*
X29913390Y-23600500D01*
X30086610Y-23600500D01*
X30086611Y-23600500D01*
X30257701Y-23573402D01*
X30422445Y-23519873D01*
X30576788Y-23441232D01*
X30576790Y-23441230D01*
X30576793Y-23441229D01*
X30580710Y-23438829D01*
X30648156Y-23420584D01*
X30714758Y-23441700D01*
X30759372Y-23495472D01*
X30769500Y-23544556D01*
X30769500Y-25965500D01*
X30749815Y-26032539D01*
X30697011Y-26078294D01*
X30645500Y-26089500D01*
X22072475Y-26089500D01*
X21927525Y-26089500D01*
X21798993Y-26123940D01*
X21787511Y-26127017D01*
X21661988Y-26199488D01*
X21661982Y-26199493D01*
X21559493Y-26301982D01*
X21559488Y-26301988D01*
X21487017Y-26427511D01*
X21487016Y-26427515D01*
X21449500Y-26567525D01*
X21449500Y-26567527D01*
X21449500Y-36925500D01*
X21429815Y-36992539D01*
X21377011Y-37038294D01*
X21325505Y-37049500D01*
X21305145Y-37049500D01*
X21305118Y-37049502D01*
X21280011Y-37052414D01*
X21280008Y-37052415D01*
X21177235Y-37097793D01*
X21097794Y-37177234D01*
X21052415Y-37280006D01*
X21052415Y-37280008D01*
X21049500Y-37305131D01*
X21049500Y-38694856D01*
X21049502Y-38694882D01*
X21052413Y-38719987D01*
X21052415Y-38719991D01*
X21097793Y-38822764D01*
X21097794Y-38822765D01*
X21177235Y-38902206D01*
X21280009Y-38947585D01*
X21305135Y-38950500D01*
X22694864Y-38950499D01*
X22694879Y-38950497D01*
X22694882Y-38950497D01*
X22719987Y-38947586D01*
X22719988Y-38947585D01*
X22719991Y-38947585D01*
X22822765Y-38902206D01*
X22902206Y-38822765D01*
X22947585Y-38719991D01*
X22950500Y-38694865D01*
X22950499Y-37526379D01*
X29049500Y-37526379D01*
X29049500Y-37713620D01*
X29086025Y-37897243D01*
X29086027Y-37897251D01*
X29157676Y-38070228D01*
X29157681Y-38070237D01*
X29261697Y-38225907D01*
X29261700Y-38225911D01*
X29394088Y-38358299D01*
X29394092Y-38358302D01*
X29549762Y-38462318D01*
X29549768Y-38462321D01*
X29549769Y-38462322D01*
X29722749Y-38533973D01*
X29906379Y-38570499D01*
X29906383Y-38570500D01*
X29906384Y-38570500D01*
X30093617Y-38570500D01*
X30093618Y-38570499D01*
X30277251Y-38533973D01*
X30450231Y-38462322D01*
X30605908Y-38358302D01*
X30738302Y-38225908D01*
X30842322Y-38070231D01*
X30913973Y-37897251D01*
X30950500Y-37713616D01*
X30950500Y-37526384D01*
X30913973Y-37342749D01*
X30842322Y-37169769D01*
X30842321Y-37169768D01*
X30842318Y-37169762D01*
X30738302Y-37014092D01*
X30738299Y-37014088D01*
X30605911Y-36881700D01*
X30605907Y-36881697D01*
X30450237Y-36777681D01*
X30450228Y-36777676D01*
X30277251Y-36706027D01*
X30277243Y-36706025D01*
X30093620Y-36669500D01*
X30093616Y-36669500D01*
X29906384Y-36669500D01*
X29906379Y-36669500D01*
X29722756Y-36706025D01*
X29722748Y-36706027D01*
X29549771Y-36777676D01*
X29549762Y-36777681D01*
X29394092Y-36881697D01*
X29394088Y-36881700D01*
X29261700Y-37014088D01*
X29261697Y-37014092D01*
X29157681Y-37169762D01*
X29157676Y-37169771D01*
X29086027Y-37342748D01*
X29086025Y-37342756D01*
X29049500Y-37526379D01*
X22950499Y-37526379D01*
X22950499Y-37305136D01*
X22950497Y-37305117D01*
X22947586Y-37280012D01*
X22947585Y-37280010D01*
X22947585Y-37280009D01*
X22902206Y-37177235D01*
X22822765Y-37097794D01*
X22803154Y-37089135D01*
X22719992Y-37052415D01*
X22694868Y-37049500D01*
X22694865Y-37049500D01*
X22674500Y-37049500D01*
X22607461Y-37029815D01*
X22561706Y-36977011D01*
X22550500Y-36925500D01*
X22550500Y-34986379D01*
X29049500Y-34986379D01*
X29049500Y-35173620D01*
X29086025Y-35357243D01*
X29086027Y-35357251D01*
X29157676Y-35530228D01*
X29157681Y-35530237D01*
X29261697Y-35685907D01*
X29261700Y-35685911D01*
X29394088Y-35818299D01*
X29394092Y-35818302D01*
X29549762Y-35922318D01*
X29549768Y-35922321D01*
X29549769Y-35922322D01*
X29722749Y-35993973D01*
X29891357Y-36027511D01*
X29906379Y-36030499D01*
X29906383Y-36030500D01*
X29906384Y-36030500D01*
X30093617Y-36030500D01*
X30093618Y-36030499D01*
X30277251Y-35993973D01*
X30450231Y-35922322D01*
X30605908Y-35818302D01*
X30738302Y-35685908D01*
X30842322Y-35530231D01*
X30913973Y-35357251D01*
X30950500Y-35173616D01*
X30950500Y-34986384D01*
X30913973Y-34802749D01*
X30855643Y-34661929D01*
X30842323Y-34629771D01*
X30842318Y-34629762D01*
X30738302Y-34474092D01*
X30738299Y-34474088D01*
X30605911Y-34341700D01*
X30605907Y-34341697D01*
X30450237Y-34237681D01*
X30450228Y-34237676D01*
X30277251Y-34166027D01*
X30277243Y-34166025D01*
X30093620Y-34129500D01*
X30093616Y-34129500D01*
X29906384Y-34129500D01*
X29906379Y-34129500D01*
X29722756Y-34166025D01*
X29722748Y-34166027D01*
X29549771Y-34237676D01*
X29549762Y-34237681D01*
X29394092Y-34341697D01*
X29394088Y-34341700D01*
X29261700Y-34474088D01*
X29261697Y-34474092D01*
X29157681Y-34629762D01*
X29157676Y-34629771D01*
X29086027Y-34802748D01*
X29086025Y-34802756D01*
X29049500Y-34986379D01*
X22550500Y-34986379D01*
X22550500Y-29251630D01*
X22570185Y-29184591D01*
X22622989Y-29138836D01*
X22692147Y-29128892D01*
X22693898Y-29129157D01*
X22765514Y-29140500D01*
X22765519Y-29140500D01*
X22954486Y-29140500D01*
X23141118Y-29110940D01*
X23169500Y-29101718D01*
X23320832Y-29052547D01*
X23489199Y-28966760D01*
X23642073Y-28855690D01*
X23775690Y-28722073D01*
X23886760Y-28569199D01*
X23972547Y-28400832D01*
X24030940Y-28221118D01*
X24060500Y-28034486D01*
X24060500Y-27845513D01*
X24030940Y-27658881D01*
X23972545Y-27479163D01*
X23917328Y-27370795D01*
X23904432Y-27302126D01*
X23930708Y-27237385D01*
X23987815Y-27197128D01*
X24027813Y-27190500D01*
X31392472Y-27190500D01*
X31392475Y-27190500D01*
X31532485Y-27152984D01*
X31658015Y-27080509D01*
X31760509Y-26978015D01*
X31832984Y-26852485D01*
X31870500Y-26712475D01*
X31870500Y-17707525D01*
X31832984Y-17567515D01*
X31760509Y-17441985D01*
X31658015Y-17339491D01*
X31658013Y-17339490D01*
X31658011Y-17339488D01*
X31532488Y-17267017D01*
X31532489Y-17267017D01*
X31521006Y-17263940D01*
X31392475Y-17229500D01*
X31392472Y-17229500D01*
X21462847Y-17229500D01*
X21395808Y-17209815D01*
X21352363Y-17161797D01*
X21351143Y-17159403D01*
X21346760Y-17150801D01*
X21235690Y-16997927D01*
X21102073Y-16864310D01*
X20949199Y-16753240D01*
X20780836Y-16667454D01*
X20706472Y-16643291D01*
X20659195Y-16627930D01*
X20601521Y-16588493D01*
X20574323Y-16524134D01*
X20586238Y-16455288D01*
X20633482Y-16403812D01*
X20659194Y-16392069D01*
X20780832Y-16352547D01*
X20949199Y-16266760D01*
X21102073Y-16155690D01*
X21235690Y-16022073D01*
X21346760Y-15869199D01*
X21352363Y-15858203D01*
X21400339Y-15807408D01*
X21462847Y-15790500D01*
X38865500Y-15790500D01*
X38932539Y-15810185D01*
X38978294Y-15862989D01*
X38989500Y-15914500D01*
X38989500Y-34575500D01*
X38986949Y-34584185D01*
X38988238Y-34593147D01*
X38977259Y-34617187D01*
X38969815Y-34642539D01*
X38962974Y-34648466D01*
X38959213Y-34656703D01*
X38936978Y-34670992D01*
X38917011Y-34688294D01*
X38906496Y-34690581D01*
X38900435Y-34694477D01*
X38865500Y-34699500D01*
X38674500Y-34699500D01*
X38607461Y-34679815D01*
X38561706Y-34627011D01*
X38550500Y-34575500D01*
X38550500Y-29927527D01*
X38550500Y-29927525D01*
X38512984Y-29787515D01*
X38498689Y-29762756D01*
X38440511Y-29661988D01*
X38440506Y-29661982D01*
X38338017Y-29559493D01*
X38338011Y-29559488D01*
X38212488Y-29487017D01*
X38212489Y-29487017D01*
X38201006Y-29483940D01*
X38072475Y-29449500D01*
X38072472Y-29449500D01*
X31074499Y-29449500D01*
X31007460Y-29429815D01*
X30961705Y-29377011D01*
X30950499Y-29325500D01*
X30950499Y-29305143D01*
X30950499Y-29305136D01*
X30950101Y-29301700D01*
X30947586Y-29280012D01*
X30947585Y-29280010D01*
X30947585Y-29280009D01*
X30902206Y-29177235D01*
X30822765Y-29097794D01*
X30803981Y-29089500D01*
X30719992Y-29052415D01*
X30694865Y-29049500D01*
X29305143Y-29049500D01*
X29305117Y-29049502D01*
X29280012Y-29052413D01*
X29280008Y-29052415D01*
X29177235Y-29097793D01*
X29097794Y-29177234D01*
X29052415Y-29280006D01*
X29052415Y-29280008D01*
X29049500Y-29305131D01*
X29049500Y-30694856D01*
X29049502Y-30694882D01*
X29052413Y-30719987D01*
X29052415Y-30719991D01*
X29097793Y-30822764D01*
X29097794Y-30822765D01*
X29177235Y-30902206D01*
X29280009Y-30947585D01*
X29305135Y-30950500D01*
X30694864Y-30950499D01*
X30694879Y-30950497D01*
X30694882Y-30950497D01*
X30719987Y-30947586D01*
X30719988Y-30947585D01*
X30719991Y-30947585D01*
X30822765Y-30902206D01*
X30902206Y-30822765D01*
X30947585Y-30719991D01*
X30950500Y-30694865D01*
X30950500Y-30674500D01*
X30970185Y-30607461D01*
X31022989Y-30561706D01*
X31074500Y-30550500D01*
X37325500Y-30550500D01*
X37392539Y-30570185D01*
X37438294Y-30622989D01*
X37449500Y-30674500D01*
X37449500Y-34575500D01*
X37429815Y-34642539D01*
X37377011Y-34688294D01*
X37325500Y-34699500D01*
X36955143Y-34699500D01*
X36955117Y-34699502D01*
X36930012Y-34702413D01*
X36930008Y-34702415D01*
X36827235Y-34747793D01*
X36747794Y-34827234D01*
X36702415Y-34930006D01*
X36702415Y-34930008D01*
X36699500Y-34955131D01*
X36699500Y-37044856D01*
X36699502Y-37044882D01*
X36702413Y-37069987D01*
X36702415Y-37069991D01*
X36747793Y-37172764D01*
X36747794Y-37172765D01*
X36827235Y-37252206D01*
X36930009Y-37297585D01*
X36955135Y-37300500D01*
X38865500Y-37300499D01*
X38932539Y-37320184D01*
X38978294Y-37372987D01*
X38989500Y-37424499D01*
X38989500Y-43485500D01*
X38969815Y-43552539D01*
X38917011Y-43598294D01*
X38865500Y-43609500D01*
X30734073Y-43609500D01*
X30667034Y-43589815D01*
X30621279Y-43537011D01*
X30611335Y-43467853D01*
X30640360Y-43404297D01*
X30646392Y-43397819D01*
X30738299Y-43305911D01*
X30738302Y-43305908D01*
X30842322Y-43150231D01*
X30913973Y-42977251D01*
X30950500Y-42793616D01*
X30950500Y-42606384D01*
X30913973Y-42422749D01*
X30842322Y-42249769D01*
X30842321Y-42249768D01*
X30842318Y-42249762D01*
X30738302Y-42094092D01*
X30738299Y-42094088D01*
X30605911Y-41961700D01*
X30605907Y-41961697D01*
X30450237Y-41857681D01*
X30450228Y-41857676D01*
X30277251Y-41786027D01*
X30277243Y-41786025D01*
X30093620Y-41749500D01*
X30093616Y-41749500D01*
X29906384Y-41749500D01*
X29906379Y-41749500D01*
X29722756Y-41786025D01*
X29722748Y-41786027D01*
X29549771Y-41857676D01*
X29549762Y-41857681D01*
X29394092Y-41961697D01*
X29394088Y-41961700D01*
X29261700Y-42094088D01*
X29261697Y-42094092D01*
X29157681Y-42249762D01*
X29157676Y-42249771D01*
X29086027Y-42422748D01*
X29086025Y-42422756D01*
X29049500Y-42606379D01*
X29049500Y-42793620D01*
X29086025Y-42977243D01*
X29086027Y-42977251D01*
X29157676Y-43150228D01*
X29157681Y-43150237D01*
X29261697Y-43305907D01*
X29261700Y-43305911D01*
X29353608Y-43397819D01*
X29387093Y-43459142D01*
X29382109Y-43528834D01*
X29340237Y-43584767D01*
X29274773Y-43609184D01*
X29265927Y-43609500D01*
X25535067Y-43609500D01*
X25468028Y-43589815D01*
X25422273Y-43537011D01*
X25412329Y-43467853D01*
X25420506Y-43438047D01*
X25453973Y-43357251D01*
X25490500Y-43173616D01*
X25490500Y-42986384D01*
X25453973Y-42802749D01*
X25382322Y-42629769D01*
X25382321Y-42629768D01*
X25382318Y-42629762D01*
X25278302Y-42474092D01*
X25278299Y-42474088D01*
X25145911Y-42341700D01*
X25145907Y-42341697D01*
X24990237Y-42237681D01*
X24990228Y-42237676D01*
X24817251Y-42166027D01*
X24817243Y-42166025D01*
X24633620Y-42129500D01*
X24633616Y-42129500D01*
X24446384Y-42129500D01*
X24446379Y-42129500D01*
X24262756Y-42166025D01*
X24262748Y-42166027D01*
X24089771Y-42237676D01*
X24089762Y-42237681D01*
X23934092Y-42341697D01*
X23934088Y-42341700D01*
X23801700Y-42474088D01*
X23801697Y-42474092D01*
X23697681Y-42629762D01*
X23697676Y-42629771D01*
X23626027Y-42802748D01*
X23626025Y-42802756D01*
X23589500Y-42986379D01*
X23589500Y-43173620D01*
X23626025Y-43357243D01*
X23626027Y-43357251D01*
X23697676Y-43530228D01*
X23697681Y-43530237D01*
X23801697Y-43685907D01*
X23801700Y-43685911D01*
X23934086Y-43818297D01*
X23934089Y-43818299D01*
X23934092Y-43818302D01*
X23934386Y-43818498D01*
X23934505Y-43818641D01*
X23938796Y-43822162D01*
X23938128Y-43822975D01*
X23979193Y-43872107D01*
X23989500Y-43921603D01*
X23989500Y-44232475D01*
X24027016Y-44372485D01*
X24027017Y-44372488D01*
X24099488Y-44498011D01*
X24099493Y-44498017D01*
X24163170Y-44561694D01*
X24196655Y-44623017D01*
X24191671Y-44692709D01*
X24149799Y-44748642D01*
X24122945Y-44763935D01*
X24089771Y-44777676D01*
X24089762Y-44777681D01*
X23934092Y-44881697D01*
X23934088Y-44881700D01*
X23801700Y-45014088D01*
X23801697Y-45014092D01*
X23697681Y-45169762D01*
X23697676Y-45169771D01*
X23626027Y-45342748D01*
X23626025Y-45342756D01*
X23589500Y-45526379D01*
X23589500Y-45713620D01*
X23626025Y-45897243D01*
X23626027Y-45897251D01*
X23697676Y-46070228D01*
X23697681Y-46070237D01*
X23801697Y-46225907D01*
X23801700Y-46225911D01*
X23934086Y-46358297D01*
X23934089Y-46358299D01*
X23934092Y-46358302D01*
X23934386Y-46358498D01*
X23934505Y-46358641D01*
X23938796Y-46362162D01*
X23938128Y-46362975D01*
X23979193Y-46412107D01*
X23989500Y-46461603D01*
X23989500Y-63825500D01*
X23969815Y-63892539D01*
X23917011Y-63938294D01*
X23865500Y-63949500D01*
X19023513Y-63949500D01*
X18956474Y-63929815D01*
X18923195Y-63898386D01*
X18870240Y-63825500D01*
X18839414Y-63783072D01*
X18716928Y-63660586D01*
X18576788Y-63558768D01*
X18422445Y-63480127D01*
X18257701Y-63426598D01*
X18257699Y-63426597D01*
X18257698Y-63426597D01*
X18126271Y-63405781D01*
X18086611Y-63399500D01*
X17913389Y-63399500D01*
X17873728Y-63405781D01*
X17742302Y-63426597D01*
X17577552Y-63480128D01*
X17423211Y-63558768D01*
X17343256Y-63616859D01*
X17283072Y-63660586D01*
X17283070Y-63660588D01*
X17283069Y-63660588D01*
X17160588Y-63783069D01*
X17160588Y-63783070D01*
X17160586Y-63783072D01*
X17129760Y-63825500D01*
X17058768Y-63923211D01*
X16980128Y-64077552D01*
X16926597Y-64242302D01*
X16899500Y-64413389D01*
X16899500Y-64586611D01*
X16926598Y-64757701D01*
X16952694Y-64838017D01*
X16980128Y-64922447D01*
X17026259Y-65012984D01*
X17058768Y-65076788D01*
X17160586Y-65216928D01*
X17283072Y-65339414D01*
X17423212Y-65441232D01*
X17577555Y-65519873D01*
X17742299Y-65573402D01*
X17913389Y-65600500D01*
X17913390Y-65600500D01*
X18086610Y-65600500D01*
X18086611Y-65600500D01*
X18257701Y-65573402D01*
X18422445Y-65519873D01*
X18576788Y-65441232D01*
X18716928Y-65339414D01*
X18839414Y-65216928D01*
X18923195Y-65101614D01*
X18978526Y-65058949D01*
X19023513Y-65050500D01*
X24612472Y-65050500D01*
X24612475Y-65050500D01*
X24752485Y-65012984D01*
X24878015Y-64940509D01*
X24980509Y-64838015D01*
X25052984Y-64712485D01*
X25090500Y-64572475D01*
X25090500Y-46461603D01*
X25110185Y-46394564D01*
X25141572Y-46362611D01*
X25141204Y-46362162D01*
X25145384Y-46358731D01*
X25145612Y-46358499D01*
X25145908Y-46358302D01*
X25278302Y-46225908D01*
X25382322Y-46070231D01*
X25453973Y-45897251D01*
X25490500Y-45713616D01*
X25490500Y-45526384D01*
X25453973Y-45342749D01*
X25382322Y-45169769D01*
X25382321Y-45169768D01*
X25382318Y-45169762D01*
X25278302Y-45014092D01*
X25278299Y-45014088D01*
X25186392Y-44922181D01*
X25152907Y-44860858D01*
X25157891Y-44791166D01*
X25199763Y-44735233D01*
X25265227Y-44710816D01*
X25274073Y-44710500D01*
X39612472Y-44710500D01*
X39612475Y-44710500D01*
X39752485Y-44672984D01*
X39878015Y-44600509D01*
X39980509Y-44498015D01*
X40052984Y-44372485D01*
X40090500Y-44232475D01*
X40090500Y-15167525D01*
X40052984Y-15027515D01*
X39980509Y-14901985D01*
X39878015Y-14799491D01*
X39878013Y-14799490D01*
X39878011Y-14799488D01*
X39752488Y-14727017D01*
X39752489Y-14727017D01*
X39741006Y-14723940D01*
X39612475Y-14689500D01*
X39612472Y-14689500D01*
X21462847Y-14689500D01*
X21395808Y-14669815D01*
X21352363Y-14621797D01*
X21351143Y-14619403D01*
X21346760Y-14610801D01*
X21235690Y-14457927D01*
X21102073Y-14324310D01*
X20949199Y-14213240D01*
X20780836Y-14127454D01*
X20601118Y-14069059D01*
X20414486Y-14039500D01*
X20414481Y-14039500D01*
X20225519Y-14039500D01*
X20225514Y-14039500D01*
X20038881Y-14069059D01*
X19859163Y-14127454D01*
X19690800Y-14213240D01*
X19603579Y-14276610D01*
X19537927Y-14324310D01*
X19537925Y-14324312D01*
X19537924Y-14324312D01*
X19404312Y-14457924D01*
X19404312Y-14457925D01*
X19404310Y-14457927D01*
X19356610Y-14523579D01*
X19293240Y-14610800D01*
X19207454Y-14779163D01*
X19149059Y-14958881D01*
X19119500Y-15145513D01*
X19119500Y-15334486D01*
X19149059Y-15521118D01*
X19207454Y-15700836D01*
X19261756Y-15807408D01*
X19293240Y-15869199D01*
X19404310Y-16022073D01*
X19537927Y-16155690D01*
X19690801Y-16266760D01*
X19770347Y-16307290D01*
X19859163Y-16352545D01*
X19859165Y-16352545D01*
X19859168Y-16352547D01*
X19948734Y-16381649D01*
X19980803Y-16392069D01*
X20038478Y-16431507D01*
X20065676Y-16495866D01*
X20053761Y-16564712D01*
X20006516Y-16616188D01*
X19980803Y-16627931D01*
X19859163Y-16667454D01*
X19690800Y-16753240D01*
X19603579Y-16816610D01*
X19537927Y-16864310D01*
X19537925Y-16864312D01*
X19537924Y-16864312D01*
X19404312Y-16997924D01*
X19404312Y-16997925D01*
X19404310Y-16997927D01*
X19356610Y-17063579D01*
X19293240Y-17150800D01*
X19207454Y-17319163D01*
X19149059Y-17498881D01*
X19119500Y-17685513D01*
X19119500Y-17874486D01*
X19149059Y-18061118D01*
X19207454Y-18240836D01*
X19261756Y-18347408D01*
X19293240Y-18409199D01*
X19404310Y-18562073D01*
X19537927Y-18695690D01*
X19690801Y-18806760D01*
X19770347Y-18847290D01*
X19859163Y-18892545D01*
X19859165Y-18892545D01*
X19859168Y-18892547D01*
X19955497Y-18923846D01*
X20038881Y-18950940D01*
X20225514Y-18980500D01*
X20225519Y-18980500D01*
X20414486Y-18980500D01*
X20601118Y-18950940D01*
X20610803Y-18947793D01*
X20780832Y-18892547D01*
X20949199Y-18806760D01*
X21102073Y-18695690D01*
X21235690Y-18562073D01*
X21346760Y-18409199D01*
X21352363Y-18398203D01*
X21400339Y-18347408D01*
X21462847Y-18330500D01*
X30645500Y-18330500D01*
X30712539Y-18350185D01*
X30758294Y-18402989D01*
X30769500Y-18454500D01*
X30769500Y-18775500D01*
X30749815Y-18842539D01*
X30697011Y-18888294D01*
X30645500Y-18899500D01*
X29155143Y-18899500D01*
X29155117Y-18899502D01*
X29130012Y-18902413D01*
X29130008Y-18902415D01*
X29027235Y-18947793D01*
X28947794Y-19027234D01*
X28902415Y-19130006D01*
X28902415Y-19130008D01*
X28899500Y-19155131D01*
X28899500Y-19325500D01*
X28879815Y-19392539D01*
X28827011Y-19438294D01*
X28775500Y-19449500D01*
X19232475Y-19449500D01*
X19087525Y-19449500D01*
X18958993Y-19483940D01*
X18947511Y-19487017D01*
X18821988Y-19559488D01*
X18821982Y-19559493D01*
X18762181Y-19619295D01*
X18700858Y-19652780D01*
X18631166Y-19647796D01*
X18575233Y-19605924D01*
X18550816Y-19540460D01*
X18550500Y-19531614D01*
X18550500Y-13523512D01*
X18570185Y-13456473D01*
X18601615Y-13423194D01*
X18716928Y-13339414D01*
X18839414Y-13216928D01*
X18941232Y-13076788D01*
X19019873Y-12922445D01*
X19073402Y-12757701D01*
X19100500Y-12586611D01*
X19100500Y-12413389D01*
X25899500Y-12413389D01*
X25899500Y-12586611D01*
X25926598Y-12757701D01*
X25980127Y-12922445D01*
X26058768Y-13076788D01*
X26160586Y-13216928D01*
X26283072Y-13339414D01*
X26423212Y-13441232D01*
X26577555Y-13519873D01*
X26742299Y-13573402D01*
X26913389Y-13600500D01*
X26913390Y-13600500D01*
X27086610Y-13600500D01*
X27086611Y-13600500D01*
X27257701Y-13573402D01*
X27422445Y-13519873D01*
X27576788Y-13441232D01*
X27716928Y-13339414D01*
X27839414Y-13216928D01*
X27941232Y-13076788D01*
X28019873Y-12922445D01*
X28073402Y-12757701D01*
X28100500Y-12586611D01*
X28100500Y-12413389D01*
X28073402Y-12242299D01*
X28019873Y-12077555D01*
X27941232Y-11923212D01*
X27839414Y-11783072D01*
X27716928Y-11660586D01*
X27576788Y-11558768D01*
X27422445Y-11480127D01*
X27257701Y-11426598D01*
X27257699Y-11426597D01*
X27257698Y-11426597D01*
X27126271Y-11405781D01*
X27086611Y-11399500D01*
X26913389Y-11399500D01*
X26873728Y-11405781D01*
X26742302Y-11426597D01*
X26577552Y-11480128D01*
X26423211Y-11558768D01*
X26343256Y-11616859D01*
X26283072Y-11660586D01*
X26283070Y-11660588D01*
X26283069Y-11660588D01*
X26160588Y-11783069D01*
X26160588Y-11783070D01*
X26160586Y-11783072D01*
X26116859Y-11843256D01*
X26058768Y-11923211D01*
X25980128Y-12077552D01*
X25926597Y-12242302D01*
X25899500Y-12413389D01*
X19100500Y-12413389D01*
X19073402Y-12242299D01*
X19019873Y-12077555D01*
X18941232Y-11923212D01*
X18839414Y-11783072D01*
X18716928Y-11660586D01*
X18576788Y-11558768D01*
X18422445Y-11480127D01*
X18257701Y-11426598D01*
X18257699Y-11426597D01*
X18257698Y-11426597D01*
X18126271Y-11405781D01*
X18086611Y-11399500D01*
X17913389Y-11399500D01*
X17873728Y-11405781D01*
X17742302Y-11426597D01*
X17577552Y-11480128D01*
X17423211Y-11558768D01*
X17343256Y-11616859D01*
X17283072Y-11660586D01*
X17283070Y-11660588D01*
X17283069Y-11660588D01*
X17160588Y-11783069D01*
X17160588Y-11783070D01*
X17160586Y-11783072D01*
X17116859Y-11843256D01*
X17058768Y-11923211D01*
X16980128Y-12077552D01*
X16926597Y-12242302D01*
X16899500Y-12413389D01*
X16899500Y-12586611D01*
X16926598Y-12757701D01*
X16980127Y-12922445D01*
X17058768Y-13076788D01*
X17160586Y-13216928D01*
X17283072Y-13339414D01*
X17283075Y-13339416D01*
X17398385Y-13423194D01*
X17441051Y-13478524D01*
X17449500Y-13523512D01*
X17449500Y-33025500D01*
X17429815Y-33092539D01*
X17377011Y-33138294D01*
X17325500Y-33149500D01*
X12518498Y-33149500D01*
X12451459Y-33129815D01*
X12405704Y-33077011D01*
X12395760Y-33007853D01*
X12403937Y-32978047D01*
X12453973Y-32857251D01*
X12490500Y-32673616D01*
X12490500Y-32486384D01*
X12453973Y-32302749D01*
X12382322Y-32129769D01*
X12382321Y-32129768D01*
X12382318Y-32129762D01*
X12278302Y-31974092D01*
X12278299Y-31974088D01*
X12145911Y-31841700D01*
X12145907Y-31841697D01*
X11990237Y-31737681D01*
X11990228Y-31737676D01*
X11817251Y-31666027D01*
X11817243Y-31666025D01*
X11633620Y-31629500D01*
X11633616Y-31629500D01*
X11446384Y-31629500D01*
X11446379Y-31629500D01*
X11262756Y-31666025D01*
X11262748Y-31666027D01*
X11089771Y-31737676D01*
X11089762Y-31737681D01*
X10934092Y-31841697D01*
X10934088Y-31841700D01*
X10922181Y-31853608D01*
X10860858Y-31887093D01*
X10791166Y-31882109D01*
X10735233Y-31840237D01*
X10710816Y-31774773D01*
X10710500Y-31765927D01*
X10710500Y-30854073D01*
X10730185Y-30787034D01*
X10782989Y-30741279D01*
X10852147Y-30731335D01*
X10915703Y-30760360D01*
X10922181Y-30766392D01*
X10934088Y-30778299D01*
X10934092Y-30778302D01*
X11089762Y-30882318D01*
X11089771Y-30882323D01*
X11101951Y-30887368D01*
X11262749Y-30953973D01*
X11446379Y-30990499D01*
X11446383Y-30990500D01*
X11446384Y-30990500D01*
X11633617Y-30990500D01*
X11633618Y-30990499D01*
X11817251Y-30953973D01*
X11990231Y-30882322D01*
X12145908Y-30778302D01*
X12278302Y-30645908D01*
X12382322Y-30490231D01*
X12453973Y-30317251D01*
X12490500Y-30133616D01*
X12490500Y-29946384D01*
X12453973Y-29762749D01*
X12382322Y-29589769D01*
X12382321Y-29589768D01*
X12382318Y-29589762D01*
X12278302Y-29434092D01*
X12278299Y-29434088D01*
X12145911Y-29301700D01*
X12145907Y-29301697D01*
X11990237Y-29197681D01*
X11990228Y-29197676D01*
X11817251Y-29126027D01*
X11817243Y-29126025D01*
X11633620Y-29089500D01*
X11633616Y-29089500D01*
X11446384Y-29089500D01*
X11446379Y-29089500D01*
X11262756Y-29126025D01*
X11262748Y-29126027D01*
X11089771Y-29197676D01*
X11089762Y-29197681D01*
X10934092Y-29301697D01*
X10934088Y-29301700D01*
X10922181Y-29313608D01*
X10860858Y-29347093D01*
X10791166Y-29342109D01*
X10735233Y-29300237D01*
X10710816Y-29234773D01*
X10710500Y-29225927D01*
X10710500Y-26007527D01*
X10710500Y-26007525D01*
X10672984Y-25867515D01*
X10600509Y-25741985D01*
X10498015Y-25639491D01*
X10498013Y-25639490D01*
X10498011Y-25639488D01*
X10372488Y-25567017D01*
X10372489Y-25567017D01*
X10361006Y-25563940D01*
X10232475Y-25529500D01*
X10232472Y-25529500D01*
X5921603Y-25529500D01*
X5854564Y-25509815D01*
X5822611Y-25478427D01*
X5822162Y-25478796D01*
X5818731Y-25474615D01*
X5818499Y-25474387D01*
X5818302Y-25474092D01*
X5818299Y-25474089D01*
X5818297Y-25474086D01*
X5685911Y-25341700D01*
X5685907Y-25341697D01*
X5530237Y-25237681D01*
X5530228Y-25237676D01*
X5357251Y-25166027D01*
X5357243Y-25166025D01*
X5173620Y-25129500D01*
X5173616Y-25129500D01*
X4986384Y-25129500D01*
X4986379Y-25129500D01*
X4802756Y-25166025D01*
X4802748Y-25166027D01*
X4629771Y-25237676D01*
X4629764Y-25237680D01*
X4553390Y-25288712D01*
X4486713Y-25309589D01*
X4419333Y-25291104D01*
X4372643Y-25239125D01*
X4360500Y-25185609D01*
X4360500Y-24434390D01*
X4380185Y-24367351D01*
X4432989Y-24321596D01*
X4502147Y-24311652D01*
X4553391Y-24331288D01*
X4629762Y-24382318D01*
X4629768Y-24382321D01*
X4629769Y-24382322D01*
X4802749Y-24453973D01*
X4986379Y-24490499D01*
X4986383Y-24490500D01*
X4986384Y-24490500D01*
X5173617Y-24490500D01*
X5173618Y-24490499D01*
X5357251Y-24453973D01*
X5530231Y-24382322D01*
X5685908Y-24278302D01*
X5818302Y-24145908D01*
X5818498Y-24145613D01*
X5818641Y-24145494D01*
X5822162Y-24141204D01*
X5822975Y-24141871D01*
X5872107Y-24100807D01*
X5921603Y-24090500D01*
X14565500Y-24090500D01*
X14632539Y-24110185D01*
X14678294Y-24162989D01*
X14689500Y-24214500D01*
X14689500Y-26797152D01*
X14669815Y-26864191D01*
X14621800Y-26907634D01*
X14610807Y-26913235D01*
X14610804Y-26913237D01*
X14526636Y-26974390D01*
X14457927Y-27024310D01*
X14457925Y-27024312D01*
X14457924Y-27024312D01*
X14324312Y-27157924D01*
X14324312Y-27157925D01*
X14324310Y-27157927D01*
X14300644Y-27190500D01*
X14213240Y-27310800D01*
X14127454Y-27479163D01*
X14069059Y-27658881D01*
X14039500Y-27845513D01*
X14039500Y-28034486D01*
X14069059Y-28221118D01*
X14127454Y-28400836D01*
X14213240Y-28569199D01*
X14324310Y-28722073D01*
X14457927Y-28855690D01*
X14610801Y-28966760D01*
X14690347Y-29007290D01*
X14779163Y-29052545D01*
X14779165Y-29052545D01*
X14779168Y-29052547D01*
X14833612Y-29070237D01*
X14958881Y-29110940D01*
X15145514Y-29140500D01*
X15145519Y-29140500D01*
X15334486Y-29140500D01*
X15521118Y-29110940D01*
X15549500Y-29101718D01*
X15700832Y-29052547D01*
X15869199Y-28966760D01*
X16022073Y-28855690D01*
X16155690Y-28722073D01*
X16266760Y-28569199D01*
X16352547Y-28400832D01*
X16410940Y-28221118D01*
X16440500Y-28034486D01*
X16440500Y-27845513D01*
X16410940Y-27658881D01*
X16352545Y-27479163D01*
X16266759Y-27310800D01*
X16260457Y-27302126D01*
X16155690Y-27157927D01*
X16022073Y-27024310D01*
X15869199Y-26913240D01*
X15869195Y-26913237D01*
X15869192Y-26913235D01*
X15858200Y-26907634D01*
X15807406Y-26859657D01*
X15790500Y-26797152D01*
X15790500Y-23467527D01*
X15790500Y-23467525D01*
X15752984Y-23327515D01*
X15729501Y-23286842D01*
X15680511Y-23201988D01*
X15680506Y-23201982D01*
X15578017Y-23099493D01*
X15578011Y-23099488D01*
X15452488Y-23027017D01*
X15452489Y-23027017D01*
X15441006Y-23023940D01*
X15312475Y-22989500D01*
X15312472Y-22989500D01*
X5921603Y-22989500D01*
X5854564Y-22969815D01*
X5822611Y-22938427D01*
X5822162Y-22938796D01*
X5818731Y-22934615D01*
X5818499Y-22934387D01*
X5818302Y-22934092D01*
X5818298Y-22934088D01*
X5818297Y-22934086D01*
X5685911Y-22801700D01*
X5685907Y-22801697D01*
X5530237Y-22697681D01*
X5530228Y-22697676D01*
X5357251Y-22626027D01*
X5357243Y-22626025D01*
X5173620Y-22589500D01*
X5173616Y-22589500D01*
X4986384Y-22589500D01*
X4986379Y-22589500D01*
X4802756Y-22626025D01*
X4802748Y-22626027D01*
X4629771Y-22697676D01*
X4629764Y-22697680D01*
X4553390Y-22748712D01*
X4486713Y-22769589D01*
X4419333Y-22751104D01*
X4372643Y-22699125D01*
X4360500Y-22645609D01*
X4360500Y-10674500D01*
X4380185Y-10607461D01*
X4432989Y-10561706D01*
X4484500Y-10550500D01*
X16976487Y-10550500D01*
X17043526Y-10570185D01*
X17076805Y-10601614D01*
X17160586Y-10716928D01*
X17283072Y-10839414D01*
X17423212Y-10941232D01*
X17577555Y-11019873D01*
X17742299Y-11073402D01*
X17913389Y-11100500D01*
X17913390Y-11100500D01*
X18086610Y-11100500D01*
X18086611Y-11100500D01*
X18257701Y-11073402D01*
X18422445Y-11019873D01*
X18576788Y-10941232D01*
X18716928Y-10839414D01*
X18839414Y-10716928D01*
X18941232Y-10576788D01*
X19019873Y-10422445D01*
X19073402Y-10257701D01*
X19100500Y-10086611D01*
X19100500Y-9913389D01*
X25899500Y-9913389D01*
X25899500Y-10086611D01*
X25926598Y-10257701D01*
X25980127Y-10422445D01*
X26058768Y-10576788D01*
X26160586Y-10716928D01*
X26283072Y-10839414D01*
X26423212Y-10941232D01*
X26577555Y-11019873D01*
X26742299Y-11073402D01*
X26913389Y-11100500D01*
X26913390Y-11100500D01*
X27086610Y-11100500D01*
X27086611Y-11100500D01*
X27257701Y-11073402D01*
X27422445Y-11019873D01*
X27576788Y-10941232D01*
X27716928Y-10839414D01*
X27839414Y-10716928D01*
X27941232Y-10576788D01*
X28019873Y-10422445D01*
X28073402Y-10257701D01*
X28100500Y-10086611D01*
X28100500Y-9913389D01*
X28073402Y-9742299D01*
X28019873Y-9577555D01*
X27941232Y-9423212D01*
X27839414Y-9283072D01*
X27716928Y-9160586D01*
X27576788Y-9058768D01*
X27422445Y-8980127D01*
X27257701Y-8926598D01*
X27257699Y-8926597D01*
X27257698Y-8926597D01*
X27126271Y-8905781D01*
X27086611Y-8899500D01*
X26913389Y-8899500D01*
X26873728Y-8905781D01*
X26742302Y-8926597D01*
X26577552Y-8980128D01*
X26423211Y-9058768D01*
X26343256Y-9116859D01*
X26283072Y-9160586D01*
X26283070Y-9160588D01*
X26283069Y-9160588D01*
X26160588Y-9283069D01*
X26160588Y-9283070D01*
X26160586Y-9283072D01*
X26116859Y-9343256D01*
X26058768Y-9423211D01*
X25980128Y-9577552D01*
X25926597Y-9742302D01*
X25919437Y-9787511D01*
X25899500Y-9913389D01*
X19100500Y-9913389D01*
X19073402Y-9742299D01*
X19019873Y-9577555D01*
X18941232Y-9423212D01*
X18839414Y-9283072D01*
X18716928Y-9160586D01*
X18576788Y-9058768D01*
X18422445Y-8980127D01*
X18257701Y-8926598D01*
X18257699Y-8926597D01*
X18257698Y-8926597D01*
X18126271Y-8905781D01*
X18086611Y-8899500D01*
X17913389Y-8899500D01*
X17873728Y-8905781D01*
X17742302Y-8926597D01*
X17577552Y-8980128D01*
X17423211Y-9058768D01*
X17343256Y-9116859D01*
X17283072Y-9160586D01*
X17283070Y-9160588D01*
X17283069Y-9160588D01*
X17160587Y-9283070D01*
X17076805Y-9398386D01*
X17021474Y-9441051D01*
X16976487Y-9449500D01*
X3882475Y-9449500D01*
X3737525Y-9449500D01*
X3608993Y-9483940D01*
X3597511Y-9487017D01*
X3471988Y-9559488D01*
X3471982Y-9559493D01*
X3369493Y-9661982D01*
X3369488Y-9661988D01*
X3297017Y-9787511D01*
X3297016Y-9787515D01*
X3259500Y-9927525D01*
X3259500Y-9927527D01*
X3259500Y-22645609D01*
X3239815Y-22712648D01*
X3187011Y-22758403D01*
X3117853Y-22768347D01*
X3066610Y-22748712D01*
X2990235Y-22697680D01*
X2990228Y-22697676D01*
X2817251Y-22626027D01*
X2817243Y-22626025D01*
X2633620Y-22589500D01*
X2633616Y-22589500D01*
X2446384Y-22589500D01*
X2446379Y-22589500D01*
X2262756Y-22626025D01*
X2262748Y-22626027D01*
X2089771Y-22697676D01*
X2089762Y-22697681D01*
X1934092Y-22801697D01*
X1934088Y-22801700D01*
X1801700Y-22934088D01*
X1801697Y-22934092D01*
X1697681Y-23089762D01*
X1697676Y-23089771D01*
X1626027Y-23262748D01*
X1626025Y-23262756D01*
X1589500Y-23446379D01*
X1589500Y-23633620D01*
X1626025Y-23817243D01*
X1626027Y-23817251D01*
X1697676Y-23990228D01*
X1697681Y-23990237D01*
X1801697Y-24145907D01*
X1801700Y-24145911D01*
X1934088Y-24278299D01*
X1934092Y-24278302D01*
X2089762Y-24382318D01*
X2089768Y-24382321D01*
X2089769Y-24382322D01*
X2262749Y-24453973D01*
X2446379Y-24490499D01*
X2446383Y-24490500D01*
X2446384Y-24490500D01*
X2633617Y-24490500D01*
X2633618Y-24490499D01*
X2817251Y-24453973D01*
X2990231Y-24382322D01*
X3066609Y-24331288D01*
X3133286Y-24310410D01*
X3200666Y-24328894D01*
X3247357Y-24380873D01*
X3259500Y-24434390D01*
X3259500Y-25185609D01*
X3239815Y-25252648D01*
X3187011Y-25298403D01*
X3117853Y-25308347D01*
X3066610Y-25288712D01*
X2990235Y-25237680D01*
X2990228Y-25237676D01*
X2817251Y-25166027D01*
X2817243Y-25166025D01*
X2633620Y-25129500D01*
X2633616Y-25129500D01*
X2446384Y-25129500D01*
X2446379Y-25129500D01*
X2262756Y-25166025D01*
X2262748Y-25166027D01*
X2089771Y-25237676D01*
X2089762Y-25237681D01*
X1934092Y-25341697D01*
X1934088Y-25341700D01*
X1801702Y-25474086D01*
X1801698Y-25474091D01*
X1801698Y-25474092D01*
X1801501Y-25474386D01*
X1801358Y-25474505D01*
X1797838Y-25478796D01*
X1797024Y-25478128D01*
X1747893Y-25519193D01*
X1698397Y-25529500D01*
X1452475Y-25529500D01*
X1307525Y-25529500D01*
X1178993Y-25563940D01*
X1167511Y-25567017D01*
X1041988Y-25639488D01*
X1041982Y-25639493D01*
X939493Y-25741982D01*
X939488Y-25741988D01*
X867017Y-25867511D01*
X867016Y-25867515D01*
X829500Y-26007525D01*
X500500Y-26007525D01*
X500500Y-4155131D01*
X16899500Y-4155131D01*
X16899500Y-5844856D01*
X16899502Y-5844882D01*
X16902413Y-5869987D01*
X16902415Y-5869991D01*
X16947793Y-5972764D01*
X16947794Y-5972765D01*
X17027235Y-6052206D01*
X17130009Y-6097585D01*
X17155135Y-6100500D01*
X18844864Y-6100499D01*
X18844879Y-6100497D01*
X18844882Y-6100497D01*
X18869987Y-6097586D01*
X18869988Y-6097585D01*
X18869991Y-6097585D01*
X18972765Y-6052206D01*
X19052206Y-5972765D01*
X19097585Y-5869991D01*
X19100500Y-5844865D01*
X19100499Y-4155136D01*
X19100499Y-4155135D01*
X19100499Y-4155131D01*
X25899500Y-4155131D01*
X25899500Y-5844856D01*
X25899502Y-5844882D01*
X25902413Y-5869987D01*
X25902415Y-5869991D01*
X25947793Y-5972764D01*
X25947794Y-5972765D01*
X26027235Y-6052206D01*
X26130009Y-6097585D01*
X26155135Y-6100500D01*
X27844864Y-6100499D01*
X27844879Y-6100497D01*
X27844882Y-6100497D01*
X27869987Y-6097586D01*
X27869988Y-6097585D01*
X27869991Y-6097585D01*
X27972765Y-6052206D01*
X28052206Y-5972765D01*
X28097585Y-5869991D01*
X28100500Y-5844865D01*
X28100499Y-4155136D01*
X28100497Y-4155117D01*
X28097586Y-4130012D01*
X28097585Y-4130010D01*
X28097585Y-4130009D01*
X28052206Y-4027235D01*
X27972765Y-3947794D01*
X27972763Y-3947793D01*
X27869992Y-3902415D01*
X27844865Y-3899500D01*
X26155143Y-3899500D01*
X26155117Y-3899502D01*
X26130012Y-3902413D01*
X26130008Y-3902415D01*
X26027235Y-3947793D01*
X25947794Y-4027234D01*
X25902415Y-4130006D01*
X25902415Y-4130008D01*
X25899500Y-4155131D01*
X19100499Y-4155131D01*
X19100499Y-4155130D01*
X19097586Y-4130012D01*
X19097585Y-4130010D01*
X19097585Y-4130009D01*
X19052206Y-4027235D01*
X18972765Y-3947794D01*
X18972763Y-3947793D01*
X18869992Y-3902415D01*
X18844865Y-3899500D01*
X17155143Y-3899500D01*
X17155117Y-3899502D01*
X17130012Y-3902413D01*
X17130008Y-3902415D01*
X17027235Y-3947793D01*
X16947794Y-4027234D01*
X16902415Y-4130006D01*
X16902415Y-4130008D01*
X16899500Y-4155131D01*
X500500Y-4155131D01*
X500500Y-624500D01*
X520185Y-557461D01*
X572989Y-511706D01*
X624500Y-500500D01*
X49375500Y-500500D01*
X49442539Y-520185D01*
G37*
%TD.AperFunction*%
%TD*%
M02*
