%TF.GenerationSoftware,KiCad,Pcbnew,10.0.3*%
%TF.CreationDate,2026-05-26T15:00:49-06:00*%
%TF.ProjectId,neolink-v1,6e656f6c-696e-46b2-9d76-312e6b696361,rev?*%
%TF.SameCoordinates,Original*%
%TF.FileFunction,Copper,L2,Bot*%
%TF.FilePolarity,Positive*%
%FSLAX46Y46*%
G04 Gerber Fmt 4.6, Leading zero omitted, Abs format (unit mm)*
G04 Created by KiCad (PCBNEW 10.0.3) date 2026-05-26 15:00:49*
%MOMM*%
%LPD*%
G01*
G04 APERTURE LIST*
%TA.AperFunction,ComponentPad*%
%ADD10R,1.600000X1.600000*%
%TD*%
%TA.AperFunction,ComponentPad*%
%ADD11C,1.600000*%
%TD*%
%TA.AperFunction,ComponentPad*%
%ADD12R,2.000000X2.000000*%
%TD*%
%TA.AperFunction,ComponentPad*%
%ADD13C,2.000000*%
%TD*%
%TA.AperFunction,ComponentPad*%
%ADD14R,1.300000X1.300000*%
%TD*%
%TA.AperFunction,ComponentPad*%
%ADD15C,1.300000*%
%TD*%
G04 APERTURE END LIST*
D10*
%TO.P,J7,1*%
%TO.N,RTD1_P*%
X70000000Y-5000000D03*
D11*
%TO.P,J7,2*%
%TO.N,RTD1_N*%
X70000000Y-7500000D03*
%TD*%
D10*
%TO.P,J8,1*%
%TO.N,RTD2_P*%
X70000000Y-14000000D03*
D11*
%TO.P,J8,2*%
%TO.N,RTD2_N*%
X70000000Y-16500000D03*
%TD*%
D12*
%TO.P,C1,1*%
%TO.N,~{VCC_5V}*%
X79000000Y-14000000D03*
D13*
%TO.P,C1,2*%
%TO.N,GND*%
X84000000Y-14000000D03*
%TD*%
%TO.P,J10,1*%
%TO.N,ANT_GSM*%
X97000000Y-62000000D03*
%TO.P,J10,2*%
%TO.N,GND*%
X93950000Y-58950000D03*
%TO.P,J10,3*%
X100050000Y-58950000D03*
%TO.P,J10,4*%
X93950000Y-65050000D03*
%TO.P,J10,5*%
X100050000Y-65050000D03*
%TD*%
D14*
%TO.P,J1,1*%
%TO.N,GND*%
X50000000Y-18000000D03*
D15*
%TO.P,J1,2*%
X52540000Y-18000000D03*
%TO.P,J1,3*%
%TO.N,~{VCC_3V3}*%
X50000000Y-20540000D03*
%TO.P,J1,4*%
%TO.N,~{VCC_5V}*%
X52540000Y-20540000D03*
%TO.P,J1,5*%
%TO.N,BAT*%
X50000000Y-23080000D03*
%TO.P,J1,6*%
%TO.N,CS_MAX1*%
X52540000Y-23080000D03*
%TO.P,J1,7*%
%TO.N,CLK_SPI*%
X50000000Y-25620000D03*
%TO.P,J1,8*%
%TO.N,CS_MAX2*%
X52540000Y-25620000D03*
%TO.P,J1,9*%
%TO.N,MOSI_SPI*%
X50000000Y-28160000D03*
%TO.P,J1,10*%
%TO.N,MISO_SPI*%
X52540000Y-28160000D03*
%TO.P,J1,11*%
%TO.N,I2C_SCL*%
X50000000Y-30700000D03*
%TO.P,J1,12*%
%TO.N,I2C_SDA*%
X52540000Y-30700000D03*
%TO.P,J1,13*%
%TO.N,TXD_SIM*%
X50000000Y-33240000D03*
%TO.P,J1,14*%
%TO.N,RXD_SIM*%
X52540000Y-33240000D03*
%TO.P,J1,15*%
%TO.N,GPIO1*%
X50000000Y-35780000D03*
%TO.P,J1,16*%
%TO.N,GPIO2*%
X52540000Y-35780000D03*
%TO.P,J1,17*%
%TO.N,GPIO3*%
X50000000Y-38320000D03*
%TO.P,J1,18*%
%TO.N,GPIO4*%
X52540000Y-38320000D03*
%TO.P,J1,19*%
%TO.N,GPIO5*%
X50000000Y-40860000D03*
%TO.P,J1,20*%
%TO.N,GPIO6*%
X52540000Y-40860000D03*
%TO.P,J1,21*%
%TO.N,GPIO7*%
X50000000Y-43400000D03*
%TO.P,J1,22*%
%TO.N,GPIO8*%
X52540000Y-43400000D03*
%TO.P,J1,23*%
%TO.N,GPIO9*%
X50000000Y-45940000D03*
%TO.P,J1,24*%
%TO.N,GPIO10*%
X52540000Y-45940000D03*
%TO.P,J1,25*%
%TO.N,GPIO11*%
X50000000Y-48480000D03*
%TO.P,J1,26*%
%TO.N,GPIO12*%
X52540000Y-48480000D03*
%TO.P,J1,27*%
%TO.N,GPIO13*%
X50000000Y-51020000D03*
%TO.P,J1,28*%
%TO.N,GPIO14*%
X52540000Y-51020000D03*
%TO.P,J1,29*%
%TO.N,GPIO15*%
X50000000Y-53560000D03*
%TO.P,J1,30*%
%TO.N,GPIO16*%
X52540000Y-53560000D03*
%TO.P,J1,31*%
%TO.N,GPIO17*%
X50000000Y-56100000D03*
%TO.P,J1,32*%
%TO.N,N/C*%
X52540000Y-56100000D03*
%TD*%
D14*
%TO.P,J3,1*%
%TO.N,~{VCC_3V3}*%
X5000000Y-5000000D03*
D15*
%TO.P,J3,2*%
%TO.N,GND*%
X7540000Y-5000000D03*
%TO.P,J3,3*%
%TO.N,CLK_SPI*%
X5000000Y-7540000D03*
%TO.P,J3,4*%
%TO.N,MISO_SPI*%
X7540000Y-7540000D03*
%TO.P,J3,5*%
%TO.N,MOSI_SPI*%
X5000000Y-10080000D03*
%TO.P,J3,6*%
%TO.N,CS_MAX1*%
X7540000Y-10080000D03*
%TO.P,J3,7*%
%TO.N,RTD1_P*%
X5000000Y-12620000D03*
%TO.P,J3,8*%
%TO.N,RTD1_N*%
X7540000Y-12620000D03*
%TD*%
D10*
%TO.P,J6,1*%
%TO.N,~{VCC_3V3}*%
X60000000Y-22000000D03*
D11*
%TO.P,J6,2*%
%TO.N,GND*%
X60000000Y-24500000D03*
%TO.P,J6,3*%
%TO.N,I2C_SDA*%
X60000000Y-27000000D03*
%TO.P,J6,4*%
%TO.N,I2C_SCL*%
X60000000Y-29500000D03*
%TD*%
D10*
%TO.P,J5,1*%
%TO.N,~{VCC_3V3}*%
X60000000Y-5000000D03*
D11*
%TO.P,J5,2*%
%TO.N,GND*%
X60000000Y-7500000D03*
%TO.P,J5,3*%
%TO.N,I2C_SDA*%
X60000000Y-10000000D03*
%TO.P,J5,4*%
%TO.N,I2C_SCL*%
X60000000Y-12500000D03*
%TD*%
D14*
%TO.P,J2,1*%
%TO.N,~{VCC_5V}*%
X90000000Y-14190000D03*
D15*
%TO.P,J2,2*%
%TO.N,GND*%
X90000000Y-16730000D03*
%TO.P,J2,3*%
%TO.N,TXD_SIM*%
X90000000Y-19270000D03*
%TO.P,J2,4*%
%TO.N,RXD_SIM*%
X90000000Y-21810000D03*
%TO.P,J2,5*%
%TO.N,RST_SIM*%
X90000000Y-24350000D03*
%TO.P,J2,6*%
%TO.N,PWR_SIM*%
X90000000Y-26890000D03*
%TD*%
D14*
%TO.P,J4,1*%
%TO.N,~{VCC_3V3}*%
X5000000Y-22000000D03*
D15*
%TO.P,J4,2*%
%TO.N,GND*%
X7540000Y-22000000D03*
%TO.P,J4,3*%
%TO.N,CLK_SPI*%
X5000000Y-24540000D03*
%TO.P,J4,4*%
%TO.N,MISO_SPI*%
X7540000Y-24540000D03*
%TO.P,J4,5*%
%TO.N,MOSI_SPI*%
X5000000Y-27080000D03*
%TO.P,J4,6*%
%TO.N,CS_MAX2*%
X7540000Y-27080000D03*
%TO.P,J4,7*%
%TO.N,RTD2_P*%
X5000000Y-29620000D03*
%TO.P,J4,8*%
%TO.N,RTD2_N*%
X7540000Y-29620000D03*
%TD*%
D10*
%TO.P,J9,1*%
%TO.N,BAT*%
X5000000Y-67000000D03*
D11*
%TO.P,J9,2*%
%TO.N,GND*%
X5000000Y-69500000D03*
%TD*%
%TA.AperFunction,Conductor*%
%TO.N,GND*%
G36*
X109442539Y-520185D02*
G01*
X109488294Y-572989D01*
X109499500Y-624500D01*
X109499500Y-79375500D01*
X109479815Y-79442539D01*
X109427011Y-79488294D01*
X109375500Y-79499500D01*
X624500Y-79499500D01*
X557461Y-79479815D01*
X511706Y-79427011D01*
X500500Y-79375500D01*
X500500Y-69397682D01*
X3700000Y-69397682D01*
X3700000Y-69602317D01*
X3732009Y-69804417D01*
X3795244Y-69999031D01*
X3888140Y-70181349D01*
X3994913Y-70328308D01*
X3994914Y-70328309D01*
X4605872Y-69717350D01*
X4639910Y-69776306D01*
X4723694Y-69860090D01*
X4782648Y-69894127D01*
X4171689Y-70505085D01*
X4318650Y-70611859D01*
X4500968Y-70704755D01*
X4695582Y-70767990D01*
X4897683Y-70800000D01*
X5102317Y-70800000D01*
X5304417Y-70767990D01*
X5499031Y-70704755D01*
X5681349Y-70611859D01*
X5828308Y-70505085D01*
X5828309Y-70505084D01*
X5217352Y-69894127D01*
X5276306Y-69860090D01*
X5360090Y-69776306D01*
X5394127Y-69717351D01*
X6005084Y-70328309D01*
X6005085Y-70328308D01*
X6111859Y-70181349D01*
X6204755Y-69999031D01*
X6267990Y-69804417D01*
X6300000Y-69602317D01*
X6300000Y-69397682D01*
X6267990Y-69195582D01*
X6204755Y-69000968D01*
X6111859Y-68818650D01*
X6005085Y-68671690D01*
X6005085Y-68671689D01*
X5394126Y-69282647D01*
X5360090Y-69223694D01*
X5276306Y-69139910D01*
X5217351Y-69105872D01*
X5828309Y-68494914D01*
X5828308Y-68494913D01*
X5681349Y-68388140D01*
X5499031Y-68295244D01*
X5336490Y-68242431D01*
X5278815Y-68202993D01*
X5251617Y-68138634D01*
X5263532Y-68069788D01*
X5310776Y-68018312D01*
X5374809Y-68000500D01*
X5819750Y-68000500D01*
X5819751Y-68000499D01*
X5834568Y-67997552D01*
X5878229Y-67988868D01*
X5878229Y-67988867D01*
X5878231Y-67988867D01*
X5944552Y-67944552D01*
X5988867Y-67878231D01*
X5988867Y-67878229D01*
X5988868Y-67878229D01*
X6000499Y-67819752D01*
X6000500Y-67819750D01*
X6000500Y-66180249D01*
X6000499Y-66180247D01*
X5999496Y-66175201D01*
X5988868Y-66121770D01*
X5988867Y-66121769D01*
X5944552Y-66055447D01*
X5878230Y-66011132D01*
X5878229Y-66011131D01*
X5819752Y-65999500D01*
X5819748Y-65999500D01*
X4180252Y-65999500D01*
X4180247Y-65999500D01*
X4121770Y-66011131D01*
X4121769Y-66011132D01*
X4055447Y-66055447D01*
X4011132Y-66121769D01*
X4011131Y-66121770D01*
X3999500Y-66180247D01*
X3999500Y-67819752D01*
X4011131Y-67878229D01*
X4011132Y-67878230D01*
X4055447Y-67944552D01*
X4121769Y-67988867D01*
X4121770Y-67988868D01*
X4180247Y-68000499D01*
X4180250Y-68000500D01*
X4625191Y-68000500D01*
X4692230Y-68020185D01*
X4737985Y-68072989D01*
X4747929Y-68142147D01*
X4718904Y-68205703D01*
X4663510Y-68242431D01*
X4500968Y-68295244D01*
X4318649Y-68388141D01*
X4318640Y-68388147D01*
X4171690Y-68494912D01*
X4171689Y-68494913D01*
X4782649Y-69105872D01*
X4723694Y-69139910D01*
X4639910Y-69223694D01*
X4605872Y-69282648D01*
X3994913Y-68671689D01*
X3994912Y-68671690D01*
X3888147Y-68818640D01*
X3888141Y-68818649D01*
X3795244Y-69000968D01*
X3732009Y-69195582D01*
X3700000Y-69397682D01*
X500500Y-69397682D01*
X500500Y-64931947D01*
X92450000Y-64931947D01*
X92450000Y-65168052D01*
X92486934Y-65401247D01*
X92559897Y-65625802D01*
X92667087Y-65836175D01*
X92801728Y-66021493D01*
X92801728Y-66021494D01*
X93410568Y-65412653D01*
X93445112Y-65464351D01*
X93535649Y-65554888D01*
X93587345Y-65589429D01*
X92978504Y-66198269D01*
X92978505Y-66198270D01*
X93163825Y-66332912D01*
X93374197Y-66440102D01*
X93598752Y-66513065D01*
X93598751Y-66513065D01*
X93831948Y-66550000D01*
X94068052Y-66550000D01*
X94301247Y-66513065D01*
X94525802Y-66440102D01*
X94736174Y-66332912D01*
X94921493Y-66198271D01*
X94921494Y-66198269D01*
X94312654Y-65589430D01*
X94364351Y-65554888D01*
X94454888Y-65464351D01*
X94489430Y-65412654D01*
X95098269Y-66021494D01*
X95098271Y-66021493D01*
X95232912Y-65836174D01*
X95340102Y-65625802D01*
X95413065Y-65401247D01*
X95450000Y-65168052D01*
X95450000Y-64931947D01*
X98550000Y-64931947D01*
X98550000Y-65168052D01*
X98586934Y-65401247D01*
X98659897Y-65625802D01*
X98767087Y-65836175D01*
X98901728Y-66021493D01*
X98901728Y-66021494D01*
X99510568Y-65412653D01*
X99545112Y-65464351D01*
X99635649Y-65554888D01*
X99687345Y-65589429D01*
X99078504Y-66198269D01*
X99078505Y-66198270D01*
X99263825Y-66332912D01*
X99474197Y-66440102D01*
X99698752Y-66513065D01*
X99698751Y-66513065D01*
X99931948Y-66550000D01*
X100168052Y-66550000D01*
X100401247Y-66513065D01*
X100625802Y-66440102D01*
X100836174Y-66332912D01*
X101021493Y-66198271D01*
X101021494Y-66198269D01*
X100412654Y-65589430D01*
X100464351Y-65554888D01*
X100554888Y-65464351D01*
X100589430Y-65412654D01*
X101198269Y-66021494D01*
X101198271Y-66021493D01*
X101332912Y-65836174D01*
X101440102Y-65625802D01*
X101513065Y-65401247D01*
X101550000Y-65168052D01*
X101550000Y-64931947D01*
X101513065Y-64698752D01*
X101440102Y-64474197D01*
X101332912Y-64263825D01*
X101198270Y-64078505D01*
X101198269Y-64078504D01*
X100589429Y-64687344D01*
X100554888Y-64635649D01*
X100464351Y-64545112D01*
X100412654Y-64510569D01*
X101021494Y-63901729D01*
X101021493Y-63901728D01*
X100836175Y-63767087D01*
X100625802Y-63659897D01*
X100401247Y-63586934D01*
X100401248Y-63586934D01*
X100168052Y-63550000D01*
X99931948Y-63550000D01*
X99698752Y-63586934D01*
X99474197Y-63659897D01*
X99263830Y-63767084D01*
X99078505Y-63901729D01*
X99687345Y-64510569D01*
X99635649Y-64545112D01*
X99545112Y-64635649D01*
X99510569Y-64687345D01*
X98901729Y-64078505D01*
X98767084Y-64263830D01*
X98659897Y-64474197D01*
X98586934Y-64698752D01*
X98550000Y-64931947D01*
X95450000Y-64931947D01*
X95413065Y-64698752D01*
X95340102Y-64474197D01*
X95232912Y-64263825D01*
X95098270Y-64078505D01*
X95098269Y-64078504D01*
X94489429Y-64687344D01*
X94454888Y-64635649D01*
X94364351Y-64545112D01*
X94312654Y-64510569D01*
X94921494Y-63901729D01*
X94921493Y-63901728D01*
X94736175Y-63767087D01*
X94525802Y-63659897D01*
X94301247Y-63586934D01*
X94301248Y-63586934D01*
X94068052Y-63550000D01*
X93831948Y-63550000D01*
X93598752Y-63586934D01*
X93374197Y-63659897D01*
X93163830Y-63767084D01*
X92978505Y-63901729D01*
X93587345Y-64510569D01*
X93535649Y-64545112D01*
X93445112Y-64635649D01*
X93410569Y-64687345D01*
X92801729Y-64078505D01*
X92667084Y-64263830D01*
X92559897Y-64474197D01*
X92486934Y-64698752D01*
X92450000Y-64931947D01*
X500500Y-64931947D01*
X500500Y-61905513D01*
X95799500Y-61905513D01*
X95799500Y-62094486D01*
X95829059Y-62281118D01*
X95887454Y-62460836D01*
X95973240Y-62629199D01*
X96084310Y-62782073D01*
X96217927Y-62915690D01*
X96370801Y-63026760D01*
X96450347Y-63067290D01*
X96539163Y-63112545D01*
X96539165Y-63112545D01*
X96539168Y-63112547D01*
X96635497Y-63143846D01*
X96718881Y-63170940D01*
X96905514Y-63200500D01*
X96905519Y-63200500D01*
X97094486Y-63200500D01*
X97281118Y-63170940D01*
X97460832Y-63112547D01*
X97629199Y-63026760D01*
X97782073Y-62915690D01*
X97915690Y-62782073D01*
X98026760Y-62629199D01*
X98112547Y-62460832D01*
X98170940Y-62281118D01*
X98200500Y-62094486D01*
X98200500Y-61905513D01*
X98170940Y-61718881D01*
X98112545Y-61539163D01*
X98026759Y-61370800D01*
X97915690Y-61217927D01*
X97782073Y-61084310D01*
X97629199Y-60973240D01*
X97460836Y-60887454D01*
X97281118Y-60829059D01*
X97094486Y-60799500D01*
X97094481Y-60799500D01*
X96905519Y-60799500D01*
X96905514Y-60799500D01*
X96718881Y-60829059D01*
X96539163Y-60887454D01*
X96370800Y-60973240D01*
X96283579Y-61036610D01*
X96217927Y-61084310D01*
X96217925Y-61084312D01*
X96217924Y-61084312D01*
X96084312Y-61217924D01*
X96084312Y-61217925D01*
X96084310Y-61217927D01*
X96036610Y-61283579D01*
X95973240Y-61370800D01*
X95887454Y-61539163D01*
X95829059Y-61718881D01*
X95799500Y-61905513D01*
X500500Y-61905513D01*
X500500Y-58831947D01*
X92450000Y-58831947D01*
X92450000Y-59068052D01*
X92486934Y-59301247D01*
X92559897Y-59525802D01*
X92667087Y-59736175D01*
X92801728Y-59921493D01*
X92801728Y-59921494D01*
X93410568Y-59312653D01*
X93445112Y-59364351D01*
X93535649Y-59454888D01*
X93587345Y-59489429D01*
X92978504Y-60098269D01*
X92978505Y-60098270D01*
X93163825Y-60232912D01*
X93374197Y-60340102D01*
X93598752Y-60413065D01*
X93598751Y-60413065D01*
X93831948Y-60450000D01*
X94068052Y-60450000D01*
X94301247Y-60413065D01*
X94525802Y-60340102D01*
X94736174Y-60232912D01*
X94921493Y-60098271D01*
X94921494Y-60098269D01*
X94312654Y-59489430D01*
X94364351Y-59454888D01*
X94454888Y-59364351D01*
X94489430Y-59312654D01*
X95098269Y-59921494D01*
X95098271Y-59921493D01*
X95232912Y-59736174D01*
X95340102Y-59525802D01*
X95413065Y-59301247D01*
X95450000Y-59068052D01*
X95450000Y-58831947D01*
X98550000Y-58831947D01*
X98550000Y-59068052D01*
X98586934Y-59301247D01*
X98659897Y-59525802D01*
X98767087Y-59736175D01*
X98901728Y-59921493D01*
X98901728Y-59921494D01*
X99510568Y-59312653D01*
X99545112Y-59364351D01*
X99635649Y-59454888D01*
X99687345Y-59489429D01*
X99078504Y-60098269D01*
X99078505Y-60098270D01*
X99263825Y-60232912D01*
X99474197Y-60340102D01*
X99698752Y-60413065D01*
X99698751Y-60413065D01*
X99931948Y-60450000D01*
X100168052Y-60450000D01*
X100401247Y-60413065D01*
X100625802Y-60340102D01*
X100836174Y-60232912D01*
X101021493Y-60098271D01*
X101021494Y-60098269D01*
X100412654Y-59489430D01*
X100464351Y-59454888D01*
X100554888Y-59364351D01*
X100589430Y-59312654D01*
X101198269Y-59921494D01*
X101198271Y-59921493D01*
X101332912Y-59736174D01*
X101440102Y-59525802D01*
X101513065Y-59301247D01*
X101550000Y-59068052D01*
X101550000Y-58831947D01*
X101513065Y-58598752D01*
X101440102Y-58374197D01*
X101332912Y-58163825D01*
X101198270Y-57978505D01*
X101198269Y-57978504D01*
X100589429Y-58587344D01*
X100554888Y-58535649D01*
X100464351Y-58445112D01*
X100412654Y-58410569D01*
X101021494Y-57801729D01*
X101021493Y-57801728D01*
X100836175Y-57667087D01*
X100625802Y-57559897D01*
X100401247Y-57486934D01*
X100401248Y-57486934D01*
X100168052Y-57450000D01*
X99931948Y-57450000D01*
X99698752Y-57486934D01*
X99474197Y-57559897D01*
X99263830Y-57667084D01*
X99078505Y-57801729D01*
X99687345Y-58410569D01*
X99635649Y-58445112D01*
X99545112Y-58535649D01*
X99510569Y-58587345D01*
X98901729Y-57978505D01*
X98767084Y-58163830D01*
X98659897Y-58374197D01*
X98586934Y-58598752D01*
X98550000Y-58831947D01*
X95450000Y-58831947D01*
X95413065Y-58598752D01*
X95340102Y-58374197D01*
X95232912Y-58163825D01*
X95098270Y-57978505D01*
X95098269Y-57978504D01*
X94489429Y-58587344D01*
X94454888Y-58535649D01*
X94364351Y-58445112D01*
X94312654Y-58410569D01*
X94921494Y-57801729D01*
X94921493Y-57801728D01*
X94736175Y-57667087D01*
X94525802Y-57559897D01*
X94301247Y-57486934D01*
X94301248Y-57486934D01*
X94068052Y-57450000D01*
X93831948Y-57450000D01*
X93598752Y-57486934D01*
X93374197Y-57559897D01*
X93163830Y-57667084D01*
X92978505Y-57801729D01*
X93587345Y-58410569D01*
X93535649Y-58445112D01*
X93445112Y-58535649D01*
X93410569Y-58587345D01*
X92801729Y-57978505D01*
X92667084Y-58163830D01*
X92559897Y-58374197D01*
X92486934Y-58598752D01*
X92450000Y-58831947D01*
X500500Y-58831947D01*
X500500Y-56016228D01*
X49149500Y-56016228D01*
X49149500Y-56183771D01*
X49182182Y-56348074D01*
X49182184Y-56348082D01*
X49246295Y-56502860D01*
X49339373Y-56642162D01*
X49457837Y-56760626D01*
X49550494Y-56822537D01*
X49597137Y-56853703D01*
X49751918Y-56917816D01*
X49916228Y-56950499D01*
X49916232Y-56950500D01*
X49916233Y-56950500D01*
X50083768Y-56950500D01*
X50083769Y-56950499D01*
X50248082Y-56917816D01*
X50402863Y-56853703D01*
X50542162Y-56760626D01*
X50660626Y-56642162D01*
X50753703Y-56502863D01*
X50817816Y-56348082D01*
X50850500Y-56183767D01*
X50850500Y-56016233D01*
X50850499Y-56016228D01*
X51689500Y-56016228D01*
X51689500Y-56183771D01*
X51722182Y-56348074D01*
X51722184Y-56348082D01*
X51786295Y-56502860D01*
X51879373Y-56642162D01*
X51997837Y-56760626D01*
X52090494Y-56822537D01*
X52137137Y-56853703D01*
X52291918Y-56917816D01*
X52456228Y-56950499D01*
X52456232Y-56950500D01*
X52456233Y-56950500D01*
X52623768Y-56950500D01*
X52623769Y-56950499D01*
X52788082Y-56917816D01*
X52942863Y-56853703D01*
X53082162Y-56760626D01*
X53200626Y-56642162D01*
X53293703Y-56502863D01*
X53357816Y-56348082D01*
X53390500Y-56183767D01*
X53390500Y-56016233D01*
X53357816Y-55851918D01*
X53293703Y-55697137D01*
X53262537Y-55650494D01*
X53200626Y-55557837D01*
X53082162Y-55439373D01*
X52942860Y-55346295D01*
X52788082Y-55282184D01*
X52788074Y-55282182D01*
X52623771Y-55249500D01*
X52623767Y-55249500D01*
X52456233Y-55249500D01*
X52456228Y-55249500D01*
X52291925Y-55282182D01*
X52291917Y-55282184D01*
X52137139Y-55346295D01*
X51997837Y-55439373D01*
X51879373Y-55557837D01*
X51786295Y-55697139D01*
X51722184Y-55851917D01*
X51722182Y-55851925D01*
X51689500Y-56016228D01*
X50850499Y-56016228D01*
X50817816Y-55851918D01*
X50753703Y-55697137D01*
X50722537Y-55650494D01*
X50660626Y-55557837D01*
X50542162Y-55439373D01*
X50402860Y-55346295D01*
X50248082Y-55282184D01*
X50248074Y-55282182D01*
X50083771Y-55249500D01*
X50083767Y-55249500D01*
X49916233Y-55249500D01*
X49916228Y-55249500D01*
X49751925Y-55282182D01*
X49751917Y-55282184D01*
X49597139Y-55346295D01*
X49457837Y-55439373D01*
X49339373Y-55557837D01*
X49246295Y-55697139D01*
X49182184Y-55851917D01*
X49182182Y-55851925D01*
X49149500Y-56016228D01*
X500500Y-56016228D01*
X500500Y-53476228D01*
X49149500Y-53476228D01*
X49149500Y-53643771D01*
X49182182Y-53808074D01*
X49182184Y-53808082D01*
X49246295Y-53962860D01*
X49339373Y-54102162D01*
X49457837Y-54220626D01*
X49550494Y-54282537D01*
X49597137Y-54313703D01*
X49751918Y-54377816D01*
X49916228Y-54410499D01*
X49916232Y-54410500D01*
X49916233Y-54410500D01*
X50083768Y-54410500D01*
X50083769Y-54410499D01*
X50248082Y-54377816D01*
X50402863Y-54313703D01*
X50542162Y-54220626D01*
X50660626Y-54102162D01*
X50753703Y-53962863D01*
X50817816Y-53808082D01*
X50850500Y-53643767D01*
X50850500Y-53476233D01*
X50850499Y-53476228D01*
X51689500Y-53476228D01*
X51689500Y-53643771D01*
X51722182Y-53808074D01*
X51722184Y-53808082D01*
X51786295Y-53962860D01*
X51879373Y-54102162D01*
X51997837Y-54220626D01*
X52090494Y-54282537D01*
X52137137Y-54313703D01*
X52291918Y-54377816D01*
X52456228Y-54410499D01*
X52456232Y-54410500D01*
X52456233Y-54410500D01*
X52623768Y-54410500D01*
X52623769Y-54410499D01*
X52788082Y-54377816D01*
X52942863Y-54313703D01*
X53082162Y-54220626D01*
X53200626Y-54102162D01*
X53293703Y-53962863D01*
X53357816Y-53808082D01*
X53390500Y-53643767D01*
X53390500Y-53476233D01*
X53357816Y-53311918D01*
X53293703Y-53157137D01*
X53262537Y-53110494D01*
X53200626Y-53017837D01*
X53082162Y-52899373D01*
X52942860Y-52806295D01*
X52788082Y-52742184D01*
X52788074Y-52742182D01*
X52623771Y-52709500D01*
X52623767Y-52709500D01*
X52456233Y-52709500D01*
X52456228Y-52709500D01*
X52291925Y-52742182D01*
X52291917Y-52742184D01*
X52137139Y-52806295D01*
X51997837Y-52899373D01*
X51879373Y-53017837D01*
X51786295Y-53157139D01*
X51722184Y-53311917D01*
X51722182Y-53311925D01*
X51689500Y-53476228D01*
X50850499Y-53476228D01*
X50817816Y-53311918D01*
X50753703Y-53157137D01*
X50722537Y-53110494D01*
X50660626Y-53017837D01*
X50542162Y-52899373D01*
X50402860Y-52806295D01*
X50248082Y-52742184D01*
X50248074Y-52742182D01*
X50083771Y-52709500D01*
X50083767Y-52709500D01*
X49916233Y-52709500D01*
X49916228Y-52709500D01*
X49751925Y-52742182D01*
X49751917Y-52742184D01*
X49597139Y-52806295D01*
X49457837Y-52899373D01*
X49339373Y-53017837D01*
X49246295Y-53157139D01*
X49182184Y-53311917D01*
X49182182Y-53311925D01*
X49149500Y-53476228D01*
X500500Y-53476228D01*
X500500Y-50936228D01*
X49149500Y-50936228D01*
X49149500Y-51103771D01*
X49182182Y-51268074D01*
X49182184Y-51268082D01*
X49246295Y-51422860D01*
X49339373Y-51562162D01*
X49457837Y-51680626D01*
X49550494Y-51742537D01*
X49597137Y-51773703D01*
X49751918Y-51837816D01*
X49916228Y-51870499D01*
X49916232Y-51870500D01*
X49916233Y-51870500D01*
X50083768Y-51870500D01*
X50083769Y-51870499D01*
X50248082Y-51837816D01*
X50402863Y-51773703D01*
X50542162Y-51680626D01*
X50660626Y-51562162D01*
X50753703Y-51422863D01*
X50817816Y-51268082D01*
X50850500Y-51103767D01*
X50850500Y-50936233D01*
X50850499Y-50936228D01*
X51689500Y-50936228D01*
X51689500Y-51103771D01*
X51722182Y-51268074D01*
X51722184Y-51268082D01*
X51786295Y-51422860D01*
X51879373Y-51562162D01*
X51997837Y-51680626D01*
X52090494Y-51742537D01*
X52137137Y-51773703D01*
X52291918Y-51837816D01*
X52456228Y-51870499D01*
X52456232Y-51870500D01*
X52456233Y-51870500D01*
X52623768Y-51870500D01*
X52623769Y-51870499D01*
X52788082Y-51837816D01*
X52942863Y-51773703D01*
X53082162Y-51680626D01*
X53200626Y-51562162D01*
X53293703Y-51422863D01*
X53357816Y-51268082D01*
X53390500Y-51103767D01*
X53390500Y-50936233D01*
X53357816Y-50771918D01*
X53293703Y-50617137D01*
X53262537Y-50570494D01*
X53200626Y-50477837D01*
X53082162Y-50359373D01*
X52942860Y-50266295D01*
X52788082Y-50202184D01*
X52788074Y-50202182D01*
X52623771Y-50169500D01*
X52623767Y-50169500D01*
X52456233Y-50169500D01*
X52456228Y-50169500D01*
X52291925Y-50202182D01*
X52291917Y-50202184D01*
X52137139Y-50266295D01*
X51997837Y-50359373D01*
X51879373Y-50477837D01*
X51786295Y-50617139D01*
X51722184Y-50771917D01*
X51722182Y-50771925D01*
X51689500Y-50936228D01*
X50850499Y-50936228D01*
X50817816Y-50771918D01*
X50753703Y-50617137D01*
X50722537Y-50570494D01*
X50660626Y-50477837D01*
X50542162Y-50359373D01*
X50402860Y-50266295D01*
X50248082Y-50202184D01*
X50248074Y-50202182D01*
X50083771Y-50169500D01*
X50083767Y-50169500D01*
X49916233Y-50169500D01*
X49916228Y-50169500D01*
X49751925Y-50202182D01*
X49751917Y-50202184D01*
X49597139Y-50266295D01*
X49457837Y-50359373D01*
X49339373Y-50477837D01*
X49246295Y-50617139D01*
X49182184Y-50771917D01*
X49182182Y-50771925D01*
X49149500Y-50936228D01*
X500500Y-50936228D01*
X500500Y-48396228D01*
X49149500Y-48396228D01*
X49149500Y-48563771D01*
X49182182Y-48728074D01*
X49182184Y-48728082D01*
X49246295Y-48882860D01*
X49339373Y-49022162D01*
X49457837Y-49140626D01*
X49550494Y-49202537D01*
X49597137Y-49233703D01*
X49751918Y-49297816D01*
X49916228Y-49330499D01*
X49916232Y-49330500D01*
X49916233Y-49330500D01*
X50083768Y-49330500D01*
X50083769Y-49330499D01*
X50248082Y-49297816D01*
X50402863Y-49233703D01*
X50542162Y-49140626D01*
X50660626Y-49022162D01*
X50753703Y-48882863D01*
X50817816Y-48728082D01*
X50850500Y-48563767D01*
X50850500Y-48396233D01*
X50850499Y-48396228D01*
X51689500Y-48396228D01*
X51689500Y-48563771D01*
X51722182Y-48728074D01*
X51722184Y-48728082D01*
X51786295Y-48882860D01*
X51879373Y-49022162D01*
X51997837Y-49140626D01*
X52090494Y-49202537D01*
X52137137Y-49233703D01*
X52291918Y-49297816D01*
X52456228Y-49330499D01*
X52456232Y-49330500D01*
X52456233Y-49330500D01*
X52623768Y-49330500D01*
X52623769Y-49330499D01*
X52788082Y-49297816D01*
X52942863Y-49233703D01*
X53082162Y-49140626D01*
X53200626Y-49022162D01*
X53293703Y-48882863D01*
X53357816Y-48728082D01*
X53390500Y-48563767D01*
X53390500Y-48396233D01*
X53357816Y-48231918D01*
X53293703Y-48077137D01*
X53262537Y-48030494D01*
X53200626Y-47937837D01*
X53082162Y-47819373D01*
X52942860Y-47726295D01*
X52788082Y-47662184D01*
X52788074Y-47662182D01*
X52623771Y-47629500D01*
X52623767Y-47629500D01*
X52456233Y-47629500D01*
X52456228Y-47629500D01*
X52291925Y-47662182D01*
X52291917Y-47662184D01*
X52137139Y-47726295D01*
X51997837Y-47819373D01*
X51879373Y-47937837D01*
X51786295Y-48077139D01*
X51722184Y-48231917D01*
X51722182Y-48231925D01*
X51689500Y-48396228D01*
X50850499Y-48396228D01*
X50817816Y-48231918D01*
X50753703Y-48077137D01*
X50722537Y-48030494D01*
X50660626Y-47937837D01*
X50542162Y-47819373D01*
X50402860Y-47726295D01*
X50248082Y-47662184D01*
X50248074Y-47662182D01*
X50083771Y-47629500D01*
X50083767Y-47629500D01*
X49916233Y-47629500D01*
X49916228Y-47629500D01*
X49751925Y-47662182D01*
X49751917Y-47662184D01*
X49597139Y-47726295D01*
X49457837Y-47819373D01*
X49339373Y-47937837D01*
X49246295Y-48077139D01*
X49182184Y-48231917D01*
X49182182Y-48231925D01*
X49149500Y-48396228D01*
X500500Y-48396228D01*
X500500Y-45856228D01*
X49149500Y-45856228D01*
X49149500Y-46023771D01*
X49182182Y-46188074D01*
X49182184Y-46188082D01*
X49246295Y-46342860D01*
X49339373Y-46482162D01*
X49457837Y-46600626D01*
X49550494Y-46662537D01*
X49597137Y-46693703D01*
X49751918Y-46757816D01*
X49916228Y-46790499D01*
X49916232Y-46790500D01*
X49916233Y-46790500D01*
X50083768Y-46790500D01*
X50083769Y-46790499D01*
X50248082Y-46757816D01*
X50402863Y-46693703D01*
X50542162Y-46600626D01*
X50660626Y-46482162D01*
X50753703Y-46342863D01*
X50817816Y-46188082D01*
X50850500Y-46023767D01*
X50850500Y-45856233D01*
X50850499Y-45856228D01*
X51689500Y-45856228D01*
X51689500Y-46023771D01*
X51722182Y-46188074D01*
X51722184Y-46188082D01*
X51786295Y-46342860D01*
X51879373Y-46482162D01*
X51997837Y-46600626D01*
X52090494Y-46662537D01*
X52137137Y-46693703D01*
X52291918Y-46757816D01*
X52456228Y-46790499D01*
X52456232Y-46790500D01*
X52456233Y-46790500D01*
X52623768Y-46790500D01*
X52623769Y-46790499D01*
X52788082Y-46757816D01*
X52942863Y-46693703D01*
X53082162Y-46600626D01*
X53200626Y-46482162D01*
X53293703Y-46342863D01*
X53357816Y-46188082D01*
X53390500Y-46023767D01*
X53390500Y-45856233D01*
X53357816Y-45691918D01*
X53293703Y-45537137D01*
X53262537Y-45490494D01*
X53200626Y-45397837D01*
X53082162Y-45279373D01*
X52942860Y-45186295D01*
X52788082Y-45122184D01*
X52788074Y-45122182D01*
X52623771Y-45089500D01*
X52623767Y-45089500D01*
X52456233Y-45089500D01*
X52456228Y-45089500D01*
X52291925Y-45122182D01*
X52291917Y-45122184D01*
X52137139Y-45186295D01*
X51997837Y-45279373D01*
X51879373Y-45397837D01*
X51786295Y-45537139D01*
X51722184Y-45691917D01*
X51722182Y-45691925D01*
X51689500Y-45856228D01*
X50850499Y-45856228D01*
X50817816Y-45691918D01*
X50753703Y-45537137D01*
X50722537Y-45490494D01*
X50660626Y-45397837D01*
X50542162Y-45279373D01*
X50402860Y-45186295D01*
X50248082Y-45122184D01*
X50248074Y-45122182D01*
X50083771Y-45089500D01*
X50083767Y-45089500D01*
X49916233Y-45089500D01*
X49916228Y-45089500D01*
X49751925Y-45122182D01*
X49751917Y-45122184D01*
X49597139Y-45186295D01*
X49457837Y-45279373D01*
X49339373Y-45397837D01*
X49246295Y-45537139D01*
X49182184Y-45691917D01*
X49182182Y-45691925D01*
X49149500Y-45856228D01*
X500500Y-45856228D01*
X500500Y-43316228D01*
X49149500Y-43316228D01*
X49149500Y-43483771D01*
X49182182Y-43648074D01*
X49182184Y-43648082D01*
X49246295Y-43802860D01*
X49339373Y-43942162D01*
X49457837Y-44060626D01*
X49550494Y-44122537D01*
X49597137Y-44153703D01*
X49751918Y-44217816D01*
X49916228Y-44250499D01*
X49916232Y-44250500D01*
X49916233Y-44250500D01*
X50083768Y-44250500D01*
X50083769Y-44250499D01*
X50248082Y-44217816D01*
X50402863Y-44153703D01*
X50542162Y-44060626D01*
X50660626Y-43942162D01*
X50753703Y-43802863D01*
X50817816Y-43648082D01*
X50850500Y-43483767D01*
X50850500Y-43316233D01*
X50850499Y-43316228D01*
X51689500Y-43316228D01*
X51689500Y-43483771D01*
X51722182Y-43648074D01*
X51722184Y-43648082D01*
X51786295Y-43802860D01*
X51879373Y-43942162D01*
X51997837Y-44060626D01*
X52090494Y-44122537D01*
X52137137Y-44153703D01*
X52291918Y-44217816D01*
X52456228Y-44250499D01*
X52456232Y-44250500D01*
X52456233Y-44250500D01*
X52623768Y-44250500D01*
X52623769Y-44250499D01*
X52788082Y-44217816D01*
X52942863Y-44153703D01*
X53082162Y-44060626D01*
X53200626Y-43942162D01*
X53293703Y-43802863D01*
X53357816Y-43648082D01*
X53390500Y-43483767D01*
X53390500Y-43316233D01*
X53357816Y-43151918D01*
X53293703Y-42997137D01*
X53262537Y-42950494D01*
X53200626Y-42857837D01*
X53082162Y-42739373D01*
X52942860Y-42646295D01*
X52788082Y-42582184D01*
X52788074Y-42582182D01*
X52623771Y-42549500D01*
X52623767Y-42549500D01*
X52456233Y-42549500D01*
X52456228Y-42549500D01*
X52291925Y-42582182D01*
X52291917Y-42582184D01*
X52137139Y-42646295D01*
X51997837Y-42739373D01*
X51879373Y-42857837D01*
X51786295Y-42997139D01*
X51722184Y-43151917D01*
X51722182Y-43151925D01*
X51689500Y-43316228D01*
X50850499Y-43316228D01*
X50817816Y-43151918D01*
X50753703Y-42997137D01*
X50722537Y-42950494D01*
X50660626Y-42857837D01*
X50542162Y-42739373D01*
X50402860Y-42646295D01*
X50248082Y-42582184D01*
X50248074Y-42582182D01*
X50083771Y-42549500D01*
X50083767Y-42549500D01*
X49916233Y-42549500D01*
X49916228Y-42549500D01*
X49751925Y-42582182D01*
X49751917Y-42582184D01*
X49597139Y-42646295D01*
X49457837Y-42739373D01*
X49339373Y-42857837D01*
X49246295Y-42997139D01*
X49182184Y-43151917D01*
X49182182Y-43151925D01*
X49149500Y-43316228D01*
X500500Y-43316228D01*
X500500Y-40776228D01*
X49149500Y-40776228D01*
X49149500Y-40943771D01*
X49182182Y-41108074D01*
X49182184Y-41108082D01*
X49246295Y-41262860D01*
X49339373Y-41402162D01*
X49457837Y-41520626D01*
X49550494Y-41582537D01*
X49597137Y-41613703D01*
X49751918Y-41677816D01*
X49916228Y-41710499D01*
X49916232Y-41710500D01*
X49916233Y-41710500D01*
X50083768Y-41710500D01*
X50083769Y-41710499D01*
X50248082Y-41677816D01*
X50402863Y-41613703D01*
X50542162Y-41520626D01*
X50660626Y-41402162D01*
X50753703Y-41262863D01*
X50817816Y-41108082D01*
X50850500Y-40943767D01*
X50850500Y-40776233D01*
X50850499Y-40776228D01*
X51689500Y-40776228D01*
X51689500Y-40943771D01*
X51722182Y-41108074D01*
X51722184Y-41108082D01*
X51786295Y-41262860D01*
X51879373Y-41402162D01*
X51997837Y-41520626D01*
X52090494Y-41582537D01*
X52137137Y-41613703D01*
X52291918Y-41677816D01*
X52456228Y-41710499D01*
X52456232Y-41710500D01*
X52456233Y-41710500D01*
X52623768Y-41710500D01*
X52623769Y-41710499D01*
X52788082Y-41677816D01*
X52942863Y-41613703D01*
X53082162Y-41520626D01*
X53200626Y-41402162D01*
X53293703Y-41262863D01*
X53357816Y-41108082D01*
X53390500Y-40943767D01*
X53390500Y-40776233D01*
X53357816Y-40611918D01*
X53293703Y-40457137D01*
X53262537Y-40410494D01*
X53200626Y-40317837D01*
X53082162Y-40199373D01*
X52942860Y-40106295D01*
X52788082Y-40042184D01*
X52788074Y-40042182D01*
X52623771Y-40009500D01*
X52623767Y-40009500D01*
X52456233Y-40009500D01*
X52456228Y-40009500D01*
X52291925Y-40042182D01*
X52291917Y-40042184D01*
X52137139Y-40106295D01*
X51997837Y-40199373D01*
X51879373Y-40317837D01*
X51786295Y-40457139D01*
X51722184Y-40611917D01*
X51722182Y-40611925D01*
X51689500Y-40776228D01*
X50850499Y-40776228D01*
X50817816Y-40611918D01*
X50753703Y-40457137D01*
X50722537Y-40410494D01*
X50660626Y-40317837D01*
X50542162Y-40199373D01*
X50402860Y-40106295D01*
X50248082Y-40042184D01*
X50248074Y-40042182D01*
X50083771Y-40009500D01*
X50083767Y-40009500D01*
X49916233Y-40009500D01*
X49916228Y-40009500D01*
X49751925Y-40042182D01*
X49751917Y-40042184D01*
X49597139Y-40106295D01*
X49457837Y-40199373D01*
X49339373Y-40317837D01*
X49246295Y-40457139D01*
X49182184Y-40611917D01*
X49182182Y-40611925D01*
X49149500Y-40776228D01*
X500500Y-40776228D01*
X500500Y-38236228D01*
X49149500Y-38236228D01*
X49149500Y-38403771D01*
X49182182Y-38568074D01*
X49182184Y-38568082D01*
X49246295Y-38722860D01*
X49339373Y-38862162D01*
X49457837Y-38980626D01*
X49550494Y-39042537D01*
X49597137Y-39073703D01*
X49751918Y-39137816D01*
X49916228Y-39170499D01*
X49916232Y-39170500D01*
X49916233Y-39170500D01*
X50083768Y-39170500D01*
X50083769Y-39170499D01*
X50248082Y-39137816D01*
X50402863Y-39073703D01*
X50542162Y-38980626D01*
X50660626Y-38862162D01*
X50753703Y-38722863D01*
X50817816Y-38568082D01*
X50850500Y-38403767D01*
X50850500Y-38236233D01*
X50850499Y-38236228D01*
X51689500Y-38236228D01*
X51689500Y-38403771D01*
X51722182Y-38568074D01*
X51722184Y-38568082D01*
X51786295Y-38722860D01*
X51879373Y-38862162D01*
X51997837Y-38980626D01*
X52090494Y-39042537D01*
X52137137Y-39073703D01*
X52291918Y-39137816D01*
X52456228Y-39170499D01*
X52456232Y-39170500D01*
X52456233Y-39170500D01*
X52623768Y-39170500D01*
X52623769Y-39170499D01*
X52788082Y-39137816D01*
X52942863Y-39073703D01*
X53082162Y-38980626D01*
X53200626Y-38862162D01*
X53293703Y-38722863D01*
X53357816Y-38568082D01*
X53390500Y-38403767D01*
X53390500Y-38236233D01*
X53357816Y-38071918D01*
X53293703Y-37917137D01*
X53262537Y-37870494D01*
X53200626Y-37777837D01*
X53082162Y-37659373D01*
X52942860Y-37566295D01*
X52788082Y-37502184D01*
X52788074Y-37502182D01*
X52623771Y-37469500D01*
X52623767Y-37469500D01*
X52456233Y-37469500D01*
X52456228Y-37469500D01*
X52291925Y-37502182D01*
X52291917Y-37502184D01*
X52137139Y-37566295D01*
X51997837Y-37659373D01*
X51879373Y-37777837D01*
X51786295Y-37917139D01*
X51722184Y-38071917D01*
X51722182Y-38071925D01*
X51689500Y-38236228D01*
X50850499Y-38236228D01*
X50817816Y-38071918D01*
X50753703Y-37917137D01*
X50722537Y-37870494D01*
X50660626Y-37777837D01*
X50542162Y-37659373D01*
X50402860Y-37566295D01*
X50248082Y-37502184D01*
X50248074Y-37502182D01*
X50083771Y-37469500D01*
X50083767Y-37469500D01*
X49916233Y-37469500D01*
X49916228Y-37469500D01*
X49751925Y-37502182D01*
X49751917Y-37502184D01*
X49597139Y-37566295D01*
X49457837Y-37659373D01*
X49339373Y-37777837D01*
X49246295Y-37917139D01*
X49182184Y-38071917D01*
X49182182Y-38071925D01*
X49149500Y-38236228D01*
X500500Y-38236228D01*
X500500Y-35696228D01*
X49149500Y-35696228D01*
X49149500Y-35863771D01*
X49182182Y-36028074D01*
X49182184Y-36028082D01*
X49246295Y-36182860D01*
X49339373Y-36322162D01*
X49457837Y-36440626D01*
X49550494Y-36502537D01*
X49597137Y-36533703D01*
X49751918Y-36597816D01*
X49916228Y-36630499D01*
X49916232Y-36630500D01*
X49916233Y-36630500D01*
X50083768Y-36630500D01*
X50083769Y-36630499D01*
X50248082Y-36597816D01*
X50402863Y-36533703D01*
X50542162Y-36440626D01*
X50660626Y-36322162D01*
X50753703Y-36182863D01*
X50817816Y-36028082D01*
X50850500Y-35863767D01*
X50850500Y-35696233D01*
X50850499Y-35696228D01*
X51689500Y-35696228D01*
X51689500Y-35863771D01*
X51722182Y-36028074D01*
X51722184Y-36028082D01*
X51786295Y-36182860D01*
X51879373Y-36322162D01*
X51997837Y-36440626D01*
X52090494Y-36502537D01*
X52137137Y-36533703D01*
X52291918Y-36597816D01*
X52456228Y-36630499D01*
X52456232Y-36630500D01*
X52456233Y-36630500D01*
X52623768Y-36630500D01*
X52623769Y-36630499D01*
X52788082Y-36597816D01*
X52942863Y-36533703D01*
X53082162Y-36440626D01*
X53200626Y-36322162D01*
X53293703Y-36182863D01*
X53357816Y-36028082D01*
X53390500Y-35863767D01*
X53390500Y-35696233D01*
X53357816Y-35531918D01*
X53293703Y-35377137D01*
X53262537Y-35330494D01*
X53200626Y-35237837D01*
X53082162Y-35119373D01*
X52942860Y-35026295D01*
X52788082Y-34962184D01*
X52788074Y-34962182D01*
X52623771Y-34929500D01*
X52623767Y-34929500D01*
X52456233Y-34929500D01*
X52456228Y-34929500D01*
X52291925Y-34962182D01*
X52291917Y-34962184D01*
X52137139Y-35026295D01*
X51997837Y-35119373D01*
X51879373Y-35237837D01*
X51786295Y-35377139D01*
X51722184Y-35531917D01*
X51722182Y-35531925D01*
X51689500Y-35696228D01*
X50850499Y-35696228D01*
X50817816Y-35531918D01*
X50753703Y-35377137D01*
X50722537Y-35330494D01*
X50660626Y-35237837D01*
X50542162Y-35119373D01*
X50402860Y-35026295D01*
X50248082Y-34962184D01*
X50248074Y-34962182D01*
X50083771Y-34929500D01*
X50083767Y-34929500D01*
X49916233Y-34929500D01*
X49916228Y-34929500D01*
X49751925Y-34962182D01*
X49751917Y-34962184D01*
X49597139Y-35026295D01*
X49457837Y-35119373D01*
X49339373Y-35237837D01*
X49246295Y-35377139D01*
X49182184Y-35531917D01*
X49182182Y-35531925D01*
X49149500Y-35696228D01*
X500500Y-35696228D01*
X500500Y-33156228D01*
X49149500Y-33156228D01*
X49149500Y-33323771D01*
X49182182Y-33488074D01*
X49182184Y-33488082D01*
X49246295Y-33642860D01*
X49339373Y-33782162D01*
X49457837Y-33900626D01*
X49550494Y-33962537D01*
X49597137Y-33993703D01*
X49751918Y-34057816D01*
X49916228Y-34090499D01*
X49916232Y-34090500D01*
X49916233Y-34090500D01*
X50083768Y-34090500D01*
X50083769Y-34090499D01*
X50248082Y-34057816D01*
X50402863Y-33993703D01*
X50542162Y-33900626D01*
X50660626Y-33782162D01*
X50753703Y-33642863D01*
X50817816Y-33488082D01*
X50850500Y-33323767D01*
X50850500Y-33156233D01*
X50850499Y-33156228D01*
X51689500Y-33156228D01*
X51689500Y-33323771D01*
X51722182Y-33488074D01*
X51722184Y-33488082D01*
X51786295Y-33642860D01*
X51879373Y-33782162D01*
X51997837Y-33900626D01*
X52090494Y-33962537D01*
X52137137Y-33993703D01*
X52291918Y-34057816D01*
X52456228Y-34090499D01*
X52456232Y-34090500D01*
X52456233Y-34090500D01*
X52623768Y-34090500D01*
X52623769Y-34090499D01*
X52788082Y-34057816D01*
X52942863Y-33993703D01*
X53082162Y-33900626D01*
X53200626Y-33782162D01*
X53293703Y-33642863D01*
X53357816Y-33488082D01*
X53390500Y-33323767D01*
X53390500Y-33156233D01*
X53357816Y-32991918D01*
X53293703Y-32837137D01*
X53262537Y-32790494D01*
X53200626Y-32697837D01*
X53082162Y-32579373D01*
X52942860Y-32486295D01*
X52788082Y-32422184D01*
X52788074Y-32422182D01*
X52623771Y-32389500D01*
X52623767Y-32389500D01*
X52456233Y-32389500D01*
X52456228Y-32389500D01*
X52291925Y-32422182D01*
X52291917Y-32422184D01*
X52137139Y-32486295D01*
X51997837Y-32579373D01*
X51879373Y-32697837D01*
X51786295Y-32837139D01*
X51722184Y-32991917D01*
X51722182Y-32991925D01*
X51689500Y-33156228D01*
X50850499Y-33156228D01*
X50817816Y-32991918D01*
X50753703Y-32837137D01*
X50722537Y-32790494D01*
X50660626Y-32697837D01*
X50542162Y-32579373D01*
X50402860Y-32486295D01*
X50248082Y-32422184D01*
X50248074Y-32422182D01*
X50083771Y-32389500D01*
X50083767Y-32389500D01*
X49916233Y-32389500D01*
X49916228Y-32389500D01*
X49751925Y-32422182D01*
X49751917Y-32422184D01*
X49597139Y-32486295D01*
X49457837Y-32579373D01*
X49339373Y-32697837D01*
X49246295Y-32837139D01*
X49182184Y-32991917D01*
X49182182Y-32991925D01*
X49149500Y-33156228D01*
X500500Y-33156228D01*
X500500Y-30616228D01*
X49149500Y-30616228D01*
X49149500Y-30783771D01*
X49182182Y-30948074D01*
X49182184Y-30948082D01*
X49246295Y-31102860D01*
X49339373Y-31242162D01*
X49457837Y-31360626D01*
X49550494Y-31422537D01*
X49597137Y-31453703D01*
X49751918Y-31517816D01*
X49916228Y-31550499D01*
X49916232Y-31550500D01*
X49916233Y-31550500D01*
X50083768Y-31550500D01*
X50083769Y-31550499D01*
X50248082Y-31517816D01*
X50402863Y-31453703D01*
X50542162Y-31360626D01*
X50660626Y-31242162D01*
X50753703Y-31102863D01*
X50817816Y-30948082D01*
X50850500Y-30783767D01*
X50850500Y-30616233D01*
X50850499Y-30616228D01*
X51689500Y-30616228D01*
X51689500Y-30783771D01*
X51722182Y-30948074D01*
X51722184Y-30948082D01*
X51786295Y-31102860D01*
X51879373Y-31242162D01*
X51997837Y-31360626D01*
X52090494Y-31422537D01*
X52137137Y-31453703D01*
X52291918Y-31517816D01*
X52456228Y-31550499D01*
X52456232Y-31550500D01*
X52456233Y-31550500D01*
X52623768Y-31550500D01*
X52623769Y-31550499D01*
X52788082Y-31517816D01*
X52942863Y-31453703D01*
X53082162Y-31360626D01*
X53200626Y-31242162D01*
X53293703Y-31102863D01*
X53357816Y-30948082D01*
X53390500Y-30783767D01*
X53390500Y-30616233D01*
X53357816Y-30451918D01*
X53293703Y-30297137D01*
X53262537Y-30250494D01*
X53200626Y-30157837D01*
X53082162Y-30039373D01*
X52942860Y-29946295D01*
X52788082Y-29882184D01*
X52788074Y-29882182D01*
X52623771Y-29849500D01*
X52623767Y-29849500D01*
X52456233Y-29849500D01*
X52456228Y-29849500D01*
X52291925Y-29882182D01*
X52291917Y-29882184D01*
X52137139Y-29946295D01*
X51997837Y-30039373D01*
X51879373Y-30157837D01*
X51786295Y-30297139D01*
X51722184Y-30451917D01*
X51722182Y-30451925D01*
X51689500Y-30616228D01*
X50850499Y-30616228D01*
X50817816Y-30451918D01*
X50753703Y-30297137D01*
X50722537Y-30250494D01*
X50660626Y-30157837D01*
X50542162Y-30039373D01*
X50402860Y-29946295D01*
X50248082Y-29882184D01*
X50248074Y-29882182D01*
X50083771Y-29849500D01*
X50083767Y-29849500D01*
X49916233Y-29849500D01*
X49916228Y-29849500D01*
X49751925Y-29882182D01*
X49751917Y-29882184D01*
X49597139Y-29946295D01*
X49457837Y-30039373D01*
X49339373Y-30157837D01*
X49246295Y-30297139D01*
X49182184Y-30451917D01*
X49182182Y-30451925D01*
X49149500Y-30616228D01*
X500500Y-30616228D01*
X500500Y-29536228D01*
X4149500Y-29536228D01*
X4149500Y-29703771D01*
X4182182Y-29868074D01*
X4182184Y-29868082D01*
X4246295Y-30022860D01*
X4339373Y-30162162D01*
X4457837Y-30280626D01*
X4482548Y-30297137D01*
X4597137Y-30373703D01*
X4751918Y-30437816D01*
X4873747Y-30462049D01*
X4916228Y-30470499D01*
X4916232Y-30470500D01*
X4916233Y-30470500D01*
X5083768Y-30470500D01*
X5083769Y-30470499D01*
X5248082Y-30437816D01*
X5402863Y-30373703D01*
X5542162Y-30280626D01*
X5660626Y-30162162D01*
X5753703Y-30022863D01*
X5817816Y-29868082D01*
X5850500Y-29703767D01*
X5850500Y-29536233D01*
X5850499Y-29536228D01*
X6689500Y-29536228D01*
X6689500Y-29703771D01*
X6722182Y-29868074D01*
X6722184Y-29868082D01*
X6786295Y-30022860D01*
X6879373Y-30162162D01*
X6997837Y-30280626D01*
X7022548Y-30297137D01*
X7137137Y-30373703D01*
X7291918Y-30437816D01*
X7413747Y-30462049D01*
X7456228Y-30470499D01*
X7456232Y-30470500D01*
X7456233Y-30470500D01*
X7623768Y-30470500D01*
X7623769Y-30470499D01*
X7788082Y-30437816D01*
X7942863Y-30373703D01*
X8082162Y-30280626D01*
X8200626Y-30162162D01*
X8293703Y-30022863D01*
X8357816Y-29868082D01*
X8390500Y-29703767D01*
X8390500Y-29598543D01*
X58999499Y-29598543D01*
X59037947Y-29791829D01*
X59037950Y-29791839D01*
X59113364Y-29973907D01*
X59113371Y-29973920D01*
X59222860Y-30137781D01*
X59222863Y-30137785D01*
X59362214Y-30277136D01*
X59362218Y-30277139D01*
X59526079Y-30386628D01*
X59526092Y-30386635D01*
X59683718Y-30451925D01*
X59708165Y-30462051D01*
X59708169Y-30462051D01*
X59708170Y-30462052D01*
X59901456Y-30500500D01*
X59901459Y-30500500D01*
X60098543Y-30500500D01*
X60249359Y-30470500D01*
X60291835Y-30462051D01*
X60473914Y-30386632D01*
X60637782Y-30277139D01*
X60777139Y-30137782D01*
X60886632Y-29973914D01*
X60962051Y-29791835D01*
X61000500Y-29598541D01*
X61000500Y-29401459D01*
X61000500Y-29401456D01*
X60962052Y-29208170D01*
X60962051Y-29208169D01*
X60962051Y-29208165D01*
X60962049Y-29208160D01*
X60886635Y-29026092D01*
X60886628Y-29026079D01*
X60777139Y-28862218D01*
X60777136Y-28862214D01*
X60637785Y-28722863D01*
X60637781Y-28722860D01*
X60473920Y-28613371D01*
X60473907Y-28613364D01*
X60291839Y-28537950D01*
X60291829Y-28537947D01*
X60098543Y-28499500D01*
X60098541Y-28499500D01*
X59901459Y-28499500D01*
X59901457Y-28499500D01*
X59708170Y-28537947D01*
X59708160Y-28537950D01*
X59526092Y-28613364D01*
X59526079Y-28613371D01*
X59362218Y-28722860D01*
X59362214Y-28722863D01*
X59222863Y-28862214D01*
X59222860Y-28862218D01*
X59113371Y-29026079D01*
X59113364Y-29026092D01*
X59037950Y-29208160D01*
X59037947Y-29208170D01*
X58999500Y-29401456D01*
X58999500Y-29401459D01*
X58999500Y-29598541D01*
X58999500Y-29598543D01*
X58999499Y-29598543D01*
X8390500Y-29598543D01*
X8390500Y-29536233D01*
X8390359Y-29535524D01*
X8367293Y-29419558D01*
X8357817Y-29371923D01*
X8357816Y-29371922D01*
X8357816Y-29371918D01*
X8293703Y-29217137D01*
X8262537Y-29170494D01*
X8200626Y-29077837D01*
X8082162Y-28959373D01*
X7942860Y-28866295D01*
X7788082Y-28802184D01*
X7788074Y-28802182D01*
X7623771Y-28769500D01*
X7623767Y-28769500D01*
X7456233Y-28769500D01*
X7456228Y-28769500D01*
X7291925Y-28802182D01*
X7291917Y-28802184D01*
X7137139Y-28866295D01*
X6997837Y-28959373D01*
X6879373Y-29077837D01*
X6786295Y-29217139D01*
X6722184Y-29371917D01*
X6722182Y-29371925D01*
X6689500Y-29536228D01*
X5850499Y-29536228D01*
X5817816Y-29371918D01*
X5753703Y-29217137D01*
X5722537Y-29170494D01*
X5660626Y-29077837D01*
X5542162Y-28959373D01*
X5402860Y-28866295D01*
X5248082Y-28802184D01*
X5248074Y-28802182D01*
X5083771Y-28769500D01*
X5083767Y-28769500D01*
X4916233Y-28769500D01*
X4916228Y-28769500D01*
X4751925Y-28802182D01*
X4751917Y-28802184D01*
X4597139Y-28866295D01*
X4457837Y-28959373D01*
X4339373Y-29077837D01*
X4246295Y-29217139D01*
X4182184Y-29371917D01*
X4182182Y-29371925D01*
X4149500Y-29536228D01*
X500500Y-29536228D01*
X500500Y-28076228D01*
X49149500Y-28076228D01*
X49149500Y-28243771D01*
X49182182Y-28408074D01*
X49182184Y-28408082D01*
X49246295Y-28562860D01*
X49339373Y-28702162D01*
X49457837Y-28820626D01*
X49526186Y-28866295D01*
X49597137Y-28913703D01*
X49751918Y-28977816D01*
X49916228Y-29010499D01*
X49916232Y-29010500D01*
X49916233Y-29010500D01*
X50083768Y-29010500D01*
X50083769Y-29010499D01*
X50248082Y-28977816D01*
X50402863Y-28913703D01*
X50542162Y-28820626D01*
X50660626Y-28702162D01*
X50753703Y-28562863D01*
X50817816Y-28408082D01*
X50850500Y-28243767D01*
X50850500Y-28076233D01*
X50850499Y-28076228D01*
X51689500Y-28076228D01*
X51689500Y-28243771D01*
X51722182Y-28408074D01*
X51722184Y-28408082D01*
X51786295Y-28562860D01*
X51879373Y-28702162D01*
X51997837Y-28820626D01*
X52066186Y-28866295D01*
X52137137Y-28913703D01*
X52291918Y-28977816D01*
X52456228Y-29010499D01*
X52456232Y-29010500D01*
X52456233Y-29010500D01*
X52623768Y-29010500D01*
X52623769Y-29010499D01*
X52788082Y-28977816D01*
X52942863Y-28913703D01*
X53082162Y-28820626D01*
X53200626Y-28702162D01*
X53293703Y-28562863D01*
X53357816Y-28408082D01*
X53390500Y-28243767D01*
X53390500Y-28076233D01*
X53357816Y-27911918D01*
X53293703Y-27757137D01*
X53260747Y-27707815D01*
X53200626Y-27617837D01*
X53082162Y-27499373D01*
X52942860Y-27406295D01*
X52788082Y-27342184D01*
X52788074Y-27342182D01*
X52623771Y-27309500D01*
X52623767Y-27309500D01*
X52456233Y-27309500D01*
X52456228Y-27309500D01*
X52291925Y-27342182D01*
X52291917Y-27342184D01*
X52137139Y-27406295D01*
X51997837Y-27499373D01*
X51879373Y-27617837D01*
X51786295Y-27757139D01*
X51722184Y-27911917D01*
X51722182Y-27911925D01*
X51689500Y-28076228D01*
X50850499Y-28076228D01*
X50817816Y-27911918D01*
X50753703Y-27757137D01*
X50720747Y-27707815D01*
X50660626Y-27617837D01*
X50542162Y-27499373D01*
X50402860Y-27406295D01*
X50248082Y-27342184D01*
X50248074Y-27342182D01*
X50083771Y-27309500D01*
X50083767Y-27309500D01*
X49916233Y-27309500D01*
X49916228Y-27309500D01*
X49751925Y-27342182D01*
X49751917Y-27342184D01*
X49597139Y-27406295D01*
X49457837Y-27499373D01*
X49339373Y-27617837D01*
X49246295Y-27757139D01*
X49182184Y-27911917D01*
X49182182Y-27911925D01*
X49149500Y-28076228D01*
X500500Y-28076228D01*
X500500Y-26996228D01*
X4149500Y-26996228D01*
X4149500Y-27163771D01*
X4182182Y-27328074D01*
X4182184Y-27328082D01*
X4246295Y-27482860D01*
X4339373Y-27622162D01*
X4457837Y-27740626D01*
X4512483Y-27777139D01*
X4597137Y-27833703D01*
X4751918Y-27897816D01*
X4916228Y-27930499D01*
X4916232Y-27930500D01*
X4916233Y-27930500D01*
X5083768Y-27930500D01*
X5083769Y-27930499D01*
X5248082Y-27897816D01*
X5402863Y-27833703D01*
X5542162Y-27740626D01*
X5660626Y-27622162D01*
X5753703Y-27482863D01*
X5817816Y-27328082D01*
X5850500Y-27163767D01*
X5850500Y-26996233D01*
X5850499Y-26996228D01*
X6689500Y-26996228D01*
X6689500Y-27163771D01*
X6722182Y-27328074D01*
X6722184Y-27328082D01*
X6786295Y-27482860D01*
X6879373Y-27622162D01*
X6997837Y-27740626D01*
X7052483Y-27777139D01*
X7137137Y-27833703D01*
X7291918Y-27897816D01*
X7456228Y-27930499D01*
X7456232Y-27930500D01*
X7456233Y-27930500D01*
X7623768Y-27930500D01*
X7623769Y-27930499D01*
X7788082Y-27897816D01*
X7942863Y-27833703D01*
X8082162Y-27740626D01*
X8200626Y-27622162D01*
X8293703Y-27482863D01*
X8357816Y-27328082D01*
X8390500Y-27163767D01*
X8390500Y-26996233D01*
X8386032Y-26973771D01*
X8375249Y-26919558D01*
X8357817Y-26831925D01*
X8357816Y-26831918D01*
X8293703Y-26677137D01*
X8262537Y-26630494D01*
X8200626Y-26537837D01*
X8082162Y-26419373D01*
X7942860Y-26326295D01*
X7788082Y-26262184D01*
X7788074Y-26262182D01*
X7623771Y-26229500D01*
X7623767Y-26229500D01*
X7456233Y-26229500D01*
X7456228Y-26229500D01*
X7291925Y-26262182D01*
X7291917Y-26262184D01*
X7137139Y-26326295D01*
X6997837Y-26419373D01*
X6879373Y-26537837D01*
X6786295Y-26677139D01*
X6722184Y-26831917D01*
X6722182Y-26831925D01*
X6689500Y-26996228D01*
X5850499Y-26996228D01*
X5817816Y-26831918D01*
X5753703Y-26677137D01*
X5722537Y-26630494D01*
X5660626Y-26537837D01*
X5542162Y-26419373D01*
X5402860Y-26326295D01*
X5248082Y-26262184D01*
X5248074Y-26262182D01*
X5083771Y-26229500D01*
X5083767Y-26229500D01*
X4916233Y-26229500D01*
X4916228Y-26229500D01*
X4751925Y-26262182D01*
X4751917Y-26262184D01*
X4597139Y-26326295D01*
X4457837Y-26419373D01*
X4339373Y-26537837D01*
X4246295Y-26677139D01*
X4182184Y-26831917D01*
X4182182Y-26831925D01*
X4149500Y-26996228D01*
X500500Y-26996228D01*
X500500Y-25536228D01*
X49149500Y-25536228D01*
X49149500Y-25703771D01*
X49182182Y-25868074D01*
X49182184Y-25868082D01*
X49246295Y-26022860D01*
X49339373Y-26162162D01*
X49457837Y-26280626D01*
X49526186Y-26326295D01*
X49597137Y-26373703D01*
X49751918Y-26437816D01*
X49916228Y-26470499D01*
X49916232Y-26470500D01*
X49916233Y-26470500D01*
X50083768Y-26470500D01*
X50083769Y-26470499D01*
X50248082Y-26437816D01*
X50402863Y-26373703D01*
X50542162Y-26280626D01*
X50660626Y-26162162D01*
X50753703Y-26022863D01*
X50817816Y-25868082D01*
X50850500Y-25703767D01*
X50850500Y-25536233D01*
X50850499Y-25536228D01*
X51689500Y-25536228D01*
X51689500Y-25703771D01*
X51722182Y-25868074D01*
X51722184Y-25868082D01*
X51786295Y-26022860D01*
X51879373Y-26162162D01*
X51997837Y-26280626D01*
X52066186Y-26326295D01*
X52137137Y-26373703D01*
X52291918Y-26437816D01*
X52456228Y-26470499D01*
X52456232Y-26470500D01*
X52456233Y-26470500D01*
X52623768Y-26470500D01*
X52623769Y-26470499D01*
X52788082Y-26437816D01*
X52942863Y-26373703D01*
X53082162Y-26280626D01*
X53200626Y-26162162D01*
X53293703Y-26022863D01*
X53357816Y-25868082D01*
X53390500Y-25703767D01*
X53390500Y-25536233D01*
X53357816Y-25371918D01*
X53293703Y-25217137D01*
X53260747Y-25167815D01*
X53200626Y-25077837D01*
X53082162Y-24959373D01*
X52942860Y-24866295D01*
X52788082Y-24802184D01*
X52788074Y-24802182D01*
X52623771Y-24769500D01*
X52623767Y-24769500D01*
X52456233Y-24769500D01*
X52456228Y-24769500D01*
X52291925Y-24802182D01*
X52291917Y-24802184D01*
X52137139Y-24866295D01*
X51997837Y-24959373D01*
X51879373Y-25077837D01*
X51786295Y-25217139D01*
X51722184Y-25371917D01*
X51722182Y-25371925D01*
X51689500Y-25536228D01*
X50850499Y-25536228D01*
X50817816Y-25371918D01*
X50753703Y-25217137D01*
X50720747Y-25167815D01*
X50660626Y-25077837D01*
X50542162Y-24959373D01*
X50402860Y-24866295D01*
X50248082Y-24802184D01*
X50248074Y-24802182D01*
X50083771Y-24769500D01*
X50083767Y-24769500D01*
X49916233Y-24769500D01*
X49916228Y-24769500D01*
X49751925Y-24802182D01*
X49751917Y-24802184D01*
X49597139Y-24866295D01*
X49457837Y-24959373D01*
X49339373Y-25077837D01*
X49246295Y-25217139D01*
X49182184Y-25371917D01*
X49182182Y-25371925D01*
X49149500Y-25536228D01*
X500500Y-25536228D01*
X500500Y-24456228D01*
X4149500Y-24456228D01*
X4149500Y-24623771D01*
X4182182Y-24788074D01*
X4182184Y-24788082D01*
X4246295Y-24942860D01*
X4339373Y-25082162D01*
X4457837Y-25200626D01*
X4482548Y-25217137D01*
X4597137Y-25293703D01*
X4751918Y-25357816D01*
X4916228Y-25390499D01*
X4916232Y-25390500D01*
X4916233Y-25390500D01*
X5083768Y-25390500D01*
X5083769Y-25390499D01*
X5248082Y-25357816D01*
X5402863Y-25293703D01*
X5542162Y-25200626D01*
X5660626Y-25082162D01*
X5753703Y-24942863D01*
X5817816Y-24788082D01*
X5850500Y-24623767D01*
X5850500Y-24456233D01*
X5850499Y-24456228D01*
X6689500Y-24456228D01*
X6689500Y-24623771D01*
X6722182Y-24788074D01*
X6722184Y-24788082D01*
X6786295Y-24942860D01*
X6879373Y-25082162D01*
X6997837Y-25200626D01*
X7022548Y-25217137D01*
X7137137Y-25293703D01*
X7291918Y-25357816D01*
X7456228Y-25390499D01*
X7456232Y-25390500D01*
X7456233Y-25390500D01*
X7623768Y-25390500D01*
X7623769Y-25390499D01*
X7788082Y-25357816D01*
X7942863Y-25293703D01*
X8082162Y-25200626D01*
X8200626Y-25082162D01*
X8293703Y-24942863D01*
X8357816Y-24788082D01*
X8390500Y-24623767D01*
X8390500Y-24456233D01*
X8390409Y-24455777D01*
X8382698Y-24417007D01*
X8378854Y-24397682D01*
X58700000Y-24397682D01*
X58700000Y-24602317D01*
X58732009Y-24804417D01*
X58795244Y-24999031D01*
X58888140Y-25181349D01*
X58994913Y-25328308D01*
X58994914Y-25328309D01*
X59605872Y-24717350D01*
X59639910Y-24776306D01*
X59723694Y-24860090D01*
X59782648Y-24894127D01*
X59171689Y-25505085D01*
X59318650Y-25611859D01*
X59500968Y-25704755D01*
X59695576Y-25767988D01*
X59772317Y-25780142D01*
X59835452Y-25810071D01*
X59872384Y-25869383D01*
X59871386Y-25939245D01*
X59832777Y-25997478D01*
X59777113Y-26024233D01*
X59708169Y-26037947D01*
X59708160Y-26037950D01*
X59526092Y-26113364D01*
X59526079Y-26113371D01*
X59362218Y-26222860D01*
X59362214Y-26222863D01*
X59222863Y-26362214D01*
X59222860Y-26362218D01*
X59113371Y-26526079D01*
X59113364Y-26526092D01*
X59037950Y-26708160D01*
X59037947Y-26708170D01*
X58999500Y-26901456D01*
X58999500Y-26901459D01*
X58999500Y-27098541D01*
X58999500Y-27098543D01*
X58999499Y-27098543D01*
X59037947Y-27291829D01*
X59037950Y-27291839D01*
X59113364Y-27473907D01*
X59113371Y-27473920D01*
X59222860Y-27637781D01*
X59222863Y-27637785D01*
X59362214Y-27777136D01*
X59362218Y-27777139D01*
X59526079Y-27886628D01*
X59526092Y-27886635D01*
X59708160Y-27962049D01*
X59708165Y-27962051D01*
X59708169Y-27962051D01*
X59708170Y-27962052D01*
X59901456Y-28000500D01*
X59901459Y-28000500D01*
X60098543Y-28000500D01*
X60228582Y-27974632D01*
X60291835Y-27962051D01*
X60473914Y-27886632D01*
X60637782Y-27777139D01*
X60777139Y-27637782D01*
X60886632Y-27473914D01*
X60962051Y-27291835D01*
X60987525Y-27163771D01*
X61000500Y-27098543D01*
X61000500Y-26901456D01*
X61000499Y-26901454D01*
X60985159Y-26824332D01*
X60981558Y-26806228D01*
X89149500Y-26806228D01*
X89149500Y-26973771D01*
X89182182Y-27138074D01*
X89182184Y-27138082D01*
X89246295Y-27292860D01*
X89339373Y-27432162D01*
X89457837Y-27550626D01*
X89550494Y-27612537D01*
X89597137Y-27643703D01*
X89751918Y-27707816D01*
X89916228Y-27740499D01*
X89916232Y-27740500D01*
X89916233Y-27740500D01*
X90083768Y-27740500D01*
X90083769Y-27740499D01*
X90248082Y-27707816D01*
X90402863Y-27643703D01*
X90542162Y-27550626D01*
X90660626Y-27432162D01*
X90753703Y-27292863D01*
X90817816Y-27138082D01*
X90850500Y-26973767D01*
X90850500Y-26806233D01*
X90817816Y-26641918D01*
X90753703Y-26487137D01*
X90708425Y-26419374D01*
X90660626Y-26347837D01*
X90542162Y-26229373D01*
X90402860Y-26136295D01*
X90248082Y-26072184D01*
X90248074Y-26072182D01*
X90083771Y-26039500D01*
X90083767Y-26039500D01*
X89916233Y-26039500D01*
X89916228Y-26039500D01*
X89751925Y-26072182D01*
X89751917Y-26072184D01*
X89597139Y-26136295D01*
X89457837Y-26229373D01*
X89339373Y-26347837D01*
X89246295Y-26487139D01*
X89182184Y-26641917D01*
X89182182Y-26641925D01*
X89149500Y-26806228D01*
X60981558Y-26806228D01*
X60962052Y-26708170D01*
X60962051Y-26708169D01*
X60962051Y-26708165D01*
X60934611Y-26641918D01*
X60886635Y-26526092D01*
X60886628Y-26526079D01*
X60777139Y-26362218D01*
X60777136Y-26362214D01*
X60637785Y-26222863D01*
X60637781Y-26222860D01*
X60473920Y-26113371D01*
X60473907Y-26113364D01*
X60291839Y-26037950D01*
X60291830Y-26037947D01*
X60222886Y-26024233D01*
X60160976Y-25991847D01*
X60126402Y-25931131D01*
X60130143Y-25861361D01*
X60171010Y-25804690D01*
X60227682Y-25780142D01*
X60304423Y-25767988D01*
X60499031Y-25704755D01*
X60681349Y-25611859D01*
X60828308Y-25505085D01*
X60828309Y-25505084D01*
X60217352Y-24894127D01*
X60276306Y-24860090D01*
X60360090Y-24776306D01*
X60394127Y-24717351D01*
X61005084Y-25328309D01*
X61005085Y-25328308D01*
X61111859Y-25181349D01*
X61204755Y-24999031D01*
X61267990Y-24804417D01*
X61300000Y-24602317D01*
X61300000Y-24397682D01*
X61281288Y-24279539D01*
X61279180Y-24266228D01*
X89149500Y-24266228D01*
X89149500Y-24433771D01*
X89182182Y-24598074D01*
X89182184Y-24598082D01*
X89246295Y-24752860D01*
X89339373Y-24892162D01*
X89457837Y-25010626D01*
X89550494Y-25072537D01*
X89597137Y-25103703D01*
X89751918Y-25167816D01*
X89916228Y-25200499D01*
X89916232Y-25200500D01*
X89916233Y-25200500D01*
X90083768Y-25200500D01*
X90083769Y-25200499D01*
X90248082Y-25167816D01*
X90402863Y-25103703D01*
X90542162Y-25010626D01*
X90660626Y-24892162D01*
X90753703Y-24752863D01*
X90817816Y-24598082D01*
X90850500Y-24433767D01*
X90850500Y-24266233D01*
X90817816Y-24101918D01*
X90753703Y-23947137D01*
X90708425Y-23879374D01*
X90660626Y-23807837D01*
X90542162Y-23689373D01*
X90402860Y-23596295D01*
X90248082Y-23532184D01*
X90248074Y-23532182D01*
X90083771Y-23499500D01*
X90083767Y-23499500D01*
X89916233Y-23499500D01*
X89916228Y-23499500D01*
X89751925Y-23532182D01*
X89751917Y-23532184D01*
X89597139Y-23596295D01*
X89457837Y-23689373D01*
X89339373Y-23807837D01*
X89246295Y-23947139D01*
X89182184Y-24101917D01*
X89182182Y-24101925D01*
X89149500Y-24266228D01*
X61279180Y-24266228D01*
X61267989Y-24195581D01*
X61204755Y-24000968D01*
X61111859Y-23818650D01*
X61005085Y-23671690D01*
X61005085Y-23671689D01*
X60394126Y-24282647D01*
X60360090Y-24223694D01*
X60276306Y-24139910D01*
X60217351Y-24105872D01*
X60828309Y-23494914D01*
X60828308Y-23494913D01*
X60681349Y-23388140D01*
X60499031Y-23295244D01*
X60336490Y-23242431D01*
X60278815Y-23202993D01*
X60251617Y-23138634D01*
X60263532Y-23069788D01*
X60310776Y-23018312D01*
X60374809Y-23000500D01*
X60819750Y-23000500D01*
X60819751Y-23000499D01*
X60841225Y-22996228D01*
X60878229Y-22988868D01*
X60878229Y-22988867D01*
X60878231Y-22988867D01*
X60944552Y-22944552D01*
X60988867Y-22878231D01*
X60988867Y-22878229D01*
X60988868Y-22878229D01*
X61000499Y-22819752D01*
X61000500Y-22819750D01*
X61000500Y-21726228D01*
X89149500Y-21726228D01*
X89149500Y-21893771D01*
X89182182Y-22058074D01*
X89182184Y-22058082D01*
X89246295Y-22212860D01*
X89339373Y-22352162D01*
X89457837Y-22470626D01*
X89550494Y-22532537D01*
X89597137Y-22563703D01*
X89751918Y-22627816D01*
X89916228Y-22660499D01*
X89916232Y-22660500D01*
X89916233Y-22660500D01*
X90083768Y-22660500D01*
X90083769Y-22660499D01*
X90248082Y-22627816D01*
X90402863Y-22563703D01*
X90542162Y-22470626D01*
X90660626Y-22352162D01*
X90753703Y-22212863D01*
X90817816Y-22058082D01*
X90850500Y-21893767D01*
X90850500Y-21726233D01*
X90817816Y-21561918D01*
X90753703Y-21407137D01*
X90702327Y-21330247D01*
X90660626Y-21267837D01*
X90542162Y-21149373D01*
X90402860Y-21056295D01*
X90248082Y-20992184D01*
X90248074Y-20992182D01*
X90083771Y-20959500D01*
X90083767Y-20959500D01*
X89916233Y-20959500D01*
X89916228Y-20959500D01*
X89751925Y-20992182D01*
X89751917Y-20992184D01*
X89597139Y-21056295D01*
X89457837Y-21149373D01*
X89339373Y-21267837D01*
X89246295Y-21407139D01*
X89182184Y-21561917D01*
X89182182Y-21561925D01*
X89149500Y-21726228D01*
X61000500Y-21726228D01*
X61000500Y-21180249D01*
X61000499Y-21180247D01*
X60988868Y-21121770D01*
X60988867Y-21121769D01*
X60944552Y-21055447D01*
X60878230Y-21011132D01*
X60878229Y-21011131D01*
X60819752Y-20999500D01*
X60819748Y-20999500D01*
X59180252Y-20999500D01*
X59180247Y-20999500D01*
X59121770Y-21011131D01*
X59121769Y-21011132D01*
X59055447Y-21055447D01*
X59011132Y-21121769D01*
X59011131Y-21121770D01*
X58999500Y-21180247D01*
X58999500Y-22819752D01*
X59011131Y-22878229D01*
X59011132Y-22878230D01*
X59055447Y-22944552D01*
X59121769Y-22988867D01*
X59121770Y-22988868D01*
X59180247Y-23000499D01*
X59180250Y-23000500D01*
X59625191Y-23000500D01*
X59692230Y-23020185D01*
X59737985Y-23072989D01*
X59747929Y-23142147D01*
X59718904Y-23205703D01*
X59663510Y-23242431D01*
X59500968Y-23295244D01*
X59318649Y-23388141D01*
X59318640Y-23388147D01*
X59171690Y-23494912D01*
X59171689Y-23494913D01*
X59782649Y-24105872D01*
X59723694Y-24139910D01*
X59639910Y-24223694D01*
X59605872Y-24282648D01*
X58994913Y-23671689D01*
X58994912Y-23671690D01*
X58888147Y-23818640D01*
X58888141Y-23818649D01*
X58795244Y-24000968D01*
X58732009Y-24195582D01*
X58700000Y-24397682D01*
X8378854Y-24397682D01*
X8357817Y-24291925D01*
X8357816Y-24291918D01*
X8293703Y-24137137D01*
X8235480Y-24050000D01*
X8200626Y-23997837D01*
X8082162Y-23879373D01*
X7942860Y-23786295D01*
X7788082Y-23722184D01*
X7788074Y-23722182D01*
X7623771Y-23689500D01*
X7623767Y-23689500D01*
X7456233Y-23689500D01*
X7456228Y-23689500D01*
X7291925Y-23722182D01*
X7291917Y-23722184D01*
X7137139Y-23786295D01*
X6997837Y-23879373D01*
X6879373Y-23997837D01*
X6786295Y-24137139D01*
X6722184Y-24291917D01*
X6722182Y-24291925D01*
X6689500Y-24456228D01*
X5850499Y-24456228D01*
X5817816Y-24291918D01*
X5753703Y-24137137D01*
X5695480Y-24050000D01*
X5660626Y-23997837D01*
X5542162Y-23879373D01*
X5402860Y-23786295D01*
X5248082Y-23722184D01*
X5248074Y-23722182D01*
X5083771Y-23689500D01*
X5083767Y-23689500D01*
X4916233Y-23689500D01*
X4916228Y-23689500D01*
X4751925Y-23722182D01*
X4751917Y-23722184D01*
X4597139Y-23786295D01*
X4457837Y-23879373D01*
X4339373Y-23997837D01*
X4246295Y-24137139D01*
X4182184Y-24291917D01*
X4182182Y-24291925D01*
X4149500Y-24456228D01*
X500500Y-24456228D01*
X500500Y-21330247D01*
X4149500Y-21330247D01*
X4149500Y-22669752D01*
X4161131Y-22728229D01*
X4161132Y-22728230D01*
X4205447Y-22794552D01*
X4271769Y-22838867D01*
X4271770Y-22838868D01*
X4330247Y-22850499D01*
X4330250Y-22850500D01*
X4330252Y-22850500D01*
X5669750Y-22850500D01*
X5669751Y-22850499D01*
X5684568Y-22847552D01*
X5728229Y-22838868D01*
X5728229Y-22838867D01*
X5728231Y-22838867D01*
X5794552Y-22794552D01*
X5838867Y-22728231D01*
X5838867Y-22728229D01*
X5838868Y-22728229D01*
X5850499Y-22669752D01*
X5850500Y-22669750D01*
X5850500Y-21909493D01*
X6390000Y-21909493D01*
X6390000Y-22090506D01*
X6418317Y-22269293D01*
X6474251Y-22441444D01*
X6474252Y-22441447D01*
X6556430Y-22602726D01*
X6642301Y-22720920D01*
X7182474Y-22180748D01*
X7219920Y-22245606D01*
X7294394Y-22320080D01*
X7359250Y-22357524D01*
X6819078Y-22897696D01*
X6819078Y-22897698D01*
X6937265Y-22983565D01*
X7098552Y-23065747D01*
X7098555Y-23065748D01*
X7270706Y-23121682D01*
X7449494Y-23150000D01*
X7630506Y-23150000D01*
X7809293Y-23121682D01*
X7981444Y-23065748D01*
X7981447Y-23065747D01*
X8117882Y-22996228D01*
X49149500Y-22996228D01*
X49149500Y-23163771D01*
X49182182Y-23328074D01*
X49182184Y-23328082D01*
X49246295Y-23482860D01*
X49339373Y-23622162D01*
X49457837Y-23740626D01*
X49526186Y-23786295D01*
X49597137Y-23833703D01*
X49751918Y-23897816D01*
X49916228Y-23930499D01*
X49916232Y-23930500D01*
X49916233Y-23930500D01*
X50083768Y-23930500D01*
X50083769Y-23930499D01*
X50248082Y-23897816D01*
X50402863Y-23833703D01*
X50542162Y-23740626D01*
X50660626Y-23622162D01*
X50753703Y-23482863D01*
X50817816Y-23328082D01*
X50850500Y-23163767D01*
X50850500Y-22996233D01*
X50850499Y-22996228D01*
X51689500Y-22996228D01*
X51689500Y-23163771D01*
X51722182Y-23328074D01*
X51722184Y-23328082D01*
X51786295Y-23482860D01*
X51879373Y-23622162D01*
X51997837Y-23740626D01*
X52066186Y-23786295D01*
X52137137Y-23833703D01*
X52291918Y-23897816D01*
X52456228Y-23930499D01*
X52456232Y-23930500D01*
X52456233Y-23930500D01*
X52623768Y-23930500D01*
X52623769Y-23930499D01*
X52788082Y-23897816D01*
X52942863Y-23833703D01*
X53082162Y-23740626D01*
X53200626Y-23622162D01*
X53293703Y-23482863D01*
X53357816Y-23328082D01*
X53390500Y-23163767D01*
X53390500Y-22996233D01*
X53357816Y-22831918D01*
X53293703Y-22677137D01*
X53243983Y-22602726D01*
X53200626Y-22537837D01*
X53082162Y-22419373D01*
X52942860Y-22326295D01*
X52788082Y-22262184D01*
X52788074Y-22262182D01*
X52623771Y-22229500D01*
X52623767Y-22229500D01*
X52456233Y-22229500D01*
X52456228Y-22229500D01*
X52291925Y-22262182D01*
X52291917Y-22262184D01*
X52137139Y-22326295D01*
X51997837Y-22419373D01*
X51879373Y-22537837D01*
X51786295Y-22677139D01*
X51722184Y-22831917D01*
X51722182Y-22831925D01*
X51689500Y-22996228D01*
X50850499Y-22996228D01*
X50817816Y-22831918D01*
X50753703Y-22677137D01*
X50703983Y-22602726D01*
X50660626Y-22537837D01*
X50542162Y-22419373D01*
X50402860Y-22326295D01*
X50248082Y-22262184D01*
X50248074Y-22262182D01*
X50083771Y-22229500D01*
X50083767Y-22229500D01*
X49916233Y-22229500D01*
X49916228Y-22229500D01*
X49751925Y-22262182D01*
X49751917Y-22262184D01*
X49597139Y-22326295D01*
X49457837Y-22419373D01*
X49339373Y-22537837D01*
X49246295Y-22677139D01*
X49182184Y-22831917D01*
X49182182Y-22831925D01*
X49149500Y-22996228D01*
X8117882Y-22996228D01*
X8142734Y-22983565D01*
X8260920Y-22897698D01*
X8260921Y-22897697D01*
X7720749Y-22357524D01*
X7785606Y-22320080D01*
X7860080Y-22245606D01*
X7897525Y-22180749D01*
X8437697Y-22720921D01*
X8437699Y-22720920D01*
X8523565Y-22602734D01*
X8605747Y-22441447D01*
X8605748Y-22441444D01*
X8661682Y-22269293D01*
X8690000Y-22090506D01*
X8690000Y-21909493D01*
X8661682Y-21730706D01*
X8605748Y-21558555D01*
X8605747Y-21558552D01*
X8523565Y-21397265D01*
X8437698Y-21279078D01*
X8437696Y-21279078D01*
X7897524Y-21819250D01*
X7860080Y-21754394D01*
X7785606Y-21679920D01*
X7720748Y-21642474D01*
X8260920Y-21102301D01*
X8142726Y-21016430D01*
X7981447Y-20934252D01*
X7981444Y-20934251D01*
X7809293Y-20878317D01*
X7630506Y-20850000D01*
X7449494Y-20850000D01*
X7270706Y-20878317D01*
X7098555Y-20934251D01*
X7098552Y-20934252D01*
X6937272Y-21016430D01*
X6819078Y-21102301D01*
X7359251Y-21642474D01*
X7294394Y-21679920D01*
X7219920Y-21754394D01*
X7182474Y-21819251D01*
X6642301Y-21279078D01*
X6556430Y-21397272D01*
X6474252Y-21558552D01*
X6474251Y-21558555D01*
X6418317Y-21730706D01*
X6390000Y-21909493D01*
X5850500Y-21909493D01*
X5850500Y-21330249D01*
X5850499Y-21330247D01*
X5838868Y-21271770D01*
X5838867Y-21271769D01*
X5803242Y-21218453D01*
X5803241Y-21218452D01*
X5794551Y-21205447D01*
X5728230Y-21161132D01*
X5728229Y-21161131D01*
X5669752Y-21149500D01*
X5669748Y-21149500D01*
X4330252Y-21149500D01*
X4330247Y-21149500D01*
X4271770Y-21161131D01*
X4271769Y-21161132D01*
X4205447Y-21205447D01*
X4161132Y-21271769D01*
X4161131Y-21271770D01*
X4149500Y-21330247D01*
X500500Y-21330247D01*
X500500Y-20456228D01*
X49149500Y-20456228D01*
X49149500Y-20623771D01*
X49182182Y-20788074D01*
X49182184Y-20788082D01*
X49246295Y-20942860D01*
X49339373Y-21082162D01*
X49457837Y-21200626D01*
X49550494Y-21262537D01*
X49597137Y-21293703D01*
X49751918Y-21357816D01*
X49916228Y-21390499D01*
X49916232Y-21390500D01*
X49916233Y-21390500D01*
X50083768Y-21390500D01*
X50083769Y-21390499D01*
X50248082Y-21357816D01*
X50402863Y-21293703D01*
X50542162Y-21200626D01*
X50660626Y-21082162D01*
X50753703Y-20942863D01*
X50817816Y-20788082D01*
X50850500Y-20623767D01*
X50850500Y-20456233D01*
X50850499Y-20456228D01*
X51689500Y-20456228D01*
X51689500Y-20623771D01*
X51722182Y-20788074D01*
X51722184Y-20788082D01*
X51786295Y-20942860D01*
X51879373Y-21082162D01*
X51997837Y-21200626D01*
X52090494Y-21262537D01*
X52137137Y-21293703D01*
X52291918Y-21357816D01*
X52456228Y-21390499D01*
X52456232Y-21390500D01*
X52456233Y-21390500D01*
X52623768Y-21390500D01*
X52623769Y-21390499D01*
X52788082Y-21357816D01*
X52942863Y-21293703D01*
X53082162Y-21200626D01*
X53133415Y-21149373D01*
X53196310Y-21086479D01*
X53200623Y-21082165D01*
X53200626Y-21082162D01*
X53293703Y-20942863D01*
X53357816Y-20788082D01*
X53390500Y-20623767D01*
X53390500Y-20456233D01*
X53357816Y-20291918D01*
X53293703Y-20137137D01*
X53260747Y-20087815D01*
X53200626Y-19997837D01*
X53082162Y-19879373D01*
X52942860Y-19786295D01*
X52788082Y-19722184D01*
X52788074Y-19722182D01*
X52623771Y-19689500D01*
X52623767Y-19689500D01*
X52456233Y-19689500D01*
X52456228Y-19689500D01*
X52291925Y-19722182D01*
X52291917Y-19722184D01*
X52137139Y-19786295D01*
X51997837Y-19879373D01*
X51879373Y-19997837D01*
X51786295Y-20137139D01*
X51722184Y-20291917D01*
X51722182Y-20291925D01*
X51689500Y-20456228D01*
X50850499Y-20456228D01*
X50817816Y-20291918D01*
X50753703Y-20137137D01*
X50720747Y-20087815D01*
X50660626Y-19997837D01*
X50542162Y-19879373D01*
X50402860Y-19786295D01*
X50248082Y-19722184D01*
X50248074Y-19722182D01*
X50083771Y-19689500D01*
X50083767Y-19689500D01*
X49916233Y-19689500D01*
X49916228Y-19689500D01*
X49751925Y-19722182D01*
X49751917Y-19722184D01*
X49597139Y-19786295D01*
X49457837Y-19879373D01*
X49339373Y-19997837D01*
X49246295Y-20137139D01*
X49182184Y-20291917D01*
X49182182Y-20291925D01*
X49149500Y-20456228D01*
X500500Y-20456228D01*
X500500Y-19186228D01*
X89149500Y-19186228D01*
X89149500Y-19353771D01*
X89182182Y-19518074D01*
X89182184Y-19518082D01*
X89246295Y-19672860D01*
X89339373Y-19812162D01*
X89457837Y-19930626D01*
X89550494Y-19992537D01*
X89597137Y-20023703D01*
X89751918Y-20087816D01*
X89916228Y-20120499D01*
X89916232Y-20120500D01*
X89916233Y-20120500D01*
X90083768Y-20120500D01*
X90083769Y-20120499D01*
X90248082Y-20087816D01*
X90402863Y-20023703D01*
X90542162Y-19930626D01*
X90660626Y-19812162D01*
X90753703Y-19672863D01*
X90817816Y-19518082D01*
X90850500Y-19353767D01*
X90850500Y-19186233D01*
X90817816Y-19021918D01*
X90766362Y-18897698D01*
X90753704Y-18867139D01*
X90660626Y-18727837D01*
X90542162Y-18609373D01*
X90402860Y-18516295D01*
X90248082Y-18452184D01*
X90248074Y-18452182D01*
X90083771Y-18419500D01*
X90083767Y-18419500D01*
X89916233Y-18419500D01*
X89916228Y-18419500D01*
X89751925Y-18452182D01*
X89751917Y-18452184D01*
X89597139Y-18516295D01*
X89457837Y-18609373D01*
X89339373Y-18727837D01*
X89246295Y-18867139D01*
X89182184Y-19021917D01*
X89182182Y-19021925D01*
X89149500Y-19186228D01*
X500500Y-19186228D01*
X500500Y-17302155D01*
X48850000Y-17302155D01*
X48850000Y-17875000D01*
X49619383Y-17875000D01*
X49600000Y-17947339D01*
X49600000Y-18052661D01*
X49619383Y-18125000D01*
X48850000Y-18125000D01*
X48850000Y-18697844D01*
X48856401Y-18757372D01*
X48856403Y-18757379D01*
X48906645Y-18892086D01*
X48906649Y-18892093D01*
X48992809Y-19007187D01*
X48992812Y-19007190D01*
X49107906Y-19093350D01*
X49107913Y-19093354D01*
X49242620Y-19143596D01*
X49242627Y-19143598D01*
X49302155Y-19149999D01*
X49302172Y-19150000D01*
X49875000Y-19150000D01*
X49875000Y-18380617D01*
X49947339Y-18400000D01*
X50052661Y-18400000D01*
X50125000Y-18380617D01*
X50125000Y-19150000D01*
X50697828Y-19150000D01*
X50697844Y-19149999D01*
X50757372Y-19143598D01*
X50757379Y-19143596D01*
X50892086Y-19093354D01*
X50892093Y-19093350D01*
X51007187Y-19007190D01*
X51007190Y-19007187D01*
X51093350Y-18892093D01*
X51093354Y-18892086D01*
X51125050Y-18807105D01*
X51125050Y-18807104D01*
X51143597Y-18757376D01*
X51143598Y-18757372D01*
X51149999Y-18697844D01*
X51150000Y-18697827D01*
X51150000Y-18150773D01*
X51169685Y-18083734D01*
X51222489Y-18037979D01*
X51291647Y-18028035D01*
X51355203Y-18057060D01*
X51392977Y-18115838D01*
X51396473Y-18131375D01*
X51418317Y-18269293D01*
X51474251Y-18441444D01*
X51474252Y-18441447D01*
X51556430Y-18602726D01*
X51642301Y-18720920D01*
X52182474Y-18180748D01*
X52219920Y-18245606D01*
X52294394Y-18320080D01*
X52359250Y-18357524D01*
X51819078Y-18897696D01*
X51819078Y-18897698D01*
X51937265Y-18983565D01*
X52098552Y-19065747D01*
X52098555Y-19065748D01*
X52270706Y-19121682D01*
X52449494Y-19150000D01*
X52630506Y-19150000D01*
X52809293Y-19121682D01*
X52981445Y-19065747D01*
X53142734Y-18983565D01*
X53260920Y-18897699D01*
X53260921Y-18897697D01*
X52720749Y-18357524D01*
X52785606Y-18320080D01*
X52860080Y-18245606D01*
X52897525Y-18180749D01*
X53437697Y-18720921D01*
X53437699Y-18720920D01*
X53523565Y-18602734D01*
X53605747Y-18441447D01*
X53605748Y-18441444D01*
X53661682Y-18269293D01*
X53690000Y-18090506D01*
X53690000Y-17909493D01*
X53661682Y-17730706D01*
X53605748Y-17558555D01*
X53605747Y-17558552D01*
X53523565Y-17397265D01*
X53437698Y-17279078D01*
X53437696Y-17279078D01*
X52897524Y-17819250D01*
X52860080Y-17754394D01*
X52785606Y-17679920D01*
X52720748Y-17642474D01*
X53260920Y-17102301D01*
X53142726Y-17016430D01*
X52981447Y-16934252D01*
X52981444Y-16934251D01*
X52809293Y-16878317D01*
X52630506Y-16850000D01*
X52449494Y-16850000D01*
X52270706Y-16878317D01*
X52098555Y-16934251D01*
X52098552Y-16934252D01*
X51937272Y-17016430D01*
X51819078Y-17102301D01*
X52359251Y-17642474D01*
X52294394Y-17679920D01*
X52219920Y-17754394D01*
X52182474Y-17819251D01*
X51642301Y-17279078D01*
X51556430Y-17397272D01*
X51474252Y-17558552D01*
X51474251Y-17558555D01*
X51418317Y-17730706D01*
X51396473Y-17868624D01*
X51366544Y-17931759D01*
X51307232Y-17968690D01*
X51237370Y-17967692D01*
X51179137Y-17929082D01*
X51151023Y-17865119D01*
X51150000Y-17849226D01*
X51150000Y-17302172D01*
X51149999Y-17302155D01*
X51143598Y-17242627D01*
X51143596Y-17242619D01*
X51125050Y-17192893D01*
X51093354Y-17107913D01*
X51093350Y-17107906D01*
X51007190Y-16992812D01*
X51007187Y-16992809D01*
X50892093Y-16906649D01*
X50892086Y-16906645D01*
X50757379Y-16856403D01*
X50757372Y-16856401D01*
X50697844Y-16850000D01*
X50125000Y-16850000D01*
X50125000Y-17619382D01*
X50052661Y-17600000D01*
X49947339Y-17600000D01*
X49875000Y-17619382D01*
X49875000Y-16850000D01*
X49302155Y-16850000D01*
X49242627Y-16856401D01*
X49242620Y-16856403D01*
X49107913Y-16906645D01*
X49107906Y-16906649D01*
X48992812Y-16992809D01*
X48992809Y-16992812D01*
X48906649Y-17107906D01*
X48906645Y-17107913D01*
X48856403Y-17242620D01*
X48856401Y-17242627D01*
X48850000Y-17302155D01*
X500500Y-17302155D01*
X500500Y-16598543D01*
X68999499Y-16598543D01*
X69037947Y-16791829D01*
X69037950Y-16791839D01*
X69113364Y-16973907D01*
X69113371Y-16973920D01*
X69222860Y-17137781D01*
X69222863Y-17137785D01*
X69362214Y-17277136D01*
X69362218Y-17277139D01*
X69526079Y-17386628D01*
X69526092Y-17386635D01*
X69708160Y-17462049D01*
X69708165Y-17462051D01*
X69708169Y-17462051D01*
X69708170Y-17462052D01*
X69901456Y-17500500D01*
X69901459Y-17500500D01*
X70098543Y-17500500D01*
X70228582Y-17474632D01*
X70291835Y-17462051D01*
X70448227Y-17397272D01*
X70473907Y-17386635D01*
X70473907Y-17386634D01*
X70473914Y-17386632D01*
X70637782Y-17277139D01*
X70777139Y-17137782D01*
X70886632Y-16973914D01*
X70962051Y-16791835D01*
X70992354Y-16639493D01*
X88850000Y-16639493D01*
X88850000Y-16820506D01*
X88878317Y-16999293D01*
X88934251Y-17171444D01*
X88934252Y-17171447D01*
X89016430Y-17332726D01*
X89102301Y-17450920D01*
X89642474Y-16910748D01*
X89679920Y-16975606D01*
X89754394Y-17050080D01*
X89819250Y-17087524D01*
X89279078Y-17627696D01*
X89279078Y-17627698D01*
X89397265Y-17713565D01*
X89558552Y-17795747D01*
X89558555Y-17795748D01*
X89730706Y-17851682D01*
X89909494Y-17880000D01*
X90090506Y-17880000D01*
X90269293Y-17851682D01*
X90441444Y-17795748D01*
X90441447Y-17795747D01*
X90602734Y-17713565D01*
X90720920Y-17627699D01*
X90720921Y-17627697D01*
X90180749Y-17087524D01*
X90245606Y-17050080D01*
X90320080Y-16975606D01*
X90357525Y-16910749D01*
X90897697Y-17450921D01*
X90897699Y-17450920D01*
X90983565Y-17332734D01*
X91065747Y-17171447D01*
X91065748Y-17171444D01*
X91121682Y-16999293D01*
X91150000Y-16820506D01*
X91150000Y-16639493D01*
X91121682Y-16460706D01*
X91065748Y-16288555D01*
X91065747Y-16288552D01*
X90983565Y-16127265D01*
X90897698Y-16009078D01*
X90897696Y-16009078D01*
X90357524Y-16549250D01*
X90320080Y-16484394D01*
X90245606Y-16409920D01*
X90180748Y-16372474D01*
X90720920Y-15832301D01*
X90602726Y-15746430D01*
X90441447Y-15664252D01*
X90441444Y-15664251D01*
X90269293Y-15608317D01*
X90090506Y-15580000D01*
X89909494Y-15580000D01*
X89730706Y-15608317D01*
X89558555Y-15664251D01*
X89558552Y-15664252D01*
X89397272Y-15746430D01*
X89279078Y-15832301D01*
X89819251Y-16372474D01*
X89754394Y-16409920D01*
X89679920Y-16484394D01*
X89642474Y-16549251D01*
X89102301Y-16009078D01*
X89016430Y-16127272D01*
X88934252Y-16288552D01*
X88934251Y-16288555D01*
X88878317Y-16460706D01*
X88850000Y-16639493D01*
X70992354Y-16639493D01*
X71000500Y-16598541D01*
X71000500Y-16401459D01*
X71000500Y-16401456D01*
X70962052Y-16208170D01*
X70962051Y-16208169D01*
X70962051Y-16208165D01*
X70962049Y-16208160D01*
X70886635Y-16026092D01*
X70886625Y-16026074D01*
X70834760Y-15948452D01*
X70834759Y-15948451D01*
X70777139Y-15862218D01*
X70777136Y-15862214D01*
X70637785Y-15722863D01*
X70637781Y-15722860D01*
X70473920Y-15613371D01*
X70473907Y-15613364D01*
X70291839Y-15537950D01*
X70291829Y-15537947D01*
X70098543Y-15499500D01*
X70098541Y-15499500D01*
X69901459Y-15499500D01*
X69901457Y-15499500D01*
X69708170Y-15537947D01*
X69708160Y-15537950D01*
X69526092Y-15613364D01*
X69526079Y-15613371D01*
X69362218Y-15722860D01*
X69362214Y-15722863D01*
X69222863Y-15862214D01*
X69222860Y-15862218D01*
X69113371Y-16026079D01*
X69113364Y-16026092D01*
X69037950Y-16208160D01*
X69037947Y-16208170D01*
X68999500Y-16401456D01*
X68999500Y-16401459D01*
X68999500Y-16598541D01*
X68999500Y-16598543D01*
X68999499Y-16598543D01*
X500500Y-16598543D01*
X500500Y-12536228D01*
X4149500Y-12536228D01*
X4149500Y-12703771D01*
X4182182Y-12868074D01*
X4182184Y-12868082D01*
X4246295Y-13022860D01*
X4339373Y-13162162D01*
X4457837Y-13280626D01*
X4545949Y-13339500D01*
X4597137Y-13373703D01*
X4751918Y-13437816D01*
X4872339Y-13461769D01*
X4916228Y-13470499D01*
X4916232Y-13470500D01*
X4916233Y-13470500D01*
X5083768Y-13470500D01*
X5083769Y-13470499D01*
X5248082Y-13437816D01*
X5402863Y-13373703D01*
X5542162Y-13280626D01*
X5660626Y-13162162D01*
X5753703Y-13022863D01*
X5817816Y-12868082D01*
X5850500Y-12703767D01*
X5850500Y-12536233D01*
X5850499Y-12536228D01*
X6689500Y-12536228D01*
X6689500Y-12703771D01*
X6722182Y-12868074D01*
X6722184Y-12868082D01*
X6786295Y-13022860D01*
X6879373Y-13162162D01*
X6997837Y-13280626D01*
X7085949Y-13339500D01*
X7137137Y-13373703D01*
X7291918Y-13437816D01*
X7412339Y-13461769D01*
X7456228Y-13470499D01*
X7456232Y-13470500D01*
X7456233Y-13470500D01*
X7623768Y-13470500D01*
X7623769Y-13470499D01*
X7788082Y-13437816D01*
X7942863Y-13373703D01*
X8082162Y-13280626D01*
X8200626Y-13162162D01*
X8293703Y-13022863D01*
X8357816Y-12868082D01*
X8390500Y-12703767D01*
X8390500Y-12598543D01*
X58999499Y-12598543D01*
X59037947Y-12791829D01*
X59037950Y-12791839D01*
X59113364Y-12973907D01*
X59113371Y-12973920D01*
X59222860Y-13137781D01*
X59222863Y-13137785D01*
X59362214Y-13277136D01*
X59362218Y-13277139D01*
X59526079Y-13386628D01*
X59526092Y-13386635D01*
X59708160Y-13462049D01*
X59708165Y-13462051D01*
X59708169Y-13462051D01*
X59708170Y-13462052D01*
X59901456Y-13500500D01*
X59901459Y-13500500D01*
X60098543Y-13500500D01*
X60249359Y-13470500D01*
X60291835Y-13462051D01*
X60473914Y-13386632D01*
X60637782Y-13277139D01*
X60734674Y-13180247D01*
X68999500Y-13180247D01*
X68999500Y-14819752D01*
X69011131Y-14878229D01*
X69011132Y-14878230D01*
X69055447Y-14944552D01*
X69121769Y-14988867D01*
X69121770Y-14988868D01*
X69180247Y-15000499D01*
X69180250Y-15000500D01*
X69180252Y-15000500D01*
X70819750Y-15000500D01*
X70819751Y-15000499D01*
X70834568Y-14997552D01*
X70878229Y-14988868D01*
X70878229Y-14988867D01*
X70878231Y-14988867D01*
X70944552Y-14944552D01*
X70988867Y-14878231D01*
X70988867Y-14878229D01*
X70988868Y-14878229D01*
X71000499Y-14819752D01*
X71000500Y-14819750D01*
X71000500Y-13180249D01*
X71000499Y-13180247D01*
X70988868Y-13121770D01*
X70988867Y-13121769D01*
X70944552Y-13055447D01*
X70878230Y-13011132D01*
X70878229Y-13011131D01*
X70819752Y-12999500D01*
X70819748Y-12999500D01*
X69180252Y-12999500D01*
X69180247Y-12999500D01*
X69121770Y-13011131D01*
X69121769Y-13011132D01*
X69055447Y-13055447D01*
X69011132Y-13121769D01*
X69011131Y-13121770D01*
X68999500Y-13180247D01*
X60734674Y-13180247D01*
X60777139Y-13137782D01*
X60789282Y-13119607D01*
X60798864Y-13105269D01*
X60882400Y-12980247D01*
X77799500Y-12980247D01*
X77799500Y-15019752D01*
X77811131Y-15078229D01*
X77811132Y-15078230D01*
X77855447Y-15144552D01*
X77921769Y-15188867D01*
X77921770Y-15188868D01*
X77980247Y-15200499D01*
X77980250Y-15200500D01*
X77980252Y-15200500D01*
X80019750Y-15200500D01*
X80019751Y-15200499D01*
X80034568Y-15197552D01*
X80078229Y-15188868D01*
X80078229Y-15188867D01*
X80078231Y-15188867D01*
X80144552Y-15144552D01*
X80188867Y-15078231D01*
X80188943Y-15077848D01*
X80189149Y-15076816D01*
X80200500Y-15019747D01*
X80200500Y-13881947D01*
X82500000Y-13881947D01*
X82500000Y-14118052D01*
X82536934Y-14351247D01*
X82609897Y-14575802D01*
X82717087Y-14786175D01*
X82851728Y-14971493D01*
X82851729Y-14971494D01*
X83569270Y-14253953D01*
X83599901Y-14307007D01*
X83692993Y-14400099D01*
X83746046Y-14430729D01*
X83028504Y-15148269D01*
X83028505Y-15148270D01*
X83213825Y-15282912D01*
X83424197Y-15390102D01*
X83648752Y-15463065D01*
X83648751Y-15463065D01*
X83881948Y-15500000D01*
X84118052Y-15500000D01*
X84351247Y-15463065D01*
X84575802Y-15390102D01*
X84786174Y-15282912D01*
X84971493Y-15148271D01*
X84971494Y-15148269D01*
X84253953Y-14430729D01*
X84307007Y-14400099D01*
X84400099Y-14307007D01*
X84430729Y-14253953D01*
X85148269Y-14971494D01*
X85148271Y-14971493D01*
X85282912Y-14786174D01*
X85390102Y-14575802D01*
X85463065Y-14351247D01*
X85500000Y-14118052D01*
X85500000Y-13881947D01*
X85463065Y-13648752D01*
X85431784Y-13552478D01*
X85421311Y-13520247D01*
X89149500Y-13520247D01*
X89149500Y-14859752D01*
X89161131Y-14918229D01*
X89161132Y-14918230D01*
X89205447Y-14984552D01*
X89271769Y-15028867D01*
X89271770Y-15028868D01*
X89330247Y-15040499D01*
X89330250Y-15040500D01*
X89330252Y-15040500D01*
X90669750Y-15040500D01*
X90669751Y-15040499D01*
X90684568Y-15037552D01*
X90728229Y-15028868D01*
X90728229Y-15028867D01*
X90728231Y-15028867D01*
X90794552Y-14984552D01*
X90838867Y-14918231D01*
X90838867Y-14918229D01*
X90838868Y-14918229D01*
X90850499Y-14859752D01*
X90850500Y-14859750D01*
X90850500Y-13520249D01*
X90850499Y-13520247D01*
X90838868Y-13461770D01*
X90838867Y-13461769D01*
X90794552Y-13395447D01*
X90728230Y-13351132D01*
X90728229Y-13351131D01*
X90669752Y-13339500D01*
X90669748Y-13339500D01*
X89330252Y-13339500D01*
X89330247Y-13339500D01*
X89271770Y-13351131D01*
X89271769Y-13351132D01*
X89205447Y-13395447D01*
X89161132Y-13461769D01*
X89161131Y-13461770D01*
X89149500Y-13520247D01*
X85421311Y-13520247D01*
X85390102Y-13424197D01*
X85282912Y-13213825D01*
X85148270Y-13028505D01*
X85148269Y-13028504D01*
X84430728Y-13746045D01*
X84400099Y-13692993D01*
X84307007Y-13599901D01*
X84253953Y-13569270D01*
X84971494Y-12851729D01*
X84971493Y-12851728D01*
X84786175Y-12717087D01*
X84575802Y-12609897D01*
X84351247Y-12536934D01*
X84351248Y-12536934D01*
X84118052Y-12500000D01*
X83881948Y-12500000D01*
X83648752Y-12536934D01*
X83424197Y-12609897D01*
X83213830Y-12717084D01*
X83028505Y-12851729D01*
X83746046Y-13569270D01*
X83692993Y-13599901D01*
X83599901Y-13692993D01*
X83569270Y-13746046D01*
X82851729Y-13028505D01*
X82717084Y-13213830D01*
X82609897Y-13424197D01*
X82536934Y-13648752D01*
X82500000Y-13881947D01*
X80200500Y-13881947D01*
X80200500Y-12980249D01*
X80189148Y-12923180D01*
X80189147Y-12923177D01*
X80188867Y-12921769D01*
X80152989Y-12868074D01*
X80144552Y-12855447D01*
X80078230Y-12811132D01*
X80078229Y-12811131D01*
X80019752Y-12799500D01*
X80019748Y-12799500D01*
X77980252Y-12799500D01*
X77980247Y-12799500D01*
X77921770Y-12811131D01*
X77921769Y-12811132D01*
X77855447Y-12855447D01*
X77811132Y-12921769D01*
X77811131Y-12921770D01*
X77799500Y-12980247D01*
X60882400Y-12980247D01*
X60886628Y-12973920D01*
X60886628Y-12973919D01*
X60886632Y-12973914D01*
X60962051Y-12791835D01*
X60974632Y-12728582D01*
X61000500Y-12598543D01*
X61000500Y-12401456D01*
X60962052Y-12208170D01*
X60962051Y-12208169D01*
X60962051Y-12208165D01*
X60962049Y-12208160D01*
X60886635Y-12026092D01*
X60886628Y-12026079D01*
X60777139Y-11862218D01*
X60777136Y-11862214D01*
X60637785Y-11722863D01*
X60637781Y-11722860D01*
X60473920Y-11613371D01*
X60473907Y-11613364D01*
X60291839Y-11537950D01*
X60291829Y-11537947D01*
X60098543Y-11499500D01*
X60098541Y-11499500D01*
X59901459Y-11499500D01*
X59901457Y-11499500D01*
X59708170Y-11537947D01*
X59708160Y-11537950D01*
X59526092Y-11613364D01*
X59526079Y-11613371D01*
X59362218Y-11722860D01*
X59362214Y-11722863D01*
X59222863Y-11862214D01*
X59222860Y-11862218D01*
X59113371Y-12026079D01*
X59113364Y-12026092D01*
X59037950Y-12208160D01*
X59037947Y-12208170D01*
X58999500Y-12401456D01*
X58999500Y-12401459D01*
X58999500Y-12598541D01*
X58999500Y-12598543D01*
X58999499Y-12598543D01*
X8390500Y-12598543D01*
X8390500Y-12536233D01*
X8383293Y-12500000D01*
X8367293Y-12419558D01*
X8357817Y-12371923D01*
X8357816Y-12371922D01*
X8357816Y-12371918D01*
X8293703Y-12217137D01*
X8262537Y-12170494D01*
X8200626Y-12077837D01*
X8082162Y-11959373D01*
X7942860Y-11866295D01*
X7788082Y-11802184D01*
X7788074Y-11802182D01*
X7623771Y-11769500D01*
X7623767Y-11769500D01*
X7456233Y-11769500D01*
X7456228Y-11769500D01*
X7291925Y-11802182D01*
X7291917Y-11802184D01*
X7137139Y-11866295D01*
X6997837Y-11959373D01*
X6879373Y-12077837D01*
X6786295Y-12217139D01*
X6722184Y-12371917D01*
X6722182Y-12371925D01*
X6689500Y-12536228D01*
X5850499Y-12536228D01*
X5817816Y-12371918D01*
X5753703Y-12217137D01*
X5722537Y-12170494D01*
X5660626Y-12077837D01*
X5542162Y-11959373D01*
X5402860Y-11866295D01*
X5248082Y-11802184D01*
X5248074Y-11802182D01*
X5083771Y-11769500D01*
X5083767Y-11769500D01*
X4916233Y-11769500D01*
X4916228Y-11769500D01*
X4751925Y-11802182D01*
X4751917Y-11802184D01*
X4597139Y-11866295D01*
X4457837Y-11959373D01*
X4339373Y-12077837D01*
X4246295Y-12217139D01*
X4182184Y-12371917D01*
X4182182Y-12371925D01*
X4149500Y-12536228D01*
X500500Y-12536228D01*
X500500Y-9996228D01*
X4149500Y-9996228D01*
X4149500Y-10163771D01*
X4182182Y-10328074D01*
X4182184Y-10328082D01*
X4246295Y-10482860D01*
X4339373Y-10622162D01*
X4457837Y-10740626D01*
X4512483Y-10777139D01*
X4597137Y-10833703D01*
X4751918Y-10897816D01*
X4916228Y-10930499D01*
X4916232Y-10930500D01*
X4916233Y-10930500D01*
X5083768Y-10930500D01*
X5083769Y-10930499D01*
X5248082Y-10897816D01*
X5402863Y-10833703D01*
X5542162Y-10740626D01*
X5660626Y-10622162D01*
X5753703Y-10482863D01*
X5817816Y-10328082D01*
X5850500Y-10163767D01*
X5850500Y-9996233D01*
X5850499Y-9996228D01*
X6689500Y-9996228D01*
X6689500Y-10163771D01*
X6722182Y-10328074D01*
X6722184Y-10328082D01*
X6786295Y-10482860D01*
X6879373Y-10622162D01*
X6997837Y-10740626D01*
X7052483Y-10777139D01*
X7137137Y-10833703D01*
X7291918Y-10897816D01*
X7456228Y-10930499D01*
X7456232Y-10930500D01*
X7456233Y-10930500D01*
X7623768Y-10930500D01*
X7623769Y-10930499D01*
X7788082Y-10897816D01*
X7942863Y-10833703D01*
X8082162Y-10740626D01*
X8200626Y-10622162D01*
X8293703Y-10482863D01*
X8357816Y-10328082D01*
X8390500Y-10163767D01*
X8390500Y-9996233D01*
X8371648Y-9901459D01*
X8357817Y-9831925D01*
X8357816Y-9831918D01*
X8293703Y-9677137D01*
X8262537Y-9630494D01*
X8200626Y-9537837D01*
X8082162Y-9419373D01*
X7942860Y-9326295D01*
X7788082Y-9262184D01*
X7788074Y-9262182D01*
X7623771Y-9229500D01*
X7623767Y-9229500D01*
X7456233Y-9229500D01*
X7456228Y-9229500D01*
X7291925Y-9262182D01*
X7291917Y-9262184D01*
X7137139Y-9326295D01*
X6997837Y-9419373D01*
X6879373Y-9537837D01*
X6786295Y-9677139D01*
X6722184Y-9831917D01*
X6722182Y-9831925D01*
X6689500Y-9996228D01*
X5850499Y-9996228D01*
X5817816Y-9831918D01*
X5753703Y-9677137D01*
X5722537Y-9630494D01*
X5660626Y-9537837D01*
X5542162Y-9419373D01*
X5402860Y-9326295D01*
X5248082Y-9262184D01*
X5248074Y-9262182D01*
X5083771Y-9229500D01*
X5083767Y-9229500D01*
X4916233Y-9229500D01*
X4916228Y-9229500D01*
X4751925Y-9262182D01*
X4751917Y-9262184D01*
X4597139Y-9326295D01*
X4457837Y-9419373D01*
X4339373Y-9537837D01*
X4246295Y-9677139D01*
X4182184Y-9831917D01*
X4182182Y-9831925D01*
X4149500Y-9996228D01*
X500500Y-9996228D01*
X500500Y-7456228D01*
X4149500Y-7456228D01*
X4149500Y-7623771D01*
X4182182Y-7788074D01*
X4182184Y-7788082D01*
X4246295Y-7942860D01*
X4339373Y-8082162D01*
X4457837Y-8200626D01*
X4550494Y-8262537D01*
X4597137Y-8293703D01*
X4751918Y-8357816D01*
X4896767Y-8386628D01*
X4916228Y-8390499D01*
X4916232Y-8390500D01*
X4916233Y-8390500D01*
X5083768Y-8390500D01*
X5083769Y-8390499D01*
X5248082Y-8357816D01*
X5402863Y-8293703D01*
X5542162Y-8200626D01*
X5660626Y-8082162D01*
X5753703Y-7942863D01*
X5817816Y-7788082D01*
X5850500Y-7623767D01*
X5850500Y-7456233D01*
X5850499Y-7456228D01*
X6689500Y-7456228D01*
X6689500Y-7623771D01*
X6722182Y-7788074D01*
X6722184Y-7788082D01*
X6786295Y-7942860D01*
X6879373Y-8082162D01*
X6997837Y-8200626D01*
X7090494Y-8262537D01*
X7137137Y-8293703D01*
X7291918Y-8357816D01*
X7436767Y-8386628D01*
X7456228Y-8390499D01*
X7456232Y-8390500D01*
X7456233Y-8390500D01*
X7623768Y-8390500D01*
X7623769Y-8390499D01*
X7788082Y-8357816D01*
X7942863Y-8293703D01*
X8082162Y-8200626D01*
X8200626Y-8082162D01*
X8293703Y-7942863D01*
X8357816Y-7788082D01*
X8390500Y-7623767D01*
X8390500Y-7456233D01*
X8390409Y-7455777D01*
X8382698Y-7417007D01*
X8378854Y-7397682D01*
X58700000Y-7397682D01*
X58700000Y-7602317D01*
X58732009Y-7804417D01*
X58795244Y-7999031D01*
X58888140Y-8181349D01*
X58994913Y-8328308D01*
X58994914Y-8328309D01*
X59605872Y-7717350D01*
X59639910Y-7776306D01*
X59723694Y-7860090D01*
X59782648Y-7894127D01*
X59171689Y-8505085D01*
X59318650Y-8611859D01*
X59500968Y-8704755D01*
X59695576Y-8767988D01*
X59772317Y-8780142D01*
X59835452Y-8810071D01*
X59872384Y-8869383D01*
X59871386Y-8939245D01*
X59832777Y-8997478D01*
X59777113Y-9024233D01*
X59708169Y-9037947D01*
X59708160Y-9037950D01*
X59526092Y-9113364D01*
X59526079Y-9113371D01*
X59362218Y-9222860D01*
X59362214Y-9222863D01*
X59222863Y-9362214D01*
X59222860Y-9362218D01*
X59113371Y-9526079D01*
X59113364Y-9526092D01*
X59037950Y-9708160D01*
X59037947Y-9708170D01*
X58999500Y-9901456D01*
X58999500Y-9901459D01*
X58999500Y-10098541D01*
X58999500Y-10098543D01*
X58999499Y-10098543D01*
X59037947Y-10291829D01*
X59037950Y-10291839D01*
X59113364Y-10473907D01*
X59113371Y-10473920D01*
X59222860Y-10637781D01*
X59222863Y-10637785D01*
X59362214Y-10777136D01*
X59362218Y-10777139D01*
X59526079Y-10886628D01*
X59526092Y-10886635D01*
X59708160Y-10962049D01*
X59708165Y-10962051D01*
X59708169Y-10962051D01*
X59708170Y-10962052D01*
X59901456Y-11000500D01*
X59901459Y-11000500D01*
X60098543Y-11000500D01*
X60228582Y-10974632D01*
X60291835Y-10962051D01*
X60473914Y-10886632D01*
X60637782Y-10777139D01*
X60777139Y-10637782D01*
X60886632Y-10473914D01*
X60962051Y-10291835D01*
X60987525Y-10163771D01*
X61000500Y-10098543D01*
X61000500Y-9901456D01*
X60962052Y-9708170D01*
X60962051Y-9708169D01*
X60962051Y-9708165D01*
X60891500Y-9537838D01*
X60886635Y-9526092D01*
X60886628Y-9526079D01*
X60777139Y-9362218D01*
X60777136Y-9362214D01*
X60637785Y-9222863D01*
X60637781Y-9222860D01*
X60473920Y-9113371D01*
X60473907Y-9113364D01*
X60291839Y-9037950D01*
X60291830Y-9037947D01*
X60222886Y-9024233D01*
X60160976Y-8991847D01*
X60126402Y-8931131D01*
X60130143Y-8861361D01*
X60171010Y-8804690D01*
X60227682Y-8780142D01*
X60304423Y-8767988D01*
X60499031Y-8704755D01*
X60681349Y-8611859D01*
X60828308Y-8505085D01*
X60828309Y-8505084D01*
X60217352Y-7894127D01*
X60276306Y-7860090D01*
X60360090Y-7776306D01*
X60394127Y-7717351D01*
X61005084Y-8328309D01*
X61005085Y-8328308D01*
X61111859Y-8181349D01*
X61204755Y-7999031D01*
X61267990Y-7804417D01*
X61300000Y-7602317D01*
X61300000Y-7598543D01*
X68999499Y-7598543D01*
X69037947Y-7791829D01*
X69037950Y-7791839D01*
X69113364Y-7973907D01*
X69113371Y-7973920D01*
X69222860Y-8137781D01*
X69222863Y-8137785D01*
X69362214Y-8277136D01*
X69362218Y-8277139D01*
X69526079Y-8386628D01*
X69526092Y-8386635D01*
X69708160Y-8462049D01*
X69708165Y-8462051D01*
X69708169Y-8462051D01*
X69708170Y-8462052D01*
X69901456Y-8500500D01*
X69901459Y-8500500D01*
X70098543Y-8500500D01*
X70228582Y-8474632D01*
X70291835Y-8462051D01*
X70473914Y-8386632D01*
X70637782Y-8277139D01*
X70777139Y-8137782D01*
X70886632Y-7973914D01*
X70962051Y-7791835D01*
X70985551Y-7673694D01*
X71000500Y-7598543D01*
X71000500Y-7401456D01*
X70962052Y-7208170D01*
X70962051Y-7208169D01*
X70962051Y-7208165D01*
X70933779Y-7139910D01*
X70886635Y-7026092D01*
X70886628Y-7026079D01*
X70777139Y-6862218D01*
X70777136Y-6862214D01*
X70637785Y-6722863D01*
X70637781Y-6722860D01*
X70473920Y-6613371D01*
X70473907Y-6613364D01*
X70291839Y-6537950D01*
X70291829Y-6537947D01*
X70098543Y-6499500D01*
X70098541Y-6499500D01*
X69901459Y-6499500D01*
X69901457Y-6499500D01*
X69708170Y-6537947D01*
X69708160Y-6537950D01*
X69526092Y-6613364D01*
X69526079Y-6613371D01*
X69362218Y-6722860D01*
X69362214Y-6722863D01*
X69222863Y-6862214D01*
X69222860Y-6862218D01*
X69113371Y-7026079D01*
X69113364Y-7026092D01*
X69037950Y-7208160D01*
X69037947Y-7208170D01*
X68999500Y-7401456D01*
X68999500Y-7401459D01*
X68999500Y-7598541D01*
X68999500Y-7598543D01*
X68999499Y-7598543D01*
X61300000Y-7598543D01*
X61300000Y-7397682D01*
X61267990Y-7195582D01*
X61204755Y-7000968D01*
X61111859Y-6818650D01*
X61005085Y-6671690D01*
X61005085Y-6671689D01*
X60394126Y-7282647D01*
X60360090Y-7223694D01*
X60276306Y-7139910D01*
X60217351Y-7105872D01*
X60828309Y-6494914D01*
X60828308Y-6494913D01*
X60681349Y-6388140D01*
X60499031Y-6295244D01*
X60336490Y-6242431D01*
X60278815Y-6202993D01*
X60251617Y-6138634D01*
X60263532Y-6069788D01*
X60310776Y-6018312D01*
X60374809Y-6000500D01*
X60819750Y-6000500D01*
X60819751Y-6000499D01*
X60834568Y-5997552D01*
X60878229Y-5988868D01*
X60878229Y-5988867D01*
X60878231Y-5988867D01*
X60944552Y-5944552D01*
X60988867Y-5878231D01*
X60988867Y-5878229D01*
X60988868Y-5878229D01*
X61000499Y-5819752D01*
X61000500Y-5819750D01*
X61000500Y-4180249D01*
X61000499Y-4180247D01*
X68999500Y-4180247D01*
X68999500Y-5819752D01*
X69011131Y-5878229D01*
X69011132Y-5878230D01*
X69055447Y-5944552D01*
X69121769Y-5988867D01*
X69121770Y-5988868D01*
X69180247Y-6000499D01*
X69180250Y-6000500D01*
X69180252Y-6000500D01*
X70819750Y-6000500D01*
X70819751Y-6000499D01*
X70834568Y-5997552D01*
X70878229Y-5988868D01*
X70878229Y-5988867D01*
X70878231Y-5988867D01*
X70944552Y-5944552D01*
X70988867Y-5878231D01*
X70988867Y-5878229D01*
X70988868Y-5878229D01*
X71000499Y-5819752D01*
X71000500Y-5819750D01*
X71000500Y-4180249D01*
X71000499Y-4180247D01*
X70988868Y-4121770D01*
X70988867Y-4121769D01*
X70944552Y-4055447D01*
X70878230Y-4011132D01*
X70878229Y-4011131D01*
X70819752Y-3999500D01*
X70819748Y-3999500D01*
X69180252Y-3999500D01*
X69180247Y-3999500D01*
X69121770Y-4011131D01*
X69121769Y-4011132D01*
X69055447Y-4055447D01*
X69011132Y-4121769D01*
X69011131Y-4121770D01*
X68999500Y-4180247D01*
X61000499Y-4180247D01*
X60988868Y-4121770D01*
X60988867Y-4121769D01*
X60944552Y-4055447D01*
X60878230Y-4011132D01*
X60878229Y-4011131D01*
X60819752Y-3999500D01*
X60819748Y-3999500D01*
X59180252Y-3999500D01*
X59180247Y-3999500D01*
X59121770Y-4011131D01*
X59121769Y-4011132D01*
X59055447Y-4055447D01*
X59011132Y-4121769D01*
X59011131Y-4121770D01*
X58999500Y-4180247D01*
X58999500Y-5819752D01*
X59011131Y-5878229D01*
X59011132Y-5878230D01*
X59055447Y-5944552D01*
X59121769Y-5988867D01*
X59121770Y-5988868D01*
X59180247Y-6000499D01*
X59180250Y-6000500D01*
X59625191Y-6000500D01*
X59692230Y-6020185D01*
X59737985Y-6072989D01*
X59747929Y-6142147D01*
X59718904Y-6205703D01*
X59663510Y-6242431D01*
X59500968Y-6295244D01*
X59318649Y-6388141D01*
X59318640Y-6388147D01*
X59171690Y-6494912D01*
X59171689Y-6494913D01*
X59782649Y-7105872D01*
X59723694Y-7139910D01*
X59639910Y-7223694D01*
X59605872Y-7282648D01*
X58994913Y-6671689D01*
X58994912Y-6671690D01*
X58888147Y-6818640D01*
X58888141Y-6818649D01*
X58795244Y-7000968D01*
X58732009Y-7195582D01*
X58700000Y-7397682D01*
X8378854Y-7397682D01*
X8357817Y-7291925D01*
X8357816Y-7291918D01*
X8293703Y-7137137D01*
X8219501Y-7026086D01*
X8200626Y-6997837D01*
X8082162Y-6879373D01*
X7942860Y-6786295D01*
X7788082Y-6722184D01*
X7788074Y-6722182D01*
X7623771Y-6689500D01*
X7623767Y-6689500D01*
X7456233Y-6689500D01*
X7456228Y-6689500D01*
X7291925Y-6722182D01*
X7291917Y-6722184D01*
X7137139Y-6786295D01*
X6997837Y-6879373D01*
X6879373Y-6997837D01*
X6786295Y-7137139D01*
X6722184Y-7291917D01*
X6722182Y-7291925D01*
X6689500Y-7456228D01*
X5850499Y-7456228D01*
X5817816Y-7291918D01*
X5753703Y-7137137D01*
X5679501Y-7026086D01*
X5660626Y-6997837D01*
X5542162Y-6879373D01*
X5402860Y-6786295D01*
X5248082Y-6722184D01*
X5248074Y-6722182D01*
X5083771Y-6689500D01*
X5083767Y-6689500D01*
X4916233Y-6689500D01*
X4916228Y-6689500D01*
X4751925Y-6722182D01*
X4751917Y-6722184D01*
X4597139Y-6786295D01*
X4457837Y-6879373D01*
X4339373Y-6997837D01*
X4246295Y-7137139D01*
X4182184Y-7291917D01*
X4182182Y-7291925D01*
X4149500Y-7456228D01*
X500500Y-7456228D01*
X500500Y-4330247D01*
X4149500Y-4330247D01*
X4149500Y-5669752D01*
X4161131Y-5728229D01*
X4161132Y-5728230D01*
X4205447Y-5794552D01*
X4271769Y-5838867D01*
X4271770Y-5838868D01*
X4330247Y-5850499D01*
X4330250Y-5850500D01*
X4330252Y-5850500D01*
X5669750Y-5850500D01*
X5669751Y-5850499D01*
X5684568Y-5847552D01*
X5728229Y-5838868D01*
X5728229Y-5838867D01*
X5728231Y-5838867D01*
X5794552Y-5794552D01*
X5838867Y-5728231D01*
X5838867Y-5728229D01*
X5838868Y-5728229D01*
X5850499Y-5669752D01*
X5850500Y-5669750D01*
X5850500Y-4909493D01*
X6390000Y-4909493D01*
X6390000Y-5090506D01*
X6418317Y-5269293D01*
X6474251Y-5441444D01*
X6474252Y-5441447D01*
X6556430Y-5602726D01*
X6642301Y-5720920D01*
X7182474Y-5180748D01*
X7219920Y-5245606D01*
X7294394Y-5320080D01*
X7359250Y-5357524D01*
X6819078Y-5897696D01*
X6819078Y-5897698D01*
X6937265Y-5983565D01*
X7098552Y-6065747D01*
X7098555Y-6065748D01*
X7270706Y-6121682D01*
X7449494Y-6150000D01*
X7630506Y-6150000D01*
X7809293Y-6121682D01*
X7981444Y-6065748D01*
X7981447Y-6065747D01*
X8142734Y-5983565D01*
X8260920Y-5897699D01*
X8260921Y-5897697D01*
X7720749Y-5357524D01*
X7785606Y-5320080D01*
X7860080Y-5245606D01*
X7897525Y-5180749D01*
X8437697Y-5720921D01*
X8437699Y-5720920D01*
X8523565Y-5602734D01*
X8605747Y-5441447D01*
X8605748Y-5441444D01*
X8661682Y-5269293D01*
X8690000Y-5090506D01*
X8690000Y-4909493D01*
X8661682Y-4730706D01*
X8605748Y-4558555D01*
X8605747Y-4558552D01*
X8523565Y-4397265D01*
X8437698Y-4279078D01*
X8437696Y-4279078D01*
X7897524Y-4819250D01*
X7860080Y-4754394D01*
X7785606Y-4679920D01*
X7720748Y-4642474D01*
X8260920Y-4102301D01*
X8142726Y-4016430D01*
X7981447Y-3934252D01*
X7981444Y-3934251D01*
X7809293Y-3878317D01*
X7630506Y-3850000D01*
X7449494Y-3850000D01*
X7270706Y-3878317D01*
X7098555Y-3934251D01*
X7098552Y-3934252D01*
X6937272Y-4016430D01*
X6819078Y-4102301D01*
X7359251Y-4642474D01*
X7294394Y-4679920D01*
X7219920Y-4754394D01*
X7182474Y-4819251D01*
X6642301Y-4279078D01*
X6556430Y-4397272D01*
X6474252Y-4558552D01*
X6474251Y-4558555D01*
X6418317Y-4730706D01*
X6390000Y-4909493D01*
X5850500Y-4909493D01*
X5850500Y-4330249D01*
X5850499Y-4330247D01*
X5838868Y-4271770D01*
X5838867Y-4271769D01*
X5803242Y-4218453D01*
X5803241Y-4218452D01*
X5794551Y-4205447D01*
X5728230Y-4161132D01*
X5728229Y-4161131D01*
X5669752Y-4149500D01*
X5669748Y-4149500D01*
X4330252Y-4149500D01*
X4330247Y-4149500D01*
X4271770Y-4161131D01*
X4271769Y-4161132D01*
X4205447Y-4205447D01*
X4161132Y-4271769D01*
X4161131Y-4271770D01*
X4149500Y-4330247D01*
X500500Y-4330247D01*
X500500Y-624500D01*
X520185Y-557461D01*
X572989Y-511706D01*
X624500Y-500500D01*
X109375500Y-500500D01*
X109442539Y-520185D01*
G37*
%TD.AperFunction*%
%TD*%
M02*
