%TF.GenerationSoftware,KiCad,Pcbnew,10.0.3*%
%TF.CreationDate,2026-05-27T10:34:34-06:00*%
%TF.ProjectId,neolink-v1,6e656f6c-696e-46b2-9d76-312e6b696361,rev?*%
%TF.SameCoordinates,Original*%
%TF.FileFunction,Plated,1,2,PTH,Drill*%
%TF.FilePolarity,Positive*%
%FSLAX46Y46*%
G04 Gerber Fmt 4.6, Leading zero omitted, Abs format (unit mm)*
G04 Created by KiCad (PCBNEW 10.0.3) date 2026-05-27 10:34:34*
%MOMM*%
%LPD*%
G01*
G04 APERTURE LIST*
%TA.AperFunction,ViaDrill*%
%ADD10C,0.800000*%
%TD*%
%TA.AperFunction,ComponentDrill*%
%ADD11C,0.800000*%
%TD*%
%TA.AperFunction,ComponentDrill*%
%ADD12C,0.900000*%
%TD*%
%TA.AperFunction,ComponentDrill*%
%ADD13C,1.000000*%
%TD*%
%TA.AperFunction,ComponentDrill*%
%ADD14C,1.300000*%
%TD*%
G04 APERTURE END LIST*
D10*
X9000000Y-37830000D03*
X15240000Y-27940000D03*
X15240000Y-45720000D03*
X15240000Y-48260000D03*
X20320000Y-15240000D03*
X20320000Y-17780000D03*
X22860000Y-27940000D03*
D11*
%TO.C,J1*%
X2540000Y-21000000D03*
X2540000Y-23540000D03*
X2540000Y-26080000D03*
X2540000Y-28620000D03*
X2540000Y-31160000D03*
X2540000Y-33700000D03*
X2540000Y-36240000D03*
X2540000Y-38780000D03*
X2540000Y-41320000D03*
X2540000Y-43860000D03*
X2540000Y-46400000D03*
X2540000Y-48940000D03*
X2540000Y-51480000D03*
X2540000Y-54020000D03*
X2540000Y-56560000D03*
X2540000Y-59100000D03*
X5080000Y-21000000D03*
X5080000Y-23540000D03*
X5080000Y-26080000D03*
X5080000Y-28620000D03*
X5080000Y-31160000D03*
X5080000Y-33700000D03*
X5080000Y-36240000D03*
X5080000Y-38780000D03*
X5080000Y-41320000D03*
X5080000Y-43860000D03*
X5080000Y-46400000D03*
X5080000Y-48940000D03*
X5080000Y-51480000D03*
X5080000Y-54020000D03*
X5080000Y-56560000D03*
X5080000Y-59100000D03*
%TO.C,J3*%
X9000000Y-27500000D03*
X9000000Y-30040000D03*
X9000000Y-32580000D03*
X9000000Y-35120000D03*
X11540000Y-27500000D03*
X11540000Y-30040000D03*
X11540000Y-32580000D03*
X11540000Y-35120000D03*
%TO.C,J4*%
X22000000Y-38000000D03*
X22000000Y-40540000D03*
X22000000Y-43080000D03*
X22000000Y-45620000D03*
X24540000Y-38000000D03*
X24540000Y-40540000D03*
X24540000Y-43080000D03*
X24540000Y-45620000D03*
%TO.C,J2*%
X30000000Y-30000000D03*
X30000000Y-32540000D03*
X30000000Y-35080000D03*
X30000000Y-37620000D03*
X30000000Y-40160000D03*
X30000000Y-42700000D03*
D12*
%TO.C,J9*%
X9000000Y-72000000D03*
X9000000Y-74500000D03*
%TO.C,J5*%
X18000000Y-5000000D03*
X18000000Y-7500000D03*
X18000000Y-10000000D03*
X18000000Y-12500000D03*
%TO.C,J8*%
X18000000Y-62000000D03*
X18000000Y-64500000D03*
%TO.C,J6*%
X27000000Y-5000000D03*
X27000000Y-7500000D03*
X27000000Y-10000000D03*
X27000000Y-12500000D03*
%TO.C,J7*%
X30000000Y-20000000D03*
X30000000Y-22500000D03*
D13*
%TO.C,C1*%
X38000000Y-36000000D03*
X43000000Y-36000000D03*
D14*
%TO.C,J10*%
X34950000Y-66950000D03*
X34950000Y-73050000D03*
X38000000Y-70000000D03*
X41050000Y-66950000D03*
X41050000Y-73050000D03*
M02*
