M48
; DRILL file KiCad 10.0.3 date 2026-05-27T14:06:48
; FORMAT={-:-/ absolute / metric / decimal}
; #@! TF.CreationDate,2026-05-27T14:06:48-06:00
; #@! TF.GenerationSoftware,Kicad,Pcbnew,10.0.3
; #@! TF.FileFunction,Plated,1,2,PTH
FMAT,2
METRIC
; #@! TA.AperFunction,Plated,PTH,ViaDrill
T1C0.800
; #@! TA.AperFunction,Plated,PTH,ComponentDrill
T2C0.800
; #@! TA.AperFunction,Plated,PTH,ComponentDrill
T3C0.900
; #@! TA.AperFunction,Plated,PTH,ComponentDrill
T4C1.000
; #@! TA.AperFunction,Plated,PTH,ComponentDrill
T5C1.300
%
G90
G05
T1
X7.04Y-28.62
X12.7Y-45.72
X12.7Y-48.26
X15.24Y-33.02
X17.78Y-33.02
X27.94Y-38.1
X27.94Y-58.42
X45.72Y-55.88
T2
X2.54Y-21.0
X2.54Y-23.54
X2.54Y-26.08
X2.54Y-28.62
X2.54Y-31.16
X2.54Y-33.7
X2.54Y-36.24
X2.54Y-38.78
X2.54Y-41.32
X2.54Y-43.86
X2.54Y-46.4
X2.54Y-48.94
X2.54Y-51.48
X2.54Y-54.02
X2.54Y-56.56
X2.54Y-59.1
X5.08Y-21.0
X5.08Y-23.54
X5.08Y-26.08
X5.08Y-28.62
X5.08Y-31.16
X5.08Y-33.7
X5.08Y-36.24
X5.08Y-38.78
X5.08Y-41.32
X5.08Y-43.86
X5.08Y-46.4
X5.08Y-48.94
X5.08Y-51.48
X5.08Y-54.02
X5.08Y-56.56
X5.08Y-59.1
X9.0Y-27.5
X9.0Y-30.04
X9.0Y-32.58
X9.0Y-35.12
X11.54Y-27.5
X11.54Y-30.04
X11.54Y-32.58
X11.54Y-35.12
X22.0Y-38.0
X22.0Y-40.54
X22.0Y-43.08
X22.0Y-45.62
X24.54Y-38.0
X24.54Y-40.54
X24.54Y-43.08
X24.54Y-45.62
X30.0Y-30.0
X30.0Y-32.54
X30.0Y-35.08
X30.0Y-37.62
X30.0Y-40.16
X30.0Y-42.7
T3
X9.0Y-72.0
X9.0Y-74.5
X18.0Y-5.0
X18.0Y-7.5
X18.0Y-10.0
X18.0Y-12.5
X18.0Y-62.0
X18.0Y-64.5
X27.0Y-5.0
X27.0Y-7.5
X27.0Y-10.0
X27.0Y-12.5
X30.0Y-20.0
X30.0Y-22.5
T4
X38.0Y-36.0
X43.0Y-36.0
T5
X34.95Y-66.95
X34.95Y-73.05
X38.0Y-70.0
X41.05Y-66.95
X41.05Y-73.05
M30
