%TF.GenerationSoftware,KiCad,Pcbnew,10.0.3*%
%TF.CreationDate,2026-05-27T05:02:42-06:00*%
%TF.ProjectId,neolink-v1,6e656f6c-696e-46b2-9d76-312e6b696361,rev?*%
%TF.SameCoordinates,Original*%
%TF.FileFunction,Legend,Top*%
%TF.FilePolarity,Positive*%
%FSLAX46Y46*%
G04 Gerber Fmt 4.6, Leading zero omitted, Abs format (unit mm)*
G04 Created by KiCad (PCBNEW 10.0.3) date 2026-05-27 05:02:42*
%MOMM*%
%LPD*%
G01*
G04 APERTURE LIST*
%ADD10C,0.180000*%
%ADD11C,0.300000*%
G04 APERTURE END LIST*
D10*
X12200001Y-77417211D02*
X12600001Y-77417211D01*
X12771429Y-78045782D02*
X12200001Y-78045782D01*
X12200001Y-78045782D02*
X12200001Y-76845782D01*
X12200001Y-76845782D02*
X12771429Y-76845782D01*
X13228572Y-77988640D02*
X13400001Y-78045782D01*
X13400001Y-78045782D02*
X13685715Y-78045782D01*
X13685715Y-78045782D02*
X13800001Y-77988640D01*
X13800001Y-77988640D02*
X13857143Y-77931497D01*
X13857143Y-77931497D02*
X13914286Y-77817211D01*
X13914286Y-77817211D02*
X13914286Y-77702925D01*
X13914286Y-77702925D02*
X13857143Y-77588640D01*
X13857143Y-77588640D02*
X13800001Y-77531497D01*
X13800001Y-77531497D02*
X13685715Y-77474354D01*
X13685715Y-77474354D02*
X13457143Y-77417211D01*
X13457143Y-77417211D02*
X13342858Y-77360068D01*
X13342858Y-77360068D02*
X13285715Y-77302925D01*
X13285715Y-77302925D02*
X13228572Y-77188640D01*
X13228572Y-77188640D02*
X13228572Y-77074354D01*
X13228572Y-77074354D02*
X13285715Y-76960068D01*
X13285715Y-76960068D02*
X13342858Y-76902925D01*
X13342858Y-76902925D02*
X13457143Y-76845782D01*
X13457143Y-76845782D02*
X13742858Y-76845782D01*
X13742858Y-76845782D02*
X13914286Y-76902925D01*
X14428572Y-78045782D02*
X14428572Y-76845782D01*
X14428572Y-76845782D02*
X14885715Y-76845782D01*
X14885715Y-76845782D02*
X15000000Y-76902925D01*
X15000000Y-76902925D02*
X15057143Y-76960068D01*
X15057143Y-76960068D02*
X15114286Y-77074354D01*
X15114286Y-77074354D02*
X15114286Y-77245782D01*
X15114286Y-77245782D02*
X15057143Y-77360068D01*
X15057143Y-77360068D02*
X15000000Y-77417211D01*
X15000000Y-77417211D02*
X14885715Y-77474354D01*
X14885715Y-77474354D02*
X14428572Y-77474354D01*
X15514286Y-76845782D02*
X16257143Y-76845782D01*
X16257143Y-76845782D02*
X15857143Y-77302925D01*
X15857143Y-77302925D02*
X16028572Y-77302925D01*
X16028572Y-77302925D02*
X16142858Y-77360068D01*
X16142858Y-77360068D02*
X16200000Y-77417211D01*
X16200000Y-77417211D02*
X16257143Y-77531497D01*
X16257143Y-77531497D02*
X16257143Y-77817211D01*
X16257143Y-77817211D02*
X16200000Y-77931497D01*
X16200000Y-77931497D02*
X16142858Y-77988640D01*
X16142858Y-77988640D02*
X16028572Y-78045782D01*
X16028572Y-78045782D02*
X15685715Y-78045782D01*
X15685715Y-78045782D02*
X15571429Y-77988640D01*
X15571429Y-77988640D02*
X15514286Y-77931497D01*
X16714286Y-76960068D02*
X16771429Y-76902925D01*
X16771429Y-76902925D02*
X16885715Y-76845782D01*
X16885715Y-76845782D02*
X17171429Y-76845782D01*
X17171429Y-76845782D02*
X17285715Y-76902925D01*
X17285715Y-76902925D02*
X17342857Y-76960068D01*
X17342857Y-76960068D02*
X17400000Y-77074354D01*
X17400000Y-77074354D02*
X17400000Y-77188640D01*
X17400000Y-77188640D02*
X17342857Y-77360068D01*
X17342857Y-77360068D02*
X16657143Y-78045782D01*
X16657143Y-78045782D02*
X17400000Y-78045782D01*
X17914286Y-77588640D02*
X18828572Y-77588640D01*
X19342857Y-77988640D02*
X19514286Y-78045782D01*
X19514286Y-78045782D02*
X19800000Y-78045782D01*
X19800000Y-78045782D02*
X19914286Y-77988640D01*
X19914286Y-77988640D02*
X19971428Y-77931497D01*
X19971428Y-77931497D02*
X20028571Y-77817211D01*
X20028571Y-77817211D02*
X20028571Y-77702925D01*
X20028571Y-77702925D02*
X19971428Y-77588640D01*
X19971428Y-77588640D02*
X19914286Y-77531497D01*
X19914286Y-77531497D02*
X19800000Y-77474354D01*
X19800000Y-77474354D02*
X19571428Y-77417211D01*
X19571428Y-77417211D02*
X19457143Y-77360068D01*
X19457143Y-77360068D02*
X19400000Y-77302925D01*
X19400000Y-77302925D02*
X19342857Y-77188640D01*
X19342857Y-77188640D02*
X19342857Y-77074354D01*
X19342857Y-77074354D02*
X19400000Y-76960068D01*
X19400000Y-76960068D02*
X19457143Y-76902925D01*
X19457143Y-76902925D02*
X19571428Y-76845782D01*
X19571428Y-76845782D02*
X19857143Y-76845782D01*
X19857143Y-76845782D02*
X20028571Y-76902925D01*
X20428571Y-76845782D02*
X21171428Y-76845782D01*
X21171428Y-76845782D02*
X20771428Y-77302925D01*
X20771428Y-77302925D02*
X20942857Y-77302925D01*
X20942857Y-77302925D02*
X21057143Y-77360068D01*
X21057143Y-77360068D02*
X21114285Y-77417211D01*
X21114285Y-77417211D02*
X21171428Y-77531497D01*
X21171428Y-77531497D02*
X21171428Y-77817211D01*
X21171428Y-77817211D02*
X21114285Y-77931497D01*
X21114285Y-77931497D02*
X21057143Y-77988640D01*
X21057143Y-77988640D02*
X20942857Y-78045782D01*
X20942857Y-78045782D02*
X20600000Y-78045782D01*
X20600000Y-78045782D02*
X20485714Y-77988640D01*
X20485714Y-77988640D02*
X20428571Y-77931497D01*
X22485714Y-76845782D02*
X22771428Y-78045782D01*
X22771428Y-78045782D02*
X23000000Y-77188640D01*
X23000000Y-77188640D02*
X23228571Y-78045782D01*
X23228571Y-78045782D02*
X23514286Y-76845782D01*
X24485715Y-78045782D02*
X24485715Y-77417211D01*
X24485715Y-77417211D02*
X24428572Y-77302925D01*
X24428572Y-77302925D02*
X24314286Y-77245782D01*
X24314286Y-77245782D02*
X24085715Y-77245782D01*
X24085715Y-77245782D02*
X23971429Y-77302925D01*
X24485715Y-77988640D02*
X24371429Y-78045782D01*
X24371429Y-78045782D02*
X24085715Y-78045782D01*
X24085715Y-78045782D02*
X23971429Y-77988640D01*
X23971429Y-77988640D02*
X23914286Y-77874354D01*
X23914286Y-77874354D02*
X23914286Y-77760068D01*
X23914286Y-77760068D02*
X23971429Y-77645782D01*
X23971429Y-77645782D02*
X24085715Y-77588640D01*
X24085715Y-77588640D02*
X24371429Y-77588640D01*
X24371429Y-77588640D02*
X24485715Y-77531497D01*
X24942857Y-77245782D02*
X25228571Y-78045782D01*
X25228571Y-78045782D02*
X25514286Y-77245782D01*
X26428572Y-77988640D02*
X26314286Y-78045782D01*
X26314286Y-78045782D02*
X26085715Y-78045782D01*
X26085715Y-78045782D02*
X25971429Y-77988640D01*
X25971429Y-77988640D02*
X25914286Y-77874354D01*
X25914286Y-77874354D02*
X25914286Y-77417211D01*
X25914286Y-77417211D02*
X25971429Y-77302925D01*
X25971429Y-77302925D02*
X26085715Y-77245782D01*
X26085715Y-77245782D02*
X26314286Y-77245782D01*
X26314286Y-77245782D02*
X26428572Y-77302925D01*
X26428572Y-77302925D02*
X26485715Y-77417211D01*
X26485715Y-77417211D02*
X26485715Y-77531497D01*
X26485715Y-77531497D02*
X25914286Y-77645782D01*
X26942857Y-77988640D02*
X27057143Y-78045782D01*
X27057143Y-78045782D02*
X27285714Y-78045782D01*
X27285714Y-78045782D02*
X27400000Y-77988640D01*
X27400000Y-77988640D02*
X27457143Y-77874354D01*
X27457143Y-77874354D02*
X27457143Y-77817211D01*
X27457143Y-77817211D02*
X27400000Y-77702925D01*
X27400000Y-77702925D02*
X27285714Y-77645782D01*
X27285714Y-77645782D02*
X27114286Y-77645782D01*
X27114286Y-77645782D02*
X27000000Y-77588640D01*
X27000000Y-77588640D02*
X26942857Y-77474354D01*
X26942857Y-77474354D02*
X26942857Y-77417211D01*
X26942857Y-77417211D02*
X27000000Y-77302925D01*
X27000000Y-77302925D02*
X27114286Y-77245782D01*
X27114286Y-77245782D02*
X27285714Y-77245782D01*
X27285714Y-77245782D02*
X27400000Y-77302925D01*
X27971429Y-78045782D02*
X27971429Y-76845782D01*
X28485715Y-78045782D02*
X28485715Y-77417211D01*
X28485715Y-77417211D02*
X28428572Y-77302925D01*
X28428572Y-77302925D02*
X28314286Y-77245782D01*
X28314286Y-77245782D02*
X28142857Y-77245782D01*
X28142857Y-77245782D02*
X28028572Y-77302925D01*
X28028572Y-77302925D02*
X27971429Y-77360068D01*
X29571429Y-78045782D02*
X29571429Y-77417211D01*
X29571429Y-77417211D02*
X29514286Y-77302925D01*
X29514286Y-77302925D02*
X29400000Y-77245782D01*
X29400000Y-77245782D02*
X29171429Y-77245782D01*
X29171429Y-77245782D02*
X29057143Y-77302925D01*
X29571429Y-77988640D02*
X29457143Y-78045782D01*
X29457143Y-78045782D02*
X29171429Y-78045782D01*
X29171429Y-78045782D02*
X29057143Y-77988640D01*
X29057143Y-77988640D02*
X29000000Y-77874354D01*
X29000000Y-77874354D02*
X29000000Y-77760068D01*
X29000000Y-77760068D02*
X29057143Y-77645782D01*
X29057143Y-77645782D02*
X29171429Y-77588640D01*
X29171429Y-77588640D02*
X29457143Y-77588640D01*
X29457143Y-77588640D02*
X29571429Y-77531497D01*
X30142857Y-78045782D02*
X30142857Y-77245782D01*
X30142857Y-77474354D02*
X30200000Y-77360068D01*
X30200000Y-77360068D02*
X30257143Y-77302925D01*
X30257143Y-77302925D02*
X30371428Y-77245782D01*
X30371428Y-77245782D02*
X30485714Y-77245782D01*
X31342857Y-77988640D02*
X31228571Y-78045782D01*
X31228571Y-78045782D02*
X31000000Y-78045782D01*
X31000000Y-78045782D02*
X30885714Y-77988640D01*
X30885714Y-77988640D02*
X30828571Y-77874354D01*
X30828571Y-77874354D02*
X30828571Y-77417211D01*
X30828571Y-77417211D02*
X30885714Y-77302925D01*
X30885714Y-77302925D02*
X31000000Y-77245782D01*
X31000000Y-77245782D02*
X31228571Y-77245782D01*
X31228571Y-77245782D02*
X31342857Y-77302925D01*
X31342857Y-77302925D02*
X31400000Y-77417211D01*
X31400000Y-77417211D02*
X31400000Y-77531497D01*
X31400000Y-77531497D02*
X30828571Y-77645782D01*
X32771428Y-77988640D02*
X32942857Y-78045782D01*
X32942857Y-78045782D02*
X33228571Y-78045782D01*
X33228571Y-78045782D02*
X33342857Y-77988640D01*
X33342857Y-77988640D02*
X33399999Y-77931497D01*
X33399999Y-77931497D02*
X33457142Y-77817211D01*
X33457142Y-77817211D02*
X33457142Y-77702925D01*
X33457142Y-77702925D02*
X33399999Y-77588640D01*
X33399999Y-77588640D02*
X33342857Y-77531497D01*
X33342857Y-77531497D02*
X33228571Y-77474354D01*
X33228571Y-77474354D02*
X32999999Y-77417211D01*
X32999999Y-77417211D02*
X32885714Y-77360068D01*
X32885714Y-77360068D02*
X32828571Y-77302925D01*
X32828571Y-77302925D02*
X32771428Y-77188640D01*
X32771428Y-77188640D02*
X32771428Y-77074354D01*
X32771428Y-77074354D02*
X32828571Y-76960068D01*
X32828571Y-76960068D02*
X32885714Y-76902925D01*
X32885714Y-76902925D02*
X32999999Y-76845782D01*
X32999999Y-76845782D02*
X33285714Y-76845782D01*
X33285714Y-76845782D02*
X33457142Y-76902925D01*
X33971428Y-78045782D02*
X33971428Y-76845782D01*
X34485714Y-78045782D02*
X34485714Y-77417211D01*
X34485714Y-77417211D02*
X34428571Y-77302925D01*
X34428571Y-77302925D02*
X34314285Y-77245782D01*
X34314285Y-77245782D02*
X34142856Y-77245782D01*
X34142856Y-77245782D02*
X34028571Y-77302925D01*
X34028571Y-77302925D02*
X33971428Y-77360068D01*
X35057142Y-78045782D02*
X35057142Y-77245782D01*
X35057142Y-76845782D02*
X34999999Y-76902925D01*
X34999999Y-76902925D02*
X35057142Y-76960068D01*
X35057142Y-76960068D02*
X35114285Y-76902925D01*
X35114285Y-76902925D02*
X35057142Y-76845782D01*
X35057142Y-76845782D02*
X35057142Y-76960068D01*
X36085714Y-77988640D02*
X35971428Y-78045782D01*
X35971428Y-78045782D02*
X35742857Y-78045782D01*
X35742857Y-78045782D02*
X35628571Y-77988640D01*
X35628571Y-77988640D02*
X35571428Y-77874354D01*
X35571428Y-77874354D02*
X35571428Y-77417211D01*
X35571428Y-77417211D02*
X35628571Y-77302925D01*
X35628571Y-77302925D02*
X35742857Y-77245782D01*
X35742857Y-77245782D02*
X35971428Y-77245782D01*
X35971428Y-77245782D02*
X36085714Y-77302925D01*
X36085714Y-77302925D02*
X36142857Y-77417211D01*
X36142857Y-77417211D02*
X36142857Y-77531497D01*
X36142857Y-77531497D02*
X35571428Y-77645782D01*
X36828570Y-78045782D02*
X36714285Y-77988640D01*
X36714285Y-77988640D02*
X36657142Y-77874354D01*
X36657142Y-77874354D02*
X36657142Y-76845782D01*
X37799999Y-78045782D02*
X37799999Y-76845782D01*
X37799999Y-77988640D02*
X37685713Y-78045782D01*
X37685713Y-78045782D02*
X37457141Y-78045782D01*
X37457141Y-78045782D02*
X37342856Y-77988640D01*
X37342856Y-77988640D02*
X37285713Y-77931497D01*
X37285713Y-77931497D02*
X37228570Y-77817211D01*
X37228570Y-77817211D02*
X37228570Y-77474354D01*
X37228570Y-77474354D02*
X37285713Y-77360068D01*
X37285713Y-77360068D02*
X37342856Y-77302925D01*
X37342856Y-77302925D02*
X37457141Y-77245782D01*
X37457141Y-77245782D02*
X37685713Y-77245782D01*
X37685713Y-77245782D02*
X37799999Y-77302925D01*
D11*
X16571428Y-75909638D02*
X16571428Y-73909638D01*
X16571428Y-73909638D02*
X17714285Y-75909638D01*
X17714285Y-75909638D02*
X17714285Y-73909638D01*
X18666666Y-74862019D02*
X19333333Y-74862019D01*
X19619047Y-75909638D02*
X18666666Y-75909638D01*
X18666666Y-75909638D02*
X18666666Y-73909638D01*
X18666666Y-73909638D02*
X19619047Y-73909638D01*
X20857142Y-73909638D02*
X21238095Y-73909638D01*
X21238095Y-73909638D02*
X21428571Y-74004876D01*
X21428571Y-74004876D02*
X21619047Y-74195352D01*
X21619047Y-74195352D02*
X21714285Y-74576304D01*
X21714285Y-74576304D02*
X21714285Y-75242971D01*
X21714285Y-75242971D02*
X21619047Y-75623923D01*
X21619047Y-75623923D02*
X21428571Y-75814400D01*
X21428571Y-75814400D02*
X21238095Y-75909638D01*
X21238095Y-75909638D02*
X20857142Y-75909638D01*
X20857142Y-75909638D02*
X20666666Y-75814400D01*
X20666666Y-75814400D02*
X20476190Y-75623923D01*
X20476190Y-75623923D02*
X20380952Y-75242971D01*
X20380952Y-75242971D02*
X20380952Y-74576304D01*
X20380952Y-74576304D02*
X20476190Y-74195352D01*
X20476190Y-74195352D02*
X20666666Y-74004876D01*
X20666666Y-74004876D02*
X20857142Y-73909638D01*
X23523809Y-75909638D02*
X22571428Y-75909638D01*
X22571428Y-75909638D02*
X22571428Y-73909638D01*
X24190476Y-75909638D02*
X24190476Y-73909638D01*
X25142857Y-75909638D02*
X25142857Y-73909638D01*
X25142857Y-73909638D02*
X26285714Y-75909638D01*
X26285714Y-75909638D02*
X26285714Y-73909638D01*
X27238095Y-75909638D02*
X27238095Y-73909638D01*
X28380952Y-75909638D02*
X27523809Y-74766780D01*
X28380952Y-73909638D02*
X27238095Y-75052495D01*
X30476191Y-73909638D02*
X31142857Y-75909638D01*
X31142857Y-75909638D02*
X31809524Y-73909638D01*
X33523810Y-75909638D02*
X32380953Y-75909638D01*
X32952381Y-75909638D02*
X32952381Y-73909638D01*
X32952381Y-73909638D02*
X32761905Y-74195352D01*
X32761905Y-74195352D02*
X32571429Y-74385828D01*
X32571429Y-74385828D02*
X32380953Y-74481066D01*
M02*
