%TF.GenerationSoftware,KiCad,Pcbnew,10.0.3*%
%TF.CreationDate,2026-05-26T15:00:49-06:00*%
%TF.ProjectId,neolink-v1,6e656f6c-696e-46b2-9d76-312e6b696361,rev?*%
%TF.SameCoordinates,Original*%
%TF.FileFunction,Copper,L1,Top*%
%TF.FilePolarity,Positive*%
%FSLAX46Y46*%
G04 Gerber Fmt 4.6, Leading zero omitted, Abs format (unit mm)*
G04 Created by KiCad (PCBNEW 10.0.3) date 2026-05-26 15:00:49*
%MOMM*%
%LPD*%
G01*
G04 APERTURE LIST*
%TA.AperFunction,ComponentPad*%
%ADD10R,1.600000X1.600000*%
%TD*%
%TA.AperFunction,ComponentPad*%
%ADD11C,1.600000*%
%TD*%
%TA.AperFunction,ComponentPad*%
%ADD12R,2.000000X2.000000*%
%TD*%
%TA.AperFunction,ComponentPad*%
%ADD13C,2.000000*%
%TD*%
%TA.AperFunction,ComponentPad*%
%ADD14R,1.300000X1.300000*%
%TD*%
%TA.AperFunction,ComponentPad*%
%ADD15C,1.300000*%
%TD*%
%TA.AperFunction,Conductor*%
%ADD16C,1.000000*%
%TD*%
%TA.AperFunction,Conductor*%
%ADD17C,0.500000*%
%TD*%
G04 APERTURE END LIST*
D10*
%TO.P,J7,1*%
%TO.N,RTD1_P*%
X70000000Y-5000000D03*
D11*
%TO.P,J7,2*%
%TO.N,RTD1_N*%
X70000000Y-7500000D03*
%TD*%
D10*
%TO.P,J8,1*%
%TO.N,RTD2_P*%
X70000000Y-14000000D03*
D11*
%TO.P,J8,2*%
%TO.N,RTD2_N*%
X70000000Y-16500000D03*
%TD*%
D12*
%TO.P,C1,1*%
%TO.N,~{VCC_5V}*%
X79000000Y-14000000D03*
D13*
%TO.P,C1,2*%
%TO.N,GND*%
X84000000Y-14000000D03*
%TD*%
%TO.P,J10,1*%
%TO.N,ANT_GSM*%
X97000000Y-62000000D03*
%TO.P,J10,2*%
%TO.N,GND*%
X93950000Y-58950000D03*
%TO.P,J10,3*%
X100050000Y-58950000D03*
%TO.P,J10,4*%
X93950000Y-65050000D03*
%TO.P,J10,5*%
X100050000Y-65050000D03*
%TD*%
D14*
%TO.P,J1,1*%
%TO.N,GND*%
X50000000Y-18000000D03*
D15*
%TO.P,J1,2*%
X52540000Y-18000000D03*
%TO.P,J1,3*%
%TO.N,~{VCC_3V3}*%
X50000000Y-20540000D03*
%TO.P,J1,4*%
%TO.N,~{VCC_5V}*%
X52540000Y-20540000D03*
%TO.P,J1,5*%
%TO.N,BAT*%
X50000000Y-23080000D03*
%TO.P,J1,6*%
%TO.N,CS_MAX1*%
X52540000Y-23080000D03*
%TO.P,J1,7*%
%TO.N,CLK_SPI*%
X50000000Y-25620000D03*
%TO.P,J1,8*%
%TO.N,CS_MAX2*%
X52540000Y-25620000D03*
%TO.P,J1,9*%
%TO.N,MOSI_SPI*%
X50000000Y-28160000D03*
%TO.P,J1,10*%
%TO.N,MISO_SPI*%
X52540000Y-28160000D03*
%TO.P,J1,11*%
%TO.N,I2C_SCL*%
X50000000Y-30700000D03*
%TO.P,J1,12*%
%TO.N,I2C_SDA*%
X52540000Y-30700000D03*
%TO.P,J1,13*%
%TO.N,TXD_SIM*%
X50000000Y-33240000D03*
%TO.P,J1,14*%
%TO.N,RXD_SIM*%
X52540000Y-33240000D03*
%TO.P,J1,15*%
%TO.N,GPIO1*%
X50000000Y-35780000D03*
%TO.P,J1,16*%
%TO.N,GPIO2*%
X52540000Y-35780000D03*
%TO.P,J1,17*%
%TO.N,GPIO3*%
X50000000Y-38320000D03*
%TO.P,J1,18*%
%TO.N,GPIO4*%
X52540000Y-38320000D03*
%TO.P,J1,19*%
%TO.N,GPIO5*%
X50000000Y-40860000D03*
%TO.P,J1,20*%
%TO.N,GPIO6*%
X52540000Y-40860000D03*
%TO.P,J1,21*%
%TO.N,GPIO7*%
X50000000Y-43400000D03*
%TO.P,J1,22*%
%TO.N,GPIO8*%
X52540000Y-43400000D03*
%TO.P,J1,23*%
%TO.N,GPIO9*%
X50000000Y-45940000D03*
%TO.P,J1,24*%
%TO.N,GPIO10*%
X52540000Y-45940000D03*
%TO.P,J1,25*%
%TO.N,GPIO11*%
X50000000Y-48480000D03*
%TO.P,J1,26*%
%TO.N,GPIO12*%
X52540000Y-48480000D03*
%TO.P,J1,27*%
%TO.N,GPIO13*%
X50000000Y-51020000D03*
%TO.P,J1,28*%
%TO.N,GPIO14*%
X52540000Y-51020000D03*
%TO.P,J1,29*%
%TO.N,GPIO15*%
X50000000Y-53560000D03*
%TO.P,J1,30*%
%TO.N,GPIO16*%
X52540000Y-53560000D03*
%TO.P,J1,31*%
%TO.N,GPIO17*%
X50000000Y-56100000D03*
%TO.P,J1,32*%
%TO.N,N/C*%
X52540000Y-56100000D03*
%TD*%
D14*
%TO.P,J3,1*%
%TO.N,~{VCC_3V3}*%
X5000000Y-5000000D03*
D15*
%TO.P,J3,2*%
%TO.N,GND*%
X7540000Y-5000000D03*
%TO.P,J3,3*%
%TO.N,CLK_SPI*%
X5000000Y-7540000D03*
%TO.P,J3,4*%
%TO.N,MISO_SPI*%
X7540000Y-7540000D03*
%TO.P,J3,5*%
%TO.N,MOSI_SPI*%
X5000000Y-10080000D03*
%TO.P,J3,6*%
%TO.N,CS_MAX1*%
X7540000Y-10080000D03*
%TO.P,J3,7*%
%TO.N,RTD1_P*%
X5000000Y-12620000D03*
%TO.P,J3,8*%
%TO.N,RTD1_N*%
X7540000Y-12620000D03*
%TD*%
D10*
%TO.P,J6,1*%
%TO.N,~{VCC_3V3}*%
X60000000Y-22000000D03*
D11*
%TO.P,J6,2*%
%TO.N,GND*%
X60000000Y-24500000D03*
%TO.P,J6,3*%
%TO.N,I2C_SDA*%
X60000000Y-27000000D03*
%TO.P,J6,4*%
%TO.N,I2C_SCL*%
X60000000Y-29500000D03*
%TD*%
D10*
%TO.P,J5,1*%
%TO.N,~{VCC_3V3}*%
X60000000Y-5000000D03*
D11*
%TO.P,J5,2*%
%TO.N,GND*%
X60000000Y-7500000D03*
%TO.P,J5,3*%
%TO.N,I2C_SDA*%
X60000000Y-10000000D03*
%TO.P,J5,4*%
%TO.N,I2C_SCL*%
X60000000Y-12500000D03*
%TD*%
D14*
%TO.P,J2,1*%
%TO.N,~{VCC_5V}*%
X90000000Y-14190000D03*
D15*
%TO.P,J2,2*%
%TO.N,GND*%
X90000000Y-16730000D03*
%TO.P,J2,3*%
%TO.N,TXD_SIM*%
X90000000Y-19270000D03*
%TO.P,J2,4*%
%TO.N,RXD_SIM*%
X90000000Y-21810000D03*
%TO.P,J2,5*%
%TO.N,RST_SIM*%
X90000000Y-24350000D03*
%TO.P,J2,6*%
%TO.N,PWR_SIM*%
X90000000Y-26890000D03*
%TD*%
D14*
%TO.P,J4,1*%
%TO.N,~{VCC_3V3}*%
X5000000Y-22000000D03*
D15*
%TO.P,J4,2*%
%TO.N,GND*%
X7540000Y-22000000D03*
%TO.P,J4,3*%
%TO.N,CLK_SPI*%
X5000000Y-24540000D03*
%TO.P,J4,4*%
%TO.N,MISO_SPI*%
X7540000Y-24540000D03*
%TO.P,J4,5*%
%TO.N,MOSI_SPI*%
X5000000Y-27080000D03*
%TO.P,J4,6*%
%TO.N,CS_MAX2*%
X7540000Y-27080000D03*
%TO.P,J4,7*%
%TO.N,RTD2_P*%
X5000000Y-29620000D03*
%TO.P,J4,8*%
%TO.N,RTD2_N*%
X7540000Y-29620000D03*
%TD*%
D10*
%TO.P,J9,1*%
%TO.N,BAT*%
X5000000Y-67000000D03*
D11*
%TO.P,J9,2*%
%TO.N,GND*%
X5000000Y-69500000D03*
%TD*%
%TO.N,~{VCC_3V3}*%
D16*
X60000000Y-2460000D02*
X5000000Y-2460000D01*
X2460000Y-22000000D02*
X5000000Y-22000000D01*
X5000000Y-2460000D02*
X5000000Y-5000000D01*
X60000000Y-22000000D02*
X57460000Y-22000000D01*
X47460000Y-20540000D02*
X47460000Y-16190000D01*
X57460000Y-5000000D02*
X60000000Y-5000000D01*
X50000000Y-20540000D02*
X47460000Y-20540000D01*
X60000000Y-5000000D02*
X60000000Y-2460000D01*
X57460000Y-22000000D02*
X57460000Y-5000000D01*
X47460000Y-16190000D02*
X60000000Y-16190000D01*
X2460000Y-5000000D02*
X2460000Y-22000000D01*
X60000000Y-16190000D02*
X60000000Y-22000000D01*
X5000000Y-5000000D02*
X2460000Y-5000000D01*
%TO.N,~{VCC_5V}*%
X53070000Y-20540000D02*
X53070000Y-19270000D01*
X79000000Y-11460000D02*
X90000000Y-11460000D01*
X53070000Y-19270000D02*
X79000000Y-19270000D01*
X52540000Y-20540000D02*
X53070000Y-20540000D01*
X79000000Y-19270000D02*
X79000000Y-14000000D01*
X79000000Y-14000000D02*
X79000000Y-11460000D01*
X90000000Y-11460000D02*
X90000000Y-14190000D01*
%TO.N,BAT*%
X50000000Y-23080000D02*
X10080000Y-23080000D01*
X10080000Y-67000000D02*
X5000000Y-67000000D01*
X10080000Y-23080000D02*
X10080000Y-67000000D01*
%TO.N,CLK_SPI*%
D17*
X8810000Y-25620000D02*
X8810000Y-25810000D01*
X5000000Y-25810000D02*
X5000000Y-24540000D01*
X2460000Y-7540000D02*
X5000000Y-7540000D01*
X50000000Y-25620000D02*
X8810000Y-25620000D01*
X2460000Y-24540000D02*
X2460000Y-7540000D01*
X8810000Y-25810000D02*
X5000000Y-25810000D01*
X5000000Y-24540000D02*
X2460000Y-24540000D01*
%TO.N,MOSI_SPI*%
X8810000Y-28350000D02*
X5000000Y-28350000D01*
X5000000Y-27080000D02*
X2460000Y-27080000D01*
X2460000Y-10080000D02*
X5000000Y-10080000D01*
X2460000Y-27080000D02*
X2460000Y-10080000D01*
X5000000Y-28350000D02*
X5000000Y-27080000D01*
X50000000Y-28160000D02*
X8810000Y-28160000D01*
X8810000Y-28160000D02*
X8810000Y-28350000D01*
%TO.N,MISO_SPI*%
X51270000Y-28160000D02*
X51270000Y-24350000D01*
X52540000Y-28160000D02*
X51270000Y-28160000D01*
X7540000Y-24540000D02*
X10080000Y-24540000D01*
X7540000Y-24350000D02*
X7540000Y-24540000D01*
X10080000Y-24540000D02*
X10080000Y-7540000D01*
X10080000Y-7540000D02*
X7540000Y-7540000D01*
X51270000Y-24350000D02*
X7540000Y-24350000D01*
%TO.N,CS_MAX1*%
X55080000Y-23080000D02*
X55080000Y-10080000D01*
X55080000Y-10080000D02*
X7540000Y-10080000D01*
X52540000Y-23080000D02*
X55080000Y-23080000D01*
%TO.N,CS_MAX2*%
X51270000Y-26890000D02*
X7540000Y-26890000D01*
X52540000Y-25620000D02*
X51270000Y-25620000D01*
X7540000Y-26890000D02*
X7540000Y-27080000D01*
X51270000Y-25620000D02*
X51270000Y-26890000D01*
%TO.N,I2C_SDA*%
X52540000Y-30700000D02*
X54920000Y-30700000D01*
X54920000Y-30700000D02*
X54920000Y-27000000D01*
X57460000Y-27000000D02*
X57460000Y-10000000D01*
X60000000Y-27000000D02*
X57460000Y-27000000D01*
X57460000Y-10000000D02*
X60000000Y-10000000D01*
X54920000Y-27000000D02*
X60000000Y-27000000D01*
%TO.N,I2C_SCL*%
X57460000Y-12500000D02*
X60000000Y-12500000D01*
X50000000Y-29500000D02*
X60000000Y-29500000D01*
X57460000Y-29500000D02*
X57460000Y-12500000D01*
X50000000Y-30700000D02*
X50000000Y-29500000D01*
X60000000Y-29500000D02*
X57460000Y-29500000D01*
%TO.N,TXD_SIM*%
X47460000Y-19270000D02*
X90000000Y-19270000D01*
X50000000Y-33240000D02*
X47460000Y-33240000D01*
X47460000Y-33240000D02*
X47460000Y-19270000D01*
%TO.N,RXD_SIM*%
X62700000Y-21810000D02*
X90000000Y-21810000D01*
X52540000Y-33240000D02*
X62700000Y-33240000D01*
X62700000Y-33240000D02*
X62700000Y-21810000D01*
%TO.N,RTD1_P*%
X6270000Y-3730000D02*
X70000000Y-3730000D01*
X70000000Y-3730000D02*
X70000000Y-5000000D01*
X5000000Y-12620000D02*
X6270000Y-12620000D01*
X6270000Y-12620000D02*
X6270000Y-3730000D01*
%TO.N,RTD1_N*%
X7540000Y-12620000D02*
X17700000Y-12620000D01*
X17700000Y-12620000D02*
X17700000Y-6250000D01*
X70000000Y-6250000D02*
X70000000Y-7500000D01*
X17700000Y-6250000D02*
X70000000Y-6250000D01*
%TO.N,RTD2_P*%
X2460000Y-14000000D02*
X70000000Y-14000000D01*
X5000000Y-29620000D02*
X2460000Y-29620000D01*
X2460000Y-29620000D02*
X2460000Y-14000000D01*
%TO.N,RTD2_N*%
X70000000Y-44620000D02*
X70000000Y-16500000D01*
X7540000Y-44620000D02*
X70000000Y-44620000D01*
X7540000Y-29620000D02*
X7540000Y-44620000D01*
%TD*%
M02*
