%TF.GenerationSoftware,KiCad,Pcbnew,10.0.3*%
%TF.CreationDate,2026-05-26T19:56:35-06:00*%
%TF.ProjectId,neolink-v1,6e656f6c-696e-46b2-9d76-312e6b696361,rev?*%
%TF.SameCoordinates,Original*%
%TF.FileFunction,Soldermask,Top*%
%TF.FilePolarity,Negative*%
%FSLAX46Y46*%
G04 Gerber Fmt 4.6, Leading zero omitted, Abs format (unit mm)*
G04 Created by KiCad (PCBNEW 10.0.3) date 2026-05-26 19:56:35*
%MOMM*%
%LPD*%
G01*
G04 APERTURE LIST*
%ADD10R,1.600000X1.600000*%
%ADD11C,1.600000*%
%ADD12R,1.300000X1.300000*%
%ADD13C,1.300000*%
%ADD14C,2.000000*%
%ADD15R,2.000000X2.000000*%
G04 APERTURE END LIST*
D10*
%TO.C,J9*%
X5000000Y-44000000D03*
D11*
X5000000Y-46500000D03*
%TD*%
D12*
%TO.C,J2*%
X55000000Y-13000000D03*
D13*
X55000000Y-15540000D03*
X55000000Y-18080000D03*
X55000000Y-20620000D03*
X55000000Y-23160000D03*
X55000000Y-25700000D03*
%TD*%
D10*
%TO.C,J5*%
X38000000Y-5000000D03*
D11*
X38000000Y-7500000D03*
X38000000Y-10000000D03*
X38000000Y-12500000D03*
%TD*%
D12*
%TO.C,J3*%
X12000000Y-7270000D03*
D13*
X14540000Y-7270000D03*
X12000000Y-9810000D03*
X14540000Y-9810000D03*
X12000000Y-12350000D03*
X14540000Y-12350000D03*
X12000000Y-14890000D03*
X14540000Y-14890000D03*
%TD*%
D14*
%TO.C,J10*%
X72000000Y-44000000D03*
X68950000Y-40950000D03*
X75050000Y-40950000D03*
X68950000Y-47050000D03*
X75050000Y-47050000D03*
%TD*%
D15*
%TO.C,C1*%
X63000000Y-17000000D03*
D14*
X68000000Y-17000000D03*
%TD*%
D10*
%TO.C,J7*%
X2000000Y-2000000D03*
D11*
X2000000Y-4500000D03*
%TD*%
D12*
%TO.C,J1*%
X20000000Y-6000000D03*
D13*
X22540000Y-6000000D03*
X20000000Y-8540000D03*
X22540000Y-8540000D03*
X20000000Y-11080000D03*
X22540000Y-11080000D03*
X20000000Y-13620000D03*
X22540000Y-13620000D03*
X20000000Y-16160000D03*
X22540000Y-16160000D03*
X20000000Y-18700000D03*
X22540000Y-18700000D03*
X20000000Y-21240000D03*
X22540000Y-21240000D03*
X20000000Y-23780000D03*
X22540000Y-23780000D03*
X20000000Y-26320000D03*
X22540000Y-26320000D03*
X20000000Y-28860000D03*
X22540000Y-28860000D03*
X20000000Y-31400000D03*
X22540000Y-31400000D03*
X20000000Y-33940000D03*
X22540000Y-33940000D03*
X20000000Y-36480000D03*
X22540000Y-36480000D03*
X20000000Y-39020000D03*
X22540000Y-39020000D03*
X20000000Y-41560000D03*
X22540000Y-41560000D03*
X20000000Y-44100000D03*
X22540000Y-44100000D03*
%TD*%
D10*
%TO.C,J8*%
X2000000Y-22000000D03*
D11*
X2000000Y-24500000D03*
%TD*%
D12*
%TO.C,J4*%
X12000000Y-27590000D03*
D13*
X14540000Y-27590000D03*
X12000000Y-30130000D03*
X14540000Y-30130000D03*
X12000000Y-32670000D03*
X14540000Y-32670000D03*
X12000000Y-35210000D03*
X14540000Y-35210000D03*
%TD*%
D10*
%TO.C,J6*%
X38000000Y-28000000D03*
D11*
X38000000Y-30500000D03*
X38000000Y-33000000D03*
X38000000Y-35500000D03*
%TD*%
M02*
