%TF.GenerationSoftware,KiCad,Pcbnew,10.0.3*%
%TF.CreationDate,2026-05-26T15:00:49-06:00*%
%TF.ProjectId,neolink-v1,6e656f6c-696e-46b2-9d76-312e6b696361,rev?*%
%TF.SameCoordinates,Original*%
%TF.FileFunction,Legend,Top*%
%TF.FilePolarity,Positive*%
%FSLAX46Y46*%
G04 Gerber Fmt 4.6, Leading zero omitted, Abs format (unit mm)*
G04 Created by KiCad (PCBNEW 10.0.3) date 2026-05-26 15:00:49*
%MOMM*%
%LPD*%
G01*
G04 APERTURE LIST*
%ADD10C,0.180000*%
%ADD11C,0.300000*%
G04 APERTURE END LIST*
D10*
X-7799998Y-76917211D02*
X-7399998Y-76917211D01*
X-7228570Y-77545782D02*
X-7799998Y-77545782D01*
X-7799998Y-77545782D02*
X-7799998Y-76345782D01*
X-7799998Y-76345782D02*
X-7228570Y-76345782D01*
X-6771427Y-77488640D02*
X-6599999Y-77545782D01*
X-6599999Y-77545782D02*
X-6314284Y-77545782D01*
X-6314284Y-77545782D02*
X-6199999Y-77488640D01*
X-6199999Y-77488640D02*
X-6142856Y-77431497D01*
X-6142856Y-77431497D02*
X-6085713Y-77317211D01*
X-6085713Y-77317211D02*
X-6085713Y-77202925D01*
X-6085713Y-77202925D02*
X-6142856Y-77088640D01*
X-6142856Y-77088640D02*
X-6199999Y-77031497D01*
X-6199999Y-77031497D02*
X-6314284Y-76974354D01*
X-6314284Y-76974354D02*
X-6542856Y-76917211D01*
X-6542856Y-76917211D02*
X-6657141Y-76860068D01*
X-6657141Y-76860068D02*
X-6714284Y-76802925D01*
X-6714284Y-76802925D02*
X-6771427Y-76688640D01*
X-6771427Y-76688640D02*
X-6771427Y-76574354D01*
X-6771427Y-76574354D02*
X-6714284Y-76460068D01*
X-6714284Y-76460068D02*
X-6657141Y-76402925D01*
X-6657141Y-76402925D02*
X-6542856Y-76345782D01*
X-6542856Y-76345782D02*
X-6257141Y-76345782D01*
X-6257141Y-76345782D02*
X-6085713Y-76402925D01*
X-5571427Y-77545782D02*
X-5571427Y-76345782D01*
X-5571427Y-76345782D02*
X-5114284Y-76345782D01*
X-5114284Y-76345782D02*
X-4999999Y-76402925D01*
X-4999999Y-76402925D02*
X-4942856Y-76460068D01*
X-4942856Y-76460068D02*
X-4885713Y-76574354D01*
X-4885713Y-76574354D02*
X-4885713Y-76745782D01*
X-4885713Y-76745782D02*
X-4942856Y-76860068D01*
X-4942856Y-76860068D02*
X-4999999Y-76917211D01*
X-4999999Y-76917211D02*
X-5114284Y-76974354D01*
X-5114284Y-76974354D02*
X-5571427Y-76974354D01*
X-4485713Y-76345782D02*
X-3742856Y-76345782D01*
X-3742856Y-76345782D02*
X-4142856Y-76802925D01*
X-4142856Y-76802925D02*
X-3971427Y-76802925D01*
X-3971427Y-76802925D02*
X-3857142Y-76860068D01*
X-3857142Y-76860068D02*
X-3799999Y-76917211D01*
X-3799999Y-76917211D02*
X-3742856Y-77031497D01*
X-3742856Y-77031497D02*
X-3742856Y-77317211D01*
X-3742856Y-77317211D02*
X-3799999Y-77431497D01*
X-3799999Y-77431497D02*
X-3857142Y-77488640D01*
X-3857142Y-77488640D02*
X-3971427Y-77545782D01*
X-3971427Y-77545782D02*
X-4314284Y-77545782D01*
X-4314284Y-77545782D02*
X-4428570Y-77488640D01*
X-4428570Y-77488640D02*
X-4485713Y-77431497D01*
X-3285713Y-76460068D02*
X-3228570Y-76402925D01*
X-3228570Y-76402925D02*
X-3114285Y-76345782D01*
X-3114285Y-76345782D02*
X-2828570Y-76345782D01*
X-2828570Y-76345782D02*
X-2714285Y-76402925D01*
X-2714285Y-76402925D02*
X-2657142Y-76460068D01*
X-2657142Y-76460068D02*
X-2599999Y-76574354D01*
X-2599999Y-76574354D02*
X-2599999Y-76688640D01*
X-2599999Y-76688640D02*
X-2657142Y-76860068D01*
X-2657142Y-76860068D02*
X-3342856Y-77545782D01*
X-3342856Y-77545782D02*
X-2599999Y-77545782D01*
X-2085713Y-77088640D02*
X-1171428Y-77088640D01*
X-657142Y-77488640D02*
X-485714Y-77545782D01*
X-485714Y-77545782D02*
X-199999Y-77545782D01*
X-199999Y-77545782D02*
X-85714Y-77488640D01*
X-85714Y-77488640D02*
X-28571Y-77431497D01*
X-28571Y-77431497D02*
X28571Y-77317211D01*
X28571Y-77317211D02*
X28571Y-77202925D01*
X28571Y-77202925D02*
X-28571Y-77088640D01*
X-28571Y-77088640D02*
X-85714Y-77031497D01*
X-85714Y-77031497D02*
X-199999Y-76974354D01*
X-199999Y-76974354D02*
X-428571Y-76917211D01*
X-428571Y-76917211D02*
X-542856Y-76860068D01*
X-542856Y-76860068D02*
X-599999Y-76802925D01*
X-599999Y-76802925D02*
X-657142Y-76688640D01*
X-657142Y-76688640D02*
X-657142Y-76574354D01*
X-657142Y-76574354D02*
X-599999Y-76460068D01*
X-599999Y-76460068D02*
X-542856Y-76402925D01*
X-542856Y-76402925D02*
X-428571Y-76345782D01*
X-428571Y-76345782D02*
X-142856Y-76345782D01*
X-142856Y-76345782D02*
X28571Y-76402925D01*
X428571Y-76345782D02*
X1171428Y-76345782D01*
X1171428Y-76345782D02*
X771428Y-76802925D01*
X771428Y-76802925D02*
X942857Y-76802925D01*
X942857Y-76802925D02*
X1057143Y-76860068D01*
X1057143Y-76860068D02*
X1114285Y-76917211D01*
X1114285Y-76917211D02*
X1171428Y-77031497D01*
X1171428Y-77031497D02*
X1171428Y-77317211D01*
X1171428Y-77317211D02*
X1114285Y-77431497D01*
X1114285Y-77431497D02*
X1057143Y-77488640D01*
X1057143Y-77488640D02*
X942857Y-77545782D01*
X942857Y-77545782D02*
X600000Y-77545782D01*
X600000Y-77545782D02*
X485714Y-77488640D01*
X485714Y-77488640D02*
X428571Y-77431497D01*
X2485714Y-76345782D02*
X2771428Y-77545782D01*
X2771428Y-77545782D02*
X3000000Y-76688640D01*
X3000000Y-76688640D02*
X3228571Y-77545782D01*
X3228571Y-77545782D02*
X3514286Y-76345782D01*
X4485715Y-77545782D02*
X4485715Y-76917211D01*
X4485715Y-76917211D02*
X4428572Y-76802925D01*
X4428572Y-76802925D02*
X4314286Y-76745782D01*
X4314286Y-76745782D02*
X4085715Y-76745782D01*
X4085715Y-76745782D02*
X3971429Y-76802925D01*
X4485715Y-77488640D02*
X4371429Y-77545782D01*
X4371429Y-77545782D02*
X4085715Y-77545782D01*
X4085715Y-77545782D02*
X3971429Y-77488640D01*
X3971429Y-77488640D02*
X3914286Y-77374354D01*
X3914286Y-77374354D02*
X3914286Y-77260068D01*
X3914286Y-77260068D02*
X3971429Y-77145782D01*
X3971429Y-77145782D02*
X4085715Y-77088640D01*
X4085715Y-77088640D02*
X4371429Y-77088640D01*
X4371429Y-77088640D02*
X4485715Y-77031497D01*
X4942857Y-76745782D02*
X5228571Y-77545782D01*
X5228571Y-77545782D02*
X5514286Y-76745782D01*
X6428572Y-77488640D02*
X6314286Y-77545782D01*
X6314286Y-77545782D02*
X6085715Y-77545782D01*
X6085715Y-77545782D02*
X5971429Y-77488640D01*
X5971429Y-77488640D02*
X5914286Y-77374354D01*
X5914286Y-77374354D02*
X5914286Y-76917211D01*
X5914286Y-76917211D02*
X5971429Y-76802925D01*
X5971429Y-76802925D02*
X6085715Y-76745782D01*
X6085715Y-76745782D02*
X6314286Y-76745782D01*
X6314286Y-76745782D02*
X6428572Y-76802925D01*
X6428572Y-76802925D02*
X6485715Y-76917211D01*
X6485715Y-76917211D02*
X6485715Y-77031497D01*
X6485715Y-77031497D02*
X5914286Y-77145782D01*
X6942857Y-77488640D02*
X7057143Y-77545782D01*
X7057143Y-77545782D02*
X7285714Y-77545782D01*
X7285714Y-77545782D02*
X7400000Y-77488640D01*
X7400000Y-77488640D02*
X7457143Y-77374354D01*
X7457143Y-77374354D02*
X7457143Y-77317211D01*
X7457143Y-77317211D02*
X7400000Y-77202925D01*
X7400000Y-77202925D02*
X7285714Y-77145782D01*
X7285714Y-77145782D02*
X7114286Y-77145782D01*
X7114286Y-77145782D02*
X7000000Y-77088640D01*
X7000000Y-77088640D02*
X6942857Y-76974354D01*
X6942857Y-76974354D02*
X6942857Y-76917211D01*
X6942857Y-76917211D02*
X7000000Y-76802925D01*
X7000000Y-76802925D02*
X7114286Y-76745782D01*
X7114286Y-76745782D02*
X7285714Y-76745782D01*
X7285714Y-76745782D02*
X7400000Y-76802925D01*
X7971429Y-77545782D02*
X7971429Y-76345782D01*
X8485715Y-77545782D02*
X8485715Y-76917211D01*
X8485715Y-76917211D02*
X8428572Y-76802925D01*
X8428572Y-76802925D02*
X8314286Y-76745782D01*
X8314286Y-76745782D02*
X8142857Y-76745782D01*
X8142857Y-76745782D02*
X8028572Y-76802925D01*
X8028572Y-76802925D02*
X7971429Y-76860068D01*
X9571429Y-77545782D02*
X9571429Y-76917211D01*
X9571429Y-76917211D02*
X9514286Y-76802925D01*
X9514286Y-76802925D02*
X9400000Y-76745782D01*
X9400000Y-76745782D02*
X9171429Y-76745782D01*
X9171429Y-76745782D02*
X9057143Y-76802925D01*
X9571429Y-77488640D02*
X9457143Y-77545782D01*
X9457143Y-77545782D02*
X9171429Y-77545782D01*
X9171429Y-77545782D02*
X9057143Y-77488640D01*
X9057143Y-77488640D02*
X9000000Y-77374354D01*
X9000000Y-77374354D02*
X9000000Y-77260068D01*
X9000000Y-77260068D02*
X9057143Y-77145782D01*
X9057143Y-77145782D02*
X9171429Y-77088640D01*
X9171429Y-77088640D02*
X9457143Y-77088640D01*
X9457143Y-77088640D02*
X9571429Y-77031497D01*
X10142857Y-77545782D02*
X10142857Y-76745782D01*
X10142857Y-76974354D02*
X10200000Y-76860068D01*
X10200000Y-76860068D02*
X10257143Y-76802925D01*
X10257143Y-76802925D02*
X10371428Y-76745782D01*
X10371428Y-76745782D02*
X10485714Y-76745782D01*
X11342857Y-77488640D02*
X11228571Y-77545782D01*
X11228571Y-77545782D02*
X11000000Y-77545782D01*
X11000000Y-77545782D02*
X10885714Y-77488640D01*
X10885714Y-77488640D02*
X10828571Y-77374354D01*
X10828571Y-77374354D02*
X10828571Y-76917211D01*
X10828571Y-76917211D02*
X10885714Y-76802925D01*
X10885714Y-76802925D02*
X11000000Y-76745782D01*
X11000000Y-76745782D02*
X11228571Y-76745782D01*
X11228571Y-76745782D02*
X11342857Y-76802925D01*
X11342857Y-76802925D02*
X11400000Y-76917211D01*
X11400000Y-76917211D02*
X11400000Y-77031497D01*
X11400000Y-77031497D02*
X10828571Y-77145782D01*
X12771428Y-77488640D02*
X12942857Y-77545782D01*
X12942857Y-77545782D02*
X13228571Y-77545782D01*
X13228571Y-77545782D02*
X13342857Y-77488640D01*
X13342857Y-77488640D02*
X13399999Y-77431497D01*
X13399999Y-77431497D02*
X13457142Y-77317211D01*
X13457142Y-77317211D02*
X13457142Y-77202925D01*
X13457142Y-77202925D02*
X13399999Y-77088640D01*
X13399999Y-77088640D02*
X13342857Y-77031497D01*
X13342857Y-77031497D02*
X13228571Y-76974354D01*
X13228571Y-76974354D02*
X12999999Y-76917211D01*
X12999999Y-76917211D02*
X12885714Y-76860068D01*
X12885714Y-76860068D02*
X12828571Y-76802925D01*
X12828571Y-76802925D02*
X12771428Y-76688640D01*
X12771428Y-76688640D02*
X12771428Y-76574354D01*
X12771428Y-76574354D02*
X12828571Y-76460068D01*
X12828571Y-76460068D02*
X12885714Y-76402925D01*
X12885714Y-76402925D02*
X12999999Y-76345782D01*
X12999999Y-76345782D02*
X13285714Y-76345782D01*
X13285714Y-76345782D02*
X13457142Y-76402925D01*
X13971428Y-77545782D02*
X13971428Y-76345782D01*
X14485714Y-77545782D02*
X14485714Y-76917211D01*
X14485714Y-76917211D02*
X14428571Y-76802925D01*
X14428571Y-76802925D02*
X14314285Y-76745782D01*
X14314285Y-76745782D02*
X14142856Y-76745782D01*
X14142856Y-76745782D02*
X14028571Y-76802925D01*
X14028571Y-76802925D02*
X13971428Y-76860068D01*
X15057142Y-77545782D02*
X15057142Y-76745782D01*
X15057142Y-76345782D02*
X14999999Y-76402925D01*
X14999999Y-76402925D02*
X15057142Y-76460068D01*
X15057142Y-76460068D02*
X15114285Y-76402925D01*
X15114285Y-76402925D02*
X15057142Y-76345782D01*
X15057142Y-76345782D02*
X15057142Y-76460068D01*
X16085714Y-77488640D02*
X15971428Y-77545782D01*
X15971428Y-77545782D02*
X15742857Y-77545782D01*
X15742857Y-77545782D02*
X15628571Y-77488640D01*
X15628571Y-77488640D02*
X15571428Y-77374354D01*
X15571428Y-77374354D02*
X15571428Y-76917211D01*
X15571428Y-76917211D02*
X15628571Y-76802925D01*
X15628571Y-76802925D02*
X15742857Y-76745782D01*
X15742857Y-76745782D02*
X15971428Y-76745782D01*
X15971428Y-76745782D02*
X16085714Y-76802925D01*
X16085714Y-76802925D02*
X16142857Y-76917211D01*
X16142857Y-76917211D02*
X16142857Y-77031497D01*
X16142857Y-77031497D02*
X15571428Y-77145782D01*
X16828570Y-77545782D02*
X16714285Y-77488640D01*
X16714285Y-77488640D02*
X16657142Y-77374354D01*
X16657142Y-77374354D02*
X16657142Y-76345782D01*
X17799999Y-77545782D02*
X17799999Y-76345782D01*
X17799999Y-77488640D02*
X17685713Y-77545782D01*
X17685713Y-77545782D02*
X17457141Y-77545782D01*
X17457141Y-77545782D02*
X17342856Y-77488640D01*
X17342856Y-77488640D02*
X17285713Y-77431497D01*
X17285713Y-77431497D02*
X17228570Y-77317211D01*
X17228570Y-77317211D02*
X17228570Y-76974354D01*
X17228570Y-76974354D02*
X17285713Y-76860068D01*
X17285713Y-76860068D02*
X17342856Y-76802925D01*
X17342856Y-76802925D02*
X17457141Y-76745782D01*
X17457141Y-76745782D02*
X17685713Y-76745782D01*
X17685713Y-76745782D02*
X17799999Y-76802925D01*
D11*
X-3428571Y-74909638D02*
X-3428571Y-72909638D01*
X-3428571Y-72909638D02*
X-2285714Y-74909638D01*
X-2285714Y-74909638D02*
X-2285714Y-72909638D01*
X-1333333Y-73862019D02*
X-666666Y-73862019D01*
X-380952Y-74909638D02*
X-1333333Y-74909638D01*
X-1333333Y-74909638D02*
X-1333333Y-72909638D01*
X-1333333Y-72909638D02*
X-380952Y-72909638D01*
X857142Y-72909638D02*
X1238095Y-72909638D01*
X1238095Y-72909638D02*
X1428571Y-73004876D01*
X1428571Y-73004876D02*
X1619047Y-73195352D01*
X1619047Y-73195352D02*
X1714285Y-73576304D01*
X1714285Y-73576304D02*
X1714285Y-74242971D01*
X1714285Y-74242971D02*
X1619047Y-74623923D01*
X1619047Y-74623923D02*
X1428571Y-74814400D01*
X1428571Y-74814400D02*
X1238095Y-74909638D01*
X1238095Y-74909638D02*
X857142Y-74909638D01*
X857142Y-74909638D02*
X666666Y-74814400D01*
X666666Y-74814400D02*
X476190Y-74623923D01*
X476190Y-74623923D02*
X380952Y-74242971D01*
X380952Y-74242971D02*
X380952Y-73576304D01*
X380952Y-73576304D02*
X476190Y-73195352D01*
X476190Y-73195352D02*
X666666Y-73004876D01*
X666666Y-73004876D02*
X857142Y-72909638D01*
X3523809Y-74909638D02*
X2571428Y-74909638D01*
X2571428Y-74909638D02*
X2571428Y-72909638D01*
X4190476Y-74909638D02*
X4190476Y-72909638D01*
X5142857Y-74909638D02*
X5142857Y-72909638D01*
X5142857Y-72909638D02*
X6285714Y-74909638D01*
X6285714Y-74909638D02*
X6285714Y-72909638D01*
X7238095Y-74909638D02*
X7238095Y-72909638D01*
X8380952Y-74909638D02*
X7523809Y-73766780D01*
X8380952Y-72909638D02*
X7238095Y-74052495D01*
X10476191Y-72909638D02*
X11142857Y-74909638D01*
X11142857Y-74909638D02*
X11809524Y-72909638D01*
X13523810Y-74909638D02*
X12380953Y-74909638D01*
X12952381Y-74909638D02*
X12952381Y-72909638D01*
X12952381Y-72909638D02*
X12761905Y-73195352D01*
X12761905Y-73195352D02*
X12571429Y-73385828D01*
X12571429Y-73385828D02*
X12380953Y-73481066D01*
M02*
